<svg xmlns="http://www.w3.org/2000/svg" viewBox="0 0 2844.82 835.79"><defs><style>.cls-1{isolation:isolate;}.cls-2{mix-blend-mode:multiply;}.cls-3{opacity:0.1;}.cls-4{fill:#004e86;}.cls-5{opacity:0.2;}</style></defs><g class="cls-1"><g id="Layer_2" data-name="Layer 2"><g id="Layer_1-2" data-name="Layer 1"><g class="cls-2"><g class="cls-3"><rect class="cls-4" x="362.16" y="776.21" width="310.31" height="7.87" transform="translate(1034.64 1560.3) rotate(180)"/><rect class="cls-4" x="11.79" y="535.65" width="310.31" height="7.87" transform="translate(333.89 1079.16) rotate(180)"/><rect class="cls-4" x="9.85" y="418.55" width="245.27" height="5.91" transform="translate(264.96 843) rotate(180)"/><rect class="cls-4" x="844.13" y="788.98" width="61.18" height="8.22" transform="translate(1749.43 1586.18) rotate(-180)"/><rect class="cls-4" x="563.38" y="450.83" width="44.65" height="10.12"/><rect class="cls-4" x="316.23" y="450.83" width="128.14" height="10.12"/><rect class="cls-4" x="468.9" y="450.83" width="71.4" height="10.12"/><rect class="cls-4" x="838.02" y="560.07" width="86.06" height="9.55"/><rect class="cls-4" x="415.91" y="596.13" width="256.59" height="10.36"/><rect class="cls-4" x="118.91" y="824.42" width="215.36" height="7.46"/><rect class="cls-4" x="375.89" y="744.36" width="65.52" height="10.52"/><rect class="cls-4" x="57.88" y="744.36" width="188.02" height="10.52"/><rect class="cls-4" x="252.77" y="744.36" width="104.77" height="10.52"/><rect class="cls-4" x="17.77" y="640.25" width="40.01" height="6.53" transform="translate(75.55 1287.03) rotate(-180)"/><rect class="cls-4" x="74.63" y="640.25" width="29.49" height="6.53" transform="translate(178.76 1287.03) rotate(-180)"/><rect class="cls-4" x="110.22" y="640.15" width="65.59" height="6.53" transform="translate(286.03 1286.84) rotate(-180)"/><rect class="cls-4" x="681.98" y="686.85" width="40.01" height="6.53"/><rect class="cls-4" x="641.79" y="686.85" width="29.49" height="6.53"/><rect class="cls-4" x="565.02" y="686.95" width="65.59" height="6.53"/></g><g class="cls-3"><rect class="cls-4" x="476.18" y="383" width="351.75" height="7.87" transform="translate(1304.11 773.87) rotate(180)"/><rect class="cls-4" x="2.2" y="142.43" width="351.75" height="7.87" transform="translate(356.15 292.74) rotate(180)"/><rect class="cls-4" y="25.33" width="278.02" height="5.91" transform="translate(278.02 56.57) rotate(180)"/><rect class="cls-4" x="945.69" y="395.77" width="69.35" height="8.22" transform="translate(1960.73 799.75) rotate(-180)"/><rect class="cls-4" x="744.5" y="79.57" width="50.61" height="10.12"/><rect class="cls-4" x="464.35" y="79.57" width="145.25" height="10.12"/><rect class="cls-4" x="637.4" y="79.57" width="80.94" height="10.12"/><rect class="cls-4" x="913.89" y="166.86" width="97.55" height="9.55"/><rect class="cls-4" x="565.02" y="226.69" width="290.86" height="10.36"/><rect class="cls-4" x="123.63" y="431.21" width="244.12" height="7.46"/><rect class="cls-4" x="414.92" y="351.15" width="74.27" height="10.52"/><rect class="cls-4" x="54.44" y="351.15" width="213.13" height="10.52"/><rect class="cls-4" x="275.37" y="351.15" width="118.76" height="10.52"/><rect class="cls-4" x="8.98" y="247.03" width="45.35" height="6.53" transform="translate(63.32 500.6) rotate(-180)"/><rect class="cls-4" x="73.44" y="247.03" width="33.43" height="6.53" transform="translate(180.3 500.6) rotate(-180)"/><rect class="cls-4" x="113.78" y="246.94" width="74.35" height="6.53" transform="translate(301.9 500.41) rotate(-180)"/><rect class="cls-4" x="761.89" y="293.64" width="45.35" height="6.53"/><rect class="cls-4" x="716.34" y="293.64" width="33.43" height="6.53"/><rect class="cls-4" x="629.31" y="293.74" width="74.35" height="6.53"/></g><g class="cls-5"><rect class="cls-4" x="352.8" y="641.9" width="292.4" height="12.26" transform="translate(997.99 1296.07) rotate(180)"/><rect class="cls-4" x="22.65" y="267.18" width="292.4" height="12.26" transform="translate(337.7 546.61) rotate(180)"/><rect class="cls-4" x="20.82" y="84.77" width="231.11" height="9.2" transform="translate(272.75 178.75) rotate(180)"/><rect class="cls-4" x="806.94" y="661.79" width="57.65" height="12.8" transform="translate(1671.52 1336.38) rotate(-180)"/><rect class="cls-4" x="542.4" y="135.07" width="42.07" height="15.76"/><rect class="cls-4" x="309.51" y="135.07" width="120.74" height="15.76"/><rect class="cls-4" x="453.37" y="135.07" width="67.28" height="15.76"/><rect class="cls-4" x="871.94" y="305.22" width="81.09" height="14.87"/><rect class="cls-4" x="381.03" y="398.43" width="241.78" height="16.13"/><rect class="cls-4" x="123.59" y="716.99" width="202.93" height="11.62"/><rect class="cls-4" x="365.73" y="592.29" width="61.73" height="16.39"/><rect class="cls-4" x="66.08" y="592.29" width="177.17" height="16.39"/><rect class="cls-4" x="249.72" y="592.29" width="98.72" height="16.39"/><rect class="cls-4" x="28.29" y="430.11" width="37.7" height="10.18" transform="translate(94.27 870.4) rotate(-180)"/><rect class="cls-4" x="81.87" y="430.11" width="27.79" height="10.18" transform="translate(191.52 870.4) rotate(-180)"/><rect class="cls-4" x="115.4" y="429.96" width="61.8" height="10.18" transform="translate(292.6 870.1) rotate(-180)"/><rect class="cls-4" x="654.15" y="502.71" width="37.7" height="10.18"/><rect class="cls-4" x="616.28" y="502.71" width="27.79" height="10.18"/><rect class="cls-4" x="543.94" y="502.86" width="61.8" height="10.18"/></g></g><g class="cls-2"><g class="cls-3"><rect class="cls-4" x="1068.88" y="77.03" width="310.31" height="7.87" transform="translate(2448.07 161.94) rotate(-180)"/><rect class="cls-4" x="718.5" y="317.6" width="310.31" height="7.87" transform="translate(1747.32 643.08) rotate(-180)"/><rect class="cls-4" x="716.56" y="436.66" width="245.27" height="5.91" transform="translate(1678.39 879.24) rotate(-180)"/><rect class="cls-4" x="1550.85" y="63.92" width="61.18" height="8.22" transform="translate(3162.87 136.06) rotate(180)"/><rect class="cls-4" x="1270.1" y="400.17" width="44.65" height="10.12"/><rect class="cls-4" x="1022.95" y="400.17" width="128.14" height="10.12"/><rect class="cls-4" x="1175.61" y="400.17" width="71.4" height="10.12"/><rect class="cls-4" x="1544.73" y="291.5" width="86.06" height="9.55"/><rect class="cls-4" x="1122.62" y="254.63" width="256.59" height="10.36"/><rect class="cls-4" x="825.63" y="29.24" width="215.36" height="7.46"/><rect class="cls-4" x="1082.6" y="106.23" width="65.52" height="10.52"/><rect class="cls-4" x="764.59" y="106.23" width="188.02" height="10.52"/><rect class="cls-4" x="959.49" y="106.23" width="104.77" height="10.52"/><rect class="cls-4" x="724.49" y="214.34" width="40.01" height="6.53" transform="translate(1488.99 435.21) rotate(180)"/><rect class="cls-4" x="781.35" y="214.34" width="29.49" height="6.53" transform="translate(1592.19 435.21) rotate(180)"/><rect class="cls-4" x="816.94" y="214.43" width="65.59" height="6.53" transform="translate(1699.46 435.4) rotate(180)"/><rect class="cls-4" x="1388.69" y="167.73" width="40.01" height="6.53"/><rect class="cls-4" x="1348.51" y="167.73" width="29.49" height="6.53"/><rect class="cls-4" x="1271.73" y="167.64" width="65.59" height="6.53"/></g><g class="cls-3"><rect class="cls-4" x="1182.9" y="470.25" width="351.75" height="7.87" transform="translate(2717.54 948.37) rotate(-180)"/><rect class="cls-4" x="708.92" y="710.82" width="351.75" height="7.87" transform="translate(1769.59 1429.5) rotate(-180)"/><rect class="cls-4" x="706.72" y="829.88" width="278.02" height="5.91" transform="translate(1691.45 1665.67) rotate(-180)"/><rect class="cls-4" x="1652.41" y="457.13" width="69.35" height="8.22" transform="translate(3374.17 922.49) rotate(180)"/><rect class="cls-4" x="1451.22" y="771.44" width="50.61" height="10.12"/><rect class="cls-4" x="1171.06" y="771.44" width="145.25" height="10.12"/><rect class="cls-4" x="1344.12" y="771.44" width="80.94" height="10.12"/><rect class="cls-4" x="1620.6" y="684.72" width="97.55" height="9.55"/><rect class="cls-4" x="1271.73" y="624.07" width="290.86" height="10.36"/><rect class="cls-4" x="830.35" y="422.46" width="244.12" height="7.46"/><rect class="cls-4" x="1121.64" y="499.44" width="74.27" height="10.52"/><rect class="cls-4" x="761.16" y="499.44" width="213.13" height="10.52"/><rect class="cls-4" x="982.09" y="499.44" width="118.76" height="10.52"/><rect class="cls-4" x="715.7" y="607.55" width="45.35" height="6.53" transform="translate(1476.75 1221.64) rotate(180)"/><rect class="cls-4" x="780.16" y="607.55" width="33.43" height="6.53" transform="translate(1593.74 1221.64) rotate(180)"/><rect class="cls-4" x="820.49" y="607.65" width="74.35" height="6.53" transform="translate(1715.34 1221.83) rotate(180)"/><rect class="cls-4" x="1468.61" y="560.95" width="45.35" height="6.53"/><rect class="cls-4" x="1423.05" y="560.95" width="33.43" height="6.53"/><rect class="cls-4" x="1336.03" y="560.85" width="74.35" height="6.53"/></g><g class="cls-5"><rect class="cls-4" x="1059.51" y="206.95" width="292.4" height="12.26" transform="translate(2411.43 426.17) rotate(-180)"/><rect class="cls-4" x="729.37" y="581.68" width="292.4" height="12.26" transform="translate(1751.13 1175.63) rotate(-180)"/><rect class="cls-4" x="727.54" y="767.14" width="231.11" height="9.2" transform="translate(1686.18 1543.49) rotate(-180)"/><rect class="cls-4" x="1513.65" y="186.53" width="57.65" height="12.8" transform="translate(3084.95 385.86) rotate(180)"/><rect class="cls-4" x="1249.11" y="710.3" width="42.07" height="15.76"/><rect class="cls-4" x="1016.23" y="710.3" width="120.74" height="15.76"/><rect class="cls-4" x="1160.09" y="710.3" width="67.28" height="15.76"/><rect class="cls-4" x="1578.66" y="541.03" width="81.09" height="14.87"/><rect class="cls-4" x="1087.75" y="446.56" width="241.78" height="16.13"/><rect class="cls-4" x="830.3" y="132.51" width="202.93" height="11.62"/><rect class="cls-4" x="1072.44" y="252.43" width="61.73" height="16.39"/><rect class="cls-4" x="772.79" y="252.43" width="177.17" height="16.39"/><rect class="cls-4" x="956.44" y="252.43" width="98.72" height="16.39"/><rect class="cls-4" x="735" y="420.83" width="37.7" height="10.18" transform="translate(1507.71 851.84) rotate(180)"/><rect class="cls-4" x="788.58" y="420.83" width="27.79" height="10.18" transform="translate(1604.95 851.84) rotate(180)"/><rect class="cls-4" x="822.11" y="420.98" width="61.8" height="10.18" transform="translate(1706.03 852.14) rotate(180)"/><rect class="cls-4" x="1360.86" y="348.23" width="37.7" height="10.18"/><rect class="cls-4" x="1323" y="348.23" width="27.79" height="10.18"/><rect class="cls-4" x="1250.66" y="348.08" width="61.8" height="10.18"/></g></g><g class="cls-2"><g class="cls-3"><rect class="cls-4" x="2172.35" y="750.88" width="310.31" height="7.87"/><rect class="cls-4" x="2522.72" y="510.31" width="310.31" height="7.87"/><rect class="cls-4" x="2589.71" y="393.21" width="245.27" height="5.91"/><rect class="cls-4" x="1939.52" y="763.65" width="61.18" height="8.22"/><rect class="cls-4" x="2236.79" y="425.5" width="44.65" height="10.12" transform="translate(4518.23 861.12) rotate(-180)"/><rect class="cls-4" x="2400.45" y="425.5" width="128.14" height="10.12" transform="translate(4929.04 861.12) rotate(-180)"/><rect class="cls-4" x="2304.52" y="425.5" width="71.4" height="10.12" transform="translate(4680.45 861.12) rotate(-180)"/><rect class="cls-4" x="1920.75" y="534.74" width="86.06" height="9.55" transform="translate(3927.56 1079.03) rotate(-180)"/><rect class="cls-4" x="2172.33" y="570.8" width="256.59" height="10.36" transform="translate(4601.24 1151.96) rotate(-180)"/><rect class="cls-4" x="2510.55" y="799.09" width="215.36" height="7.46" transform="translate(5236.46 1605.63) rotate(-180)"/><rect class="cls-4" x="2403.42" y="719.03" width="65.52" height="10.52" transform="translate(4872.36 1448.59) rotate(-180)"/><rect class="cls-4" x="2598.92" y="719.03" width="188.02" height="10.52" transform="translate(5385.87 1448.59) rotate(-180)"/><rect class="cls-4" x="2487.28" y="719.03" width="104.77" height="10.52" transform="translate(5079.33 1448.59) rotate(-180)"/><rect class="cls-4" x="2787.04" y="614.91" width="40.01" height="6.53"/><rect class="cls-4" x="2740.7" y="614.91" width="29.49" height="6.53"/><rect class="cls-4" x="2669.01" y="614.82" width="65.59" height="6.53"/><rect class="cls-4" x="2122.84" y="661.52" width="40.01" height="6.53" transform="translate(4285.68 1329.58) rotate(180)"/><rect class="cls-4" x="2173.54" y="661.52" width="29.49" height="6.53" transform="translate(4376.57 1329.58) rotate(180)"/><rect class="cls-4" x="2214.21" y="661.62" width="65.59" height="6.53" transform="translate(4494.02 1329.77) rotate(-180)"/></g><g class="cls-3"><rect class="cls-4" x="2016.89" y="357.67" width="351.75" height="7.87"/><rect class="cls-4" x="2490.87" y="117.1" width="351.75" height="7.87"/><rect class="cls-4" x="2566.8" width="278.02" height="5.91"/><rect class="cls-4" x="1829.78" y="370.43" width="69.35" height="8.22"/><rect class="cls-4" x="2049.71" y="54.24" width="50.61" height="10.12" transform="translate(4150.03 118.59) rotate(-180)"/><rect class="cls-4" x="2235.22" y="54.24" width="145.25" height="10.12" transform="translate(4615.7 118.59) rotate(-180)"/><rect class="cls-4" x="2126.48" y="54.24" width="80.94" height="10.12" transform="translate(4333.91 118.59) rotate(-180)"/><rect class="cls-4" x="1833.39" y="141.53" width="97.55" height="9.55" transform="translate(3764.32 292.6) rotate(-180)"/><rect class="cls-4" x="1988.95" y="201.36" width="290.86" height="10.36" transform="translate(4268.76 413.08) rotate(-180)"/><rect class="cls-4" x="2477.07" y="405.87" width="244.12" height="7.46" transform="translate(5198.27 819.21) rotate(-180)"/><rect class="cls-4" x="2355.64" y="325.82" width="74.27" height="10.52" transform="translate(4785.54 662.16) rotate(-180)"/><rect class="cls-4" x="2577.25" y="325.82" width="213.13" height="10.52" transform="translate(5367.63 662.16) rotate(-180)"/><rect class="cls-4" x="2450.69" y="325.82" width="118.76" height="10.52" transform="translate(5020.15 662.16) rotate(-180)"/><rect class="cls-4" x="2790.49" y="221.7" width="45.35" height="6.53"/><rect class="cls-4" x="2737.96" y="221.7" width="33.43" height="6.53"/><rect class="cls-4" x="2656.7" y="221.61" width="74.35" height="6.53"/><rect class="cls-4" x="2037.58" y="268.31" width="45.35" height="6.53" transform="translate(4120.52 543.15) rotate(180)"/><rect class="cls-4" x="2095.06" y="268.31" width="33.43" height="6.53" transform="translate(4223.54 543.15) rotate(180)"/><rect class="cls-4" x="2141.16" y="268.4" width="74.35" height="6.53" transform="translate(4356.68 543.34) rotate(-180)"/></g><g class="cls-5"><rect class="cls-4" x="2199.63" y="616.57" width="292.4" height="12.26"/><rect class="cls-4" x="2529.78" y="241.84" width="292.4" height="12.26"/><rect class="cls-4" x="2592.9" y="59.44" width="231.11" height="9.2"/><rect class="cls-4" x="1980.24" y="636.46" width="57.65" height="12.8"/><rect class="cls-4" x="2260.35" y="109.73" width="42.07" height="15.76" transform="translate(4562.78 235.22) rotate(-180)"/><rect class="cls-4" x="2414.57" y="109.73" width="120.74" height="15.76" transform="translate(4949.87 235.22) rotate(-180)"/><rect class="cls-4" x="2324.18" y="109.73" width="67.28" height="15.76" transform="translate(4715.63 235.22) rotate(-180)"/><rect class="cls-4" x="1891.79" y="279.89" width="81.09" height="14.87" transform="translate(3864.67 574.65) rotate(-180)"/><rect class="cls-4" x="2222.01" y="373.1" width="241.78" height="16.13" transform="translate(4685.8 762.33) rotate(-180)"/><rect class="cls-4" x="2518.31" y="691.66" width="202.93" height="11.62" transform="translate(5239.54 1394.94) rotate(-180)"/><rect class="cls-4" x="2417.36" y="566.96" width="61.73" height="16.39" transform="translate(4896.46 1150.31) rotate(-180)"/><rect class="cls-4" x="2601.58" y="566.96" width="177.17" height="16.39" transform="translate(5380.32 1150.31) rotate(-180)"/><rect class="cls-4" x="2496.38" y="566.96" width="98.72" height="16.39" transform="translate(5091.48 1150.31) rotate(-180)"/><rect class="cls-4" x="2778.84" y="404.78" width="37.7" height="10.18"/><rect class="cls-4" x="2735.17" y="404.78" width="27.79" height="10.18"/><rect class="cls-4" x="2667.62" y="404.63" width="61.8" height="10.18"/><rect class="cls-4" x="2152.98" y="477.38" width="37.7" height="10.18" transform="translate(4343.65 964.93) rotate(180)"/><rect class="cls-4" x="2200.75" y="477.38" width="27.79" height="10.18" transform="translate(4429.29 964.93) rotate(180)"/><rect class="cls-4" x="2239.08" y="477.53" width="61.8" height="10.18" transform="translate(4539.96 965.23) rotate(180)"/></g></g><g class="cls-2"><g class="cls-3"><rect class="cls-4" x="1465.63" y="51.7" width="310.31" height="7.87"/><rect class="cls-4" x="1816.01" y="292.27" width="310.31" height="7.87"/><rect class="cls-4" x="1882.99" y="411.33" width="245.27" height="5.91"/><rect class="cls-4" x="1232.8" y="38.59" width="61.18" height="8.22"/><rect class="cls-4" x="1530.07" y="374.84" width="44.65" height="10.12" transform="translate(3104.8 759.79) rotate(-180)"/><rect class="cls-4" x="1693.74" y="374.84" width="128.14" height="10.12" transform="translate(3515.61 759.79) rotate(-180)"/><rect class="cls-4" x="1597.81" y="374.84" width="71.4" height="10.12" transform="translate(3267.02 759.79) rotate(180)"/><rect class="cls-4" x="1214.03" y="266.17" width="86.06" height="9.55" transform="translate(2514.12 541.89) rotate(-180)"/><rect class="cls-4" x="1465.61" y="229.3" width="256.59" height="10.36" transform="translate(3187.81 468.95) rotate(-180)"/><rect class="cls-4" x="1803.83" y="3.91" width="215.36" height="7.46" transform="translate(3823.03 15.28) rotate(-180)"/><rect class="cls-4" x="1696.7" y="80.9" width="65.52" height="10.52" transform="translate(3458.92 172.32) rotate(-180)"/><rect class="cls-4" x="1892.21" y="80.9" width="188.02" height="10.52" transform="translate(3972.43 172.32) rotate(-180)"/><rect class="cls-4" x="1780.56" y="80.9" width="104.77" height="10.52" transform="translate(3665.89 172.32) rotate(-180)"/><rect class="cls-4" x="2080.32" y="189.01" width="40.01" height="6.53"/><rect class="cls-4" x="2033.98" y="189.01" width="29.49" height="6.53"/><rect class="cls-4" x="1962.29" y="189.1" width="65.59" height="6.53"/><rect class="cls-4" x="1416.12" y="142.4" width="40.01" height="6.53" transform="translate(2872.25 291.33) rotate(-180)"/><rect class="cls-4" x="1466.82" y="142.4" width="29.49" height="6.53" transform="translate(2963.14 291.33) rotate(-180)"/><rect class="cls-4" x="1507.5" y="142.3" width="65.59" height="6.53" transform="translate(3080.58 291.14) rotate(-180)"/></g><g class="cls-3"><rect class="cls-4" x="1310.17" y="444.92" width="351.75" height="7.87"/><rect class="cls-4" x="1784.15" y="685.48" width="351.75" height="7.87"/><rect class="cls-4" x="1860.09" y="804.55" width="278.02" height="5.91"/><rect class="cls-4" x="1123.07" y="431.8" width="69.35" height="8.22"/><rect class="cls-4" x="1342.99" y="746.11" width="50.61" height="10.12" transform="translate(2736.59 1502.33) rotate(-180)"/><rect class="cls-4" x="1528.51" y="746.11" width="145.25" height="10.12" transform="translate(3202.26 1502.33) rotate(-180)"/><rect class="cls-4" x="1419.77" y="746.11" width="80.94" height="10.12" transform="translate(2920.47 1502.33) rotate(-180)"/><rect class="cls-4" x="1126.67" y="659.38" width="97.55" height="9.55" transform="translate(2350.89 1328.31) rotate(-180)"/><rect class="cls-4" x="1282.23" y="598.73" width="290.86" height="10.36" transform="translate(2855.32 1207.83) rotate(-180)"/><rect class="cls-4" x="1770.35" y="397.12" width="244.12" height="7.46" transform="translate(3784.83 801.71) rotate(-180)"/><rect class="cls-4" x="1648.92" y="474.11" width="74.27" height="10.52" transform="translate(3372.11 958.75) rotate(-180)"/><rect class="cls-4" x="1870.53" y="474.11" width="213.13" height="10.52" transform="translate(3954.19 958.75) rotate(-180)"/><rect class="cls-4" x="1743.98" y="474.11" width="118.76" height="10.52" transform="translate(3606.71 958.75) rotate(-180)"/><rect class="cls-4" x="2083.77" y="582.22" width="45.35" height="6.53"/><rect class="cls-4" x="2031.24" y="582.22" width="33.43" height="6.53"/><rect class="cls-4" x="1949.98" y="582.32" width="74.35" height="6.53"/><rect class="cls-4" x="1330.86" y="535.61" width="45.35" height="6.53" transform="translate(2707.08 1077.76) rotate(-180)"/><rect class="cls-4" x="1388.34" y="535.61" width="33.43" height="6.53" transform="translate(2810.11 1077.76) rotate(-180)"/><rect class="cls-4" x="1434.45" y="535.52" width="74.35" height="6.53" transform="translate(2943.24 1077.57) rotate(-180)"/></g><g class="cls-5"><rect class="cls-4" x="1492.91" y="181.62" width="292.4" height="12.26"/><rect class="cls-4" x="1823.06" y="556.35" width="292.4" height="12.26"/><rect class="cls-4" x="1886.18" y="741.81" width="231.11" height="9.2"/><rect class="cls-4" x="1273.52" y="161.2" width="57.65" height="12.8"/><rect class="cls-4" x="1553.64" y="684.97" width="42.07" height="15.76" transform="translate(3149.34 1385.69) rotate(-180)"/><rect class="cls-4" x="1707.85" y="684.97" width="120.74" height="15.76" transform="translate(3536.44 1385.69) rotate(-180)"/><rect class="cls-4" x="1617.46" y="684.97" width="67.28" height="15.76" transform="translate(3302.2 1385.69) rotate(180)"/><rect class="cls-4" x="1185.07" y="515.7" width="81.09" height="14.87" transform="translate(2451.24 1046.26) rotate(180)"/><rect class="cls-4" x="1515.29" y="421.22" width="241.78" height="16.13" transform="translate(3272.37 858.58) rotate(-180)"/><rect class="cls-4" x="1811.59" y="107.18" width="202.93" height="11.62" transform="translate(3826.11 225.97) rotate(-180)"/><rect class="cls-4" x="1710.64" y="227.1" width="61.73" height="16.39" transform="translate(3483.02 470.6) rotate(-180)"/><rect class="cls-4" x="1894.86" y="227.1" width="177.17" height="16.39" transform="translate(3966.89 470.6) rotate(-180)"/><rect class="cls-4" x="1789.66" y="227.1" width="98.72" height="16.39" transform="translate(3678.04 470.6) rotate(180)"/><rect class="cls-4" x="2072.12" y="395.5" width="37.7" height="10.18"/><rect class="cls-4" x="2028.45" y="395.5" width="27.79" height="10.18"/><rect class="cls-4" x="1960.9" y="395.65" width="61.8" height="10.18"/><rect class="cls-4" x="1446.26" y="322.9" width="37.7" height="10.18" transform="translate(2930.22 655.98) rotate(-180)"/><rect class="cls-4" x="1494.04" y="322.9" width="27.79" height="10.18" transform="translate(3015.86 655.98) rotate(-180)"/><rect class="cls-4" x="1532.36" y="322.75" width="61.8" height="10.18" transform="translate(3126.53 655.68) rotate(-180)"/></g></g></g></g></g>

<animate 
           xlink:href="#Layer_2"
           attributeName="cx"
           from="50"
           to="450" 
           dur="5s"
           begin="0s"
           fill="freeze" 
           id="circ-anim"/>

</svg>