<svg width="57" height="57" viewBox="0 0 57 57" fill="none" xmlns="http://www.w3.org/2000/svg">
<path d="M2.28522 43.4014H0V7.86042C0 5.99645 1.2683 4.60609 2.28522 3.48923C2.40493 3.35764 2.52245 3.22877 2.63562 3.10154C2.69003 3.04173 2.74444 2.97974 2.79885 2.91721C3.82721 1.75576 5.37735 0 7.86552 0H43.4296V2.28374H7.86552C6.40842 2.28374 5.40238 3.42561 4.51604 4.42828L4.34573 4.62186C4.22658 4.75562 4.10252 4.89373 3.97629 5.03021C3.1449 5.93881 2.28522 6.88113 2.28522 7.86042V43.4014Z" fill="#F44247"/>
<path d="M5.03571 46.7716H3.94751V11.2306C3.94751 9.59933 5.07978 8.35686 6.07875 7.26121C6.20063 7.12799 6.31979 6.99749 6.43459 6.86808L6.59782 6.68212C7.61094 5.53699 8.99677 3.96936 11.2151 3.96936H46.7791V5.05686H11.2151C9.48754 5.05686 8.3384 6.35805 7.41561 7.40367L7.24803 7.5929C7.12996 7.72503 7.00753 7.85933 6.88293 7.99581C5.97483 8.99142 5.03571 10.0213 5.03571 11.2322V46.7716Z" fill="#004E86"/>
<path d="M46.4059 53.6897H10.8418V52.6022H46.4059C48.1328 52.6022 49.282 51.301 50.2053 50.2554C50.2597 50.1912 50.3179 50.1276 50.3729 50.0662C50.4904 49.934 50.6128 49.7997 50.7374 49.6627C51.6455 48.6671 52.5874 47.6378 52.5874 46.4269V10.8859H53.6756V46.4269C53.6756 48.0581 52.5433 49.3006 51.5449 50.3962C51.423 50.5294 51.3038 50.6599 51.189 50.7893C51.1346 50.8497 51.0802 50.9122 51.0258 50.9753C50.0094 52.1204 48.6242 53.6897 46.4059 53.6897Z" fill="#004E86"/>
<path d="M8.49055 49.9459H7.40235V14.5844C7.35773 12.9423 8.54224 11.6427 9.49496 10.5982C9.61303 10.4682 9.72947 10.3404 9.84155 10.2175L10.0048 10.031C11.0163 8.88591 12.4021 7.31665 14.6204 7.31665H50.0316V8.40415H14.622C12.8945 8.40415 11.7454 9.70534 10.822 10.751L10.6544 10.9402C10.5396 11.0691 10.4205 11.2001 10.2991 11.3333C9.39212 12.3278 8.45464 13.3566 8.49 14.5632V49.9459H8.49055Z" fill="#004E86"/>
<path d="M49.7309 57H14.1685V55.9125H49.7309C51.4584 55.9125 52.6075 54.6113 53.5309 53.5657L53.6985 53.3765C53.816 53.2443 53.9384 53.11 54.063 52.973C54.9711 51.9779 55.9102 50.9481 55.9102 49.7372V14.1962H56.9984V49.7372C56.9984 51.3684 55.8662 52.6109 54.8672 53.7065C54.7459 53.8397 54.6262 53.9708 54.5113 54.0996L54.3481 54.2856C53.3366 55.4307 51.9508 57 49.7309 57Z" fill="#004E86"/>
<path d="M42.9242 50.7262L7.3999 50.7072V48.4234L42.9215 48.4425C44.3786 48.4425 45.3847 47.3033 46.2721 46.2979C46.3265 46.2332 46.3858 46.1691 46.4413 46.1071C46.5605 45.9733 46.6845 45.8352 46.8108 45.6987C47.6421 44.7869 48.5018 43.8445 48.5018 42.8652L48.5078 7.31067H50.793L50.787 42.8652C50.787 44.7287 49.5187 46.119 48.5018 47.2364C48.3821 47.3675 48.2641 47.4969 48.1514 47.6236L47.9882 47.8085C46.9631 48.9704 45.413 50.7262 42.9242 50.7262Z" fill="#F44247"/>
</svg>
