<svg width="696" height="345" viewBox="0 0 696 345" fill="none" xmlns="http://www.w3.org/2000/svg">
<path d="M2.25166 176.635H0.221924V28.9421C0.221924 22.6401 4.74373 17.6712 8.73104 13.2853C9.23848 12.7294 9.73689 12.1803 10.215 11.6425L10.8916 10.863C14.9398 6.28049 20.4697 0.0032959 29.1029 0.0032959H176.514V2.03694H29.1029C21.3853 2.03694 16.417 7.68596 12.4252 12.2052L11.7238 12.9915C11.2389 13.5384 10.736 14.092 10.2218 14.6569C6.49156 18.758 2.25166 23.4264 2.25166 28.9421V176.635Z" fill="#F44247"/>
<path d="M16.1328 190.64H14.103V42.9359C14.103 36.6339 18.6136 31.665 22.6144 27.2814C23.1218 26.7232 23.6202 26.1764 24.0984 25.6364C24.3239 25.3833 24.5494 25.1242 24.7749 24.8591C28.8209 20.2834 34.3508 14.0129 42.9862 14.0129H190.397V16.0466H42.9862C35.2664 16.0466 30.2981 21.6956 26.2972 26.2148C26.0627 26.4815 25.8319 26.7428 25.6049 26.9989C25.1223 27.5435 24.6171 28.0971 24.1051 28.662C20.3727 32.7677 16.1328 37.4315 16.1328 42.9359V190.64Z" fill="#004E86"/>
<path d="M29.9507 203.75H27.921V56.785C27.7406 50.4581 32.2737 45.4711 36.2655 41.0739C36.7594 40.5316 37.2465 39.9961 37.7134 39.4696C37.9389 39.2165 38.1644 38.9574 38.3899 38.6923C42.4269 34.1098 47.9568 27.8326 56.5922 27.8326H203.376V29.8663H56.6035C48.8837 29.8663 43.9153 35.5153 39.9145 40.0345L39.2379 40.8209C38.7643 41.3541 38.2727 41.8942 37.7742 42.4455C34.0305 46.5603 29.7906 51.2241 29.953 56.7398V203.75H29.9507Z" fill="#004E86"/>
<path d="M474.601 344.388V342.34L623.29 341.824C631.075 341.797 636.068 336.1 640.078 331.523L640.761 330.734C641.248 330.181 641.755 329.622 642.269 329.053C646.029 324.901 650.288 320.195 650.27 314.644L649.753 165.955H651.801L652.317 314.644C652.337 320.989 647.795 326.007 643.789 330.434C643.279 330.996 642.776 331.551 642.296 332.094L641.614 332.879C637.558 337.508 632.003 343.846 623.293 343.878L474.601 344.388Z" fill="#F44247"/>
<path d="M460.549 330.338V328.291L609.239 327.774C617.025 327.747 622.016 322.051 626.027 317.474L626.709 316.685C627.196 316.132 627.703 315.572 628.22 315.004C631.978 310.852 636.236 306.145 636.218 300.595L635.702 171.985H637.749L638.261 300.588C638.284 306.933 633.741 311.951 629.733 316.378C629.223 316.939 628.723 317.495 628.24 318.038L627.558 318.823C623.502 323.452 617.947 329.792 609.236 329.822L460.549 330.338Z" fill="#004E86"/>
<path d="M447.403 316.464V314.417L595.444 313.903C603.231 313.875 608.224 308.181 612.235 303.605C612.462 303.336 612.69 303.07 612.917 302.813C613.393 302.276 613.886 301.73 614.387 301.175C618.147 297.019 622.41 292.303 622.226 286.755V286.737L621.712 166.285H623.759L624.273 286.723C624.478 293.093 619.924 298.127 615.906 302.569C615.41 303.118 614.921 303.657 614.453 304.189C614.225 304.444 613.998 304.708 613.77 304.974C609.714 309.603 604.159 315.941 595.451 315.97L447.403 316.464Z" fill="#004E86"/>
<path d="M614.02 122.963C613.869 122.963 613.719 122.929 613.581 122.865C602.804 117.771 594.075 109.168 588.825 98.4657C583.574 87.7633 582.113 75.5954 584.68 63.9542C587.247 52.3129 593.69 41.8882 602.955 34.3867C612.22 26.8853 623.757 22.7516 635.678 22.6626C647.599 22.5736 659.196 26.5344 668.572 33.8966C677.948 41.2589 684.546 51.5862 687.287 63.1878C690.028 74.7894 688.748 86.9778 683.658 97.7574C678.568 108.537 669.969 117.269 659.269 122.524C659.148 122.584 659.017 122.619 658.883 122.628C658.749 122.637 658.614 122.62 658.486 122.577C658.359 122.534 658.241 122.466 658.14 122.378C658.039 122.289 657.956 122.182 657.896 122.061C657.836 121.94 657.801 121.809 657.792 121.675C657.783 121.541 657.8 121.406 657.843 121.279C657.886 121.151 657.954 121.033 658.042 120.932C658.131 120.831 658.238 120.748 658.359 120.688C668.643 115.639 676.908 107.248 681.801 96.8882C686.694 86.5287 687.925 74.8149 685.292 63.6647C682.658 52.5146 676.318 42.5888 667.307 35.5125C658.297 28.4363 647.151 24.6289 635.694 24.7138C624.238 24.7987 613.15 28.7708 604.245 35.9798C595.341 43.1887 589.148 53.2074 586.68 64.3954C584.212 75.5833 585.617 87.2776 590.662 97.5634C595.708 107.849 604.097 116.117 614.455 121.013C614.665 121.113 614.836 121.281 614.938 121.49C615.04 121.699 615.068 121.937 615.017 122.164C614.966 122.391 614.839 122.594 614.657 122.739C614.475 122.885 614.249 122.964 614.016 122.963H614.02Z" fill="#004E86"/>
<path d="M613.975 113.395C613.79 113.396 613.608 113.346 613.449 113.249C606.82 109.285 601.333 103.668 597.525 96.9485C593.716 90.2288 591.716 82.6358 591.72 74.9118C591.72 50.2777 611.759 30.2388 636.393 30.2388C661.027 30.2388 681.066 50.2777 681.066 74.9118C681.07 82.6088 679.084 90.176 675.3 96.8789C671.517 103.582 666.065 109.193 659.474 113.168C659.359 113.237 659.231 113.283 659.098 113.304C658.965 113.324 658.83 113.318 658.699 113.286C658.569 113.254 658.446 113.196 658.337 113.117C658.229 113.037 658.137 112.937 658.068 112.822C657.998 112.707 657.952 112.579 657.932 112.446C657.911 112.313 657.917 112.178 657.95 112.047C657.982 111.917 658.039 111.794 658.119 111.685C658.198 111.577 658.299 111.486 658.414 111.416C664.704 107.624 669.906 102.27 673.517 95.8736C677.127 89.4775 679.023 82.2565 679.019 74.9118C679.019 51.4083 659.897 32.2861 636.393 32.2861C612.89 32.2861 593.768 51.4174 593.768 74.9209C593.764 82.2912 595.672 89.5364 599.307 95.9484C602.941 102.36 608.177 107.72 614.503 111.502C614.695 111.618 614.844 111.793 614.927 112.001C615.01 112.209 615.023 112.438 614.963 112.654C614.903 112.87 614.774 113.06 614.595 113.196C614.417 113.331 614.199 113.404 613.975 113.404V113.395Z" fill="#004E86"/>
<path d="M619.061 98.7177C618.829 98.7166 618.603 98.6364 618.422 98.4902C613.829 94.8222 610.485 89.8219 608.849 84.1763C607.212 78.5307 607.364 72.517 609.284 66.9614C611.204 61.4058 614.797 56.581 619.57 53.15C624.342 49.719 630.06 47.8501 635.938 47.8002C641.816 47.7503 647.564 49.5218 652.395 52.8712C657.225 56.2207 660.899 60.9837 662.913 66.5059C664.927 72.0281 665.181 78.0384 663.641 83.7109C662.101 89.3835 658.842 94.4399 654.312 98.1854C654.103 98.3586 653.833 98.4415 653.563 98.4159C653.292 98.3903 653.043 98.2583 652.87 98.0489C652.697 97.8396 652.614 97.57 652.639 97.2995C652.665 97.0291 652.797 96.7798 653.006 96.6067C657.21 93.1307 660.234 88.4383 661.663 83.1743C663.091 77.9103 662.855 72.333 660.986 67.2087C659.117 62.0845 655.707 57.6647 651.225 54.5568C646.742 51.4488 641.407 49.8052 635.953 49.8518C630.499 49.8983 625.193 51.6328 620.764 54.8168C616.335 58.0008 613.001 62.4782 611.22 67.6336C609.439 72.7891 609.298 78.3696 610.816 83.6084C612.335 88.8473 615.438 93.4873 619.701 96.891C619.866 97.0232 619.987 97.2037 620.045 97.4074C620.104 97.6111 620.098 97.828 620.027 98.028C619.957 98.228 619.826 98.4012 619.653 98.5235C619.48 98.6459 619.273 98.7114 619.061 98.7109V98.7177Z" fill="#004E86"/>
<path d="M636.066 91.7091C632.687 91.7091 629.384 90.7072 626.574 88.83C623.765 86.9528 621.575 84.2846 620.282 81.1629C618.989 78.0413 618.651 74.6063 619.31 71.2923C619.969 67.9783 621.596 64.9343 623.985 62.545C626.375 60.1558 629.419 58.5287 632.733 57.8695C636.047 57.2103 639.482 57.5487 642.603 58.8417C645.725 60.1347 648.393 62.3244 650.27 65.1339C652.148 67.9433 653.15 71.2463 653.15 74.6252C653.145 79.1547 651.343 83.4972 648.14 86.7C644.938 89.9029 640.595 91.7043 636.066 91.7091V91.7091ZM636.066 59.5886C633.092 59.5886 630.185 60.4705 627.712 62.1227C625.239 63.775 623.312 66.1234 622.174 68.8709C621.036 71.6185 620.738 74.6419 621.318 77.5587C621.898 80.4755 623.33 83.1548 625.433 85.2577C627.536 87.3606 630.215 88.7927 633.132 89.3729C636.049 89.9531 639.072 89.6553 641.82 88.5172C644.567 87.3791 646.916 85.4518 648.568 82.9791C650.22 80.5063 651.102 77.5992 651.102 74.6252C651.098 70.6385 649.512 66.8164 646.693 63.9974C643.874 61.1784 640.052 59.5928 636.066 59.5886V59.5886Z" fill="#F44247"/>
<path d="M638.163 160.088H633.98C630.099 160.084 626.379 158.54 623.635 155.797C620.891 153.053 619.348 149.332 619.344 145.452V111.784C619.348 107.904 620.891 104.184 623.635 101.44C626.379 98.6958 630.099 97.1524 633.98 97.1482H638.163C642.043 97.153 645.763 98.6966 648.507 101.44C651.251 104.184 652.795 107.904 652.799 111.784V145.452C652.795 149.332 651.251 153.052 648.507 155.796C645.763 158.54 642.043 160.083 638.163 160.088V160.088ZM633.98 99.1864C630.642 99.1901 627.442 100.518 625.082 102.878C622.722 105.238 621.394 108.438 621.391 111.775V145.443C621.395 148.78 622.723 151.98 625.083 154.34C627.443 156.7 630.642 158.027 633.98 158.032H638.163C641.501 158.027 644.7 156.7 647.06 154.34C649.42 151.98 650.748 148.78 650.752 145.443V111.775C650.748 108.438 649.421 105.238 647.061 102.878C644.701 100.518 641.501 99.1901 638.163 99.1864H633.98Z" fill="#F44247"/>
<path d="M613.731 105.274C613.499 105.273 613.273 105.193 613.092 105.046C608.771 101.609 605.283 97.2398 602.888 92.2644C600.494 87.2891 599.256 81.8368 599.266 76.3153C599.266 56.0353 615.765 39.5337 636.047 39.5337C656.33 39.5337 672.838 56.0262 672.838 76.3153C672.842 81.7319 671.647 87.0821 669.338 91.982C667.029 96.8818 663.664 101.21 659.485 104.655C659.276 104.828 659.006 104.911 658.736 104.886C658.465 104.86 658.216 104.728 658.043 104.519C657.87 104.309 657.787 104.04 657.812 103.769C657.838 103.499 657.97 103.25 658.179 103.076C662.127 99.8234 665.305 95.7367 667.485 91.1098C669.666 86.4828 670.795 81.4304 670.791 76.3153C670.791 57.1636 655.208 41.581 636.057 41.581C616.905 41.581 601.313 57.1545 601.313 76.3153C601.303 81.5304 602.473 86.6801 604.735 91.3791C606.997 96.078 610.293 100.204 614.375 103.449C614.54 103.582 614.659 103.763 614.717 103.967C614.774 104.17 614.768 104.386 614.697 104.586C614.627 104.785 614.497 104.958 614.324 105.081C614.151 105.203 613.945 105.269 613.734 105.269L613.731 105.274Z" fill="#F44247"/>
<path d="M613.979 130.684C613.847 130.683 613.715 130.657 613.593 130.606C600.811 125.362 590.242 115.848 583.687 103.686C577.131 91.5245 574.995 77.4662 577.64 63.9058C580.286 50.3454 587.551 38.1215 598.198 29.316C608.844 20.5105 622.214 15.6679 636.03 15.613C649.846 15.5581 663.254 20.2943 673.97 29.0149C684.686 37.7355 692.048 49.9012 694.801 63.4402C697.555 76.9791 695.53 91.0539 689.071 103.268C682.613 115.481 672.12 125.078 659.38 130.424C659.256 130.476 659.123 130.503 658.989 130.504C658.855 130.504 658.721 130.479 658.597 130.428C658.472 130.377 658.359 130.302 658.264 130.207C658.168 130.113 658.092 130 658.04 129.876C657.989 129.752 657.961 129.619 657.961 129.485C657.96 129.35 657.986 129.217 658.037 129.093C658.088 128.968 658.163 128.855 658.258 128.76C658.352 128.664 658.465 128.588 658.589 128.536C670.892 123.373 681.024 114.104 687.26 102.309C693.497 90.5136 695.452 76.9212 692.792 63.8465C690.132 50.7719 683.022 39.0235 672.673 30.6023C662.324 22.1811 649.376 17.6078 636.033 17.6614C622.691 17.7149 609.78 22.392 599.499 30.8959C589.217 39.3999 582.202 51.205 579.647 64.3005C577.092 77.3961 579.156 90.9724 585.487 102.717C591.818 114.462 602.025 123.649 614.368 128.714C614.587 128.804 614.768 128.967 614.88 129.176C614.992 129.385 615.028 129.626 614.982 129.858C614.936 130.091 614.811 130.3 614.629 130.45C614.446 130.601 614.216 130.683 613.979 130.684V130.684Z" fill="#F44247"/>
</svg>
