<?xml version="1.0" encoding="UTF-8" standalone="no"?>
<svg width="700px" height="306px" viewBox="0 0 700 306" version="1.1" xmlns="http://www.w3.org/2000/svg" xmlns:xlink="http://www.w3.org/1999/xlink">
    <!-- Generator: Sketch 39.1 (31720) - http://www.bohemiancoding.com/sketch -->
    <title>Teams</title>
    <desc>Created with Sketch.</desc>
    <defs></defs>
    <g id="Page-1" stroke="none" stroke-width="1" fill="none" fill-rule="evenodd">
        <g id="Teams">
            <g id="Browser">
                <rect id="Rectangle-8" fill="#DEDEDE" x="0" y="0" width="700" height="306" rx="3"></rect>
                <g id="Browser-Top" transform="translate(13.000000, 11.000000)">
                    <circle id="Oval-1" fill="#F76461" cx="3.5" cy="7.5" r="3.5"></circle>
                    <circle id="Oval-1" fill="#FDBC4F" cx="13.5" cy="7.5" r="3.5"></circle>
                    <circle id="Oval-1" fill="#40C754" cx="23.5" cy="7.5" r="3.5"></circle>
                    <rect id="Search-Bar" fill="#FFFFFF" x="137" y="0" width="400" height="15" rx="3"></rect>
                    <text id="http://enterpriserea" font-family="SourceSansPro-Light, Source Sans Pro" font-size="8" font-weight="300" fill="#85828E">
                        <tspan x="297.9" y="11">http://enterpriseready.io</tspan>
                    </text>
                </g>
                <g id="Background" transform="translate(0.000000, 35.000000)">
                    <rect id="Rectangle-2" fill="#FFFFFF" x="5" y="0" width="690" height="271"></rect>
                    <rect id="Rectangle-2" fill="#F4F4F4" x="695" y="0" width="5" height="271"></rect>
                    <rect id="Rectangle-2" fill="#F4F4F4" x="0" y="0" width="5" height="271"></rect>
                </g>
            </g>
            <g id="Group-9" transform="translate(190.000000, 80.000000)">
                <circle id="Oval" fill="#EB4E48" cx="25" cy="25" r="25"></circle>
                <path d="M44,45.5908333 L44,50 L7,50 L7,45.5908333 L19.3333333,37.6666667 L19.3333333,34.5833333 C18.5727778,34.5833333 17.8697778,33.8176389 17.2222778,32.28625 C16.57375,30.7548611 16.25,29.465 16.25,28.4166667 L16.25,22.25 C16.25,19.7021389 17.1544444,17.5222222 18.9643611,15.7133333 C20.77325,13.9044444 22.9511111,13 25.5,13 C28.0488889,13 30.2277778,13.9044444 32.0366667,15.7133333 C33.8455556,17.5222222 34.75,19.7021389 34.75,22.25 L34.75,28.4166667 C34.75,29.465 34.4272778,30.7548611 33.77875,32.28625 C33.13125,33.8176389 32.42825,34.5833333 31.6666667,34.5833333 L31.6666667,37.6666667 L44,45.5908333" id="Fill-14" fill="#FFFFFF"></path>
            </g>
            <g id="Group-10" transform="translate(280.000000, 80.000000)">
                <circle id="Oval" fill="#EB4E48" cx="25" cy="25" r="25"></circle>
                <path d="M44,45.5908333 L44,50 L7,50 L7,45.5908333 L19.3333333,37.6666667 L19.3333333,34.5833333 C18.5727778,34.5833333 17.8697778,33.8176389 17.2222778,32.28625 C16.57375,30.7548611 16.25,29.465 16.25,28.4166667 L16.25,22.25 C16.25,19.7021389 17.1544444,17.5222222 18.9643611,15.7133333 C20.77325,13.9044444 22.9511111,13 25.5,13 C28.0488889,13 30.2277778,13.9044444 32.0366667,15.7133333 C33.8455556,17.5222222 34.75,19.7021389 34.75,22.25 L34.75,28.4166667 C34.75,29.465 34.4272778,30.7548611 33.77875,32.28625 C33.13125,33.8176389 32.42825,34.5833333 31.6666667,34.5833333 L31.6666667,37.6666667 L44,45.5908333" id="Fill-14" fill="#FFFFFF"></path>
            </g>
            <g id="Group-10" transform="translate(280.000000, 150.000000)">
                <circle id="Oval" fill="#9838AC" cx="25" cy="25" r="25"></circle>
                <path d="M44,45.5908333 L44,50 L7,50 L7,45.5908333 L19.3333333,37.6666667 L19.3333333,34.5833333 C18.5727778,34.5833333 17.8697778,33.8176389 17.2222778,32.28625 C16.57375,30.7548611 16.25,29.465 16.25,28.4166667 L16.25,22.25 C16.25,19.7021389 17.1544444,17.5222222 18.9643611,15.7133333 C20.77325,13.9044444 22.9511111,13 25.5,13 C28.0488889,13 30.2277778,13.9044444 32.0366667,15.7133333 C33.8455556,17.5222222 34.75,19.7021389 34.75,22.25 L34.75,28.4166667 C34.75,29.465 34.4272778,30.7548611 33.77875,32.28625 C33.13125,33.8176389 32.42825,34.5833333 31.6666667,34.5833333 L31.6666667,37.6666667 L44,45.5908333" id="Fill-14" fill="#FFFFFF"></path>
            </g>
            <g id="Group-10" transform="translate(280.000000, 220.000000)">
                <circle id="Oval" fill="#9838AC" cx="25" cy="25" r="25"></circle>
                <path d="M44,45.5908333 L44,50 L7,50 L7,45.5908333 L19.3333333,37.6666667 L19.3333333,34.5833333 C18.5727778,34.5833333 17.8697778,33.8176389 17.2222778,32.28625 C16.57375,30.7548611 16.25,29.465 16.25,28.4166667 L16.25,22.25 C16.25,19.7021389 17.1544444,17.5222222 18.9643611,15.7133333 C20.77325,13.9044444 22.9511111,13 25.5,13 C28.0488889,13 30.2277778,13.9044444 32.0366667,15.7133333 C33.8455556,17.5222222 34.75,19.7021389 34.75,22.25 L34.75,28.4166667 C34.75,29.465 34.4272778,30.7548611 33.77875,32.28625 C33.13125,33.8176389 32.42825,34.5833333 31.6666667,34.5833333 L31.6666667,37.6666667 L44,45.5908333" id="Fill-14" fill="#FFFFFF"></path>
            </g>
            <g id="Group-10" transform="translate(370.000000, 80.000000)">
                <circle id="Oval" fill="#EB4E48" cx="25" cy="25" r="25"></circle>
                <path d="M44,45.5908333 L44,50 L7,50 L7,45.5908333 L19.3333333,37.6666667 L19.3333333,34.5833333 C18.5727778,34.5833333 17.8697778,33.8176389 17.2222778,32.28625 C16.57375,30.7548611 16.25,29.465 16.25,28.4166667 L16.25,22.25 C16.25,19.7021389 17.1544444,17.5222222 18.9643611,15.7133333 C20.77325,13.9044444 22.9511111,13 25.5,13 C28.0488889,13 30.2277778,13.9044444 32.0366667,15.7133333 C33.8455556,17.5222222 34.75,19.7021389 34.75,22.25 L34.75,28.4166667 C34.75,29.465 34.4272778,30.7548611 33.77875,32.28625 C33.13125,33.8176389 32.42825,34.5833333 31.6666667,34.5833333 L31.6666667,37.6666667 L44,45.5908333" id="Fill-14" fill="#FFFFFF"></path>
            </g>
            <g id="Group-10" transform="translate(370.000000, 150.000000)">
                <circle id="Oval" fill="#FFBF27" cx="25" cy="25" r="25"></circle>
                <path d="M44,45.5908333 L44,50 L7,50 L7,45.5908333 L19.3333333,37.6666667 L19.3333333,34.5833333 C18.5727778,34.5833333 17.8697778,33.8176389 17.2222778,32.28625 C16.57375,30.7548611 16.25,29.465 16.25,28.4166667 L16.25,22.25 C16.25,19.7021389 17.1544444,17.5222222 18.9643611,15.7133333 C20.77325,13.9044444 22.9511111,13 25.5,13 C28.0488889,13 30.2277778,13.9044444 32.0366667,15.7133333 C33.8455556,17.5222222 34.75,19.7021389 34.75,22.25 L34.75,28.4166667 C34.75,29.465 34.4272778,30.7548611 33.77875,32.28625 C33.13125,33.8176389 32.42825,34.5833333 31.6666667,34.5833333 L31.6666667,37.6666667 L44,45.5908333" id="Fill-14" fill="#FFFFFF"></path>
            </g>
            <g id="+" transform="translate(370.000000, 220.000000)">
                <circle id="Oval" stroke="#D8D8D8" cx="25" cy="25" r="25"></circle>
                <rect id="Rectangle-4" fill="#D8D8D8" x="24" y="14" width="2" height="22" rx="1"></rect>
                <rect id="Rectangle-5" fill="#D8D8D8" x="14" y="24" width="22" height="2" rx="1"></rect>
            </g>
            <g id="+" transform="translate(190.000000, 150.000000)">
                <circle id="Oval" stroke="#D8D8D8" cx="25" cy="25" r="25"></circle>
                <rect id="Rectangle-4" fill="#D8D8D8" x="24" y="14" width="2" height="22" rx="1"></rect>
                <rect id="Rectangle-5" fill="#D8D8D8" x="14" y="24" width="22" height="2" rx="1"></rect>
            </g>
            <g id="Group-10" transform="translate(460.000000, 80.000000)">
                <circle id="Oval" fill="#EB4E48" cx="25" cy="25" r="25"></circle>
                <path d="M44,45.5908333 L44,50 L7,50 L7,45.5908333 L19.3333333,37.6666667 L19.3333333,34.5833333 C18.5727778,34.5833333 17.8697778,33.8176389 17.2222778,32.28625 C16.57375,30.7548611 16.25,29.465 16.25,28.4166667 L16.25,22.25 C16.25,19.7021389 17.1544444,17.5222222 18.9643611,15.7133333 C20.77325,13.9044444 22.9511111,13 25.5,13 C28.0488889,13 30.2277778,13.9044444 32.0366667,15.7133333 C33.8455556,17.5222222 34.75,19.7021389 34.75,22.25 L34.75,28.4166667 C34.75,29.465 34.4272778,30.7548611 33.77875,32.28625 C33.13125,33.8176389 32.42825,34.5833333 31.6666667,34.5833333 L31.6666667,37.6666667 L44,45.5908333" id="Fill-14" fill="#FFFFFF"></path>
            </g>
            <g id="Group-10" transform="translate(460.000000, 150.000000)">
                <circle id="Oval" fill="#50AD54" cx="25" cy="25" r="25"></circle>
                <path d="M44,45.5908333 L44,50 L7,50 L7,45.5908333 L19.3333333,37.6666667 L19.3333333,34.5833333 C18.5727778,34.5833333 17.8697778,33.8176389 17.2222778,32.28625 C16.57375,30.7548611 16.25,29.465 16.25,28.4166667 L16.25,22.25 C16.25,19.7021389 17.1544444,17.5222222 18.9643611,15.7133333 C20.77325,13.9044444 22.9511111,13 25.5,13 C28.0488889,13 30.2277778,13.9044444 32.0366667,15.7133333 C33.8455556,17.5222222 34.75,19.7021389 34.75,22.25 L34.75,28.4166667 C34.75,29.465 34.4272778,30.7548611 33.77875,32.28625 C33.13125,33.8176389 32.42825,34.5833333 31.6666667,34.5833333 L31.6666667,37.6666667 L44,45.5908333" id="Fill-14" fill="#FFFFFF"></path>
            </g>
            <g id="Group-10" transform="translate(460.000000, 220.000000)">
                <circle id="Oval" fill="#50AD54" cx="25" cy="25" r="25"></circle>
                <path d="M44,45.5908333 L44,50 L7,50 L7,45.5908333 L19.3333333,37.6666667 L19.3333333,34.5833333 C18.5727778,34.5833333 17.8697778,33.8176389 17.2222778,32.28625 C16.57375,30.7548611 16.25,29.465 16.25,28.4166667 L16.25,22.25 C16.25,19.7021389 17.1544444,17.5222222 18.9643611,15.7133333 C20.77325,13.9044444 22.9511111,13 25.5,13 C28.0488889,13 30.2277778,13.9044444 32.0366667,15.7133333 C33.8455556,17.5222222 34.75,19.7021389 34.75,22.25 L34.75,28.4166667 C34.75,29.465 34.4272778,30.7548611 33.77875,32.28625 C33.13125,33.8176389 32.42825,34.5833333 31.6666667,34.5833333 L31.6666667,37.6666667 L44,45.5908333" id="Fill-14" fill="#FFFFFF"></path>
            </g>
            <rect id="Rectangle-3" fill="#F2F2F2" x="100" y="64" width="500" height="1"></rect>
        </g>
    </g>
</svg>