<?xml version="1.0" encoding="UTF-8" standalone="no"?>
<svg width="700px" height="306px" viewBox="0 0 700 306" version="1.1" xmlns="http://www.w3.org/2000/svg" xmlns:xlink="http://www.w3.org/1999/xlink">
    <!-- Generator: Sketch 39.1 (31720) - http://www.bohemiancoding.com/sketch -->
    <title>RBAC</title>
    <desc>Created with Sketch.</desc>
    <defs>
        <rect id="path-1" x="0" y="0" width="78" height="25" rx="2"></rect>
        <mask id="mask-2" maskContentUnits="userSpaceOnUse" maskUnits="objectBoundingBox" x="0" y="0" width="78" height="25" fill="white">
            <use xlink:href="#path-1"></use>
        </mask>
        <rect id="path-3" x="0" y="0" width="95" height="25" rx="2"></rect>
        <mask id="mask-4" maskContentUnits="userSpaceOnUse" maskUnits="objectBoundingBox" x="0" y="0" width="95" height="25" fill="white">
            <use xlink:href="#path-3"></use>
        </mask>
        <rect id="path-5" x="0" y="0" width="86" height="25" rx="2"></rect>
        <mask id="mask-6" maskContentUnits="userSpaceOnUse" maskUnits="objectBoundingBox" x="0" y="0" width="86" height="25" fill="white">
            <use xlink:href="#path-5"></use>
        </mask>
        <rect id="path-7" x="0" y="0" width="95" height="25" rx="2"></rect>
        <mask id="mask-8" maskContentUnits="userSpaceOnUse" maskUnits="objectBoundingBox" x="0" y="0" width="95" height="25" fill="white">
            <use xlink:href="#path-7"></use>
        </mask>
    </defs>
    <g id="Page-1" stroke="none" stroke-width="1" fill="none" fill-rule="evenodd">
        <g id="RBAC">
            <g id="Browser">
                <rect id="Rectangle-8" fill="#DEDEDE" x="0" y="0" width="700" height="306" rx="3"></rect>
                <g id="Browser-Top" transform="translate(13.000000, 11.000000)">
                    <circle id="Oval-1" fill="#F76461" cx="3.5" cy="7.5" r="3.5"></circle>
                    <circle id="Oval-1" fill="#FDBC4F" cx="13.5" cy="7.5" r="3.5"></circle>
                    <circle id="Oval-1" fill="#40C754" cx="23.5" cy="7.5" r="3.5"></circle>
                    <rect id="Search-Bar" fill="#FFFFFF" x="137" y="0" width="400" height="15" rx="3"></rect>
                    <text id="http://enterpriserea" font-family="Roboto, sans-serif" font-size="8" font-weight="300" fill="#85828E">
                        <tspan x="297.9" y="11">http://enterpriseready.io</tspan>
                    </text>
                </g>
                <g id="Background" transform="translate(0.000000, 35.000000)">
                    <rect id="Rectangle-2" fill="#FFFFFF" x="5" y="0" width="690" height="271"></rect>
                    <rect id="Rectangle-2" fill="#F4F4F4" x="695" y="0" width="5" height="271"></rect>
                    <rect id="Rectangle-2" fill="#F4F4F4" x="0" y="0" width="5" height="271"></rect>
                </g>
            </g>
            <g id="Ethan" transform="translate(163.000000, 241.000000)">
                <g id="Group-13">
                    <circle id="Oval" fill="#50AD54" cx="25" cy="25" r="25"></circle>
                    <path d="M44,45.5908333 L44,50 L7,50 L7,45.5908333 L19.3333333,37.6666667 L19.3333333,34.5833333 C18.5727778,34.5833333 17.8697778,33.8176389 17.2222778,32.28625 C16.57375,30.7548611 16.25,29.465 16.25,28.4166667 L16.25,22.25 C16.25,19.7021389 17.1544444,17.5222222 18.9643611,15.7133333 C20.77325,13.9044444 22.9511111,13 25.5,13 C28.0488889,13 30.2277778,13.9044444 32.0366667,15.7133333 C33.8455556,17.5222222 34.75,19.7021389 34.75,22.25 L34.75,28.4166667 C34.75,29.465 34.4272778,30.7548611 33.77875,32.28625 C33.13125,33.8176389 32.42825,34.5833333 31.6666667,34.5833333 L31.6666667,37.6666667 L44,45.5908333" id="Fill-14" fill="#FFFFFF"></path>
                </g>
                <text font-family="Roboto, sans-serif" font-size="14" font-weight="normal" fill="#2D3B4D">
                    <tspan x="80" y="30">Ethan</tspan>
                </text>
                <g id="Dynamic-group" transform="translate(190.000000, 13.000000)">
                    <use id="BG" stroke="#CCCCCC" mask="url(#mask-2)" stroke-width="2" fill="#EEEEEE" xlink:href="#path-1"></use>
                    <text id="8:8" font-family="Roboto, sans-serif" font-size="8" font-weight="400" fill="#222222">
                        <tspan x="8" y="15">Business Analyst</tspan>
                    </text>
                </g>
            </g>
            <rect id="Rectangle-3" fill="#F2F2F2" x="125" y="230" width="450" height="1"></rect>
            <g id="Marc" transform="translate(163.000000, 171.000000)">
                <g id="Group-12">
                    <circle id="Oval" fill="#963EAA" cx="25" cy="25" r="25"></circle>
                    <path d="M44,45.5908333 L44,50 L7,50 L7,45.5908333 L19.3333333,37.6666667 L19.3333333,34.5833333 C18.5727778,34.5833333 17.8697778,33.8176389 17.2222778,32.28625 C16.57375,30.7548611 16.25,29.465 16.25,28.4166667 L16.25,22.25 C16.25,19.7021389 17.1544444,17.5222222 18.9643611,15.7133333 C20.77325,13.9044444 22.9511111,13 25.5,13 C28.0488889,13 30.2277778,13.9044444 32.0366667,15.7133333 C33.8455556,17.5222222 34.75,19.7021389 34.75,22.25 L34.75,28.4166667 C34.75,29.465 34.4272778,30.7548611 33.77875,32.28625 C33.13125,33.8176389 32.42825,34.5833333 31.6666667,34.5833333 L31.6666667,37.6666667 L44,45.5908333" id="Fill-14" fill="#FFFFFF"></path>
                </g>
                <g id="Dynamic-group" transform="translate(190.000000, 13.000000)">
                    <use id="BG" stroke="#CCCCCC" mask="url(#mask-4)" stroke-width="2" fill="#EEEEEE" xlink:href="#path-3"></use>
                    <text id="8:8" font-family="Roboto, sans-serif" font-size="8" font-weight="400" fill="#222222">
                        <tspan x="8" y="15">Account Adminstrator</tspan>
                    </text>
                </g>
                <g id="Dynamic-group" transform="translate(300.000000, 13.000000)">
                    <use id="BG" stroke="#CCCCCC" mask="url(#mask-6)" stroke-width="2" fill="#EEEEEE" xlink:href="#path-5"></use>
                    <text id="8:8" font-family="Roboto, sans-serif" font-size="8" font-weight="400" fill="#222222">
                        <tspan x="8" y="15">Marketing Manager</tspan>
                    </text>
                </g>
                <text font-family="Roboto, sans-serif" font-size="14" font-weight="normal" fill="#2D3B4D">
                    <tspan x="80" y="30">Marc</tspan>
                </text>
            </g>
            <rect id="Rectangle-3" fill="#F2F2F2" x="125" y="160" width="450" height="1"></rect>
            <g id="Grant" transform="translate(163.000000, 101.000000)">
                <g id="Group-11">
                    <circle id="Oval" fill="#EB4E48" cx="25" cy="25" r="25"></circle>
                    <path d="M44,45.5908333 L44,50 L7,50 L7,45.5908333 L19.3333333,37.6666667 L19.3333333,34.5833333 C18.5727778,34.5833333 17.8697778,33.8176389 17.2222778,32.28625 C16.57375,30.7548611 16.25,29.465 16.25,28.4166667 L16.25,22.25 C16.25,19.7021389 17.1544444,17.5222222 18.9643611,15.7133333 C20.77325,13.9044444 22.9511111,13 25.5,13 C28.0488889,13 30.2277778,13.9044444 32.0366667,15.7133333 C33.8455556,17.5222222 34.75,19.7021389 34.75,22.25 L34.75,28.4166667 C34.75,29.465 34.4272778,30.7548611 33.77875,32.28625 C33.13125,33.8176389 32.42825,34.5833333 31.6666667,34.5833333 L31.6666667,37.6666667 L44,45.5908333" id="Fill-14" fill="#FFFFFF"></path>
                </g>
                <text font-family="Roboto, sans-serif" font-size="14" font-weight="normal" fill="#2D3B4D">
                    <tspan x="80" y="30">Grant</tspan>
                </text>
                <g id="Dynamic-group" transform="translate(190.000000, 13.000000)">
                    <use id="BG" stroke="#CCCCCC" mask="url(#mask-8)" stroke-width="2" fill="#EEEEEE" xlink:href="#path-7"></use>
                    <text id="8:8" font-family="Roboto, sans-serif" font-size="8" font-weight="400" fill="#222222">
                        <tspan x="8" y="15">Account Adminstrator</tspan>
                    </text>
                </g>
            </g>
            <rect id="Rectangle-3" fill="#F2F2F2" x="100" y="84" width="500" height="1"></rect>
            <text id="Name" opacity="0.5" font-family="Roboto, sans-serif" font-size="10" font-weight="normal" fill="#2D3B4D">
                <tspan x="243" y="77">Name</tspan>
            </text>
            <text id="Permissions" opacity="0.5" font-family="Roboto, sans-serif" font-size="10" font-weight="normal" fill="#2D3B4D">
                <tspan x="353" y="77">Permissions</tspan>
            </text>
        </g>
    </g>
</svg>
