<?xml version="1.0" encoding="UTF-8" standalone="no"?>
<svg width="700px" height="306px" viewBox="0 0 700 306" version="1.1" xmlns="http://www.w3.org/2000/svg" xmlns:xlink="http://www.w3.org/1999/xlink">
    <!-- Generator: Sketch 39.1 (31720) - http://www.bohemiancoding.com/sketch -->
    <title>SLA</title>
    <desc>Created with Sketch.</desc>
    <defs></defs>
    <g id="Page-1" stroke="none" stroke-width="1" fill="none" fill-rule="evenodd">
        <g id="SLA">
            <g id="Browser">
                <rect id="Rectangle-8" fill="#DEDEDE" x="0" y="0" width="700" height="306" rx="3"></rect>
                <g id="Browser-Top" transform="translate(13.000000, 11.000000)">
                    <circle id="Oval-1" fill="#F76461" cx="3.5" cy="7.5" r="3.5"></circle>
                    <circle id="Oval-1" fill="#FDBC4F" cx="13.5" cy="7.5" r="3.5"></circle>
                    <circle id="Oval-1" fill="#40C754" cx="23.5" cy="7.5" r="3.5"></circle>
                    <rect id="Search-Bar" fill="#FFFFFF" x="137" y="0" width="400" height="15" rx="3"></rect>
                    <text id="http://enterpriserea" font-family="Roboto, sans-serif" font-size="8" font-weight="300" fill="#85828E">
                        <tspan x="297.9" y="11">http://enterpriseready.io</tspan>
                    </text>
                </g>
                <g id="Background" transform="translate(0.000000, 35.000000)">
                    <rect id="Rectangle-2" fill="#FFFFFF" x="5" y="0" width="690" height="271"></rect>
                    <rect id="Rectangle-2" fill="#F4F4F4" x="695" y="0" width="5" height="271"></rect>
                    <rect id="Rectangle-2" fill="#F4F4F4" x="0" y="0" width="5" height="271"></rect>
                </g>
            </g>
            <text id="This-Amazon-EC2-Serv" opacity="0.564307369" font-family="Roboto, sans-serif" font-size="4" font-weight="400" line-spacing="7" fill="#222222">
                <tspan x="107" y="281">This Amazon EC2 Service Level Agreement (“SLA”) is a policy governing the use of Amazon Elastic Compute Cloud (“Amazon EC2”) and Amazon Elastic Block Store (“Amazon EBS”) under the terms of the Amazon Web Services Customer Agreement (the “AWS Agreement”) </tspan>
                <tspan x="107" y="288">between Amazon Web Services, Inc. and its affiliates (“AWS”, “us” or “we”) and users of AWS’ services (“you”). This SLA applies separately to each account using Amazon EC2 or Amazon EBS. Unless otherwise provided herein, this SLA is subject to the terms of the AWS </tspan>
                <tspan x="107" y="295">Agreement and capitalized terms will have the meaning specified in the AWS Agreement. We reserve the right to change the terms of this SLA in accordance with the AWS Agreement.</tspan>
            </text>
            <rect id="Rectangle-3" fill="#F2F2F2" x="100" y="268" width="500" height="1"></rect>
            <text font-family="Roboto, sans-serif" font-size="20" font-weight="400" fill="#222222">
                <tspan x="320.306641" y="257">SLA</tspan>
            </text>
            <g id="Group-23" transform="translate(105.000000, 130.000000)">
                <path d="M85,90 C87.7614237,90 90,87.7614237 90,85 C90,82.2385763 87.7614237,80 85,80 C82.2385763,80 80,82.2385763 80,85 C80,87.7614237 82.2385763,90 85,90 Z" id="Oval-6-Copy-37" fill="#26B626"></path>
                <path d="M65,90 C67.7614237,90 70,87.7614237 70,85 C70,82.2385763 67.7614237,80 65,80 C62.2385763,80 60,82.2385763 60,85 C60,87.7614237 62.2385763,90 65,90 Z" id="Oval-6-Copy-36" fill="#26B626"></path>
                <path d="M45,90 C47.7614237,90 50,87.7614237 50,85 C50,82.2385763 47.7614237,80 45,80 C42.2385763,80 40,82.2385763 40,85 C40,87.7614237 42.2385763,90 45,90 Z" id="Oval-6-Copy-35" fill="#26B626"></path>
                <path d="M25,90 C27.7614237,90 30,87.7614237 30,85 C30,82.2385763 27.7614237,80 25,80 C22.2385763,80 20,82.2385763 20,85 C20,87.7614237 22.2385763,90 25,90 Z" id="Oval-6-Copy-34" fill="#26B626"></path>
                <path d="M5,90 C7.76142375,90 10,87.7614237 10,85 C10,82.2385763 7.76142375,80 5,80 C2.23857625,80 0,82.2385763 0,85 C0,87.7614237 2.23857625,90 5,90 Z" id="Oval-6-Copy-33" fill="#26B626"></path>
                <path d="M125,70 C127.761424,70 130,67.7614237 130,65 C130,62.2385763 127.761424,60 125,60 C122.238576,60 120,62.2385763 120,65 C120,67.7614237 122.238576,70 125,70 Z" id="Oval-6-Copy-32" fill="#26B626"></path>
                <path d="M105,70 C107.761424,70 110,67.7614237 110,65 C110,62.2385763 107.761424,60 105,60 C102.238576,60 100,62.2385763 100,65 C100,67.7614237 102.238576,70 105,70 Z" id="Oval-6-Copy-31" fill="#26B626"></path>
                <path d="M85,70 C87.7614237,70 90,67.7614237 90,65 C90,62.2385763 87.7614237,60 85,60 C82.2385763,60 80,62.2385763 80,65 C80,67.7614237 82.2385763,70 85,70 Z" id="Oval-6-Copy-30" fill="#EB4E48"></path>
                <path d="M65,70 C67.7614237,70 70,67.7614237 70,65 C70,62.2385763 67.7614237,60 65,60 C62.2385763,60 60,62.2385763 60,65 C60,67.7614237 62.2385763,70 65,70 Z" id="Oval-6-Copy-29" fill="#26B626"></path>
                <path d="M45,70 C47.7614237,70 50,67.7614237 50,65 C50,62.2385763 47.7614237,60 45,60 C42.2385763,60 40,62.2385763 40,65 C40,67.7614237 42.2385763,70 45,70 Z" id="Oval-6-Copy-28" fill="#26B626"></path>
                <path d="M25,70 C27.7614237,70 30,67.7614237 30,65 C30,62.2385763 27.7614237,60 25,60 C22.2385763,60 20,62.2385763 20,65 C20,67.7614237 22.2385763,70 25,70 Z" id="Oval-6-Copy-27" fill="#26B626"></path>
                <path d="M5,70 C7.76142375,70 10,67.7614237 10,65 C10,62.2385763 7.76142375,60 5,60 C2.23857625,60 0,62.2385763 0,65 C0,67.7614237 2.23857625,70 5,70 Z" id="Oval-6-Copy-26" fill="#26B626"></path>
                <path d="M125,50 C127.761424,50 130,47.7614237 130,45 C130,42.2385763 127.761424,40 125,40 C122.238576,40 120,42.2385763 120,45 C120,47.7614237 122.238576,50 125,50 Z" id="Oval-6-Copy-25" fill="#26B626"></path>
                <path d="M105,50 C107.761424,50 110,47.7614237 110,45 C110,42.2385763 107.761424,40 105,40 C102.238576,40 100,42.2385763 100,45 C100,47.7614237 102.238576,50 105,50 Z" id="Oval-6-Copy-24" fill="#26B626"></path>
                <path d="M85,50 C87.7614237,50 90,47.7614237 90,45 C90,42.2385763 87.7614237,40 85,40 C82.2385763,40 80,42.2385763 80,45 C80,47.7614237 82.2385763,50 85,50 Z" id="Oval-6-Copy-23" fill="#26B626"></path>
                <path d="M65,50 C67.7614237,50 70,47.7614237 70,45 C70,42.2385763 67.7614237,40 65,40 C62.2385763,40 60,42.2385763 60,45 C60,47.7614237 62.2385763,50 65,50 Z" id="Oval-6-Copy-22" fill="#26B626"></path>
                <path d="M45,50 C47.7614237,50 50,47.7614237 50,45 C50,42.2385763 47.7614237,40 45,40 C42.2385763,40 40,42.2385763 40,45 C40,47.7614237 42.2385763,50 45,50 Z" id="Oval-6-Copy-21" fill="#26B626"></path>
                <path d="M25,50 C27.7614237,50 30,47.7614237 30,45 C30,42.2385763 27.7614237,40 25,40 C22.2385763,40 20,42.2385763 20,45 C20,47.7614237 22.2385763,50 25,50 Z" id="Oval-6-Copy-20" fill="#26B626"></path>
                <path d="M5,50 C7.76142375,50 10,47.7614237 10,45 C10,42.2385763 7.76142375,40 5,40 C2.23857625,40 0,42.2385763 0,45 C0,47.7614237 2.23857625,50 5,50 Z" id="Oval-6-Copy-19" fill="#26B626"></path>
                <path d="M125,30 C127.761424,30 130,27.7614237 130,25 C130,22.2385763 127.761424,20 125,20 C122.238576,20 120,22.2385763 120,25 C120,27.7614237 122.238576,30 125,30 Z" id="Oval-6-Copy-18" fill="#26B626"></path>
                <path d="M105,30 C107.761424,30 110,27.7614237 110,25 C110,22.2385763 107.761424,20 105,20 C102.238576,20 100,22.2385763 100,25 C100,27.7614237 102.238576,30 105,30 Z" id="Oval-6-Copy-17" fill="#26B626"></path>
                <path d="M85,30 C87.7614237,30 90,27.7614237 90,25 C90,22.2385763 87.7614237,20 85,20 C82.2385763,20 80,22.2385763 80,25 C80,27.7614237 82.2385763,30 85,30 Z" id="Oval-6-Copy-16" fill="#26B626"></path>
                <path d="M65,30 C67.7614237,30 70,27.7614237 70,25 C70,22.2385763 67.7614237,20 65,20 C62.2385763,20 60,22.2385763 60,25 C60,27.7614237 62.2385763,30 65,30 Z" id="Oval-6-Copy-15" fill="#26B626"></path>
                <path d="M45,30 C47.7614237,30 50,27.7614237 50,25 C50,22.2385763 47.7614237,20 45,20 C42.2385763,20 40,22.2385763 40,25 C40,27.7614237 42.2385763,30 45,30 Z" id="Oval-6-Copy-14" fill="#26B626"></path>
                <path d="M25,30 C27.7614237,30 30,27.7614237 30,25 C30,22.2385763 27.7614237,20 25,20 C22.2385763,20 20,22.2385763 20,25 C20,27.7614237 22.2385763,30 25,30 Z" id="Oval-6-Copy-13" fill="#26B626"></path>
                <path d="M5,30 C7.76142375,30 10,27.7614237 10,25 C10,22.2385763 7.76142375,20 5,20 C2.23857625,20 0,22.2385763 0,25 C0,27.7614237 2.23857625,30 5,30 Z" id="Oval-6-Copy-12" fill="#26B626"></path>
                <path d="M125,10 C127.761424,10 130,7.76142375 130,5 C130,2.23857625 127.761424,0 125,0 C122.238576,0 120,2.23857625 120,5 C120,7.76142375 122.238576,10 125,10 Z" id="Oval-6-Copy-11" fill="#26B626"></path>
                <path d="M105,10 C107.761424,10 110,7.76142375 110,5 C110,2.23857625 107.761424,0 105,0 C102.238576,0 100,2.23857625 100,5 C100,7.76142375 102.238576,10 105,10 Z" id="Oval-6-Copy-10" fill="#26B626"></path>
                <path d="M85,10 C87.7614237,10 90,7.76142375 90,5 C90,2.23857625 87.7614237,0 85,0 C82.2385763,0 80,2.23857625 80,5 C80,7.76142375 82.2385763,10 85,10 Z" id="Oval-6-Copy-9" fill="#26B626"></path>
                <path d="M65,10 C67.7614237,10 70,7.76142375 70,5 C70,2.23857625 67.7614237,0 65,0 C62.2385763,0 60,2.23857625 60,5 C60,7.76142375 62.2385763,10 65,10 Z" id="Oval-6-Copy-8" fill="#26B626"></path>
                <path d="M45,10 C47.7614237,10 50,7.76142375 50,5 C50,2.23857625 47.7614237,0 45,0 C42.2385763,0 40,2.23857625 40,5 C40,7.76142375 42.2385763,10 45,10 Z" id="Oval-6-Copy-7" fill="#26B626"></path>
            </g>
            <g id="Group-23" transform="translate(285.000000, 130.000000)" fill="#26B626">
                <path d="M125,90 C127.761424,90 130,87.7614237 130,85 C130,82.2385763 127.761424,80 125,80 C122.238576,80 120,82.2385763 120,85 C120,87.7614237 122.238576,90 125,90 Z" id="Oval-6-Copy-39"></path>
                <path d="M105,90 C107.761424,90 110,87.7614237 110,85 C110,82.2385763 107.761424,80 105,80 C102.238576,80 100,82.2385763 100,85 C100,87.7614237 102.238576,90 105,90 Z" id="Oval-6-Copy-38"></path>
                <path d="M85,90 C87.7614237,90 90,87.7614237 90,85 C90,82.2385763 87.7614237,80 85,80 C82.2385763,80 80,82.2385763 80,85 C80,87.7614237 82.2385763,90 85,90 Z" id="Oval-6-Copy-37"></path>
                <path d="M65,90 C67.7614237,90 70,87.7614237 70,85 C70,82.2385763 67.7614237,80 65,80 C62.2385763,80 60,82.2385763 60,85 C60,87.7614237 62.2385763,90 65,90 Z" id="Oval-6-Copy-36"></path>
                <path d="M45,90 C47.7614237,90 50,87.7614237 50,85 C50,82.2385763 47.7614237,80 45,80 C42.2385763,80 40,82.2385763 40,85 C40,87.7614237 42.2385763,90 45,90 Z" id="Oval-6-Copy-35"></path>
                <path d="M25,90 C27.7614237,90 30,87.7614237 30,85 C30,82.2385763 27.7614237,80 25,80 C22.2385763,80 20,82.2385763 20,85 C20,87.7614237 22.2385763,90 25,90 Z" id="Oval-6-Copy-34"></path>
                <path d="M5,90 C7.76142375,90 10,87.7614237 10,85 C10,82.2385763 7.76142375,80 5,80 C2.23857625,80 0,82.2385763 0,85 C0,87.7614237 2.23857625,90 5,90 Z" id="Oval-6-Copy-33"></path>
                <path d="M125,70 C127.761424,70 130,67.7614237 130,65 C130,62.2385763 127.761424,60 125,60 C122.238576,60 120,62.2385763 120,65 C120,67.7614237 122.238576,70 125,70 Z" id="Oval-6-Copy-32"></path>
                <path d="M105,70 C107.761424,70 110,67.7614237 110,65 C110,62.2385763 107.761424,60 105,60 C102.238576,60 100,62.2385763 100,65 C100,67.7614237 102.238576,70 105,70 Z" id="Oval-6-Copy-31"></path>
                <path d="M85,70 C87.7614237,70 90,67.7614237 90,65 C90,62.2385763 87.7614237,60 85,60 C82.2385763,60 80,62.2385763 80,65 C80,67.7614237 82.2385763,70 85,70 Z" id="Oval-6-Copy-30"></path>
                <path d="M65,70 C67.7614237,70 70,67.7614237 70,65 C70,62.2385763 67.7614237,60 65,60 C62.2385763,60 60,62.2385763 60,65 C60,67.7614237 62.2385763,70 65,70 Z" id="Oval-6-Copy-29"></path>
                <path d="M45,70 C47.7614237,70 50,67.7614237 50,65 C50,62.2385763 47.7614237,60 45,60 C42.2385763,60 40,62.2385763 40,65 C40,67.7614237 42.2385763,70 45,70 Z" id="Oval-6-Copy-28"></path>
                <path d="M25,70 C27.7614237,70 30,67.7614237 30,65 C30,62.2385763 27.7614237,60 25,60 C22.2385763,60 20,62.2385763 20,65 C20,67.7614237 22.2385763,70 25,70 Z" id="Oval-6-Copy-27"></path>
                <path d="M5,70 C7.76142375,70 10,67.7614237 10,65 C10,62.2385763 7.76142375,60 5,60 C2.23857625,60 0,62.2385763 0,65 C0,67.7614237 2.23857625,70 5,70 Z" id="Oval-6-Copy-26"></path>
                <path d="M125,50 C127.761424,50 130,47.7614237 130,45 C130,42.2385763 127.761424,40 125,40 C122.238576,40 120,42.2385763 120,45 C120,47.7614237 122.238576,50 125,50 Z" id="Oval-6-Copy-25"></path>
                <path d="M105,50 C107.761424,50 110,47.7614237 110,45 C110,42.2385763 107.761424,40 105,40 C102.238576,40 100,42.2385763 100,45 C100,47.7614237 102.238576,50 105,50 Z" id="Oval-6-Copy-24"></path>
                <path d="M85,50 C87.7614237,50 90,47.7614237 90,45 C90,42.2385763 87.7614237,40 85,40 C82.2385763,40 80,42.2385763 80,45 C80,47.7614237 82.2385763,50 85,50 Z" id="Oval-6-Copy-23"></path>
                <path d="M65,50 C67.7614237,50 70,47.7614237 70,45 C70,42.2385763 67.7614237,40 65,40 C62.2385763,40 60,42.2385763 60,45 C60,47.7614237 62.2385763,50 65,50 Z" id="Oval-6-Copy-22"></path>
                <path d="M45,50 C47.7614237,50 50,47.7614237 50,45 C50,42.2385763 47.7614237,40 45,40 C42.2385763,40 40,42.2385763 40,45 C40,47.7614237 42.2385763,50 45,50 Z" id="Oval-6-Copy-21"></path>
                <path d="M25,50 C27.7614237,50 30,47.7614237 30,45 C30,42.2385763 27.7614237,40 25,40 C22.2385763,40 20,42.2385763 20,45 C20,47.7614237 22.2385763,50 25,50 Z" id="Oval-6-Copy-20"></path>
                <path d="M5,50 C7.76142375,50 10,47.7614237 10,45 C10,42.2385763 7.76142375,40 5,40 C2.23857625,40 0,42.2385763 0,45 C0,47.7614237 2.23857625,50 5,50 Z" id="Oval-6-Copy-19"></path>
                <path d="M125,30 C127.761424,30 130,27.7614237 130,25 C130,22.2385763 127.761424,20 125,20 C122.238576,20 120,22.2385763 120,25 C120,27.7614237 122.238576,30 125,30 Z" id="Oval-6-Copy-18"></path>
                <path d="M105,30 C107.761424,30 110,27.7614237 110,25 C110,22.2385763 107.761424,20 105,20 C102.238576,20 100,22.2385763 100,25 C100,27.7614237 102.238576,30 105,30 Z" id="Oval-6-Copy-17"></path>
                <path d="M85,30 C87.7614237,30 90,27.7614237 90,25 C90,22.2385763 87.7614237,20 85,20 C82.2385763,20 80,22.2385763 80,25 C80,27.7614237 82.2385763,30 85,30 Z" id="Oval-6-Copy-16"></path>
                <path d="M65,30 C67.7614237,30 70,27.7614237 70,25 C70,22.2385763 67.7614237,20 65,20 C62.2385763,20 60,22.2385763 60,25 C60,27.7614237 62.2385763,30 65,30 Z" id="Oval-6-Copy-15"></path>
                <path d="M45,30 C47.7614237,30 50,27.7614237 50,25 C50,22.2385763 47.7614237,20 45,20 C42.2385763,20 40,22.2385763 40,25 C40,27.7614237 42.2385763,30 45,30 Z" id="Oval-6-Copy-14"></path>
                <path d="M25,30 C27.7614237,30 30,27.7614237 30,25 C30,22.2385763 27.7614237,20 25,20 C22.2385763,20 20,22.2385763 20,25 C20,27.7614237 22.2385763,30 25,30 Z" id="Oval-6-Copy-13"></path>
                <path d="M5,30 C7.76142375,30 10,27.7614237 10,25 C10,22.2385763 7.76142375,20 5,20 C2.23857625,20 0,22.2385763 0,25 C0,27.7614237 2.23857625,30 5,30 Z" id="Oval-6-Copy-12"></path>
                <path d="M125,10 C127.761424,10 130,7.76142375 130,5 C130,2.23857625 127.761424,0 125,0 C122.238576,0 120,2.23857625 120,5 C120,7.76142375 122.238576,10 125,10 Z" id="Oval-6-Copy-11"></path>
                <path d="M105,10 C107.761424,10 110,7.76142375 110,5 C110,2.23857625 107.761424,0 105,0 C102.238576,0 100,2.23857625 100,5 C100,7.76142375 102.238576,10 105,10 Z" id="Oval-6-Copy-10"></path>
            </g>
            <g id="Group-23" transform="translate(465.000000, 130.000000)">
                <path d="M65,90 C67.7614237,90 70,87.7614237 70,85 C70,82.2385763 67.7614237,80 65,80 C62.2385763,80 60,82.2385763 60,85 C60,87.7614237 62.2385763,90 65,90 Z" id="Oval-6-Copy-36" fill="#26B626"></path>
                <path d="M45,90 C47.7614237,90 50,87.7614237 50,85 C50,82.2385763 47.7614237,80 45,80 C42.2385763,80 40,82.2385763 40,85 C40,87.7614237 42.2385763,90 45,90 Z" id="Oval-6-Copy-35" fill="#26B626"></path>
                <path d="M25,90 C27.7614237,90 30,87.7614237 30,85 C30,82.2385763 27.7614237,80 25,80 C22.2385763,80 20,82.2385763 20,85 C20,87.7614237 22.2385763,90 25,90 Z" id="Oval-6-Copy-34" fill="#26B626"></path>
                <path d="M5,90 C7.76142375,90 10,87.7614237 10,85 C10,82.2385763 7.76142375,80 5,80 C2.23857625,80 0,82.2385763 0,85 C0,87.7614237 2.23857625,90 5,90 Z" id="Oval-6-Copy-33" fill="#26B626"></path>
                <path d="M125,70 C127.761424,70 130,67.7614237 130,65 C130,62.2385763 127.761424,60 125,60 C122.238576,60 120,62.2385763 120,65 C120,67.7614237 122.238576,70 125,70 Z" id="Oval-6-Copy-32" fill="#26B626"></path>
                <path d="M105,70 C107.761424,70 110,67.7614237 110,65 C110,62.2385763 107.761424,60 105,60 C102.238576,60 100,62.2385763 100,65 C100,67.7614237 102.238576,70 105,70 Z" id="Oval-6-Copy-31" fill="#26B626"></path>
                <path d="M85,70 C87.7614237,70 90,67.7614237 90,65 C90,62.2385763 87.7614237,60 85,60 C82.2385763,60 80,62.2385763 80,65 C80,67.7614237 82.2385763,70 85,70 Z" id="Oval-6-Copy-30" fill="#26B626"></path>
                <path d="M65,70 C67.7614237,70 70,67.7614237 70,65 C70,62.2385763 67.7614237,60 65,60 C62.2385763,60 60,62.2385763 60,65 C60,67.7614237 62.2385763,70 65,70 Z" id="Oval-6-Copy-29" fill="#26B626"></path>
                <path d="M45,70 C47.7614237,70 50,67.7614237 50,65 C50,62.2385763 47.7614237,60 45,60 C42.2385763,60 40,62.2385763 40,65 C40,67.7614237 42.2385763,70 45,70 Z" id="Oval-6-Copy-28" fill="#26B626"></path>
                <path d="M25,70 C27.7614237,70 30,67.7614237 30,65 C30,62.2385763 27.7614237,60 25,60 C22.2385763,60 20,62.2385763 20,65 C20,67.7614237 22.2385763,70 25,70 Z" id="Oval-6-Copy-27" fill="#26B626"></path>
                <path d="M5,70 C7.76142375,70 10,67.7614237 10,65 C10,62.2385763 7.76142375,60 5,60 C2.23857625,60 0,62.2385763 0,65 C0,67.7614237 2.23857625,70 5,70 Z" id="Oval-6-Copy-26" fill="#26B626"></path>
                <path d="M125,50 C127.761424,50 130,47.7614237 130,45 C130,42.2385763 127.761424,40 125,40 C122.238576,40 120,42.2385763 120,45 C120,47.7614237 122.238576,50 125,50 Z" id="Oval-6-Copy-25" fill="#26B626"></path>
                <path d="M105,50 C107.761424,50 110,47.7614237 110,45 C110,42.2385763 107.761424,40 105,40 C102.238576,40 100,42.2385763 100,45 C100,47.7614237 102.238576,50 105,50 Z" id="Oval-6-Copy-24" fill="#26B626"></path>
                <path d="M85,50 C87.7614237,50 90,47.7614237 90,45 C90,42.2385763 87.7614237,40 85,40 C82.2385763,40 80,42.2385763 80,45 C80,47.7614237 82.2385763,50 85,50 Z" id="Oval-6-Copy-23" fill="#26B626"></path>
                <path d="M65,50 C67.7614237,50 70,47.7614237 70,45 C70,42.2385763 67.7614237,40 65,40 C62.2385763,40 60,42.2385763 60,45 C60,47.7614237 62.2385763,50 65,50 Z" id="Oval-6-Copy-22" fill="#FFC107"></path>
                <path d="M45,50 C47.7614237,50 50,47.7614237 50,45 C50,42.2385763 47.7614237,40 45,40 C42.2385763,40 40,42.2385763 40,45 C40,47.7614237 42.2385763,50 45,50 Z" id="Oval-6-Copy-21" fill="#26B626"></path>
                <path d="M25,50 C27.7614237,50 30,47.7614237 30,45 C30,42.2385763 27.7614237,40 25,40 C22.2385763,40 20,42.2385763 20,45 C20,47.7614237 22.2385763,50 25,50 Z" id="Oval-6-Copy-20" fill="#26B626"></path>
                <path d="M5,50 C7.76142375,50 10,47.7614237 10,45 C10,42.2385763 7.76142375,40 5,40 C2.23857625,40 0,42.2385763 0,45 C0,47.7614237 2.23857625,50 5,50 Z" id="Oval-6-Copy-19" fill="#26B626"></path>
                <path d="M125,30 C127.761424,30 130,27.7614237 130,25 C130,22.2385763 127.761424,20 125,20 C122.238576,20 120,22.2385763 120,25 C120,27.7614237 122.238576,30 125,30 Z" id="Oval-6-Copy-18" fill="#26B626"></path>
                <path d="M105,30 C107.761424,30 110,27.7614237 110,25 C110,22.2385763 107.761424,20 105,20 C102.238576,20 100,22.2385763 100,25 C100,27.7614237 102.238576,30 105,30 Z" id="Oval-6-Copy-17" fill="#26B626"></path>
                <path d="M85,30 C87.7614237,30 90,27.7614237 90,25 C90,22.2385763 87.7614237,20 85,20 C82.2385763,20 80,22.2385763 80,25 C80,27.7614237 82.2385763,30 85,30 Z" id="Oval-6-Copy-16" fill="#26B626"></path>
                <path d="M65,30 C67.7614237,30 70,27.7614237 70,25 C70,22.2385763 67.7614237,20 65,20 C62.2385763,20 60,22.2385763 60,25 C60,27.7614237 62.2385763,30 65,30 Z" id="Oval-6-Copy-15" fill="#26B626"></path>
                <path d="M45,30 C47.7614237,30 50,27.7614237 50,25 C50,22.2385763 47.7614237,20 45,20 C42.2385763,20 40,22.2385763 40,25 C40,27.7614237 42.2385763,30 45,30 Z" id="Oval-6-Copy-14" fill="#26B626"></path>
                <path d="M25,30 C27.7614237,30 30,27.7614237 30,25 C30,22.2385763 27.7614237,20 25,20 C22.2385763,20 20,22.2385763 20,25 C20,27.7614237 22.2385763,30 25,30 Z" id="Oval-6-Copy-13" fill="#26B626"></path>
                <path d="M5,30 C7.76142375,30 10,27.7614237 10,25 C10,22.2385763 7.76142375,20 5,20 C2.23857625,20 0,22.2385763 0,25 C0,27.7614237 2.23857625,30 5,30 Z" id="Oval-6-Copy-12" fill="#26B626"></path>
                <path d="M125,10 C127.761424,10 130,7.76142375 130,5 C130,2.23857625 127.761424,0 125,0 C122.238576,0 120,2.23857625 120,5 C120,7.76142375 122.238576,10 125,10 Z" id="Oval-6-Copy-11" fill="#26B626"></path>
                <path d="M105,10 C107.761424,10 110,7.76142375 110,5 C110,2.23857625 107.761424,0 105,0 C102.238576,0 100,2.23857625 100,5 C100,7.76142375 102.238576,10 105,10 Z" id="Oval-6-Copy-10" fill="#26B626"></path>
                <path d="M85,10 C87.7614237,10 90,7.76142375 90,5 C90,2.23857625 87.7614237,0 85,0 C82.2385763,0 80,2.23857625 80,5 C80,7.76142375 82.2385763,10 85,10 Z" id="Oval-6-Copy-9" fill="#26B626"></path>
                <path d="M65,10 C67.7614237,10 70,7.76142375 70,5 C70,2.23857625 67.7614237,0 65,0 C62.2385763,0 60,2.23857625 60,5 C60,7.76142375 62.2385763,10 65,10 Z" id="Oval-6-Copy-8" fill="#26B626"></path>
                <path d="M45,10 C47.7614237,10 50,7.76142375 50,5 C50,2.23857625 47.7614237,0 45,0 C42.2385763,0 40,2.23857625 40,5 C40,7.76142375 42.2385763,10 45,10 Z" id="Oval-6-Copy-7" fill="#26B626"></path>
                <path d="M25,10 C27.7614237,10 30,7.76142375 30,5 C30,2.23857625 27.7614237,0 25,0 C22.2385763,0 20,2.23857625 20,5 C20,7.76142375 22.2385763,10 25,10 Z" id="Oval-6-Copy" fill="#26B626"></path>
                <path d="M5,10 C7.76142375,10 10,7.76142375 10,5 C10,2.23857625 7.76142375,0 5,0 C2.23857625,0 0,2.23857625 0,5 C0,7.76142375 2.23857625,10 5,10 Z" id="Oval-6" fill="#26B626"></path>
            </g>
            <text id="March" font-family="Roboto, sans-serif" font-size="14" font-weight="400" fill="#222222">
                <tspan x="113.638184" y="115">March</tspan>
            </text>
            <text id="April" font-family="Roboto, sans-serif" font-size="14" font-weight="400" fill="#222222">
                <tspan x="285" y="115">April</tspan>
            </text>
            <text id="May" font-family="Roboto, sans-serif" font-size="14" font-weight="400" fill="#222222">
                <tspan x="465" y="115">May</tspan>
            </text>
            <rect id="Rectangle-3" fill="#F2F2F2" x="100" y="86" width="500" height="1"></rect>
            <text id="Uptime" font-family="Roboto, sans-serif" font-size="20" font-weight="400" fill="#222222">
                <tspan x="306.405273" y="71">Uptime</tspan>
            </text>
        </g>
    </g>
</svg>
