<svg width="375" height="423" viewBox="0 0 375 423" fill="none" xmlns="http://www.w3.org/2000/svg">
<path d="M10.8715 348.806H8.57739V265.556C8.57739 261.786 11.2156 258.895 13.5352 256.347C13.8156 256.029 14.096 255.723 14.3637 255.43C14.4911 255.29 14.6186 255.137 14.7588 254.985C17.1166 252.322 20.3284 248.667 25.4647 248.667L85.4943 248.654V250.947L25.4647 250.96C21.3608 250.96 18.646 254.029 16.4794 256.5C16.3392 256.653 16.2117 256.806 16.0843 256.946C15.8039 257.252 15.5235 257.57 15.2304 257.889C13.1911 260.13 10.8715 262.665 10.8715 265.556V348.806Z" fill="#F44247"/>
<path d="M18.7226 356.703H16.4285V273.453C16.4285 269.683 19.0667 266.792 21.3863 264.244C21.6667 263.926 21.9471 263.62 22.2148 263.327C22.3422 263.187 22.4697 263.034 22.6099 262.882C24.9677 260.22 28.1795 256.564 33.3285 256.564H116.631V258.857H33.3158C29.2118 258.857 26.4971 261.926 24.3177 264.397C24.1775 264.55 24.0501 264.703 23.9226 264.843C23.6422 265.149 23.3618 265.467 23.0687 265.786C21.0295 268.027 18.7098 270.562 18.7098 273.453V356.703H18.7226Z" fill="#15265F"/>
<path d="M115.751 372.777H32.4492V370.485H115.751C119.855 370.485 122.57 367.415 124.749 364.944C124.89 364.791 125.017 364.638 125.145 364.498C125.425 364.193 125.705 363.874 125.998 363.556C128.038 361.314 130.357 358.779 130.357 355.888V272.638H132.651V355.888C132.651 359.658 130.013 362.55 127.694 365.097C127.413 365.415 127.133 365.721 126.865 366.014C126.738 366.154 126.61 366.307 126.47 366.46C124.112 369.135 120.888 372.777 115.751 372.777Z" fill="#15265F"/>
<path d="M26.5226 364.091H24.2285V281.261C24.1265 277.478 26.752 274.574 29.0844 272.027C29.3648 271.721 29.6451 271.415 29.9128 271.11C30.0402 270.97 30.1677 270.817 30.2951 270.677C32.653 268.015 35.8648 264.359 41.0138 264.359H123.959V266.652H41.0138C36.9099 266.652 34.1952 269.721 32.0157 272.192C31.8883 272.345 31.7481 272.485 31.6206 272.638C31.353 272.944 31.0599 273.262 30.7795 273.568C28.6383 275.912 26.4334 278.332 26.5226 281.21V281.249V364.091Z" fill="#15265F"/>
<path d="M123.552 380.534H40.2366V378.242H123.539C127.643 378.242 130.357 375.172 132.537 372.701C132.677 372.548 132.804 372.395 132.932 372.255C133.212 371.95 133.493 371.631 133.786 371.313C135.825 369.071 138.145 366.536 138.145 363.645V280.395H140.439V363.645C140.439 367.415 137.801 370.306 135.481 372.854C135.201 373.172 134.92 373.478 134.653 373.771C134.525 373.911 134.398 374.064 134.257 374.217C131.9 376.892 128.688 380.534 123.552 380.534Z" fill="#15265F"/>
<path d="M107.798 364.957L24.1775 364.931V362.639L107.798 362.664C111.902 362.664 114.617 359.595 116.796 357.124C116.924 356.971 117.064 356.831 117.191 356.678C117.472 356.372 117.752 356.054 118.045 355.735C120.085 353.494 122.404 350.959 122.404 348.067L122.417 264.779H124.711L124.698 348.067C124.698 351.838 122.06 354.729 119.74 357.276C119.46 357.595 119.18 357.901 118.912 358.194C118.785 358.334 118.657 358.486 118.53 358.627C116.159 361.301 112.947 364.957 107.798 364.957Z" fill="#F44247"/>
<path d="M132.677 356.703H130.383V273.453C130.383 269.683 133.021 266.792 135.341 264.244C135.621 263.926 135.901 263.62 136.169 263.327C136.297 263.187 136.424 263.034 136.564 262.882C138.922 260.22 142.134 256.564 147.27 256.564H230.572V258.857H147.27C143.166 258.857 140.451 261.926 138.285 264.397C138.145 264.55 138.017 264.703 137.89 264.843C137.609 265.149 137.329 265.467 137.036 265.786C134.997 268.027 132.677 270.562 132.677 273.453V356.703Z" fill="#15265F"/>
<path d="M229.706 372.777H146.403V370.485H229.706C233.809 370.485 236.524 367.415 238.704 364.944C238.844 364.791 238.971 364.638 239.099 364.498C239.379 364.193 239.659 363.874 239.953 363.556C241.992 361.314 244.311 358.779 244.311 355.888V272.638H246.606V355.888C246.606 359.658 243.967 362.55 241.648 365.097C241.367 365.415 241.087 365.721 240.819 366.014C240.692 366.154 240.564 366.307 240.424 366.46C238.066 369.135 234.855 372.777 229.706 372.777Z" fill="#15265F"/>
<path d="M140.49 364.091H138.195V281.261C138.094 277.478 140.732 274.574 143.051 272.027C143.332 271.721 143.612 271.415 143.88 271.11C144.007 270.97 144.135 270.817 144.262 270.677C146.62 268.015 149.832 264.359 154.981 264.359H237.926V266.652H154.981C150.877 266.652 148.162 269.721 145.983 272.192C145.855 272.345 145.715 272.485 145.588 272.638C145.32 272.944 145.027 273.262 144.746 273.568C142.605 275.912 140.4 278.332 140.49 281.21V281.249V364.091Z" fill="#15265F"/>
<path d="M237.506 380.534H154.203V378.242H237.506C241.61 378.242 244.324 375.172 246.504 372.701C246.644 372.548 246.771 372.395 246.899 372.255C247.179 371.95 247.46 371.631 247.753 371.313C249.792 369.071 252.112 366.536 252.112 363.645V280.395H254.406V363.645C254.406 367.415 251.767 370.306 249.448 372.854C249.167 373.172 248.887 373.478 248.607 373.784C248.479 373.924 248.352 374.077 248.212 374.23C245.866 376.892 242.642 380.534 237.506 380.534Z" fill="#15265F"/>
<path d="M221.765 364.957L138.004 364.919V362.626L221.765 362.664C225.869 362.664 228.584 359.595 230.763 357.124C230.891 356.971 231.031 356.831 231.159 356.678C231.439 356.372 231.719 356.054 232.012 355.735C234.052 353.494 236.371 350.959 236.371 348.067L236.384 264.779H238.678L238.665 348.067C238.665 351.838 236.027 354.729 233.708 357.276C233.427 357.595 233.147 357.901 232.866 358.206C232.739 358.346 232.612 358.499 232.484 358.639C230.126 361.301 226.902 364.957 221.765 364.957Z" fill="#F44247"/>
<path d="M246.644 356.703H244.35V273.453C244.35 269.683 246.988 266.792 249.307 264.244C249.588 263.926 249.868 263.62 250.136 263.327C250.263 263.187 250.391 263.034 250.531 262.882C252.889 260.22 256.101 256.564 261.237 256.564H344.539V258.857H261.237C257.133 258.857 254.418 261.926 252.252 264.397C252.111 264.55 251.984 264.703 251.857 264.843C251.576 265.149 251.296 265.467 251.003 265.786C248.963 268.027 246.644 270.562 246.644 273.453V356.703Z" fill="#15265F"/>
<path d="M343.672 372.777H260.37V370.485H343.672C347.776 370.485 350.491 367.415 352.67 364.944C352.811 364.791 352.938 364.638 353.065 364.498C353.346 364.193 353.626 363.874 353.919 363.556C355.959 361.314 358.278 358.779 358.278 355.888V272.638H360.572V355.888C360.572 359.658 357.934 362.55 355.614 365.097C355.334 365.415 355.054 365.721 354.786 366.014C354.659 366.154 354.531 366.307 354.391 366.46C352.033 369.135 348.809 372.777 343.672 372.777Z" fill="#15265F"/>
<path d="M254.444 364.091H252.15V281.261C252.048 277.466 254.686 274.574 257.005 272.027C257.286 271.721 257.566 271.415 257.834 271.123C257.961 270.982 258.089 270.83 258.216 270.689C260.574 268.027 263.786 264.372 268.935 264.372H351.88V266.665H268.935C264.831 266.665 262.116 269.734 259.937 272.205C259.809 272.358 259.669 272.498 259.542 272.651C259.274 272.957 258.994 273.262 258.701 273.581C256.559 275.924 254.355 278.357 254.444 281.223V281.261V364.091Z" fill="#15265F"/>
<path d="M351.46 380.534H268.157V378.242H351.46C355.564 378.242 358.278 375.172 360.445 372.701C360.585 372.548 360.713 372.395 360.84 372.255C361.12 371.95 361.401 371.631 361.694 371.313C363.733 369.071 366.053 366.536 366.053 363.645V280.395H368.347V363.645C368.347 367.415 365.709 370.306 363.389 372.854C363.109 373.172 362.828 373.478 362.561 373.771C362.433 373.911 362.306 374.064 362.166 374.217C359.82 376.892 356.596 380.534 351.46 380.534Z" fill="#15265F"/>
<path d="M335.72 364.957L251.958 364.779V362.486L335.72 362.664C339.823 362.664 342.538 359.595 344.718 357.124C344.845 356.971 344.985 356.818 345.113 356.678C345.393 356.372 345.673 356.054 345.967 355.735C348.006 353.493 350.325 350.959 350.325 348.067L350.338 264.283H352.632L352.62 348.067C352.62 351.838 349.981 354.729 347.662 357.276C347.381 357.595 347.101 357.9 346.833 358.193C346.706 358.334 346.578 358.486 346.451 358.627C344.08 361.301 340.856 364.957 335.72 364.957Z" fill="#F44247"/>
<path d="M70.9648 234.924H68.6707V151.674C68.6707 147.904 71.3089 145.012 73.6285 142.465C73.9089 142.146 74.1893 141.841 74.4697 141.535C74.5971 141.395 74.7246 141.242 74.8648 141.089C77.2226 138.427 80.4344 134.772 85.5834 134.772L150.329 134.759V137.051L85.5834 137.064C81.4795 137.064 78.7648 140.134 76.5854 142.605C76.4452 142.758 76.3177 142.911 76.1903 143.051C75.9099 143.356 75.6295 143.675 75.3364 143.993C73.2971 146.235 70.9775 148.77 70.9775 151.661V234.924H70.9648Z" fill="#F44247"/>
<path d="M78.8159 242.821H76.5217V159.571C76.5217 155.801 79.16 152.909 81.4796 150.362C81.76 150.043 82.0404 149.738 82.308 149.445C82.4355 149.305 82.5629 149.152 82.7031 148.999C85.061 146.337 88.2727 142.681 93.409 142.681H176.711V144.974H93.409C89.3051 144.974 86.5904 148.044 84.4237 150.515C84.2835 150.667 84.1561 150.82 84.0286 150.96C83.7482 151.266 83.4678 151.585 83.1747 151.903C81.1355 154.145 78.8159 156.679 78.8159 159.571V242.821Z" fill="#15265F"/>
<path d="M175.844 258.895H92.5422V256.602H175.844C179.948 256.602 182.663 253.533 184.842 251.062C184.983 250.909 185.11 250.756 185.238 250.616C185.518 250.31 185.798 249.992 186.091 249.673C188.131 247.431 190.45 244.897 190.45 242.005V158.756H192.744V242.005C192.744 245.776 190.106 248.667 187.787 251.214C187.506 251.533 187.226 251.838 186.958 252.131C186.831 252.272 186.703 252.424 186.563 252.577C184.205 255.239 180.981 258.895 175.844 258.895Z" fill="#15265F"/>
<path d="M86.6158 250.208H84.3217V167.366C84.2198 163.583 86.858 160.679 89.1776 158.131C89.458 157.826 89.7384 157.52 90.006 157.214C90.1335 157.074 90.2609 156.921 90.4011 156.769C92.759 154.106 95.9708 150.451 101.12 150.451H184.065V152.744H101.107C97.0031 152.744 94.2884 155.813 92.109 158.284C91.9688 158.437 91.8413 158.59 91.7139 158.73C91.4462 159.036 91.1531 159.354 90.8727 159.66C88.7315 162.004 86.5266 164.424 86.6158 167.302V167.34V250.208Z" fill="#15265F"/>
<path d="M183.644 266.652H100.33V264.359H183.632C187.736 264.359 190.45 261.289 192.63 258.818C192.77 258.666 192.897 258.513 193.025 258.373C193.305 258.067 193.586 257.748 193.879 257.43C195.918 255.188 198.238 252.654 198.238 249.762V166.512H200.532V249.762C200.532 253.533 197.894 256.424 195.574 258.971C195.294 259.29 195.013 259.595 194.733 259.901C194.605 260.041 194.478 260.194 194.338 260.347C191.993 262.996 188.781 266.652 183.644 266.652Z" fill="#15265F"/>
<path d="M167.892 251.061L84.22 250.947V248.654L167.892 248.769C171.996 248.769 174.71 245.699 176.877 243.228C177.017 243.075 177.145 242.922 177.272 242.782C177.553 242.477 177.833 242.158 178.126 241.84C180.165 239.598 182.485 237.063 182.485 234.172L182.498 150.884H184.792L184.779 234.172C184.779 237.942 182.141 240.834 179.821 243.381C179.541 243.699 179.26 244.005 178.98 244.298C178.853 244.438 178.725 244.591 178.585 244.744C176.253 247.419 173.028 251.061 167.892 251.061Z" fill="#F44247"/>
<path d="M192.77 242.821H190.476V159.571C190.476 155.801 193.114 152.909 195.434 150.362C195.714 150.043 195.995 149.738 196.275 149.432C196.403 149.292 196.53 149.139 196.67 148.986C199.028 146.324 202.24 142.669 207.389 142.669H290.691V144.961H207.389C203.285 144.961 200.57 148.031 198.391 150.502C198.251 150.655 198.123 150.808 197.996 150.948C197.715 151.253 197.435 151.572 197.142 151.89C195.103 154.132 192.783 156.667 192.783 159.558V242.821H192.77Z" fill="#15265F"/>
<path d="M289.799 258.895H206.497V256.602H289.799C293.903 256.602 296.617 253.533 298.797 251.062C298.937 250.909 299.065 250.756 299.192 250.616C299.472 250.31 299.753 249.992 300.046 249.673C302.085 247.431 304.405 244.897 304.405 242.005V158.756H306.699V242.005C306.699 245.776 304.061 248.667 301.741 251.214C301.461 251.52 301.18 251.838 300.913 252.131C300.785 252.272 300.658 252.424 300.517 252.577C298.16 255.239 294.948 258.895 289.799 258.895Z" fill="#15265F"/>
<path d="M200.583 250.208H198.289V167.366C198.187 163.57 200.825 160.679 203.144 158.131C203.425 157.826 203.705 157.52 203.973 157.227C204.1 157.087 204.228 156.934 204.368 156.781C206.726 154.119 209.938 150.464 215.074 150.464H298.019V152.756H215.074C210.97 152.756 208.255 155.826 206.089 158.297C205.948 158.45 205.821 158.603 205.693 158.743C205.426 159.049 205.145 159.354 204.852 159.673C202.711 162.016 200.506 164.449 200.595 167.315V167.353V250.208H200.583Z" fill="#15265F"/>
<path d="M298.618 266.652H215.316V264.359H298.618C302.722 264.359 305.437 261.289 307.604 258.818C307.744 258.666 307.871 258.513 307.999 258.373C308.279 258.067 308.56 257.748 308.853 257.43C310.892 255.188 313.212 252.654 313.212 249.762V166.512H315.506V249.762C315.506 253.533 312.867 256.424 310.548 258.971C310.267 259.29 309.987 259.595 309.719 259.888C309.592 260.028 309.465 260.181 309.324 260.334C306.979 262.996 303.755 266.652 298.618 266.652Z" fill="#15265F"/>
<path d="M281.858 251.061L198.646 251.023V248.731L281.858 248.769C285.962 248.769 288.677 245.699 290.844 243.228C290.984 243.075 291.111 242.922 291.239 242.782C291.519 242.477 291.8 242.158 292.093 241.84C294.132 239.598 296.452 237.063 296.452 234.172V150.387H298.746V234.172C298.746 237.942 296.108 240.833 293.788 243.381C293.508 243.699 293.227 244.005 292.959 244.298C292.832 244.438 292.705 244.591 292.564 244.744C290.219 247.419 286.995 251.061 281.858 251.061Z" fill="#F44247"/>
<path d="M238.665 342.157H236.371L236.499 265.556C236.499 261.786 239.137 258.895 241.457 256.347C241.737 256.029 242.017 255.723 242.285 255.43C242.413 255.29 242.54 255.137 242.68 254.985C245.038 252.322 248.25 248.667 253.399 248.667H336.701V250.96H253.399C249.295 250.96 246.58 254.029 244.401 256.5C244.261 256.653 244.133 256.806 244.006 256.946C243.725 257.252 243.445 257.57 243.152 257.889C241.113 260.13 238.793 262.665 238.793 265.556L238.665 342.157Z" fill="#F44247"/>
<path d="M124.635 340.234H122.341L122.532 265.556C122.532 261.786 125.17 258.895 127.49 256.347C127.77 256.029 128.05 255.723 128.331 255.418C128.458 255.277 128.586 255.125 128.726 254.972C131.084 252.31 134.296 248.654 139.445 248.654L199.551 248.718V251.011L139.457 250.947C135.353 250.947 132.639 254.017 130.472 256.488C130.332 256.64 130.204 256.793 130.077 256.933C129.796 257.239 129.516 257.557 129.223 257.876C127.184 260.118 124.864 262.652 124.864 265.544L124.635 340.234Z" fill="#F44247"/>
<path d="M135.481 121.041H133.187V37.7783C133.187 34.0081 135.825 31.1168 138.144 28.5693C138.425 28.2509 138.705 27.9452 138.973 27.6523C139.1 27.5122 139.228 27.3593 139.368 27.2065C141.726 24.5444 144.938 20.8889 150.074 20.8889H233.376V23.1815H150.074C145.97 23.1815 143.255 26.2512 141.089 28.7222C140.948 28.875 140.821 29.0279 140.693 29.168C140.413 29.4737 140.133 29.7921 139.839 30.1105C137.8 32.3523 135.481 34.887 135.481 37.7783V121.041Z" fill="#F44247"/>
<path d="M143.319 128.925H141.025V45.6753C141.025 41.9052 143.663 39.0138 145.983 36.4664C146.263 36.148 146.544 35.8423 146.811 35.5493C146.939 35.4092 147.066 35.2564 147.194 35.1163C149.551 32.4542 152.763 28.7986 157.912 28.7986H241.214V31.0913H157.912C153.808 31.0913 151.094 34.161 148.914 36.632C148.787 36.7848 148.646 36.9249 148.519 37.0778C148.239 37.3835 147.958 37.7019 147.665 38.0203C145.626 40.2621 143.306 42.7968 143.306 45.6881V128.925H143.319Z" fill="#15265F"/>
<path d="M240.348 145.012H157.046V142.719H240.348C244.452 142.719 247.167 139.65 249.346 137.179C249.486 137.026 249.614 136.873 249.741 136.733C250.021 136.427 250.302 136.109 250.595 135.79C252.634 133.549 254.954 131.014 254.954 128.123V44.8729H257.248V128.123C257.248 131.893 254.61 134.784 252.29 137.332C252.01 137.65 251.729 137.956 251.462 138.249C251.334 138.389 251.207 138.542 251.067 138.695C248.709 141.357 245.497 145.012 240.348 145.012Z" fill="#15265F"/>
<path d="M151.132 136.325H148.838V53.4832C148.736 49.7003 151.374 46.7962 153.693 44.2488C153.974 43.9431 154.254 43.6374 154.522 43.3317C154.649 43.1916 154.777 43.0388 154.917 42.8859C157.275 40.2239 160.487 36.5683 165.636 36.5683H248.581V38.861H165.636C161.532 38.861 158.817 41.9306 156.638 44.4016C156.497 44.5545 156.37 44.7073 156.242 44.8474C155.975 45.1531 155.682 45.4715 155.401 45.7772C153.26 48.1209 151.055 50.5409 151.144 53.4195V53.4577V136.325H151.132Z" fill="#15265F"/>
<path d="M248.148 152.756H164.846V150.464H248.148C252.252 150.464 254.967 147.394 257.146 144.923C257.273 144.77 257.414 144.63 257.541 144.477C257.821 144.172 258.102 143.853 258.395 143.535C260.434 141.293 262.754 138.758 262.754 135.867V52.6171H265.048V135.867C265.048 139.637 262.41 142.528 260.09 145.076C259.81 145.394 259.529 145.7 259.262 145.993C259.134 146.133 259.007 146.286 258.879 146.426C256.509 149.114 253.284 152.756 248.148 152.756Z" fill="#15265F"/>
<path d="M232.395 137.179L148.736 137.064V134.772L232.395 134.886C236.499 134.886 239.213 131.817 241.38 129.346C241.52 129.193 241.648 129.04 241.775 128.9C242.055 128.594 242.336 128.276 242.629 127.957C244.668 125.715 246.988 123.181 246.988 120.289L246.822 36.5046H249.116L249.282 120.289C249.282 124.06 246.644 126.951 244.324 129.498C244.044 129.817 243.763 130.123 243.483 130.428C243.355 130.568 243.228 130.721 243.088 130.874C240.755 133.523 237.544 137.179 232.395 137.179Z" fill="#F44247"/>
<path d="M184.779 227.6H182.485L182.625 151.674C182.625 147.903 185.263 145.012 187.583 142.465C187.863 142.146 188.144 141.841 188.411 141.548C188.539 141.408 188.666 141.255 188.806 141.102C191.164 138.44 194.376 134.784 199.525 134.784H282.827V137.077H199.525C195.421 137.077 192.706 140.147 190.527 142.618C190.387 142.77 190.259 142.923 190.132 143.063C189.852 143.369 189.571 143.687 189.278 144.006C187.239 146.248 184.919 148.782 184.919 151.674L184.779 227.6Z" fill="#F44247"/>
</svg>
