<svg width="682" height="373" viewBox="0 0 682 373" fill="none" xmlns="http://www.w3.org/2000/svg">
<path d="M2.29047 182.608L0.196257 182.608L0.196284 30.6683C0.196285 24.1835 4.85009 19.07 8.96872 14.5608C9.5039 13.9798 10.0158 13.4219 10.5045 12.8641C10.7372 12.6084 10.9699 12.3295 11.2258 12.0506C15.391 7.33226 21.0919 0.893925 30.0039 0.893926L182.09 0.893953L182.09 2.98583L29.9807 2.9858C22.0226 2.9858 16.9035 8.77333 12.7848 13.4452C12.5521 13.7241 12.2962 14.003 12.0635 14.2587C11.5748 14.8165 11.0397 15.3976 10.5045 15.9787C6.64181 20.2089 2.26723 24.997 2.26723 30.6683L2.2672 182.608L2.29047 182.608Z" fill="#F44247"/>
<path d="M16.601 196.996L14.5068 196.996L14.5068 45.0791C14.5068 38.5943 19.1606 33.4808 23.2793 28.9716C23.7912 28.3905 24.3264 27.8327 24.815 27.2749C25.0477 27.0192 25.2804 26.7403 25.5364 26.4614C29.7015 21.743 35.4024 15.3047 44.3145 15.3047L196.401 15.3047L196.401 17.3966L44.3145 17.3966C36.3565 17.3966 31.2373 23.1841 27.1187 27.856C26.886 28.1349 26.63 28.4138 26.3973 28.6695C25.9087 29.2273 25.3735 29.8084 24.8383 30.3894C20.9756 34.6197 16.601 39.4078 16.601 45.0791L16.601 196.996Z" fill="#004E86"/>
<path d="M30.8647 210.5L28.7705 210.5L28.7705 59.327C28.5844 52.8189 33.2382 47.7055 37.3568 43.1963C37.8687 42.6385 38.3807 42.0574 38.8693 41.5228C39.102 41.2671 39.3347 40.9882 39.5907 40.7093C43.7558 35.9909 49.4567 29.5526 58.3688 29.5526L209.804 29.5526L209.804 31.6445L58.3688 31.6445C50.4108 31.6445 45.2916 37.432 41.1729 42.1039C40.9403 42.3828 40.6843 42.6617 40.4516 42.9174C39.963 43.4752 39.451 44.0331 38.9158 44.6141C35.0765 48.8444 30.7019 53.6324 30.8648 59.2805L30.8648 59.3037L30.8647 210.5Z" fill="#004E86"/>
<path d="M679.132 191.088L681.226 191.088L681.226 343.028C681.226 349.513 676.573 354.627 672.454 359.136C671.919 359.717 671.407 360.275 670.918 360.833C670.685 361.088 670.453 361.367 670.197 361.646C666.032 366.365 660.331 372.803 651.419 372.803L499.332 372.803L499.332 370.711L651.442 370.711C659.4 370.711 664.519 364.923 668.638 360.252C668.87 359.973 669.126 359.694 669.359 359.438C669.848 358.88 670.383 358.299 670.918 357.718C674.781 353.488 679.155 348.7 679.155 343.028L679.155 191.088L679.132 191.088Z" fill="#F44247"/>
<path d="M664.822 176.701L666.916 176.701L666.916 328.618C666.916 335.103 662.262 340.216 658.143 344.725C657.631 345.306 657.096 345.864 656.608 346.422C656.375 346.678 656.142 346.956 655.886 347.235C651.721 351.954 646.02 358.392 637.108 358.392L485.022 358.392L485.022 356.3L637.108 356.3C645.066 356.3 650.185 350.513 654.304 345.841C654.537 345.562 654.793 345.283 655.025 345.027C655.514 344.469 656.049 343.888 656.584 343.307C660.447 339.077 664.822 334.289 664.822 328.618L664.822 176.701Z" fill="#004E86"/>
<path d="M650.558 163.197L652.652 163.197L652.652 314.37C652.838 320.878 648.184 325.991 644.066 330.501C643.554 331.058 643.042 331.639 642.553 332.174C642.321 332.43 642.088 332.709 641.832 332.988C637.667 337.706 631.966 344.144 623.054 344.144L471.619 344.144L471.619 342.052L623.054 342.052C631.012 342.052 636.131 336.265 640.25 331.593C640.482 331.314 640.738 331.035 640.971 330.779C641.46 330.222 641.972 329.664 642.507 329.083C646.346 324.852 650.721 320.064 650.558 314.416L650.558 314.393L650.558 163.197Z" fill="#004E86"/>
</svg>
