<?xml version="1.0" encoding="UTF-8" standalone="no"?>
<svg width="700px" height="306px" viewBox="0 0 700 306" version="1.1" xmlns="http://www.w3.org/2000/svg" xmlns:xlink="http://www.w3.org/1999/xlink">
    <!-- Generator: Sketch 39.1 (31720) - http://www.bohemiancoding.com/sketch -->
    <title>Advanved Reporting</title>
    <desc>Created with Sketch.</desc>
    <defs>
        <rect id="path-1" x="0" y="0" width="300" height="100"></rect>
        <mask id="mask-2" maskContentUnits="userSpaceOnUse" maskUnits="objectBoundingBox" x="0" y="0" width="300" height="100" fill="white">
            <use xlink:href="#path-1"></use>
        </mask>
        <rect id="path-3" x="340" y="0" width="300" height="100"></rect>
        <mask id="mask-4" maskContentUnits="userSpaceOnUse" maskUnits="objectBoundingBox" x="0" y="0" width="300" height="100" fill="white">
            <use xlink:href="#path-3"></use>
        </mask>
        <rect id="path-5" x="0" y="140" width="300" height="100"></rect>
        <mask id="mask-6" maskContentUnits="userSpaceOnUse" maskUnits="objectBoundingBox" x="0" y="0" width="300" height="100" fill="white">
            <use xlink:href="#path-5"></use>
        </mask>
        <rect id="path-7" x="340" y="140" width="300" height="100"></rect>
        <mask id="mask-8" maskContentUnits="userSpaceOnUse" maskUnits="objectBoundingBox" x="0" y="0" width="300" height="100" fill="white">
            <use xlink:href="#path-7"></use>
        </mask>
    </defs>
    <g id="Page-1" stroke="none" stroke-width="1" fill="none" fill-rule="evenodd">
        <g id="Advanved-Reporting">
            <g id="Browser">
                <rect id="Rectangle-8" fill="#DEDEDE" x="0" y="0" width="700" height="306" rx="3"></rect>
                <g id="Browser-Top" transform="translate(13.000000, 11.000000)">
                    <circle id="Oval-1" fill="#F76461" cx="3.5" cy="7.5" r="3.5"></circle>
                    <circle id="Oval-1" fill="#FDBC4F" cx="13.5" cy="7.5" r="3.5"></circle>
                    <circle id="Oval-1" fill="#40C754" cx="23.5" cy="7.5" r="3.5"></circle>
                    <rect id="Search-Bar" fill="#FFFFFF" x="137" y="0" width="400" height="15" rx="3"></rect>
                    <text id="http://enterpriserea" font-family="Roboto, sans-serif" font-size="8" font-weight="300" fill="#85828E">
                        <tspan x="297.9" y="11">http://enterpriseready.io</tspan>
                    </text>
                </g>
                <g id="Background" transform="translate(0.000000, 35.000000)">
                    <rect id="Rectangle-2" fill="#FFFFFF" x="5" y="0" width="690" height="271"></rect>
                    <rect id="Rectangle-2" fill="#F4F4F4" x="695" y="0" width="5" height="271"></rect>
                    <rect id="Rectangle-2" fill="#F4F4F4" x="0" y="0" width="5" height="271"></rect>
                </g>
            </g>
            <g id="Group-14" transform="translate(30.000000, 65.000000)">
                <use id="Rectangle-6" stroke="#DEDEDE" mask="url(#mask-2)" stroke-width="2" xlink:href="#path-1"></use>
                <path d="M13,84.8804171 C13,84.8804171 19.6934932,26.0131363 23.6225552,26.0131363 C31.9650263,26.0131363 40.7850654,66.0004146 50.5067959,66.9636444 C54.46136,67.355463 58.3473237,40.6219377 62.4781131,41.0115809 C67.7675086,41.5105114 71.4665915,80.8422717 76.9883035,81.502398 C82.9998293,82.2210819 90.2142893,52.076789 96.4349223,52.6425824 C102.590311,53.2024414 107.976635,25.3083201 114.243521,26.0131363 C123.643184,27.0702857 134.923451,45.470946 144.363771,47.4205494 C147.687341,48.106929 151.318689,56.0955829 154.616987,56.8065872 C157.502075,57.4285172 160.442886,63.7135281 163.299314,64.3270912 C168.207974,65.3814755 171.169271,76.4259687 175.961869,77.393116 C177.576472,77.7189433 179.351344,64.0249782 180.95247,64.3270912 C183.736542,64.8524116 186.545656,71.3845582 189.281522,71.9023209 C193.185007,72.6410555 200.872096,45.231116 204.656056,45.8930988 C209.421224,46.7267385 219.033282,65.7679171 223.499757,66.9636459 C228.852219,68.3965643 239.283085,48.137591 244.007385,49.421072 C247.650417,50.4107978 252.590381,33.8829635 255.726689,35.2751293 C259.323334,36.8716333 267.134244,29.1765495 270.040228,31.7726951 C272.957792,34.3791865 273.609752,63.2880778 275.659664,66.9636459 C285.424769,84.472847 288,84.8804171 288,84.8804171" id="Line" stroke="#FFC107" stroke-width="2" stroke-linecap="square"></path>
                <use id="Rectangle-6" stroke="#DEDEDE" mask="url(#mask-4)" stroke-width="2" xlink:href="#path-3"></use>
                <rect id="Rectangle-7" fill="#963EAA" x="365" y="66" width="25" height="17"></rect>
                <rect id="Rectangle-7" fill-opacity="0.2" fill="#963EAA" transform="translate(377.500000, 61.000000) scale(1, -1) translate(-377.500000, -61.000000) " x="365" y="56" width="25" height="10"></rect>
                <rect id="Rectangle-7" fill="#963EAA" x="410" y="49" width="25" height="34"></rect>
                <rect id="Rectangle-7" fill-opacity="0.2" fill="#963EAA" transform="translate(422.500000, 39.000000) scale(1, -1) translate(-422.500000, -39.000000) " x="410" y="29" width="25" height="20"></rect>
                <rect id="Rectangle-7" fill="#963EAA" x="455" y="24" width="25" height="59"></rect>
                <rect id="Rectangle-7" fill-opacity="0.2" fill="#963EAA" transform="translate(467.500000, 22.500000) scale(1, -1) translate(-467.500000, -22.500000) " x="455" y="21" width="25" height="3"></rect>
                <rect id="Rectangle-7" fill="#963EAA" x="500" y="33" width="25" height="50"></rect>
                <polygon id="Rectangle-7" fill-opacity="0.2" fill="#963EAA" transform="translate(512.500000, 30.500000) scale(1, -1) translate(-512.500000, -30.500000) " points="500 28 525 28 525 33 500 33"></polygon>
                <rect id="Rectangle-7" fill="#963EAA" x="545" y="66" width="25" height="17"></rect>
                <rect id="Rectangle-7" fill-opacity="0.2" fill="#963EAA" transform="translate(557.500000, 62.500000) scale(1, -1) translate(-557.500000, -62.500000) " x="545" y="58" width="25" height="9"></rect>
                <rect id="Rectangle-7" fill="#963EAA" x="590" y="49" width="25" height="34"></rect>
                <rect id="Rectangle-7" fill-opacity="0.2" fill="#963EAA" transform="translate(602.500000, 40.500000) scale(1, -1) translate(-602.500000, -40.500000) " x="590" y="32" width="25" height="17"></rect>
                <use id="Rectangle-6" stroke="#DEDEDE" mask="url(#mask-6)" stroke-width="2" xlink:href="#path-5"></use>
                <use id="Rectangle-6" stroke="#DEDEDE" mask="url(#mask-8)" stroke-width="2" xlink:href="#path-7"></use>
            </g>
            <path d="M395,248.825458 C395,248.825458 424.874015,240.397361 428.822167,240.397361 C437.654344,240.397361 449.29128,244.425974 459.277212,244.611409 C467.228437,244.759061 485.045713,238.354564 493.386383,238.523138 C501.891855,238.695042 515.150545,250.365239 523.568906,250.699072 C531.257284,251.003957 548.551128,238.392389 555.876285,238.523138 C571.031004,238.793639 591.954364,229.956112 603.586953,231.102708 C612.226524,231.95429 620.278923,241.44294 625.933547,243.519328 C640.646292,248.921875 645,248.825458 645,248.825458" id="Line" stroke="#E84C4C" stroke-width="2" stroke-linecap="square"></path>
            <path d="M395,279.422288 C395,279.422288 424.765796,279.422289 428.713948,279.422289 C437.546125,279.422289 452.089937,273.930723 462.075868,274.116159 C470.027093,274.26381 480.517938,273.947585 488.858608,274.116159 C497.36408,274.288063 515.150545,280.96207 523.568906,281.295902 C531.257284,281.600787 556.702235,281.165154 564.027391,281.295903 C579.18211,281.566404 592.379335,272.969562 604.011924,274.116159 C612.651495,274.96774 623.277089,264.992417 633.474842,270.857511 C643.672596,276.722605 645,279.422288 645,279.422288" id="Line" stroke="#8F2E2E" stroke-width="2" stroke-linecap="square"></path>
            <g id="Group-15" transform="translate(65.000000, 220.000000)">
                <rect id="Rectangle-9" fill="#DDDDDD" x="0" y="0" width="230" height="10"></rect>
                <rect id="Rectangle-9" fill="#DDDDDD" x="0" y="20" width="230" height="10"></rect>
                <rect id="Rectangle-9" fill="#DDDDDD" x="0" y="40" width="230" height="10"></rect>
                <rect id="Rectangle-9" fill="#DDDDDD" x="0" y="60" width="230" height="10"></rect>
                <rect id="Rectangle-9" fill="#50AD54" x="0" y="0" width="132" height="10"></rect>
                <rect id="Rectangle-9" fill="#50AD54" x="0" y="20" width="171" height="10"></rect>
                <rect id="Rectangle-9" fill="#50AD54" x="0" y="40" width="48" height="10"></rect>
                <rect id="Rectangle-9" fill="#50AD54" x="0" y="60" width="109" height="10"></rect>
            </g>
        </g>
    </g>
</svg>
