<?xml version="1.0" encoding="utf-8"?>
<!-- Generator: Adobe Illustrator 25.2.3, SVG Export Plug-In . SVG Version: 6.00 Build 0)  -->
<svg version="1.1" id="Layer_1" xmlns="http://www.w3.org/2000/svg" xmlns:xlink="http://www.w3.org/1999/xlink" x="0px" y="0px"
	 viewBox="0 0 1241.1 1195.6" style="enable-background:new 0 0 1241.1 1195.6;" xml:space="preserve">
<style type="text/css">
	.st0{fill:#15265F;}
	.st1{fill:#F8F6EF;}
	.st2{fill:#FFFFFF;}
</style>
<path class="st0" d="M613.4,801.4H203.8c-61.4,0-111.3-49.9-111.3-111.3V280.5c0-61.4,49.9-111.3,111.3-111.3h409.6
	c61.4,0,111.3,49.9,111.3,111.3v409.6C724.7,751.5,674.7,801.4,613.4,801.4z M203.8,179.2c-55.9,0-101.3,45.5-101.3,101.3v409.6
	c0,55.9,45.5,101.3,101.3,101.3h409.6c55.9,0,101.3-45.5,101.3-101.3V280.5c0-55.9-45.5-101.3-101.3-101.3H203.8z"/>
<path class="st0" d="M651.1,840H241.5c-61.4,0-111.3-49.9-111.3-111.3V319.1c0-61.4,49.9-111.3,111.3-111.3h409.6
	c61.4,0,111.3,49.9,111.3,111.3v409.6C762.4,790,712.5,840,651.1,840z M241.5,217.7c-55.9,0-101.3,45.5-101.3,101.3v409.6
	c0,55.9,45.5,101.3,101.3,101.3h409.6c55.9,0,101.3-45.5,101.3-101.3V319.1c0-55.9-45.5-101.3-101.3-101.3H241.5z"/>
<path class="st0" d="M1030.2,967.5H601.8V539.1h428.4V967.5z M610.1,959.2h411.7V547.4H610.1V959.2z"/>
<path class="st0" d="M1062.7,1004.5H634.3V576.1h428.4V1004.5z M642.7,996.1h411.8V584.4H642.7V996.1z"/>
<path class="st1" d="M1002.3,934.9H573.9V506.5h428.4V934.9z M582.2,926.6h411.8V514.8H582.2V926.6z"/>
<path class="st1" d="M782.9,838.3L608,714.7c-5.6-4-7-11.8-3-17.4c4-5.6,11.8-7,17.4-3l154.1,108.9l229.9-339.3
	c3.9-5.7,11.6-7.2,17.4-3.3c5.7,3.9,7.2,11.6,3.3,17.4L782.9,838.3z"/>
<path class="st2" d="M579.3,763.3H169.7c-61.4,0-111.3-49.9-111.3-111.3V242.4c0-61.4,49.9-111.3,111.3-111.3h409.6
	c61.4,0,111.3,49.9,111.3,111.3V652C690.6,713.4,640.7,763.3,579.3,763.3z M169.7,141.1c-55.9,0-101.3,45.5-101.3,101.3V652
	c0,55.9,45.5,101.3,101.3,101.3h409.6c55.9,0,101.3-45.5,101.3-101.3V242.4c0-55.9-45.5-101.3-101.3-101.3H169.7z"/>
</svg>
