<svg width="782" height="394" viewBox="0 0 782 394" fill="none" xmlns="http://www.w3.org/2000/svg">
<path d="M2.9279 181.198H0.84668V29.7471C0.84668 23.2831 5.47161 18.1861 9.56467 13.6914C10.0965 13.1122 10.6053 12.5562 11.0909 12.0001C11.3221 11.7453 11.5534 11.4673 11.8078 11.1893C15.9471 6.4861 21.6126 0.0684814 30.4694 0.0684814H181.612V2.15363H30.4462C22.5376 2.15363 17.4502 7.92253 13.3571 12.5794C13.1259 12.8574 12.8715 13.1354 12.6403 13.3902C12.1546 13.9463 11.6228 14.5255 11.0909 15.1047C7.25221 19.3213 2.90477 24.094 2.90477 29.7471V181.198H2.9279Z" fill="#F44247"/>
<path d="M17.1496 195.539H15.0684V44.1114C15.0684 37.6475 19.6933 32.5505 23.7864 28.0558C24.2951 27.4766 24.827 26.9206 25.3126 26.3645C25.5438 26.1097 25.7751 25.8317 26.0294 25.5536C30.1688 20.8505 35.8343 14.4329 44.691 14.4329H195.834V16.518H44.691C36.7824 16.518 31.695 22.2869 27.6019 26.9437C27.3707 27.2218 27.1163 27.4998 26.8851 27.7546C26.3994 28.3107 25.8676 28.8899 25.3357 29.4691C21.497 33.6857 17.1496 38.4584 17.1496 44.1114V195.539Z" fill="#004E86"/>
<path d="M31.3249 209H29.2437V58.3135C29.0587 51.8263 33.6836 46.7293 37.7767 42.2347C38.2854 41.6786 38.7941 41.0994 39.2798 40.5666C39.511 40.3117 39.7422 40.0337 39.9966 39.7557C44.1359 35.0525 49.8015 28.6349 58.6582 28.6349H209.153V30.72H58.6582C50.7496 30.72 45.6622 36.4889 41.5691 41.1458C41.3378 41.4238 41.0835 41.7018 40.8522 41.9566C40.3666 42.5127 39.8579 43.0687 39.326 43.6479C35.5104 47.8646 31.163 52.6372 31.3249 58.2671V58.2903V209Z" fill="#004E86"/>
<path d="M779.072 212.802L781.153 212.802L781.153 364.253C781.153 370.717 776.528 375.814 772.435 380.309C771.903 380.888 771.395 381.444 770.909 382C770.678 382.255 770.447 382.533 770.192 382.811C766.053 387.514 760.387 393.932 751.531 393.932L600.388 393.932L600.388 391.846L751.554 391.846C759.462 391.846 764.55 386.077 768.643 381.421C768.874 381.143 769.129 380.865 769.36 380.61C769.845 380.054 770.377 379.475 770.909 378.895C774.748 374.679 779.095 369.906 779.095 364.253L779.095 212.802L779.072 212.802Z" fill="#F44247"/>
<path d="M764.851 198.461L766.932 198.461L766.932 349.889C766.932 356.353 762.307 361.45 758.214 365.944C757.705 366.523 757.174 367.079 756.688 367.635C756.457 367.89 756.225 368.168 755.971 368.446C751.832 373.15 746.166 379.567 737.309 379.567L586.167 379.567L586.167 377.482L737.309 377.482C745.218 377.482 750.306 371.713 754.399 367.056C754.63 366.778 754.884 366.5 755.115 366.245C755.601 365.689 756.133 365.11 756.665 364.531C760.503 360.314 764.851 355.542 764.851 349.889L764.851 198.461Z" fill="#004E86"/>
<path d="M750.675 185L752.756 185L752.756 335.687C752.941 342.174 748.316 347.271 744.223 351.765C743.715 352.321 743.206 352.901 742.72 353.433C742.489 353.688 742.258 353.966 742.003 354.244C737.864 358.947 732.199 365.365 723.342 365.365L572.847 365.365L572.847 363.28L723.342 363.28C731.25 363.28 736.338 357.511 740.431 352.854C740.662 352.576 740.917 352.298 741.148 352.043C741.633 351.487 742.142 350.931 742.674 350.352C746.49 346.135 750.837 341.363 750.675 335.733L750.675 335.71L750.675 185Z" fill="#004E86"/>
</svg>
