<svg width="242" height="293" viewBox="0 0 242 293" fill="none" xmlns="http://www.w3.org/2000/svg">
<path d="M173.863 292.894L17.7024 249.589L75.0586 42.759L231.219 86.0639L173.863 292.894ZM19.7564 248.427L172.701 290.84L229.165 87.2263L76.2206 44.8133L19.7564 248.427Z" fill="#004E86"/>
<path d="M167.931 280.641L11.7705 237.336L69.1211 30.5258L225.281 73.8307L167.931 280.641ZM13.8245 236.173L166.769 278.587L223.227 74.993L70.2831 32.58L13.8245 236.173Z" fill="#004E86"/>
<path d="M161.451 267.477L6.89854 224.618L63.8032 19.4166L115.361 33.7141C115.361 33.7141 120.796 16.2993 146.042 23.3003C171.047 30.2344 166.577 47.9168 166.577 47.9168L218.355 62.2756L161.451 267.477Z" fill="#11172B"/>
<path d="M162.032 268.505L5.87146 225.2L63.2221 18.3895L114.84 32.7037C115.459 31.2517 117.127 27.9688 120.725 25.221C123.451 23.1191 126.735 21.735 130.47 21.1469C135.069 20.4087 140.396 20.8685 146.265 22.4961C153.582 24.5251 163.031 28.8558 166.473 37.9075C168.062 42.0934 167.781 45.761 167.543 47.3189L219.382 61.6944L162.032 268.505ZM7.9255 224.037L160.87 266.45L217.328 62.8568L165.55 48.498L165.747 47.7084C165.758 47.6682 166.788 43.4073 164.861 38.4131C162.303 31.7931 155.709 26.8469 145.799 24.0989C135.789 21.323 127.489 22.1389 121.801 26.4935C117.516 29.7654 116.145 33.9315 116.134 33.9717L115.896 34.7502L115.112 34.5328L64.3786 20.4639L7.9255 224.037Z" fill="#F44247"/>
<path d="M145.32 102.166L65.1597 79.9367C64.3758 79.7193 63.9255 78.9233 64.1429 78.1392C64.3604 77.3552 65.1563 76.9047 65.9402 77.1221L146.101 99.3515C146.885 99.5689 147.335 100.365 147.118 101.149C146.9 101.933 146.084 102.378 145.32 102.166Z" fill="#004E86"/>
<path d="M134.61 140.786L54.4498 118.557C53.6659 118.339 53.2156 117.543 53.433 116.759C53.6504 115.975 54.4464 115.525 55.2303 115.742L135.391 137.971C136.175 138.189 136.625 138.985 136.408 139.769C136.19 140.553 135.374 140.998 134.61 140.786Z" fill="#004E86"/>
<path d="M123.521 180.773L43.3609 158.543C42.577 158.326 42.1267 157.53 42.3441 156.746C42.5615 155.962 43.3575 155.512 44.1414 155.729L124.302 177.958C125.086 178.176 125.536 178.972 125.319 179.756C125.101 180.54 124.285 180.985 123.521 180.773Z" fill="#004E86"/>
<path d="M112.623 220.076L32.462 197.847C31.678 197.629 31.2278 196.833 31.4452 196.049C31.6626 195.265 32.4586 194.815 33.2425 195.032L113.403 217.262C114.187 217.479 114.637 218.275 114.42 219.059C114.202 219.843 113.386 220.288 112.623 220.076Z" fill="#004E86"/>
<path d="M182.839 123.612L159.522 117.146L165.989 93.8253L189.306 100.291L182.839 123.612ZM161.576 115.984L181.677 121.558L187.252 101.454L167.151 95.8796L161.576 115.984Z" fill="#004E86"/>
<path d="M171.939 162.915L148.623 156.449L155.09 133.129L178.406 139.595L171.939 162.915ZM150.677 155.287L170.777 160.861L176.352 140.757L156.252 135.183L150.677 155.287Z" fill="#004E86"/>
<path d="M161.041 202.219L137.724 195.753L144.191 172.432L167.508 178.898L161.041 202.219ZM139.778 194.59L159.879 200.164L165.454 180.06L145.353 174.486L139.778 194.59Z" fill="#004E86"/>
<path d="M150.141 241.522L126.825 235.056L133.292 211.735L156.609 218.201L150.141 241.522ZM128.879 233.894L148.979 239.468L154.554 219.364L134.454 213.79L128.879 233.894Z" fill="#004E86"/>
<path d="M138.084 51.9229C142.791 53.2281 147.665 50.4699 148.97 45.7621C150.276 41.0544 147.519 36.1799 142.812 34.8746C138.105 33.5694 133.231 36.3276 131.925 41.0353C130.62 45.7431 133.377 50.6176 138.084 51.9229Z" fill="#11172B"/>
<path d="M137.861 52.7271C132.715 51.3001 129.694 45.959 131.121 40.8124C132.548 35.6658 137.889 32.6435 143.035 34.0705C148.18 35.4975 151.202 40.8385 149.774 45.9851C148.347 51.1318 143.007 54.154 137.861 52.7271ZM142.594 35.6587C138.333 34.477 133.917 36.9762 132.735 41.2382C131.553 45.5003 134.051 49.9169 138.313 51.0986C142.574 52.2803 146.99 49.7812 148.172 45.5191C149.354 41.2571 146.855 36.8404 142.594 35.6587Z" fill="#F44247"/>
<path d="M213.429 81.1309L58.4951 38.166L58.0491 39.7743L212.983 82.7392L213.429 81.1309Z" fill="#F44247"/>
</svg>
