<svg width="150" height="110" viewBox="0 0 150 110" fill="none" xmlns="http://www.w3.org/2000/svg">
<path d="M141.786 102.098H8.08472V8.48721H141.772V102.098H141.786ZM9.49239 100.695H140.364V9.88962H9.49239V100.695Z" fill="#15265F"/>
<path d="M149.528 109.951H15.8411V16.3407H149.528V109.951ZM17.2487 108.549H148.121V17.7431H17.2487V108.549Z" fill="#15265F"/>
<path d="M134.1 94.2163H0.412842V0.605713H134.1V94.2163ZM1.82052 92.8139H132.692V2.00812H1.82052V92.8139Z" fill="#F44247"/>
<path d="M53.4964 75.4942H37.4348V41.8083H53.4964V75.4942ZM38.8425 74.0918H52.0888V43.2108H38.8425V74.0918Z" fill="#F44247"/>
<path d="M73.7529 75.2978H57.6913V33.7446H73.7529V75.2978ZM59.099 73.8954H72.3452V35.147H59.099V73.8954Z" fill="#F44247"/>
<path d="M94.5723 75.0033H78.5107V24.7972H94.5723V75.0033ZM79.9184 73.6009H93.1647V26.1996H79.9184V73.6009Z" fill="#F44247"/>
</svg>
