<svg width="100" height="147" viewBox="0 0 100 147" fill="none" xmlns="http://www.w3.org/2000/svg">
<path d="M12.589 128.48L5.54455 123L7.39564 119.266L8.55051 119.836L7.16988 122.632L12.5124 126.788L22.2903 117.623L22.286 117.583L22.1495 114.783C22.083 114.426 22.166 114.048 22.3863 113.767L57.8203 67.3047L60.4873 69.3421L92.7206 27.1082C93.0189 26.7122 92.9813 26.1632 92.6171 25.8985L89.96 23.8763L90.7406 22.8479L93.3978 24.87C94.325 25.5752 94.4764 26.9274 93.7375 27.8858L61.4707 70.152C61.0762 70.6851 60.3228 70.8095 59.7738 70.4249L59.764 70.4096L58.044 69.108L23.4032 114.545L23.4173 114.6L23.5538 117.4C23.6203 117.758 23.5373 118.135 23.317 118.416L23.2808 118.461L23.2473 118.493L12.589 128.48Z" fill="#15265F"/>
<path d="M10.8686 122.799L9.66253 121.862L3.81431 117.304L10.6782 104.465L10.7144 104.42C10.9347 104.139 11.2643 103.961 11.6264 103.935L14.3389 103.305L14.3921 103.304L49.0454 57.8699L47.3631 56.5766C46.8476 56.1598 46.7661 55.3901 47.1704 54.8724L79.4219 12.6161C80.1608 11.6576 81.4998 11.451 82.4299 12.1436L91.6648 19.187C92.1158 19.5368 92.3994 20.0476 92.4595 20.6147C92.5195 21.1819 92.3572 21.7396 92.0045 22.2028L59.7377 64.4689C59.3432 65.002 58.5898 65.1264 58.0408 64.7419L58.0283 64.7391L56.3208 63.4402L21.6702 108.862L21.6843 108.917L21.8208 111.717C21.8999 112.077 21.8043 112.452 21.584 112.733L21.5506 112.765L10.8686 122.799ZM5.46482 116.942L10.7948 121.095L20.5699 111.943L20.5656 111.903L20.4291 109.103C20.3626 108.745 20.4456 108.368 20.6659 108.087L56.0999 61.6244L58.7668 63.6619L91.0002 21.4279C91.1507 21.2236 91.2285 20.9901 91.2 20.7597C91.1813 20.5445 91.0662 20.3478 90.9093 20.2209L81.6744 13.1776C81.313 12.9002 80.7749 13.0061 80.4766 13.402L48.2083 55.6151L50.843 57.6191L50.454 58.127L15.3936 104.091C15.186 104.375 14.841 104.563 14.4789 104.589L11.7664 105.219L11.7258 105.223L5.46482 116.942Z" fill="#F44247"/>
<path d="M13.9481 134.542L6.90361 129.062L8.7547 125.328L9.90957 125.899L8.52893 128.694L13.8715 132.85L23.6493 123.686L23.6451 123.645L23.5086 120.846C23.442 120.488 23.5251 120.111 23.7453 119.829L59.1793 73.367L61.8463 75.4045L94.0796 33.1706C94.3779 32.7746 94.3403 32.2256 93.9761 31.9608L91.3217 29.9261L92.1024 28.8977L94.7568 30.9324C95.6715 31.6348 95.8354 32.9897 95.0965 33.9482L62.8297 76.2144C62.4352 76.7474 61.6819 76.8718 61.1329 76.4873L61.1104 76.4692L59.403 75.1703L24.7623 120.607L24.7764 120.663L24.9129 123.462C24.9794 123.82 24.8964 124.197 24.6761 124.479L24.6426 124.511L13.9481 134.542Z" fill="#15265F"/>
</svg>
