<svg width="111" height="141" viewBox="0 0 111 141" fill="none" xmlns="http://www.w3.org/2000/svg">
<path d="M8.25557 117.043L7.25064 115.892L2.37947 110.302L11.567 99.0088L11.6112 98.9717C11.8811 98.7377 12.2386 98.6258 12.5989 98.6695L15.3818 98.5689L15.4343 98.5775L58.1201 60.5905L56.7155 59C56.289 58.4925 56.3559 57.7215 56.8516 57.2904L96.5733 21.9643C97.4815 21.1644 98.8354 21.2171 99.6162 22.0744L107.338 30.7505C107.714 31.18 107.894 31.7355 107.845 32.3037C107.796 32.8718 107.53 33.3884 107.096 33.7757L67.3568 69.1085C66.8679 69.5565 66.1046 69.5349 65.6391 69.0527L65.6272 69.0475L64.199 67.4468L21.5182 105.422L21.5214 105.479L21.1212 108.254C21.1301 108.622 20.9648 108.972 20.6949 109.206L20.6559 109.231L8.25557 117.043ZM4.06877 110.262L8.50831 115.356L19.8501 108.237L19.8537 108.196L20.2539 105.422C20.2568 105.058 20.4103 104.704 20.6802 104.47L64.3286 65.6221L66.5578 68.131L106.258 32.8234C106.444 32.6516 106.565 32.4373 106.581 32.2056C106.604 31.9909 106.528 31.7758 106.399 31.6213L98.6773 22.9453C98.3755 22.6041 97.8271 22.6053 97.4587 22.937L57.7286 58.2174L59.9325 60.6874L59.4538 61.1117L16.2672 99.5416C16.0091 99.7808 15.6347 99.8994 15.2743 99.8557L12.4914 99.9563L12.4508 99.9528L4.06877 110.262Z" fill="#11172B"/>
</svg>
