<svg width="44" height="49" viewBox="0 0 44 49" fill="none" xmlns="http://www.w3.org/2000/svg">
<path d="M41 45H3V7H41V45V45ZM3.73623 44.2638H40.2549V7.73623H3.73623V44.2638Z" fill="#11172B"/>
<path d="M44 49H6V11H44V49V49ZM6.7451 48.2549H43.2726V11.7362H6.7451V48.2549Z" fill="#11172B"/>
<path d="M38 42H0V4H38V42ZM0.736227 41.2638H37.2638V4.73623H0.736227V41.2638Z" fill="#F8F6EF"/>
<path d="M19.0519 34L3.47102 22.9373C2.97214 22.5793 2.84742 21.8812 3.20376 21.38C3.5601 20.8788 4.25497 20.7535 4.75384 21.1115L18.4818 30.8584L38.9624 0.489827C39.3098 -0.0203441 39.9958 -0.154598 40.5125 0.194466C41.0202 0.54353 41.1539 1.23271 40.8064 1.75183L19.0519 34Z" fill="#F8F6EF"/>
</svg>
