<svg width="120" height="122" viewBox="0 0 120 122" fill="none" xmlns="http://www.w3.org/2000/svg">
<path d="M94.7688 38.1077C88.2318 38.1077 82.9196 32.7674 82.9196 26.196C82.9196 19.6245 88.2318 14.2843 94.7688 14.2843C101.306 14.2843 106.618 19.6245 106.618 26.196C106.618 32.7674 101.306 38.1077 94.7688 38.1077ZM94.7688 15.8233C89.0738 15.8233 84.4505 20.4864 84.4505 26.196C84.4505 31.9056 89.0892 36.5687 94.7688 36.5687C100.448 36.5687 105.087 31.9056 105.087 26.196C105.087 20.4864 100.464 15.8233 94.7688 15.8233Z" fill="#11172B"/>
<path d="M45.6116 99.9591C45.0758 99.9591 44.7237 99.8206 44.4481 99.6667C44.1573 99.482 37.2376 95.2806 32.2162 90.4175L33.2879 89.3094C38.1714 94.0648 45.1677 98.3124 45.2289 98.3432C45.3208 98.4048 46.3158 98.8511 50.3115 96.4041C53.4039 94.5111 56.4045 92.0488 57.2465 91.3409C57.6139 91.0177 94.8454 58.7761 106.327 46.0949C111.593 40.2776 113.216 37.0612 114.778 33.4753C116.247 30.105 118.115 20.9481 117.717 14.2381C117.411 9.25185 116.11 2.60348 116.094 2.54192L117.595 2.24951C117.61 2.31107 118.926 9.06717 119.248 14.1458C119.677 21.0712 117.717 30.5821 116.186 34.0909C114.563 37.8153 112.895 41.1394 107.46 47.1415C95.917 59.8842 58.6243 92.1873 58.2415 92.5105C57.3689 93.2492 54.2918 95.7577 51.1229 97.7122C48.2601 99.4666 46.622 99.9591 45.6116 99.9591Z" fill="#11172B"/>
<path d="M32.492 90.6484C27.4859 85.7699 23.0922 78.9522 22.9085 78.6598C22.4339 77.9057 22.0971 76.3821 24.6231 71.9037C26.4602 68.641 28.8637 65.4861 29.5526 64.5935C29.8741 64.1934 60.783 25.6728 73.1067 13.6688C78.8935 8.02075 82.139 6.23554 85.7979 4.48111C89.2271 2.8344 98.6422 0.572105 105.531 0.772172C110.614 0.92607 117.35 2.03413 117.426 2.04952L117.181 3.57311C117.12 3.55772 110.461 2.46505 105.501 2.31115C98.8259 2.11108 89.7629 4.28104 86.4715 5.86619C82.9504 7.55906 79.8121 9.28271 74.1937 14.7615C61.9465 26.7039 31.0835 65.1476 30.7774 65.5323C30.1038 66.3941 27.7615 69.4875 25.9703 72.6424C23.674 76.7207 24.1486 77.7056 24.2098 77.8133C24.2557 77.8749 28.6953 84.7695 33.5789 89.525L32.492 90.6484Z" fill="#11172B"/>
<path d="M54.491 121.643C54.0011 121.643 53.5265 121.459 53.1438 121.089C52.8529 120.797 52.6539 120.412 52.5927 119.997L49.3625 96.8966L49.8218 96.635C49.8677 96.6042 54.5522 93.9572 61.8087 87.3396C65.6666 83.8153 72.5556 77.8595 72.6169 77.7979L73.7803 76.7976L75.3572 101.344L75.1122 101.591L55.8229 121.074C55.4708 121.459 54.9809 121.643 54.491 121.643ZM54.1236 119.781C54.1389 119.858 54.1695 119.935 54.2308 119.997C54.3838 120.135 54.6135 120.135 54.7666 119.997L73.811 100.759L72.4791 79.9833C70.3358 81.8454 65.7431 85.8468 62.865 88.4784C56.6802 94.1111 52.409 96.8813 51.0465 97.7123L54.1236 119.781Z" fill="#11172B"/>
<path d="M25.3885 73.6272L2.3178 71.1187C1.90446 71.0725 1.52173 70.8878 1.21555 70.6108C0.848136 70.2569 0.633809 69.7798 0.6185 69.2719C0.603191 68.764 0.7869 68.2716 1.13901 67.9022L20.1375 47.6493L44.6012 48.4496L43.6368 49.65C43.5755 49.7269 37.8806 56.8216 34.4973 60.8229C28.1288 68.3485 25.664 73.1193 25.6334 73.1655L25.3885 73.6272ZM2.4862 69.5951L24.5158 71.9959C25.2966 70.6108 27.9144 66.2247 33.3185 59.8226C35.8445 56.837 39.6871 52.0969 41.4629 49.8808L20.7651 49.2037L2.25656 68.9641C2.11878 69.118 2.11878 69.3489 2.27187 69.4874C2.33311 69.5489 2.40965 69.5797 2.4862 69.5951Z" fill="#11172B"/>
<path d="M57.5273 62.8767L26.5324 95.239L27.6353 96.3064L58.6301 63.9441L57.5273 62.8767Z" fill="#11172B"/>
</svg>
