<svg width="129" height="124" viewBox="0 0 129 124" fill="none" xmlns="http://www.w3.org/2000/svg">
<path d="M78.1076 84.9288L77.0972 83.7746C87.9972 74.1714 107.455 56.7348 115.354 48.0088C120.621 42.1914 122.243 38.975 123.805 35.3892C125.275 32.0188 127.142 22.8619 126.729 16.152C126.423 11.1657 125.122 4.5173 125.106 4.45574L126.606 4.16333C126.622 4.22489 127.938 10.981 128.26 16.0596C128.688 22.985 126.729 32.4959 125.198 36.0047C123.575 39.7291 121.907 43.0533 116.472 49.0553C108.94 57.3965 91.4417 73.171 78.1076 84.9288Z" fill="#15265F"/>
<path d="M126.178 5.48676C126.162 5.48676 123.973 5.11741 121.218 4.77883L121.401 3.25525C124.187 3.59382 126.407 3.96318 126.423 3.96318L126.178 5.48676Z" fill="#15265F"/>
<path d="M63.5025 123.557C63.0127 123.557 62.5381 123.372 62.1554 123.003C61.8645 122.711 61.6655 122.326 61.6042 121.91L61.2368 119.294L62.7524 119.079L63.1198 121.695C63.1351 121.772 63.1657 121.849 63.227 121.91C63.3648 122.049 63.6097 122.049 63.7475 121.91L82.7919 102.673L81.46 81.9432C80.6027 82.7126 79.4239 83.7745 78.3829 84.6825L77.3725 83.5283C79.2402 81.897 81.5825 79.7732 81.6131 79.7578L82.7919 78.6959L84.3687 103.289L84.1238 103.535L64.8344 123.018C64.4823 123.372 63.9924 123.557 63.5025 123.557Z" fill="#15265F"/>
<path d="M38.4933 94.0765L35.5635 97.1373L36.6666 98.2045L39.5964 95.1436L38.4933 94.0765Z" fill="#15265F"/>
<path d="M73.1933 83.8823L72.1829 82.7281C85.5017 70.9703 102.954 55.2266 110.44 46.9776C115.706 41.1603 117.329 37.9439 118.891 34.358C120.36 30.9877 122.228 21.8154 121.815 15.1208C121.508 10.1346 120.207 3.48618 120.192 3.42462L121.692 3.11682C121.707 3.17838 123.024 9.93448 123.346 15.0131C123.774 21.9385 121.815 31.4494 120.284 34.9582C118.661 38.6826 116.992 42.0067 111.558 47.9934C104.041 56.3038 86.5427 72.0937 73.1933 83.8823Z" fill="#15265F"/>
<path d="M121.264 4.44025C121.248 4.44025 119.074 4.07089 116.303 3.74771L116.487 2.22412C119.289 2.5627 121.493 2.93205 121.509 2.93205L121.264 4.44025Z" fill="#15265F"/>
<path d="M58.5885 122.511C58.0833 122.511 57.6087 122.311 57.2413 121.957C56.9504 121.664 56.7514 121.279 56.6902 120.864L56.3228 118.248L57.8383 118.032L58.2058 120.648C58.2211 120.725 58.2517 120.802 58.3129 120.864C58.4048 120.956 58.5119 120.972 58.5732 120.972C58.6344 120.972 58.7416 120.956 58.8334 120.864L77.8778 101.627L76.546 80.8967C75.6887 81.6661 74.5099 82.728 73.4688 83.636L72.4585 82.4818C74.3262 80.8505 76.6684 78.7267 76.6991 78.7113L77.8778 77.6494L79.47 102.211L59.9357 121.941C59.5836 122.311 59.109 122.511 58.5885 122.511Z" fill="#15265F"/>
<path d="M34.6761 91.8762L30.6411 96.0892L31.744 97.1567L35.7789 92.9437L34.6761 91.8762Z" fill="#15265F"/>
<path d="M94.1512 37.8053C87.6142 37.8053 82.302 32.465 82.302 25.8936C82.302 19.3222 87.6142 13.9819 94.1512 13.9819C100.688 13.9819 106 19.3222 106 25.8936C106 32.465 100.688 37.8053 94.1512 37.8053ZM94.1512 15.5209C88.4562 15.5209 83.8329 20.184 83.8329 25.8936C83.8329 31.6032 88.4715 36.2663 94.1512 36.2663C99.8308 36.2663 104.469 31.6032 104.469 25.8936C104.469 20.184 99.8461 15.5209 94.1512 15.5209Z" fill="#F44247"/>
<path d="M44.994 99.6568C44.4582 99.6568 44.1061 99.5182 43.8305 99.3643C43.5397 99.1797 36.62 94.9783 31.5986 90.1151L32.6703 89.007C37.5538 93.7625 44.55 98.01 44.6113 98.0408C44.7031 98.1024 45.6982 98.5487 49.6939 96.1017C52.7863 94.2088 55.7868 91.7464 56.6288 91.0385C56.9963 90.7153 94.2278 58.4737 105.71 45.7926C110.976 39.9752 112.599 36.7588 114.16 33.173C115.63 29.8026 117.497 20.6457 117.099 13.9358C116.793 8.94948 115.492 2.30111 115.477 2.23955L116.977 1.94714C116.992 2.0087 118.309 8.76481 118.63 13.8434C119.059 20.7688 117.099 30.2797 115.569 33.7886C113.946 37.5129 112.277 40.8371 106.842 46.8391C95.2994 59.5818 58.0067 91.8849 57.6239 92.2081C56.7513 92.9468 53.6742 95.4553 50.5052 97.4098C47.6425 99.1643 46.0044 99.6568 44.994 99.6568Z" fill="#F44247"/>
<path d="M31.8743 90.346C26.8683 85.4675 22.4746 78.6498 22.2909 78.3574C21.8163 77.6033 21.4795 76.0797 24.0055 71.6013C25.8426 68.3387 28.2461 65.1838 28.935 64.2912C29.2565 63.891 60.1654 25.3704 72.4891 13.3664C78.2759 7.71839 81.5214 5.93317 85.1803 4.17874C88.6095 2.53203 98.0245 0.269737 104.914 0.469804C109.996 0.623701 116.732 1.73177 116.809 1.74715L116.564 3.27074C116.503 3.25535 109.843 2.16268 104.883 2.00878C98.2082 1.80871 89.1453 3.97867 85.8539 5.56382C82.3328 7.25669 79.1945 8.98034 73.5761 14.4591C61.3289 26.4016 30.4659 64.8452 30.1597 65.2299C29.4861 66.0918 27.1439 69.1851 25.3527 72.34C23.0564 76.4183 23.5309 77.4033 23.5922 77.511C23.6381 77.5725 28.0777 84.4671 32.9613 89.2226L31.8743 90.346Z" fill="#F44247"/>
<path d="M53.8734 121.341C53.3835 121.341 52.9089 121.156 52.5262 120.787C52.2353 120.495 52.0363 120.11 51.9751 119.694L48.7449 96.5943L49.2041 96.3326C49.2501 96.3019 53.9346 93.6548 61.1911 87.0372C65.049 83.513 71.938 77.5571 71.9993 77.4956L73.1627 76.4952L74.7396 101.042L74.4946 101.288L55.2053 120.772C54.8532 121.156 54.3633 121.341 53.8734 121.341ZM53.506 119.479C53.5213 119.556 53.5519 119.633 53.6131 119.694C53.7662 119.833 53.9959 119.833 54.149 119.694L73.1934 100.457L71.8615 79.6809C69.7182 81.5431 65.1255 85.5444 62.2474 88.1761C56.0626 93.8087 51.7914 96.5789 50.4289 97.4099L53.506 119.479Z" fill="#F44247"/>
<path d="M24.7708 73.3248L1.70018 70.8163C1.28684 70.7701 0.904117 70.5855 0.597937 70.3084C0.230521 69.9545 0.016194 69.4774 0.000884955 68.9695C-0.014424 68.4617 0.169285 67.9692 0.521392 67.5998L19.5199 47.3469L43.9836 48.1472L43.0192 49.3476C42.9579 49.4245 37.263 56.5192 33.8797 60.5206C27.5112 68.0461 25.0464 72.817 25.0158 72.8631L24.7708 73.3248ZM1.86858 69.2927L23.8982 71.6935C24.679 70.3084 27.2968 65.9224 32.7009 59.5202C35.2269 56.5346 39.0694 51.7946 40.8453 49.5784L20.1475 48.9013L1.63895 68.6617C1.50117 68.8156 1.50117 69.0465 1.65426 69.185C1.71549 69.2466 1.79204 69.2773 1.86858 69.2927Z" fill="#F44247"/>
<path d="M56.9097 62.5743L25.9148 94.9366L27.0177 96.0041L58.0125 63.6418L56.9097 62.5743Z" fill="#F44247"/>
</svg>
