<svg width="158" height="116" viewBox="0 0 158 116" fill="none" xmlns="http://www.w3.org/2000/svg">
<path d="M148.651 107.074H9.0387V8.53101H148.651V107.074ZM10.5213 105.585H147.168V10.0198H10.5213V105.585Z" fill="#15265F"/>
<path d="M157.042 115.575H17.4299V17.0322H157.042V115.575ZM18.9125 114.087H155.56V18.521H18.9125V114.087Z" fill="#15265F"/>
<path d="M140.186 98.7817H0.573242V0.238525H140.186V98.7817ZM2.0558 97.2929H138.703V1.72732H2.0558V97.2929Z" fill="#F44247"/>
<path d="M80.8982 33.6618L77.6069 31.8902L74.2712 33.6023L74.9383 29.9101L72.2845 27.26L75.9909 26.7538L77.6662 23.4041L79.297 26.7836L83.0034 27.3493L80.3052 29.9547L80.8982 33.6618Z" fill="#F44247"/>
<path d="M64.7087 39.1257L61.4026 37.354L58.0817 39.0661L58.7488 35.3739L56.0802 32.7239L59.7866 32.2177L61.4767 28.8679L63.1075 32.2475L66.7991 32.8132L64.1008 35.4186L64.7087 39.1257Z" fill="#F44247"/>
<path d="M97.4287 39.1257L94.1374 37.354L90.8165 39.0661L91.4688 35.3739L88.8151 32.7239L92.5214 32.2177L94.2115 28.8679L95.8275 32.2475L99.5339 32.8132L96.8357 35.4186L97.4287 39.1257Z" fill="#F44247"/>
<path d="M54.568 53.2695L51.2767 51.4978L47.9558 53.2248L48.6081 49.5177L45.9543 46.8826L49.6607 46.3615L51.3508 43.0117L52.9817 46.3913L56.6732 46.9719L53.975 49.5624L54.568 53.2695Z" fill="#F44247"/>
<path d="M107.569 53.2695L104.263 51.4978L100.942 53.2248L101.61 49.5177L98.9409 46.8826L102.647 46.3615L104.337 43.0117L105.968 46.3913L109.66 46.9719L106.962 49.5624L107.569 53.2695Z" fill="#F44247"/>
<path d="M54.7162 70.6733L51.4249 68.9017L48.0892 70.6138L48.7563 66.9216L46.1025 64.2715L49.8089 63.7653L51.499 60.4006L53.115 63.7951L56.8214 64.3608L54.1232 66.9662L54.7162 70.6733Z" fill="#F44247"/>
<path d="M107.718 70.6733L104.411 68.9017L101.091 70.6138L101.758 66.9216L99.0891 64.2715L102.796 63.7653L104.486 60.4006L106.116 63.7951L109.808 64.3608L107.11 66.9662L107.718 70.6733Z" fill="#F44247"/>
<path d="M64.9904 84.5339L61.6991 82.7473L58.3782 84.4743L59.0305 80.7821L56.3767 78.1321L60.0831 77.6259L61.7732 74.2612L63.3892 77.6408L67.0956 78.2214L64.3973 80.8119L64.9904 84.5339Z" fill="#F44247"/>
<path d="M97.7252 84.5339L94.4339 82.7473L91.113 84.4743L91.7653 80.7821L89.1116 78.1321L92.818 77.6259L94.4933 74.2612L96.1241 77.6408L99.8305 78.2214L97.1322 80.8119L97.7252 84.5339Z" fill="#F44247"/>
<path d="M81.2836 89.8342L77.9923 88.0625L74.6714 89.7746L75.3237 86.0824L72.6699 83.4324L76.3763 82.9262L78.0664 79.5764L79.6824 82.956L83.3888 83.5217L80.6905 86.1271L81.2836 89.8342Z" fill="#F44247"/>
</svg>
