<svg width="141" height="100" viewBox="0 0 141 100" fill="none" xmlns="http://www.w3.org/2000/svg">
<path d="M140.226 99.4732H0.6138V0.930054H140.226V99.4732ZM2.09636 97.9844H138.744V2.41885H2.09636V97.9844Z" fill="#15265F"/>
<path d="M73.437 27.2443L70.1457 25.4727L66.8099 27.1848L67.4771 23.4926L64.8233 20.8425L68.5297 20.3363L70.205 16.9866L71.8358 20.3661L75.5422 20.9319L72.8439 23.5372L73.437 27.2443Z" fill="#15265F"/>
<path d="M57.2474 32.7082L53.9413 30.9365L50.6204 32.6487L51.2876 28.9565L48.619 26.3064L52.3253 25.8002L54.0155 22.4504L55.6463 25.83L59.3378 26.3957L56.6396 29.0011L57.2474 32.7082Z" fill="#15265F"/>
<path d="M89.9674 32.7082L86.6762 30.9365L83.3553 32.6487L84.0076 28.9565L81.3538 26.3064L85.0602 25.8002L86.7503 22.4504L88.3663 25.83L92.0727 26.3957L89.3744 29.0011L89.9674 32.7082Z" fill="#15265F"/>
<path d="M47.1067 46.852L43.8155 45.0804L40.4946 46.8074L41.1469 43.1003L38.4931 40.4651L42.1995 39.944L43.8896 36.5942L45.5204 39.9738L49.212 40.5544L46.5137 43.1449L47.1067 46.852Z" fill="#15265F"/>
<path d="M100.108 46.852L96.8021 45.0804L93.4811 46.8074L94.1483 43.1003L91.4797 40.4651L95.1861 39.944L96.8762 36.5942L98.507 39.9738L102.199 40.5544L99.5003 43.1449L100.108 46.852Z" fill="#15265F"/>
<path d="M47.2549 64.2558L43.9637 62.4842L40.6279 64.1963L41.2951 60.5041L38.6413 57.854L42.3477 57.3478L44.0378 53.9832L45.6538 57.3776L49.3602 57.9434L46.6619 60.5487L47.2549 64.2558Z" fill="#15265F"/>
<path d="M100.256 64.2558L96.9502 62.4842L93.6293 64.1963L94.2965 60.5041L91.6279 57.854L95.3343 57.3478L97.0244 53.9832L98.6552 57.3776L102.347 57.9434L99.6485 60.5487L100.256 64.2558Z" fill="#15265F"/>
<path d="M57.5291 78.1164L54.2378 76.3299L50.9169 78.0569L51.5692 74.3647L48.9155 71.7146L52.6219 71.2084L54.312 67.8438L55.928 71.2233L59.6344 71.8039L56.9361 74.3944L57.5291 78.1164Z" fill="#15265F"/>
<path d="M90.264 78.1164L86.9727 76.3299L83.6518 78.0569L84.3041 74.3647L81.6503 71.7146L85.3567 71.2084L87.032 67.8438L88.6628 71.2233L92.3692 71.8039L89.671 74.3944L90.264 78.1164Z" fill="#15265F"/>
<path d="M73.8223 83.4167L70.5311 81.645L67.2101 83.3571L67.8625 79.6649L65.2087 77.0149L68.9151 76.5087L70.6052 73.1589L72.2212 76.5385L75.9275 77.1042L73.2293 79.7096L73.8223 83.4167Z" fill="#15265F"/>
</svg>
