<svg width="130" height="42" viewBox="0 0 130 42" fill="none" xmlns="http://www.w3.org/2000/svg">
<g clip-path="url(#clip0)">
<path d="M16.0203 0.00622559H17.1658C21.1493 0.0937256 25.0657 1.68931 27.8779 4.5202C26.8408 5.58049 25.7778 6.59446 24.7613 7.64961C23.1823 6.22387 21.2783 5.1224 19.1988 4.73637C16.1235 4.08784 12.8159 4.66946 10.2359 6.41946C7.42369 8.25696 5.51965 11.3658 5.10685 14.6908C4.65277 17.9746 5.58157 21.4283 7.72813 23.9761C9.78181 26.457 12.9243 28.0114 16.1699 28.1195C19.1988 28.2945 22.3619 27.3628 24.5704 25.2474C26.3041 23.7599 27.1039 21.49 27.3619 19.2871C23.7706 19.2871 20.1741 19.3077 16.5827 19.2871V14.84H31.7118C32.491 19.6114 31.3661 24.9849 27.7283 28.3974C25.3031 30.8165 21.9491 32.2423 18.528 32.5202C15.2153 32.8445 11.7942 32.2165 8.85301 30.6209C5.32357 28.7423 2.51137 25.5665 1.12849 21.8349C-0.171826 18.4018 -0.192466 14.5158 1.02013 11.057C2.12437 7.90696 4.24513 5.1224 6.97477 3.17681C9.59089 1.25696 12.7746 0.196667 16.0203 0.00622559Z" fill="#3780FF"/>
<path d="M102.812 1.1272H107.445V31.9581C105.908 31.9581 104.349 31.9787 102.812 31.9375C102.837 21.6794 102.812 11.4007 102.812 1.1272Z" fill="#38B137"/>
<path d="M42.0164 11.8124C44.8699 11.2719 47.9659 11.8793 50.324 13.583C52.4654 15.0962 53.9618 17.469 54.4159 20.058C54.999 23.0587 54.2663 26.3425 52.3158 28.7153C50.2157 31.3712 46.7739 32.7969 43.4199 32.5808C40.3446 32.4058 37.3621 30.8771 35.5406 28.3705C33.4869 25.6065 32.9864 21.808 34.1113 18.5705C35.2413 15.0962 38.4199 12.4403 42.0164 11.8124ZM42.6614 15.9146C41.4901 16.2183 40.4117 16.8874 39.6325 17.8344C37.5324 20.3411 37.6614 24.4175 39.9782 26.7491C41.2992 28.0874 43.2909 28.7153 45.1279 28.3447C46.8359 28.0411 48.3323 26.8984 49.1527 25.3852C50.582 22.8168 50.1692 19.2756 47.9814 17.2683C46.583 15.9815 44.5242 15.4411 42.6614 15.9146Z" fill="#FA3913"/>
<path d="M64.958 11.8125C68.2243 11.1845 71.8002 12.0956 74.2409 14.3809C78.2244 17.9426 78.6578 24.6132 75.2574 28.7154C73.2037 31.3044 69.8704 32.7301 66.5783 32.5809C63.441 32.4934 60.345 30.939 58.4823 28.3706C56.3821 25.5448 55.9281 21.6537 57.12 18.3544C58.312 14.9882 61.4286 12.4198 64.958 11.8125ZM65.6082 15.9147C64.4369 16.2184 63.3584 16.8875 62.5793 17.814C60.4998 20.2742 60.5875 24.289 62.8166 26.6463C64.1376 28.0515 66.1913 28.7412 68.0953 28.35C69.7826 28.0257 71.2997 26.9037 72.1201 25.3904C73.5288 22.8015 73.116 19.2603 70.9075 17.2529C69.504 15.961 67.4452 15.4412 65.6082 15.9147Z" fill="#FCBD06"/>
<path d="M84.4162 13.0633C86.9034 11.5089 90.2161 11.0765 92.8993 12.4148C93.7455 12.7802 94.437 13.4082 95.1078 14.0361C95.1284 13.4545 95.1078 12.8471 95.1284 12.2449C96.5784 12.2655 98.0283 12.2449 99.4989 12.2655V31.3096C99.4783 34.1817 98.7404 37.2236 96.6661 39.3185C94.3957 41.6295 90.9075 42.3398 87.7702 41.8663C84.4162 41.3721 81.4957 38.9324 80.1954 35.8442C81.4957 35.2163 82.8579 34.7221 84.1995 34.1405C84.958 35.9111 86.4957 37.4243 88.4204 37.7692C90.3451 38.1141 92.5742 37.6405 93.8332 36.0398C95.1748 34.3979 95.1748 32.1538 95.1078 30.1464C94.1119 31.1192 92.9664 31.9839 91.5783 32.303C88.57 33.1471 85.2573 32.1074 82.9405 30.0795C80.603 28.0515 79.2201 24.917 79.3491 21.8082C79.4162 18.2927 81.408 14.9008 84.4162 13.0633ZM88.8951 15.8273C87.5742 16.0435 86.3409 16.7795 85.4947 17.7935C83.4616 20.2126 83.4616 24.078 85.5153 26.4508C86.6866 27.856 88.5649 28.6332 90.3864 28.4376C92.0943 28.2626 93.6784 27.1868 94.5195 25.6942C95.9488 23.167 95.7115 19.7339 93.7816 17.531C92.5948 16.1773 90.6908 15.503 88.8951 15.8273Z" fill="#3780FF"/>
<path d="M113.008 14.1647C115.603 11.7456 119.607 10.9272 122.941 12.1985C126.099 13.3875 128.116 16.3882 129.133 19.4765C124.437 21.422 119.762 23.3419 115.061 25.2823C115.712 26.5125 116.707 27.6346 118.049 28.0875C119.932 28.7566 122.182 28.5198 123.761 27.2691C124.391 26.7956 124.886 26.1676 125.361 25.5654C126.553 26.3632 127.74 27.1404 128.932 27.9382C127.244 30.4654 124.406 32.236 121.357 32.514C117.982 32.9257 114.385 31.6287 112.203 28.9934C108.611 24.8551 108.962 17.9015 113.008 14.1647ZM115.325 18.1588C114.587 19.2191 114.287 20.511 114.308 21.7875C117.445 20.4904 120.583 19.1985 123.725 17.8809C123.204 16.6713 121.95 15.9353 120.676 15.7448C118.612 15.3743 116.47 16.4757 115.325 18.1588Z" fill="#FA3913"/>
</g>
<defs>
<clipPath id="clip0">
<rect width="129" height="42" fill="white" transform="translate(0.132812)"/>
</clipPath>
</defs>
</svg>
