<svg width="133" height="46" viewBox="0 0 133 46" fill="none" xmlns="http://www.w3.org/2000/svg">
<g clip-path="url(#clip0)">
<path d="M17.3784 2.2373H18.523C22.5031 2.32454 26.4163 3.91535 29.2261 6.73775C28.1898 7.79487 27.1278 8.8058 26.1121 9.85778C24.5345 8.43632 22.632 7.33815 20.5543 6.95328C17.4815 6.30669 14.1768 6.88657 11.5989 8.63132C8.78912 10.4633 6.88669 13.5628 6.47424 16.8779C6.02054 20.1518 6.94856 23.5952 9.09331 26.1353C11.1453 28.6088 14.285 30.1585 17.5279 30.2663C20.5543 30.4408 23.7147 29.512 25.9213 27.4028C27.6536 25.9198 28.4528 23.6568 28.7105 21.4604C25.1222 21.4604 21.5287 21.4809 17.9404 21.4604V17.0267H33.0568C33.8353 21.7837 32.7113 27.1411 29.0766 30.5434C26.6534 32.9553 23.3023 34.3767 19.8841 34.6539C16.5741 34.9771 13.156 34.3511 10.2172 32.7603C6.69077 30.8872 3.88095 27.721 2.49923 24.0006C1.20001 20.5778 1.17939 16.7034 2.39097 13.2601C3.49427 10.1195 5.61324 7.33815 8.34058 5.40352C10.9545 3.48429 14.1355 2.43231 17.3784 2.2373Z" fill="#9B9B9B"/>
<path d="M104.096 3.35608H108.726V34.0946C107.19 34.0946 105.633 34.1151 104.096 34.0741C104.117 23.8467 104.096 13.604 104.096 3.35608Z" fill="#9B9B9B"/>
<path d="M43.3479 14.0093C46.2041 13.4705 49.2975 14.076 51.6536 15.7746C53.7932 17.2833 55.2883 19.649 55.742 22.2302C56.3246 25.2219 55.5925 28.4959 53.6437 30.8616C51.5453 33.5095 48.1065 34.931 44.7553 34.7155C41.6826 34.541 38.7026 33.0169 36.8827 30.5178C34.8307 27.7621 34.3306 23.975 35.4546 20.7472C36.5836 17.2833 39.7595 14.6354 43.3479 14.0093ZM43.9975 18.0992C42.8271 18.402 41.7496 19.0691 40.9711 20.0133C38.8728 22.5124 39.0016 26.5767 41.3165 28.9013C42.6364 30.2355 44.6265 30.8616 46.4619 30.4921C48.1684 30.1894 49.6635 29.0501 50.4833 27.5414C51.9114 24.9808 51.4989 21.4502 49.3129 19.4488C47.9158 18.1659 45.8587 17.6271 43.9975 18.0992Z" fill="#9B9B9B"/>
<path d="M66.2746 14.0092C69.5381 13.3831 73.111 14.2914 75.5496 16.5699C79.5298 20.1209 79.9629 26.7716 76.5653 30.8615C74.5133 33.4427 71.1828 34.8641 67.8935 34.7153C64.7589 34.6281 61.6655 33.0783 59.8043 30.5177C57.7059 27.7004 57.2522 23.8209 58.4432 20.5315C59.6342 17.1754 62.7482 14.6147 66.2746 14.0092ZM66.9242 18.0991C65.7539 18.4019 64.6764 19.069 63.8979 19.9927C61.8201 22.4456 61.9078 26.4483 64.135 28.7986C65.4549 30.1995 67.5068 30.8871 69.4092 30.4971C71.0951 30.1738 72.6109 29.0551 73.4307 27.5464C74.8381 24.9652 74.4257 21.4346 72.2191 19.4333C70.8167 18.1453 68.7596 17.627 66.9242 18.0991Z" fill="#9B9B9B"/>
<path d="M85.7166 15.2615C88.2017 13.7117 91.5116 13.2807 94.1925 14.6149C95.0381 14.9792 95.7289 15.6053 96.3991 16.2314C96.4198 15.6515 96.3991 15.046 96.4198 14.4456C97.8685 14.4661 99.3172 14.4456 100.787 14.4661V33.4531C100.766 36.3166 100.029 39.3494 97.9562 41.438C95.6877 43.7421 92.2024 44.4502 89.0678 43.9781C85.7166 43.4855 82.7985 41.0531 81.4993 37.9741C82.7985 37.3481 84.1596 36.8554 85.5001 36.2755C86.258 38.0408 87.7944 39.5495 89.7174 39.8934C91.6405 40.2372 93.8677 39.7651 95.1257 38.1691C96.4662 36.5321 96.4662 34.2947 96.3991 32.2934C95.4041 33.2633 94.2596 34.1254 92.8727 34.4436C89.8669 35.2851 86.557 34.2485 84.2421 32.2267C81.9066 30.2048 80.5249 27.0796 80.6538 23.9801C80.7208 20.4701 82.7109 17.0883 85.7166 15.2615ZM90.1917 18.0172C88.8719 18.2327 87.6397 18.9665 86.7942 19.9775C84.7629 22.3893 84.7629 26.2432 86.8148 28.6089C87.9851 30.0098 89.8618 30.7847 91.6817 30.5897C93.3882 30.4152 94.971 29.3427 95.8114 27.8545C97.2395 25.3349 97.0024 21.9121 95.0741 19.7157C93.8883 18.361 91.9859 17.6939 90.1917 18.0172Z" fill="#9B9B9B"/>
<path d="M114.284 16.3595C116.877 13.9477 120.878 13.1317 124.209 14.3993C127.364 15.5847 129.38 18.5764 130.395 21.6554C125.704 23.5951 121.033 25.5092 116.336 27.4439C116.986 28.6703 117.981 29.789 119.321 30.2406C121.203 30.9077 123.451 30.6717 125.028 29.4247C125.657 28.9526 126.152 28.3265 126.627 27.7261C127.818 28.5215 129.003 29.2964 130.194 30.0918C128.509 32.6114 125.673 34.3767 122.626 34.6538C119.254 35.0644 115.661 33.7712 113.48 31.1438C109.892 27.0128 110.237 20.08 114.284 16.3595ZM116.599 20.3417C115.862 21.3988 115.563 22.6868 115.583 23.9595C118.718 22.6663 121.853 21.3783 124.992 20.0646C124.472 18.8586 123.219 18.1248 121.945 17.9349C119.883 17.5655 117.744 18.6636 116.599 20.3417Z" fill="#9B9B9B"/>
</g>
<defs>
<clipPath id="clip0">
<rect width="132" height="46" fill="white" transform="translate(0.132812)"/>
</clipPath>
</defs>
</svg>
