<svg width="132" height="46" viewBox="0 0 132 46" fill="none" xmlns="http://www.w3.org/2000/svg">
<g clip-path="url(#clip0)">
<path d="M16.8755 2H18.0201C22.0002 2.08724 25.9133 3.67805 28.7232 6.50045C27.6869 7.55756 26.6248 8.56849 25.6092 9.62048C24.0315 8.19902 22.1291 7.10085 20.0514 6.71597C16.9786 6.06939 13.6738 6.64926 11.096 8.39402C8.28619 10.226 6.38376 13.3255 5.97131 16.6406C5.51761 19.9145 6.44563 23.3579 8.59038 25.898C10.6423 28.3715 13.7821 29.9212 17.025 30.029C20.0514 30.2035 23.2118 29.2746 25.4184 27.1655C27.1507 25.6825 27.9498 23.4195 28.2076 21.2231C24.6193 21.2231 21.0258 21.2436 17.4375 21.2231V16.7894H32.5538C33.3323 21.5464 32.2084 26.9038 28.5737 30.3061C26.1505 32.718 22.7993 34.1394 19.3811 34.4165C16.0712 34.7398 12.653 34.1138 9.71431 32.523C6.18785 30.6499 3.37802 27.4837 1.9963 23.7633C0.697082 20.3405 0.676459 16.4661 1.88804 13.0228C2.99134 9.88219 5.11031 7.10085 7.83765 5.16622C10.4516 3.24699 13.6326 2.195 16.8755 2Z" fill="#3780FF"/>
<path d="M103.594 3.11877H108.224V33.8573C106.687 33.8573 105.13 33.8778 103.594 33.8368C103.614 23.6094 103.594 13.3667 103.594 3.11877Z" fill="#38B137"/>
<path d="M42.8449 13.772C45.7012 13.2332 48.7945 13.8387 51.1507 15.5373C53.2903 17.046 54.7854 19.4117 55.2391 21.9929C55.8217 24.9846 55.0896 28.2586 53.1408 30.6243C51.0424 33.2722 47.6036 34.6937 44.2524 34.4782C41.1797 34.3037 38.1997 32.7796 36.3797 30.2805C34.3278 27.5248 33.8277 23.7376 34.9516 20.5098C36.0807 17.046 39.2566 14.3981 42.8449 13.772ZM43.4945 17.8619C42.3242 18.1647 41.2467 18.8318 40.4682 19.776C38.3698 22.2751 38.4987 26.3394 40.8136 28.664C42.1334 29.9982 44.1235 30.6243 45.9589 30.2548C47.6655 29.9521 49.1606 28.8128 49.9803 27.3041C51.4085 24.7434 50.996 21.2129 48.81 19.2115C47.4128 17.9286 45.3557 17.3898 43.4945 17.8619Z" fill="#FA3913"/>
<path d="M65.7712 13.7719C69.0347 13.1458 72.6076 14.0541 75.0462 16.3325C79.0264 19.8836 79.4594 26.5343 76.0619 30.6242C74.0099 33.2054 70.6794 34.6268 67.3901 34.478C64.2554 34.3908 61.1621 32.841 59.3009 30.2803C57.2025 27.4631 56.7488 23.5836 57.9398 20.2942C59.1307 16.9381 62.2447 14.3774 65.7712 13.7719ZM66.4208 17.8618C65.2505 18.1645 64.173 18.8317 63.3945 19.7554C61.3167 22.2083 61.4044 26.211 63.6316 28.5612C64.9515 29.9622 67.0034 30.6498 68.9058 30.2598C70.5917 29.9365 72.1075 28.8178 72.9272 27.3091C74.3347 24.7279 73.9223 21.1973 71.7157 19.196C70.3133 17.908 68.2562 17.3897 66.4208 17.8618Z" fill="#FCBD06"/>
<path d="M85.2137 15.0242C87.6987 13.4744 91.0087 13.0434 93.6896 14.3776C94.5351 14.7419 95.226 15.368 95.8962 15.9941C95.9168 15.4142 95.8962 14.8087 95.9168 14.2082C97.3656 14.2288 98.8143 14.2082 100.284 14.2288V33.2158C100.263 36.0793 99.5258 39.1121 97.4532 41.2007C95.1847 43.5048 91.6995 44.2129 88.5649 43.7408C85.2137 43.2482 82.2956 40.8158 80.9964 37.7368C82.2956 37.1108 83.6567 36.6181 84.9972 36.0382C85.7551 37.8035 87.2914 39.3122 89.2145 39.656C91.1376 39.9999 93.3648 39.5278 94.6228 37.9318C95.9632 36.2948 95.9632 34.0574 95.8962 32.0561C94.9012 33.026 93.7566 33.8881 92.3698 34.2062C89.364 35.0478 86.0541 34.0112 83.7392 31.9894C81.4037 29.9675 80.022 26.8423 80.1509 23.7428C80.2179 20.2328 82.208 16.851 85.2137 15.0242ZM89.6888 17.7799C88.369 17.9954 87.1368 18.7292 86.2912 19.7402C84.2599 22.152 84.2599 26.0059 86.3119 28.3716C87.4822 29.7725 89.3589 30.5474 91.1788 30.3524C92.8853 30.1779 94.4681 29.1054 95.3085 27.6172C96.7366 25.0976 96.4994 21.6748 94.5712 19.4784C93.3854 18.1237 91.483 17.4566 89.6888 17.7799Z" fill="#3780FF"/>
<path d="M113.781 16.1222C116.374 13.7104 120.375 12.8944 123.705 14.1619C126.861 15.3474 128.876 18.3391 129.892 21.4181C125.2 23.3578 120.529 25.2719 115.833 27.2066C116.482 28.433 117.477 29.5517 118.818 30.0033C120.7 30.6704 122.947 30.4344 124.525 29.1874C125.154 28.7153 125.649 28.0892 126.123 27.4888C127.314 28.2842 128.5 29.0591 129.691 29.8545C128.005 32.3741 125.169 34.1394 122.123 34.4165C118.751 34.827 115.157 33.5339 112.976 30.9065C109.388 26.7755 109.734 19.8427 113.781 16.1222ZM116.096 20.1044C115.358 21.1615 115.059 22.4495 115.08 23.7222C118.215 22.429 121.349 21.141 124.489 19.8273C123.968 18.6213 122.715 17.8875 121.442 17.6976C119.38 17.3282 117.24 18.4263 116.096 20.1044Z" fill="#FA3913"/>
</g>
<defs>
<clipPath id="clip0">
<rect width="132" height="46" fill="white"/>
</clipPath>
</defs>
</svg>
