<svg width="182" height="59" viewBox="0 0 182 59" fill="none" xmlns="http://www.w3.org/2000/svg">
<g clip-path="url(#clip0)">
<path d="M22.4246 0.00866699H24.0319C29.6212 0.131584 35.1163 2.37301 39.0621 6.34972C37.6069 7.83918 36.1154 9.26357 34.6892 10.7458C32.4737 8.74298 29.8022 7.19568 26.8844 6.6534C22.5694 5.74237 17.9286 6.5594 14.3086 9.01774C10.3628 11.599 7.6912 15.9661 7.112 20.637C6.47488 25.25 7.77808 30.1016 10.7899 33.6806C13.6714 37.1656 18.0806 39.3492 22.6346 39.5011C26.8844 39.7469 31.3226 38.4382 34.4213 35.4665C36.8539 33.3769 37.9761 30.1883 38.3381 27.0937C33.2991 27.0937 28.2528 27.1226 23.2138 27.0937V20.8467H44.4414C45.5347 27.5492 43.9564 35.0978 38.8522 39.8915C35.4494 43.2898 30.7434 45.2926 25.9432 45.6831C21.2952 46.1386 16.495 45.2565 12.3682 43.015C7.41608 40.3759 3.47028 35.9148 1.52996 30.6728C-0.294524 25.8501 -0.323484 20.3911 1.37792 15.5323C2.92728 11.1073 5.90292 7.19568 9.73288 4.46259C13.4036 1.76565 17.8706 0.276192 22.4246 0.00866699Z" fill="white"/>
<path d="M144.202 1.5835H150.703V44.8935C148.546 44.8935 146.359 44.9225 144.202 44.8646C144.238 30.4545 144.202 16.0154 144.202 1.5835Z" fill="white"/>
<path d="M58.8995 16.5936C62.9032 15.8344 67.2472 16.6876 70.5559 19.0809C73.5605 21.2066 75.6601 24.5398 76.2972 28.1767C77.1154 32.392 76.0873 37.005 73.3506 40.3382C70.4039 44.0691 65.5748 46.0719 60.8688 45.7683C56.5538 45.5224 52.369 43.375 49.8133 39.8538C46.9318 35.9711 46.2295 30.6351 47.8078 26.0871C49.3934 21.2066 53.8532 17.4757 58.8995 16.5936ZM59.8045 22.3563C58.161 22.7829 56.6479 23.7228 55.5546 25.0532C52.608 28.5744 52.789 34.3009 56.0397 37.5762C57.8932 39.4561 60.6878 40.3382 63.2652 39.8177C65.6617 39.3911 67.7613 37.7859 68.9124 35.6602C70.9179 32.0522 70.3387 27.0777 67.269 24.2579C65.3069 22.4503 62.4182 21.6911 59.8045 22.3563Z" fill="white"/>
<path d="M91.089 16.5937C95.6719 15.7116 100.689 16.9914 104.114 20.2017C109.703 25.2051 110.311 34.5757 105.54 40.3383C102.658 43.9752 97.9814 45.978 93.3623 45.7684C88.9604 45.6454 84.6164 43.4619 82.0028 39.8539C79.0561 35.8844 78.419 30.4182 80.0914 25.7835C81.7639 21.0549 86.1368 17.4469 91.089 16.5937ZM92.0012 22.3563C90.3577 22.7829 88.8446 23.7229 87.7513 25.0244C84.8336 28.4805 84.9567 34.1202 88.0844 37.4317C89.9378 39.4056 92.8193 40.3745 95.4909 39.825C97.8584 39.3695 99.9869 37.7932 101.138 35.6675C103.115 32.0306 102.535 27.0561 99.4367 24.2362C97.4674 22.4214 94.5786 21.6911 92.0012 22.3563Z" fill="white"/>
<path d="M118.391 18.3508C121.881 16.1672 126.529 15.5598 130.293 17.4397C131.481 17.9531 132.451 18.8352 133.392 19.7173C133.421 18.9003 133.392 18.0471 133.421 17.2011C135.456 17.23 137.49 17.2011 139.553 17.23V43.9825C139.524 48.0171 138.489 52.2902 135.579 55.233C132.393 58.4795 127.499 59.4773 123.097 58.8121C118.391 58.1179 114.293 54.6907 112.469 50.3525C114.293 49.4704 116.204 48.7763 118.087 47.9592C119.151 50.4465 121.309 52.5722 124.009 53.0567C126.71 53.5411 129.837 52.8759 131.604 50.6272C133.486 48.3208 133.486 45.1683 133.392 42.3484C131.995 43.715 130.388 44.9297 128.44 45.378C124.219 46.5638 119.571 45.1032 116.32 42.2545C113.041 39.4057 111.1 35.0024 111.281 30.6352C111.375 25.6968 114.17 20.932 118.391 18.3508ZM124.675 22.2335C122.822 22.5372 121.091 23.5711 119.904 24.9955C117.051 28.3938 117.051 33.8238 119.933 37.157C121.576 39.1309 124.212 40.2227 126.768 39.948C129.164 39.7021 131.387 38.191 132.567 36.0942C134.572 32.544 134.239 27.7214 131.531 24.6267C129.866 22.7252 127.195 21.778 124.675 22.2335Z" fill="white"/>
<path d="M158.508 19.8981C162.149 16.4998 167.768 15.3502 172.445 17.1361C176.876 18.8063 179.706 23.0216 181.133 27.3599C174.544 30.093 167.985 32.7899 161.389 35.5158C162.302 37.2438 163.699 38.8201 165.581 39.4563C168.224 40.3963 171.38 40.0637 173.596 38.3067C174.479 37.6415 175.174 36.7594 175.84 35.9134C177.513 37.0341 179.178 38.1259 180.85 39.2466C178.483 42.7968 174.501 45.284 170.222 45.6745C165.487 46.2529 160.441 44.4308 157.378 40.7289C152.339 34.9156 152.832 25.1474 158.508 19.8981ZM161.759 25.5089C160.723 26.9984 160.303 28.8132 160.332 30.6063C164.734 28.7843 169.136 26.9694 173.545 25.1185C172.814 23.4193 171.055 22.3854 169.266 22.1178C166.37 21.5973 163.366 23.1446 161.759 25.5089Z" fill="white"/>
</g>
<defs>
<clipPath id="clip0">
<rect width="181" height="59" fill="white" transform="translate(0.132812)"/>
</clipPath>
</defs>
</svg>
