<svg width="360" height="406" viewBox="0 0 360 406" fill="none" xmlns="http://www.w3.org/2000/svg">
<g clip-path="url(#clip0)">
<path d="M126.868 182.881L125.153 182.395L142.536 121.066C143.325 118.28 145.856 116.706 148.099 115.327C148.38 115.152 148.661 114.977 148.915 114.818L149.285 114.575C151.58 113.096 154.719 111.092 158.513 112.167L219.843 129.55L219.358 131.265L158.027 113.882C155.005 113.025 152.367 114.731 150.249 116.076L149.879 116.318C149.598 116.493 149.317 116.668 149.036 116.843C146.985 118.114 144.852 119.431 144.251 121.552L126.868 182.881Z" fill="#F44247"/>
<path d="M130.988 190.323L129.273 189.837L146.65 128.529C147.44 125.743 149.97 124.169 152.22 122.769C152.501 122.594 152.776 122.44 153.036 122.259L153.406 122.017C155.701 120.538 158.839 118.534 162.612 119.603L223.943 136.986L223.457 138.7L162.148 121.323C159.125 120.467 156.494 122.152 154.391 123.523L154 123.76C153.719 123.935 153.459 124.116 153.157 124.285C151.106 125.555 148.966 126.894 148.365 129.015L130.988 190.323Z" fill="#004E86"/>
<path d="M199.057 222.418L137.726 205.035L138.212 203.321L199.542 220.704C202.565 221.561 205.196 219.876 207.299 218.504L207.69 218.267C207.95 218.086 208.225 217.933 208.506 217.758C210.474 216.533 212.718 215.155 213.319 213.033L230.702 151.704L232.417 152.19L215.04 213.498C214.25 216.284 211.698 217.852 209.449 219.252C209.168 219.427 208.914 219.587 208.633 219.762L208.263 220.004C205.989 221.489 202.851 223.494 199.057 222.418Z" fill="#004E86"/>
<path d="M135.212 197.4L133.497 196.914L150.789 135.906C151.499 133.075 154.051 131.506 156.3 130.107C156.581 129.932 156.835 129.772 157.089 129.613L157.459 129.37C159.754 127.891 162.892 125.887 166.687 126.962L227.76 144.272L227.274 145.987L166.201 128.676C163.178 127.82 160.547 129.505 158.423 130.87L158.053 131.113C157.799 131.272 157.518 131.447 157.237 131.622C155.18 132.915 153.047 134.231 152.516 136.35L152.51 136.371L135.212 197.4Z" fill="#004E86"/>
<path d="M203.186 229.747L141.856 212.363L142.342 210.649L203.672 228.032C206.694 228.889 209.326 227.204 211.428 225.832L211.819 225.596C212.079 225.415 212.354 225.261 212.636 225.086C214.604 223.861 216.847 222.483 217.448 220.362L234.831 159.032L236.546 159.518L219.169 220.826C218.38 223.612 215.828 225.181 213.578 226.58C213.297 226.755 213.044 226.915 212.762 227.09L212.393 227.332C210.097 228.812 206.98 230.822 203.186 229.747Z" fill="#004E86"/>
<path d="M194.838 214.995L133.52 197.569L134.006 195.855L195.324 213.281C198.346 214.137 200.978 212.452 203.08 211.081L203.478 210.823C203.759 210.648 204.019 210.467 204.321 210.298C206.372 209.027 208.511 207.689 209.113 205.567L226.446 144.085L228.161 144.571L210.828 206.053C210.038 208.839 207.507 210.414 205.258 211.813C204.977 211.988 204.702 212.142 204.442 212.323L204.051 212.559C201.771 214.066 198.632 216.07 194.838 214.995Z" fill="#F44247"/>
<path d="M237.239 365.267L42.508 310.073L42.9939 308.359L236.01 363.066L311.803 95.6555L313.518 96.1415L237.239 365.267Z" fill="#004E86"/>
<path d="M232.062 353.706L44.8129 300.633L45.2988 298.919L230.833 351.506L305.539 87.9306L307.254 88.4167L232.062 353.706Z" fill="#004E86"/>
<path d="M45.2262 300.565L43.5112 300.079L119.712 31.2323L300.423 82.4521L226.846 342.041L59.7688 294.686L60.2547 292.972L225.617 339.841L298.222 83.6804L120.941 33.4327L45.2262 300.565Z" fill="#F44247"/>
<path d="M242.841 375.814L51.8834 321.69L52.3693 319.975L241.612 373.613L318.183 103.46L319.898 103.946L242.841 375.814Z" fill="#F44247"/>
<path d="M52.3214 321.86C44.4542 319.63 39.9003 311.348 42.1536 303.398C44.407 295.448 52.6293 290.787 60.4966 293.017L60.0107 294.731C53.0867 292.769 45.8546 296.877 43.8686 303.884C41.8825 310.891 45.8833 318.183 52.8073 320.146L52.3214 321.86Z" fill="#F44247"/>
</g>
<defs>
<clipPath id="clip0">
<rect width="276.286" height="342.625" fill="white" transform="translate(93.6853 0.658936) rotate(15.8246)"/>
</clipPath>
</defs>
</svg>
