<?xml version="1.0" encoding="utf-8"?>
<!-- Generator: Adobe Illustrator 25.2.3, SVG Export Plug-In . SVG Version: 6.00 Build 0)  -->
<svg version="1.1" id="Layer_1" xmlns="http://www.w3.org/2000/svg" xmlns:xlink="http://www.w3.org/1999/xlink" x="0px" y="0px"
	 viewBox="0 0 1240 1538.3" style="enable-background:new 0 0 1240 1538.3;" xml:space="preserve">
<style type="text/css">
	.st0{fill:#004E86;}
</style>
<path class="st0" d="M375.4,746.5h-8V460.3c0-13,9-22.9,17-31.6c1-1.1,2-2.2,2.9-3.2l1.4-1.5c8.1-9.2,19.2-21.7,36.8-21.7h286.1v8
	H425.5c-14.1,0-23.4,10.5-30.8,19l-1.4,1.6c-1,1.1-2,2.2-3,3.3c-7.3,8-14.9,16.3-14.9,26.3V746.5z"/>
<path class="st0" d="M402.3,773.6h-8V487.5c0-13,9-22.9,17-31.6c1-1.1,2-2.2,2.9-3.2l1.3-1.5c8.1-9.2,19.2-21.7,36.9-21.7h286.1v8
	H452.4c-14.1,0-23.4,10.5-30.9,19l-1.3,1.5c-1,1.1-2,2.2-3,3.3c-7.3,8-14.9,16.3-14.9,26.2V773.6z"/>
<path class="st0" d="M735.5,828.9H449.4v-8h286.1c14.1,0,23.4-10.5,30.8-19l1.4-1.5c0.9-1.1,1.9-2.1,2.9-3.2c7-7.7,15-16.4,15-26.3
	V484.7h8v286.1c0,13-9.1,22.9-17.1,31.7c-1,1.1-1.9,2.1-2.9,3.2l-1.3,1.5C764.3,816.4,753.2,828.9,735.5,828.9z"/>
<path class="st0" d="M429.2,799h-8V514.3c-0.4-13.1,8.7-23,16.7-31.8c1-1,1.9-2.1,2.8-3.1l1.4-1.5c8.1-9.2,19.2-21.7,36.8-21.7
	h284.9v8H478.9c-14,0-23.3,10.5-30.8,19l-1.4,1.6c-0.9,1-1.9,2.1-2.9,3.2c-7.3,8.1-14.9,16.4-14.7,26.3l0,0.1V799z"/>
<path class="st0" d="M762.3,855.5H476.2v-8h286.1c14.1,0,23.4-10.5,30.8-19l1.4-1.5c0.9-1.1,1.9-2.1,2.9-3.2c7-7.7,15-16.4,15-26.3
	V511.3h8v286.1c0,13-9.1,22.9-17.1,31.7c-1,1.1-1.9,2.1-2.9,3.2l-1.3,1.5C791,843,780,855.5,762.3,855.5z"/>
<path class="st0" d="M708.2,802L422,801.8l0-8l286.2,0.2c14.1,0,23.5-10.6,31-19.1l1.3-1.4c1-1.1,2-2.2,3-3.3
	c7.3-8,14.9-16.3,14.9-26.3L758,457.1l8,0l0.4,286.8c0,13-9,22.9-17,31.6c-1,1.1-2,2.2-2.9,3.2l-1.2,1.4
	C737.1,789.4,725.9,802,708.2,802z"/>
<polygon class="st0" points="1075.2,1399.2 166.8,1399.2 166.8,1391.2 1067.2,1391.2 1067.2,143.3 1075.2,143.3 "/>
<polygon class="st0" points="1038.7,1355.6 165.2,1355.6 165.2,1347.6 1030.7,1347.6 1030.7,117.6 1038.7,117.6 "/>
<polygon class="st0" points="166.9,1354.8 158.9,1354.8 158.9,100.2 1001.9,100.2 1001.9,1311.6 222.5,1311.6 222.5,1303.6 
	993.9,1303.6 993.9,108.2 166.9,108.2 "/>
<polygon class="st0" points="1112.3,1437.9 221.5,1437.9 221.5,1429.9 1104.3,1429.9 1104.3,169.2 1112.3,169.2 "/>
<path class="st0" d="M223.6,1438.1c-36.7,0-66.5-30.2-66.5-67.3s29.8-67.3,66.5-67.3v8c-32.3,0-58.5,26.6-58.5,59.3
	s26.2,59.3,58.5,59.3V1438.1z"/>
</svg>
