<svg width="151" height="44" viewBox="0 0 151 44" fill="none" xmlns="http://www.w3.org/2000/svg">
<path d="M0.628418 8.25708H5.86078V19.7883H16.9022V8.25708H22.1466V36.5584H16.9022V24.783H5.86078V36.5524H0.628418V8.25708ZM38.7387 27.3369C38.7387 29.7063 36.7924 31.6351 34.4015 31.6351C32.0106 31.6351 30.0642 29.7063 30.0642 27.3369V15.1508H25.0962V27.3369C25.0962 32.4209 29.2712 36.5524 34.4015 36.5524C39.5317 36.5524 43.7008 32.415 43.7008 27.3369V15.1508H38.7387V27.3369ZM57.5656 15.2937C55.1026 15.2937 53.3846 16.0021 51.7205 17.6154V8.25708H46.7405V25.6105C46.7405 32.1054 51.4802 36.5584 56.8027 36.5584C62.7199 36.5584 67.9102 32.028 67.9102 25.932C67.9102 19.9014 63.1284 15.2937 57.5656 15.2937ZM57.6918 31.9863C54.3157 31.9863 51.7325 29.1943 51.7325 25.926C51.7325 22.6578 54.3157 19.8598 57.6918 19.8598C60.5513 19.8598 63.1344 22.6518 63.1344 25.926C63.1344 29.1943 60.5513 31.9863 57.6918 31.9863ZM76.2784 16.5379C76.2784 14.0554 77.9484 13.2696 79.7746 13.2696C81.2464 13.2696 83.1928 14.371 84.4603 15.7104L87.7163 11.9302C86.0883 9.76323 82.7903 8.26899 80.093 8.26899C74.6925 8.26899 70.7937 11.3765 70.7937 16.5379C70.7937 26.1046 82.6702 23.0745 82.6702 28.4264C82.6702 30.0754 81.0422 31.5339 79.1739 31.5339C76.2303 31.5339 75.2812 30.117 73.9295 28.6228L70.3131 32.3257C72.6199 35.1236 75.4794 36.5405 78.8976 36.5405C84.0218 36.5405 88.1548 33.3913 88.1548 28.468C88.1548 17.8417 76.2784 21.1457 76.2784 16.5379ZM101.275 15.0199C95.9523 15.0199 91.2125 19.4669 91.2125 25.9617V43.3628H96.1926V33.9509C97.8506 35.5642 99.5747 36.2726 102.038 36.2726C107.6 36.2726 112.382 31.6649 112.382 25.6462C112.376 19.5443 107.192 15.0199 101.275 15.0199ZM102.158 31.7125C98.7817 31.7125 96.1986 28.9145 96.1986 25.6462C96.1986 22.378 98.7817 19.58 102.158 19.58C105.017 19.58 107.6 22.372 107.6 25.6462C107.6 28.9145 105.017 31.7125 102.158 31.7125ZM149.051 31.9863C146.113 31.9863 145.278 30.7243 145.278 28.7954V20.2586H149.844V15.9307H145.278V10.2216L140.232 12.466V29.867C140.232 34.314 143.332 36.5584 147.579 36.5584C148.216 36.5584 149.087 36.5167 149.567 36.4036L150.799 31.9149C150.246 31.9506 149.61 31.9863 149.051 31.9863Z" fill="#9B9B9B"/>
<path d="M136.528 20.2943C135.573 18.6631 134.227 17.3594 132.551 16.3771C131.296 15.6508 129.992 15.1924 128.527 14.996V9.8227C129.992 9.20357 130.905 7.8403 130.905 6.24486C130.905 4.07196 129.145 2.31578 126.959 2.31578C124.766 2.31578 122.976 4.07791 122.976 6.24486C122.976 7.8403 123.835 9.20357 125.301 9.8227V15.0019C124.129 15.1686 122.91 15.5318 121.798 16.0914C119.528 14.3828 112.085 8.7809 107.735 5.50667C107.837 5.13757 107.915 4.75657 107.915 4.35771C107.915 1.95263 105.951 0 103.524 0C101.097 0 99.1328 1.95263 99.1328 4.35771C99.1328 6.76278 101.097 8.71541 103.53 8.71541C104.359 8.71541 105.122 8.47729 105.783 8.07843L106.702 8.76899L119.323 17.7761C118.657 18.3833 118.032 19.0739 117.539 19.8478C116.53 21.4254 115.917 23.1637 115.917 25.0628V25.4557C115.917 26.7892 116.17 28.0453 116.608 29.224C116.993 30.2539 117.551 31.1945 118.242 32.0399L114.055 36.2011C112.817 35.7427 111.418 36.0463 110.487 36.975C109.85 37.6061 109.489 38.4633 109.495 39.3563C109.495 40.2552 109.85 41.1006 110.493 41.7375C111.129 42.3686 111.994 42.7258 112.896 42.7258C113.797 42.7258 114.662 42.3745 115.298 41.7375C115.935 41.1065 116.296 40.2493 116.296 39.3563C116.296 39.011 116.242 38.6717 116.139 38.3442L120.471 34.052C121.065 34.4568 121.708 34.8021 122.393 35.0938C123.751 35.6772 125.253 36.0285 126.899 36.0285H127.199C129.013 36.0285 130.725 35.6058 132.335 34.7426C134.029 33.8318 135.357 32.5816 136.36 30.9862C137.369 29.3848 137.922 27.6226 137.922 25.6759V25.5807C137.91 23.6757 137.465 21.9076 136.528 20.2943ZM131.236 29.2955C130.058 30.5873 128.707 31.385 127.181 31.385H126.929C126.058 31.385 125.205 31.1469 124.369 30.7123C123.426 30.2361 122.711 29.5514 122.129 28.6882C121.522 27.8429 121.198 26.9142 121.198 25.9319V25.6343C121.198 24.6699 121.384 23.7531 121.858 22.8899C122.363 21.9433 123.042 21.2111 123.949 20.6277C124.838 20.0502 125.787 19.7645 126.844 19.7645H126.941C127.896 19.7645 128.803 19.949 129.662 20.3836C130.533 20.8479 131.248 21.479 131.801 22.3124C132.335 23.1459 132.654 24.0388 132.762 25.0211C132.78 25.2235 132.786 25.4319 132.786 25.6283C132.774 26.9559 132.263 28.1822 131.236 29.2955Z" fill="#9B9B9B"/>
</svg>
