<svg width="172" height="50" viewBox="0 0 172 50" fill="none" xmlns="http://www.w3.org/2000/svg">
<g clip-path="url(#clip0)">
<path d="M0.15332 9.29956H6.1178V22.5963H18.6897V9.29956H24.661V41.9507H18.6897V28.3655H6.1178V41.9438H0.15332V9.29956ZM43.5463 31.3119C43.5463 34.0454 41.3301 36.2707 38.6078 36.2707C35.8855 36.2707 33.6693 34.0454 33.6693 31.3119V17.2597H28.0126V31.3188C28.0126 37.1842 32.7664 41.9507 38.6078 41.9507C44.4492 41.9507 49.1961 37.1773 49.1961 31.3188V17.2597H43.5463V31.3119ZM64.9828 17.4246C62.1784 17.4246 60.2222 18.2419 58.3275 20.1031V9.29956H52.6572V29.3202C52.6572 36.8133 58.0539 41.9507 64.1142 41.9507C70.8516 41.9507 76.7613 36.724 76.7613 29.691C76.7613 22.7336 71.3167 17.4246 64.9828 17.4246ZM65.1265 36.6759C61.2824 36.6759 58.3412 33.4548 58.3412 29.6842C58.3412 25.9136 61.2824 22.6855 65.1265 22.6855C68.3823 22.6855 71.3235 25.9067 71.3235 29.6842C71.3235 33.4548 68.3823 36.6759 65.1265 36.6759ZM86.2894 18.8531C86.2894 15.9891 88.191 15.0825 90.2703 15.0825C91.9461 15.0825 94.1623 16.3531 95.6055 17.8985L99.3128 13.5372C97.4592 11.0372 93.704 9.3133 90.6328 9.3133C84.4837 9.3133 80.0445 12.8985 80.0445 18.8531C80.0445 29.8902 93.5672 26.3943 93.5672 32.5688C93.5672 34.4713 91.7136 36.154 89.5863 36.154C86.2347 36.154 85.154 34.5193 83.615 32.7954L79.4973 37.0674C82.1239 40.2954 85.3797 41.9301 89.2717 41.9301C95.1062 41.9301 99.8121 38.2968 99.8121 32.6169C99.819 20.3573 86.2894 24.1691 86.2894 18.8531ZM114.751 17.1018C108.69 17.1018 103.294 22.2323 103.294 29.7254V49.8009H108.964V38.9493C110.852 40.8105 112.815 41.6279 115.619 41.6279C121.953 41.6279 127.398 36.3119 127.398 29.3682C127.398 22.3215 121.488 17.1018 114.751 17.1018ZM115.756 36.36C111.912 36.36 108.971 33.132 108.971 29.3614C108.971 25.5908 111.912 22.3627 115.756 22.3627C119.012 22.3627 121.953 25.5839 121.953 29.3614C121.953 33.132 119.012 36.36 115.756 36.36ZM169.149 36.6759C165.804 36.6759 164.854 35.2199 164.854 32.9946V23.1457H170.052V18.1526H164.854V11.566L159.108 14.1553V34.2309C159.108 39.3614 162.638 41.9507 167.473 41.9507C168.198 41.9507 169.19 41.9026 169.737 41.7721L171.14 36.5935C170.51 36.6347 169.785 36.6759 169.149 36.6759Z" fill="white"/>
<path d="M154.19 23.434C153.103 21.5521 151.571 20.048 149.662 18.9147C148.233 18.0768 146.748 17.548 145.079 17.3213V11.3529C146.748 10.6386 147.788 9.06584 147.788 7.22518C147.788 4.71831 145.784 2.69221 143.294 2.69221C140.798 2.69221 138.759 4.72518 138.759 7.22518C138.759 9.06584 139.737 10.6386 141.406 11.3529V17.3282C140.073 17.5205 138.684 17.9395 137.419 18.5851C134.833 16.6139 126.358 10.151 121.406 6.37353C121.522 5.94771 121.611 5.50815 121.611 5.04798C121.611 2.27325 119.375 0.0205078 116.611 0.0205078C113.848 0.0205078 111.611 2.27325 111.611 5.04798C111.611 7.82271 113.848 10.0755 116.618 10.0755C117.562 10.0755 118.431 9.80073 119.183 9.34056L120.23 10.1373L134.601 20.5356C133.841 21.2362 133.13 22.0329 132.569 22.9257C131.42 24.7458 130.722 26.7513 130.722 28.9422V29.3955C130.722 30.934 131.01 32.3831 131.509 33.743C131.947 34.9312 132.583 36.0164 133.369 36.9917L128.602 41.7925C127.193 41.2636 125.599 41.6139 124.539 42.6853C123.814 43.4134 123.403 44.4024 123.41 45.4326C123.41 46.4697 123.814 47.445 124.546 48.1799C125.271 48.9079 126.256 49.32 127.282 49.32C128.308 49.32 129.293 48.9147 130.018 48.1799C130.743 47.4518 131.153 46.4628 131.153 45.4326C131.153 45.0342 131.092 44.6428 130.975 44.265L135.907 39.3131C136.584 39.7801 137.316 40.1785 138.096 40.515C139.642 41.1881 141.352 41.5933 143.226 41.5933H143.568C145.633 41.5933 147.583 41.1057 149.416 40.1098C151.345 39.059 152.857 37.6167 153.999 35.776C155.148 33.9285 155.777 31.8955 155.777 29.6496V29.5397C155.77 27.3351 155.264 25.3021 154.19 23.434ZM148.171 33.8186C146.83 35.309 145.291 36.2293 143.554 36.2293H143.267C142.275 36.2293 141.304 35.9546 140.353 35.4532C139.279 34.9038 138.465 34.1139 137.802 33.118C137.111 32.1428 136.741 31.0713 136.741 29.9381V29.5947C136.741 28.482 136.954 27.4244 137.494 26.4285C138.068 25.3364 138.841 24.4917 139.874 23.8186C140.887 23.1524 141.967 22.8227 143.171 22.8227H143.281C144.368 22.8227 145.401 23.0356 146.379 23.537C147.371 24.0727 148.185 24.8007 148.814 25.7623C149.423 26.7238 149.785 27.754 149.908 28.8873C149.929 29.1208 149.936 29.3612 149.936 29.5878C149.915 31.1194 149.334 32.5342 148.171 33.8186Z" fill="white"/>
</g>
<defs>
<clipPath id="clip0">
<rect width="171" height="50" fill="white" transform="translate(0.132812)"/>
</clipPath>
</defs>
</svg>
