<svg width="152" height="44" viewBox="0 0 152 44" fill="none" xmlns="http://www.w3.org/2000/svg">
<g clip-path="url(#clip0)">
<path d="M0.150391 8.18359H5.41727V19.8847H16.5188V8.18359H21.7917V36.9166H16.5188V24.9616H5.41727V36.9105H0.150391V8.18359ZM38.4682 27.5545C38.4682 29.96 36.5112 31.9182 34.1073 31.9182C31.7034 31.9182 29.7464 29.96 29.7464 27.5545V15.1885H24.7513V27.5605C24.7513 32.7221 28.9491 36.9166 34.1073 36.9166C39.2654 36.9166 43.4572 32.716 43.4572 27.5605V15.1885H38.4682V27.5545ZM57.3975 15.3336C54.9211 15.3336 53.1937 16.0528 51.5206 17.6907V8.18359H46.5134V25.8017C46.5134 32.3957 51.279 36.9166 56.6304 36.9166C62.5798 36.9166 67.7984 32.3171 67.7984 26.1281C67.7984 20.0056 62.9906 15.3336 57.3975 15.3336ZM57.5244 32.2748C54.1299 32.2748 51.5327 29.4402 51.5327 26.1221C51.5327 22.8039 54.1299 19.9633 57.5244 19.9633C60.3994 19.9633 62.9966 22.7979 62.9966 26.1221C62.9966 29.4402 60.3994 32.2748 57.5244 32.2748ZM76.2121 16.5907C76.2121 14.0704 77.8912 13.2726 79.7274 13.2726C81.2072 13.2726 83.1642 14.3907 84.4386 15.7506L87.7123 11.9127C86.0754 9.71272 82.7595 8.19568 80.0475 8.19568C74.6175 8.19568 70.6976 11.3506 70.6976 16.5907C70.6976 26.3034 82.6387 23.227 82.6387 28.6605C82.6387 30.3347 81.0018 31.8155 79.1234 31.8155C76.1638 31.8155 75.2095 30.377 73.8505 28.86L70.2144 32.6193C72.5338 35.46 75.4088 36.8984 78.8456 36.8984C83.9977 36.8984 88.1532 33.7012 88.1532 28.7028C88.1592 17.9144 76.2121 21.2688 76.2121 16.5907ZM101.345 15.0495C95.9931 15.0495 91.2275 19.5644 91.2275 26.1583V43.8248H96.2347V34.2754C97.9017 35.9133 99.6352 36.6325 102.112 36.6325C107.705 36.6325 112.513 31.9545 112.513 25.844C112.513 19.6429 107.294 15.0495 101.345 15.0495ZM102.232 31.9968C98.838 31.9968 96.2407 29.1561 96.2407 25.838C96.2407 22.5199 98.838 19.6792 102.232 19.6792C105.107 19.6792 107.705 22.5138 107.705 25.838C107.705 29.1561 105.107 31.9968 102.232 31.9968ZM149.381 32.2748C146.427 32.2748 145.588 30.9935 145.588 29.0352V20.3682H150.178V15.9743H145.588V10.1781L140.514 12.4567V30.1232C140.514 34.638 143.631 36.9166 147.901 36.9166C148.541 36.9166 149.417 36.8743 149.9 36.7594L151.138 32.2023C150.583 32.2385 149.942 32.2748 149.381 32.2748Z" fill="#45535E"/>
<path d="M136.172 20.6219C135.212 18.9659 133.859 17.6422 132.174 16.645C130.911 15.9076 129.601 15.4422 128.127 15.2428V9.99059C129.601 9.36202 130.519 7.97796 130.519 6.35818C130.519 4.15213 128.749 2.36917 126.551 2.36917C124.346 2.36917 122.546 4.15818 122.546 6.35818C122.546 7.97796 123.41 9.36202 124.883 9.99059V15.2488C123.706 15.4181 122.48 15.7867 121.362 16.3549C119.079 14.6203 111.595 8.9329 107.223 5.60873C107.325 5.234 107.404 4.84719 107.404 4.44224C107.404 2.00048 105.429 0.0180664 102.988 0.0180664C100.548 0.0180664 98.5732 2.00048 98.5732 4.44224C98.5732 6.884 100.548 8.86642 102.995 8.86642C103.828 8.86642 104.595 8.62466 105.26 8.21972L106.184 8.92081L118.874 18.0714C118.203 18.6878 117.575 19.3889 117.08 20.1747C116.065 21.7763 115.449 23.5411 115.449 25.4692V25.8681C115.449 27.2219 115.703 28.4972 116.144 29.6939C116.53 30.7395 117.092 31.6944 117.786 32.5527L113.577 36.7774C112.332 36.312 110.925 36.6203 109.989 37.5631C109.349 38.2038 108.986 39.0741 108.992 39.9807C108.992 40.8933 109.349 41.7516 109.995 42.3983C110.635 43.0389 111.505 43.4016 112.411 43.4016C113.317 43.4016 114.187 43.045 114.827 42.3983C115.467 41.7576 115.83 40.8873 115.83 39.9807C115.83 39.6302 115.775 39.2857 115.672 38.9532L120.027 34.5955C120.625 35.0065 121.272 35.3571 121.96 35.6532C123.325 36.2455 124.835 36.6021 126.49 36.6021H126.792C128.616 36.6021 130.338 36.173 131.956 35.2966C133.66 34.3719 134.994 33.1027 136.003 31.4829C137.018 29.8571 137.574 28.0681 137.574 26.0917V25.995C137.568 24.0549 137.121 22.2659 136.172 20.6219ZM130.857 29.7604C129.673 31.0719 128.314 31.8818 126.78 31.8818H126.526C125.651 31.8818 124.793 31.64 123.953 31.1988C123.005 30.7153 122.286 30.0203 121.7 29.1439C121.09 28.2857 120.764 27.3428 120.764 26.3455V26.0433C120.764 25.0642 120.951 24.1335 121.429 23.2571C121.936 22.2961 122.618 21.5527 123.531 20.9604C124.424 20.3741 125.379 20.084 126.442 20.084H126.538C127.499 20.084 128.411 20.2714 129.275 20.7126C130.15 21.184 130.869 21.8247 131.425 22.6708C131.962 23.517 132.282 24.4236 132.391 25.4208C132.409 25.6263 132.415 25.8378 132.415 26.0373C132.397 27.3851 131.884 28.6302 130.857 29.7604Z" fill="#F8761F"/>
</g>
<defs>
<clipPath id="clip0">
<rect width="151" height="44" fill="white" transform="translate(0.132812)"/>
</clipPath>
</defs>
</svg>
