<svg width="153" height="46" viewBox="0 0 153 46" fill="none" xmlns="http://www.w3.org/2000/svg">
<g clip-path="url(#clip0)">
<path d="M1 9H6.23236V20.5313H17.2738V9H22.5182V37.3013H17.2738V25.5259H6.23236V37.2953H1V9ZM39.1103 28.0798C39.1103 30.4492 37.164 32.378 34.7731 32.378C32.3821 32.378 30.4358 30.4492 30.4358 28.0798V15.8937H25.4677V28.0798C25.4677 33.1638 29.6428 37.2953 34.7731 37.2953C39.9033 37.2953 44.0724 33.1579 44.0724 28.0798V15.8937H39.1103V28.0798ZM57.9372 16.0366C55.4742 16.0366 53.7561 16.745 52.0921 18.3584V9H47.1121V26.3534C47.1121 32.8483 51.8518 37.3013 57.1743 37.3013C63.0915 37.3013 68.2818 32.7709 68.2818 26.6749C68.2818 20.6444 63.5 16.0366 57.9372 16.0366ZM58.0634 32.7293C54.6873 32.7293 52.1041 29.9372 52.1041 26.6689C52.1041 23.4007 54.6873 20.6027 58.0634 20.6027C60.9228 20.6027 63.506 23.3947 63.506 26.6689C63.506 29.9372 60.9228 32.7293 58.0634 32.7293ZM76.65 17.2808C76.65 14.7984 78.32 14.0126 80.1462 14.0126C81.618 14.0126 83.5644 15.1139 84.8319 16.4533L88.0879 12.6731C86.4599 10.5061 83.1619 9.01191 80.4646 9.01191C75.064 9.01191 71.1653 12.1195 71.1653 17.2808C71.1653 26.8475 83.0417 23.8174 83.0417 29.1693C83.0417 30.8183 81.4138 32.2768 79.5455 32.2768C76.6019 32.2768 75.6528 30.86 74.3011 29.3657L70.6847 33.0686C72.9915 35.8666 75.851 37.2834 79.2691 37.2834C84.3934 37.2834 88.5264 34.1342 88.5264 29.2109C88.5264 18.5846 76.65 21.8886 76.65 17.2808ZM101.646 15.7628C96.3239 15.7628 91.5841 20.2098 91.5841 26.7047V44.1057H96.5642V34.6938C98.2222 36.3071 99.9463 37.0155 102.409 37.0155C107.972 37.0155 112.754 32.4078 112.754 26.3892C112.748 20.2872 107.564 15.7628 101.646 15.7628ZM102.529 32.4554C99.1533 32.4554 96.5702 29.6574 96.5702 26.3892C96.5702 23.1209 99.1533 20.3229 102.529 20.3229C105.389 20.3229 107.972 23.1149 107.972 26.3892C107.972 29.6574 105.389 32.4554 102.529 32.4554ZM149.422 32.7293C146.485 32.7293 145.65 31.4672 145.65 29.5384V21.0016H150.215V16.6736H145.65V10.9645L140.604 13.2089V30.6099C140.604 35.0569 143.703 37.3013 147.951 37.3013C148.587 37.3013 149.458 37.2596 149.939 37.1465L151.171 32.6578C150.618 32.6935 149.981 32.7293 149.422 32.7293Z" fill="#45535E"/>
<path d="M137.395 21.2943C136.44 19.6631 135.095 18.3594 133.419 17.3771C132.163 16.6508 130.86 16.1924 129.394 15.996V10.8227C130.86 10.2036 131.773 8.8403 131.773 7.24486C131.773 5.07196 130.012 3.31578 127.826 3.31578C125.633 3.31578 123.843 5.07791 123.843 7.24486C123.843 8.8403 124.702 10.2036 126.168 10.8227V16.0019C124.996 16.1686 123.777 16.5318 122.666 17.0914C120.395 15.3828 112.952 9.7809 108.602 6.50667C108.705 6.13757 108.783 5.75657 108.783 5.35771C108.783 2.95263 106.818 1 104.391 1C101.964 1 100 2.95263 100 5.35771C100 7.76278 101.964 9.71541 104.397 9.71541C105.226 9.71541 105.989 9.47729 106.65 9.07843L107.569 9.76899L120.191 18.7761C119.524 19.3833 118.899 20.0739 118.406 20.8478C117.397 22.4254 116.784 24.1637 116.784 26.0628V26.4557C116.784 27.7892 117.037 29.0453 117.475 30.224C117.86 31.2539 118.418 32.1945 119.109 33.0399L114.922 37.2011C113.685 36.7427 112.285 37.0463 111.354 37.975C110.717 38.6061 110.357 39.4633 110.363 40.3563C110.363 41.2552 110.717 42.1006 111.36 42.7375C111.997 43.3686 112.862 43.7258 113.763 43.7258C114.664 43.7258 115.529 43.3745 116.166 42.7375C116.802 42.1065 117.163 41.2493 117.163 40.3563C117.163 40.011 117.109 39.6717 117.007 39.3442L121.338 35.052C121.933 35.4568 122.575 35.8021 123.26 36.0938C124.618 36.6772 126.12 37.0285 127.766 37.0285H128.066C129.88 37.0285 131.592 36.6058 133.202 35.7426C134.896 34.8318 136.224 33.5816 137.227 31.9862C138.236 30.3848 138.789 28.6226 138.789 26.6759V26.5807C138.777 24.6757 138.333 22.9076 137.395 21.2943ZM132.103 30.2955C130.926 31.5873 129.574 32.385 128.048 32.385H127.796C126.925 32.385 126.072 32.1469 125.237 31.7123C124.294 31.2361 123.579 30.5514 122.996 29.6882C122.389 28.8429 122.065 27.9142 122.065 26.9319V26.6343C122.065 25.6699 122.251 24.7531 122.726 23.8899C123.23 22.9433 123.909 22.2111 124.816 21.6277C125.705 21.0502 126.654 20.7645 127.712 20.7645H127.808C128.763 20.7645 129.67 20.949 130.529 21.3836C131.4 21.8479 132.115 22.479 132.668 23.3124C133.202 24.1459 133.521 25.0388 133.629 26.0211C133.647 26.2235 133.653 26.4319 133.653 26.6283C133.641 27.9559 133.13 29.1822 132.103 30.2955Z" fill="#F8761F"/>
</g>
<defs>
<clipPath id="clip0">
<rect width="153" height="46" fill="white"/>
</clipPath>
</defs>
</svg>
