<svg width="910" height="377" viewBox="0 0 910 377" fill="none" xmlns="http://www.w3.org/2000/svg">
<path d="M839.474 348.126H45.8311V57.0763C45.8311 47.6983 53.9585 40.7572 62.5662 33.3729L63.5636 32.5237C69.8439 27.1333 76.3089 21.5212 86.6529 21.5212H880.296V316.226C880.296 324.238 872.648 330.256 865.925 335.61C865.223 336.163 864.558 336.717 863.893 337.234C863.45 337.603 863.006 337.936 862.563 338.305C855.987 343.584 850.335 348.126 839.474 348.126ZM47.6782 346.28H839.474C849.707 346.28 854.842 342.108 861.381 336.828C861.824 336.459 862.268 336.126 862.711 335.757C863.376 335.203 864.078 334.686 864.78 334.133C871.208 329.074 878.448 323.352 878.448 316.226V23.3673H86.6529C77.0108 23.3673 71.063 28.4993 64.7458 33.8898L63.7483 34.739C55.1037 42.1232 47.6782 48.5106 47.6782 57.0394V346.28V346.28Z" fill="#15265F"/>
<path d="M854.288 362.968H60.6826V71.9186C60.6826 62.5406 68.81 55.5994 77.4177 48.2152L78.4152 47.366C84.6955 41.9755 91.1974 36.3635 101.541 36.3635H895.11V331.068C895.11 339.08 887.463 345.135 880.74 350.452C880.038 351.006 879.373 351.522 878.708 352.076C878.227 352.445 877.784 352.815 877.341 353.184C870.802 358.427 865.15 362.968 854.288 362.968ZM62.5298 361.122H854.325C864.522 361.122 869.694 356.987 876.196 351.744C876.639 351.375 877.119 351.006 877.562 350.636C878.227 350.119 878.929 349.566 879.594 349.012C886.022 343.954 893.263 338.194 893.263 331.105V38.2096H101.504C91.8624 38.2096 85.8776 43.3416 79.5973 48.769L78.5999 49.6182C69.9553 57.0025 62.5298 63.3898 62.5298 71.9186V361.122Z" fill="#15265F"/>
<path d="M868.326 376.998H74.6836V85.9118C74.6836 76.5338 82.811 69.5926 91.4187 62.2084L92.4162 61.3592C98.6964 55.9687 105.161 50.3567 115.505 50.3567H909.148V345.061C909.148 353.073 901.501 359.091 894.778 364.445C894.076 364.999 893.411 365.553 892.746 366.069C892.302 366.439 891.859 366.808 891.416 367.14C884.84 372.42 879.225 376.998 868.326 376.998ZM76.5307 375.152H868.326C878.56 375.152 883.695 370.98 890.197 365.737C890.64 365.368 891.083 364.999 891.563 364.629C892.228 364.076 892.93 363.559 893.632 363.005C900.06 357.947 907.301 352.224 907.301 345.098V52.2027H115.505C105.863 52.2027 99.9155 57.3348 93.5983 62.7253L92.6009 63.5745C83.9562 70.9587 76.5307 77.346 76.5307 85.8748V375.152Z" fill="#15265F"/>
<path d="M825.658 334.428H32.9385V44.3016C32.9385 35.3298 40.7704 28.647 49.4519 21.2259C56.1016 15.5031 62.3819 9.66956 72.8737 9.66956H865.556V303.451C865.556 311.832 856.431 318.146 849.486 323.721C842.208 329.554 836.888 334.428 825.658 334.428Z" fill="#F44247"/>
<path d="M825.657 335.351H32.0146V44.3017C32.0146 34.9237 40.1421 27.9825 48.7497 20.5983L49.7472 19.7491C56.0275 14.3586 62.5294 8.74658 72.8734 8.74658H866.516V303.451C866.516 311.463 858.869 317.481 852.145 322.835C851.444 323.389 850.779 323.906 850.114 324.459C849.67 324.829 849.19 325.198 848.747 325.53C842.171 330.81 836.519 335.351 825.657 335.351ZM33.8618 333.505H825.657C835.854 333.505 841.026 329.333 847.528 324.09C847.971 323.721 848.414 323.352 848.894 322.983C849.559 322.466 850.261 321.912 850.926 321.358C857.354 316.3 864.595 310.54 864.595 303.451V10.5926H72.8365C63.1944 10.5926 57.2097 15.7247 50.9294 21.1521L49.9319 22.0013C41.2873 29.3855 33.8618 35.7729 33.8618 44.3017V333.505V333.505Z" fill="#15265F"/>
<path d="M826.065 335.351H32.4219V44.3017C32.4219 34.9237 40.5493 27.9825 49.157 20.5983L50.1544 19.7491C56.4347 14.3586 62.9366 8.74658 73.2806 8.74658H866.923V303.451C866.923 311.463 859.276 317.518 852.516 322.835C851.814 323.389 851.149 323.906 850.484 324.459C850.041 324.829 849.597 325.161 849.154 325.53C842.578 330.773 836.926 335.351 826.065 335.351ZM34.269 333.505H826.065C836.298 333.505 841.433 329.333 847.972 324.053C848.415 323.684 848.858 323.352 849.302 322.983C849.967 322.466 850.669 321.912 851.334 321.358C857.762 316.3 865.039 310.54 865.039 303.414V10.5926H73.2437C63.6016 10.5926 57.6169 15.7247 51.3366 21.1521L50.3391 22.0013C41.6945 29.3855 34.269 35.7729 34.269 44.3017V333.505V333.505Z" fill="#15265F"/>
<g opacity="0.3">
<path opacity="0.3" d="M361.582 344.84H214.734V348.569H361.582V344.84Z" fill="white"/>
<path opacity="0.3" d="M195.746 231.049H48.8984V234.778H195.746V231.049Z" fill="white"/>
<path opacity="0.3" d="M164.049 175.667H47.9746V178.473H164.049V175.667Z" fill="white"/>
<path opacity="0.3" d="M471.783 350.858H442.819V354.735H471.783V350.858Z" fill="white"/>
<path opacity="0.3" d="M331.104 190.915H309.973V195.715H331.104V190.915Z" fill="white"/>
<path opacity="0.3" d="M253.636 190.915H192.976V195.715H253.636V190.915Z" fill="white"/>
<path opacity="0.3" d="M299.038 190.915H265.235V195.715H299.038V190.915Z" fill="white"/>
<path opacity="0.3" d="M480.649 242.605H439.938V247.109H480.649V242.605Z" fill="white"/>
<path opacity="0.3" d="M361.582 259.663H240.151V264.573H361.582V259.663Z" fill="white"/>
<path opacity="0.3" d="M201.509 367.62H99.584V371.165H201.509V367.62Z" fill="white"/>
<path opacity="0.3" d="M252.194 329.776H221.199V334.76H252.194V329.776Z" fill="white"/>
<path opacity="0.3" d="M159.69 329.776H70.6943V334.76H159.69V329.776Z" fill="white"/>
<path opacity="0.3" d="M212.518 329.776H162.94V334.76H212.518V329.776Z" fill="white"/>
<path opacity="0.3" d="M70.6939 280.523H51.7422V283.624H70.6939V280.523Z" fill="white"/>
<path opacity="0.3" d="M92.6011 280.523H78.6367V283.624H92.6011V280.523Z" fill="white"/>
<path opacity="0.3" d="M126.515 280.486H95.4834V283.588H126.515V280.486Z" fill="white"/>
<path opacity="0.3" d="M385.042 302.565H366.09V305.666H385.042V302.565Z" fill="white"/>
<path opacity="0.3" d="M361.029 302.565H347.064V305.666H361.029V302.565Z" fill="white"/>
<path opacity="0.3" d="M341.781 302.602H310.749V305.703H341.781V302.602Z" fill="white"/>
</g>
<g opacity="0.3">
<path opacity="0.3" d="M392.061 169.39H225.597V173.119H392.061V169.39Z" fill="white"/>
<path opacity="0.3" d="M167.744 55.5992H1.2793V59.3283H167.744V55.5992Z" fill="white"/>
<path opacity="0.3" d="M131.835 0.217529H0.245117V3.02354H131.835V0.217529Z" fill="white"/>
<path opacity="0.3" d="M480.65 175.445H447.845V179.322H480.65V175.445Z" fill="white"/>
<path opacity="0.3" d="M376.544 25.8777H352.605V30.6774H376.544V25.8777Z" fill="white"/>
<path opacity="0.3" d="M288.768 25.8777H220.018V30.6774H288.768V25.8777Z" fill="white"/>
<path opacity="0.3" d="M340.231 25.8777H301.921V30.6774H340.231V25.8777Z" fill="white"/>
<path opacity="0.3" d="M478.95 67.1555H432.771V71.6599H478.95V67.1555Z" fill="white"/>
<path opacity="0.3" d="M405.323 95.4741H267.674V100.385H405.323V95.4741Z" fill="white"/>
<path opacity="0.3" d="M174.32 192.208H58.7627V195.715H174.32V192.208Z" fill="white"/>
<path opacity="0.3" d="M231.803 154.326H196.634V159.311H231.803V154.326Z" fill="white"/>
<path opacity="0.3" d="M126.848 154.326H25.9941V159.311H126.848V154.326Z" fill="white"/>
<path opacity="0.3" d="M186.769 154.326H130.579V159.311H186.769V154.326Z" fill="white"/>
<path opacity="0.3" d="M25.9569 105.074H4.49316V108.175H25.9569V105.074Z" fill="white"/>
<path opacity="0.3" d="M50.8203 105.074H35.0088V108.175H50.8203V105.074Z" fill="white"/>
<path opacity="0.3" d="M89.2399 105.037H54.0703V108.138H89.2399V105.037Z" fill="white"/>
<path opacity="0.3" d="M382.309 127.115H360.845V130.217H382.309V127.115Z" fill="white"/>
<path opacity="0.3" d="M355.081 127.115H339.27V130.217H355.081V127.115Z" fill="white"/>
<path opacity="0.3" d="M333.248 127.189H298.078V130.291H333.248V127.189Z" fill="white"/>
</g>
<g opacity="0.75">
<path opacity="0.75" d="M348.69 281.298H210.302V287.095H348.69V281.298Z" fill="#EB0007"/>
<path opacity="0.75" d="M192.421 104.04H54.0332V109.837H192.421V104.04Z" fill="#EB0007"/>
<path opacity="0.75" d="M162.571 17.7922H53.1836V22.1489H162.571V17.7922Z" fill="#EB0007"/>
<path opacity="0.75" d="M452.499 290.713H425.235V296.768H452.499V290.713Z" fill="#EB0007"/>
<path opacity="0.75" d="M319.947 41.5696H300.035V49.0277H319.947V41.5696Z" fill="#EB0007"/>
<path opacity="0.75" d="M246.948 41.5696H189.798V49.0277H246.948V41.5696Z" fill="#EB0007"/>
<path opacity="0.75" d="M289.729 41.5696H257.884V49.0277H289.729V41.5696Z" fill="#EB0007"/>
<path opacity="0.75" d="M494.391 122.058H456.008V129.073H494.391V122.058Z" fill="#EB0007"/>
<path opacity="0.75" d="M338.087 166.141H223.638V173.784H338.087V166.141Z" fill="#EB0007"/>
<path opacity="0.75" d="M197.852 316.817H101.801V322.318H197.852V316.817Z" fill="#EB0007"/>
<path opacity="0.75" d="M245.619 257.817H216.397V265.57H245.619V257.817Z" fill="#EB0007"/>
<path opacity="0.75" d="M158.433 257.817H74.5732V265.57H158.433V257.817Z" fill="#EB0007"/>
<path opacity="0.75" d="M208.233 257.817H161.5V265.57H208.233V257.817Z" fill="#EB0007"/>
<path opacity="0.75" d="M74.5368 181.131H56.6934V185.931H74.5368V181.131Z" fill="#EB0007"/>
<path opacity="0.75" d="M95.2249 181.131H82.0732V185.931H95.2249V181.131Z" fill="#EB0007"/>
<path opacity="0.75" d="M127.181 181.058H97.9219V185.857H127.181V181.058Z" fill="#EB0007"/>
<path opacity="0.75" d="M370.744 215.468H352.9V220.268H370.744V215.468Z" fill="#EB0007"/>
<path opacity="0.75" d="M348.135 215.468H334.983V220.268H348.135V215.468Z" fill="#EB0007"/>
<path opacity="0.75" d="M330.033 215.542H300.774V220.342H330.033V215.542Z" fill="#EB0007"/>
</g>
<g opacity="0.3">
<path opacity="0.3" d="M719.834 26.7272H572.986V30.4562H719.834V26.7272Z" fill="#FFCECF"/>
<path opacity="0.3" d="M553.998 140.518H407.15V144.247H553.998V140.518Z" fill="#FFCECF"/>
<path opacity="0.3" d="M522.301 196.86H406.227V199.666H522.301V196.86Z" fill="#FFCECF"/>
<path opacity="0.3" d="M830.035 20.5244H801.072V24.4011H830.035V20.5244Z" fill="#FFCECF"/>
<path opacity="0.3" d="M689.356 179.581H668.225V184.38H689.356V179.581Z" fill="#FFCECF"/>
<path opacity="0.3" d="M611.888 179.581H551.228V184.38H611.888V179.581Z" fill="#FFCECF"/>
<path opacity="0.3" d="M657.29 179.581H623.487V184.38H657.29V179.581Z" fill="#FFCECF"/>
<path opacity="0.3" d="M838.901 128.186H798.19V132.691H838.901V128.186Z" fill="#FFCECF"/>
<path opacity="0.3" d="M719.834 110.76H598.403V115.67H719.834V110.76Z" fill="#FFCECF"/>
<path opacity="0.3" d="M559.761 4.13135H457.836V7.67578H559.761V4.13135Z" fill="#FFCECF"/>
<path opacity="0.3" d="M610.446 40.5355H579.451V45.5199H610.446V40.5355Z" fill="#FFCECF"/>
<path opacity="0.3" d="M517.942 40.5355H428.946V45.5199H517.942V40.5355Z" fill="#FFCECF"/>
<path opacity="0.3" d="M570.77 40.5355H521.192V45.5199H570.77V40.5355Z" fill="#FFCECF"/>
<path opacity="0.3" d="M428.91 91.7084H409.958V94.8098H428.91V91.7084Z" fill="#FFCECF"/>
<path opacity="0.3" d="M450.853 91.7084H436.889V94.8098H450.853V91.7084Z" fill="#FFCECF"/>
<path opacity="0.3" d="M484.767 91.7452H453.735V94.8466H484.767V91.7452Z" fill="#FFCECF"/>
<path opacity="0.3" d="M743.293 69.6295H724.341V72.7309H743.293V69.6295Z" fill="#FFCECF"/>
<path opacity="0.3" d="M719.28 69.6295H705.315V72.7309H719.28V69.6295Z" fill="#FFCECF"/>
<path opacity="0.3" d="M700.033 69.5925H669.001V72.6939H700.033V69.5925Z" fill="#FFCECF"/>
</g>
<g opacity="0.3">
<path opacity="0.3" d="M721.884 173.803H555.42V177.532H721.884V173.803Z" fill="white"/>
<path opacity="0.3" d="M497.531 287.594H331.066V291.323H497.531V287.594Z" fill="white"/>
<path opacity="0.3" d="M461.623 343.898H330.032V346.704H461.623V343.898Z" fill="white"/>
<path opacity="0.3" d="M810.437 167.6H777.632V171.477H810.437V167.6Z" fill="white"/>
<path opacity="0.3" d="M706.332 316.281H682.393V321.081H706.332V316.281Z" fill="white"/>
<path opacity="0.3" d="M618.555 316.281H549.805V321.081H618.555V316.281Z" fill="white"/>
<path opacity="0.3" d="M670.017 316.281H631.708V321.081H670.017V316.281Z" fill="white"/>
<path opacity="0.3" d="M808.738 275.262H762.559V279.766H808.738V275.262Z" fill="white"/>
<path opacity="0.3" d="M735.11 246.574H597.461V251.485H735.11V246.574Z" fill="white"/>
<path opacity="0.3" d="M504.107 151.207H388.55V154.714H504.107V151.207Z" fill="white"/>
<path opacity="0.3" d="M561.589 187.611H526.42V192.595H561.589V187.611Z" fill="white"/>
<path opacity="0.3" d="M456.672 187.611H355.781V192.595H456.672V187.611Z" fill="white"/>
<path opacity="0.3" d="M516.593 187.611H460.366V192.595H516.593V187.611Z" fill="white"/>
<path opacity="0.3" d="M355.744 238.747H334.28V241.848H355.744V238.747Z" fill="white"/>
<path opacity="0.3" d="M380.607 238.747H364.796V241.848H380.607V238.747Z" fill="white"/>
<path opacity="0.3" d="M419.064 238.784H383.895V241.885H419.064V238.784Z" fill="white"/>
<path opacity="0.3" d="M712.095 216.705H690.631V219.806H712.095V216.705Z" fill="white"/>
<path opacity="0.3" d="M684.868 216.705H669.057V219.806H684.868V216.705Z" fill="white"/>
<path opacity="0.3" d="M663.035 216.668H627.865V219.769H663.035V216.668Z" fill="white"/>
</g>
<g opacity="0.75">
<path opacity="0.75" d="M709.805 52.4797H571.417V58.2764H709.805V52.4797Z" fill="#EC1D23"/>
<path opacity="0.75" d="M553.536 229.738H415.148V235.535H553.536V229.738Z" fill="#EC1D23"/>
<path opacity="0.75" d="M523.687 317.463H414.299V321.82H523.687V317.463Z" fill="#EC1D23"/>
<path opacity="0.75" d="M813.651 42.8064H786.35V48.8615H813.651V42.8064Z" fill="#EC1D23"/>
<path opacity="0.75" d="M681.063 290.547H661.15V298.005H681.063V290.547Z" fill="#EC1D23"/>
<path opacity="0.75" d="M608.064 290.547H550.913V298.005H608.064V290.547Z" fill="#EC1D23"/>
<path opacity="0.75" d="M650.844 290.547H618.999V298.005H650.844V290.547Z" fill="#EC1D23"/>
<path opacity="0.75" d="M855.507 210.502H817.124V217.517H855.507V210.502Z" fill="#EC1D23"/>
<path opacity="0.75" d="M699.202 165.791H584.753V173.433H699.202V165.791Z" fill="#EC1D23"/>
<path opacity="0.75" d="M558.967 17.257H462.916V22.7582H558.967V17.257Z" fill="#EC1D23"/>
<path opacity="0.75" d="M606.735 74.0048H577.513V81.7582H606.735V74.0048Z" fill="#EC1D23"/>
<path opacity="0.75" d="M519.549 74.0048H435.688V81.7582H519.549V74.0048Z" fill="#EC1D23"/>
<path opacity="0.75" d="M569.348 74.0048H522.615V81.7582H569.348V74.0048Z" fill="#EC1D23"/>
<path opacity="0.75" d="M435.652 153.644H417.809V158.444H435.652V153.644Z" fill="#EC1D23"/>
<path opacity="0.75" d="M456.339 153.644H443.188V158.444H456.339V153.644Z" fill="#EC1D23"/>
<path opacity="0.75" d="M488.296 153.717H459.037V158.517H488.296V153.717Z" fill="#EC1D23"/>
<path opacity="0.75" d="M731.859 119.307H714.016V124.107H731.859V119.307Z" fill="#EC1D23"/>
<path opacity="0.75" d="M709.25 119.307H696.099V124.107H709.25V119.307Z" fill="#EC1D23"/>
<path opacity="0.75" d="M691.148 119.233H661.89V124.033H691.148V119.233Z" fill="#EC1D23"/>
</g>
</svg>
