<svg width="326" height="367" viewBox="0 0 326 367" fill="none" xmlns="http://www.w3.org/2000/svg">
<path d="M273.524 356.496H0.671631V39.6217C0.671631 29.4129 9.51908 21.8568 18.8893 13.8184L19.9751 12.894C26.8118 7.02593 33.8496 0.916748 45.1099 0.916748H317.962V321.73C317.962 330.451 309.637 337.003 302.318 342.831C301.554 343.433 300.83 344.036 300.106 344.599C299.624 345.001 299.141 345.403 298.658 345.765C291.5 351.512 285.387 356.496 273.524 356.496Z" fill="#F44247"/>
<path d="M281.534 366.923H8.68188V50.0484C8.68188 39.8397 17.5293 32.2836 26.8996 24.2452L27.9854 23.3207C34.8221 17.4527 41.8598 11.3435 53.1202 11.3435H325.972V332.156C325.972 340.878 317.648 347.429 310.328 353.257C309.564 353.86 308.84 354.463 308.116 355.026C307.634 355.428 307.151 355.83 306.669 356.191C299.51 361.939 293.398 366.923 281.534 366.923ZM10.6927 364.913H281.534C292.674 364.913 298.264 360.371 305.342 354.664C305.824 354.262 306.307 353.86 306.83 353.458C307.553 352.855 308.318 352.293 309.082 351.69C316.079 346.184 323.961 339.954 323.961 332.197V13.3531L53.1202 13.3531C42.6239 13.3531 36.1492 18.9398 29.2723 24.8078L28.1865 25.7323C18.776 33.7707 10.6927 40.7239 10.6927 50.0083V364.913Z" fill="#15265F"/>
</svg>
