<svg width="117" height="98" viewBox="0 0 117 98" fill="none" xmlns="http://www.w3.org/2000/svg">
<path d="M57.9786 66.3579C49.2218 66.3579 40.9871 62.9619 34.8069 56.7753C28.6098 50.5886 25.1913 42.3677 25.1745 33.6256V33.5752C25.1745 24.8163 28.593 16.5786 34.79 10.3919C40.9871 4.20525 49.2387 0.79248 58.0123 0.79248C66.7859 0.79248 75.0374 4.20525 81.2345 10.3919C87.4316 16.5786 90.8501 24.8163 90.8501 33.5752C90.8501 42.3341 87.4316 50.5718 81.2345 56.7584C75.0374 62.9451 66.7859 66.3579 58.0123 66.3579C57.9954 66.3579 57.9786 66.3579 57.9786 66.3579ZM58.0123 2.47365C49.6934 2.47365 41.8628 5.70148 35.9688 11.5856C30.0749 17.4528 26.8416 25.2702 26.8416 33.5752V33.6256C26.8416 41.9306 30.0917 49.7312 35.9688 55.5984C41.846 61.4489 49.6597 64.6767 57.9618 64.6767C57.9786 64.6767 57.9786 64.6767 57.9954 64.6767C75.1721 64.6767 89.1493 50.7231 89.1493 33.5752C89.1493 25.2702 85.916 17.4528 80.022 11.5856C74.1617 5.70148 66.3312 2.47365 58.0123 2.47365Z" fill="#11172B"/>
<path d="M32.9377 97.6107C14.8517 97.6107 0.150415 82.9341 0.133575 64.8784V64.828C0.133575 56.0691 3.55208 47.8314 9.74916 41.6447C15.9462 35.4581 24.1978 32.0453 32.9714 32.0453C51.0743 32.0453 65.8092 46.7555 65.8092 64.828C65.8092 73.5868 62.3907 81.8246 56.1936 88.0112C49.9965 94.1979 41.745 97.6107 32.9714 97.6107C32.9546 97.6107 32.9377 97.6107 32.9377 97.6107ZM32.9545 33.7265C15.7778 33.7265 1.80072 47.6801 1.80072 64.828V64.8784C1.81756 82.0095 15.7778 95.9295 32.9209 95.9295C32.9377 95.9295 32.9377 95.9295 32.9545 95.9295C50.1313 95.9295 64.1084 81.9759 64.1084 64.828C64.1084 47.6801 50.1313 33.7265 32.9545 33.7265Z" fill="#11172B"/>
<path d="M83.6763 97.6107C65.5903 97.6107 50.8891 82.9341 50.8722 64.8784V64.828C50.8722 56.0691 54.2907 47.8314 60.4878 41.6447C66.6849 35.4581 74.9364 32.0453 83.71 32.0453C101.83 32.0453 116.565 46.7555 116.565 64.828C116.565 73.5868 113.146 81.8246 106.949 88.0112C100.752 94.1979 92.5005 97.6107 83.7269 97.6107C83.6932 97.6107 83.6932 97.6107 83.6763 97.6107ZM83.71 33.7265C66.5333 33.7265 52.5562 47.6801 52.5562 64.828V64.8784C52.5731 82.0095 66.5333 95.9295 83.6763 95.9295C83.6932 95.9295 83.6932 95.9295 83.71 95.9295C92.0289 95.9295 99.8595 92.7017 105.753 86.8176C111.647 80.9503 114.881 73.1329 114.881 64.828C114.864 47.6801 100.887 33.7265 83.71 33.7265Z" fill="#11172B"/>
</svg>
