<svg width="165" height="41" viewBox="0 0 165 41" fill="none" xmlns="http://www.w3.org/2000/svg">
<path fill-rule="evenodd" clip-rule="evenodd" d="M162.909 8.49561H151.195C150.043 8.49561 149.108 9.45322 149.108 10.6343V29.8824C149.108 31.063 150.043 32.0211 151.195 32.0211H162.909C164.062 32.0211 164.996 31.063 164.996 29.8824V10.6343C164.996 9.45322 164.062 8.49561 162.909 8.49561ZM154.559 24.7939H157.002C160.185 24.7939 160.25 15.9718 156.676 15.9718H154.559V24.7939ZM151.879 13.5236H156.597C163.815 13.5236 164.12 27.3133 156.597 27.3133H151.879V13.5236Z" fill="white"/>
<path fill-rule="evenodd" clip-rule="evenodd" d="M146.343 7.82959H134.648C133.495 7.82959 132.561 8.78717 132.561 9.96827V30.8525C132.561 32.0336 133.495 32.9912 134.648 32.9912H146.343C147.495 32.9912 148.43 32.0336 148.43 30.8525V9.96827C148.43 8.78717 147.495 7.82959 146.343 7.82959ZM136.312 27.3137V13.5235H143.878V15.8851H138.66L138.703 19.2268H143.878V21.4767H138.746V24.9745H143.878V27.3137H136.312Z" fill="white"/>
<path fill-rule="evenodd" clip-rule="evenodd" d="M129.761 6.0542H118.116C116.963 6.0542 116.029 7.01178 116.029 8.19288V31.6296C116.029 32.8107 116.963 33.7684 118.116 33.7684H129.761C130.914 33.7684 131.848 32.8107 131.848 31.6296V8.19288C131.848 7.01178 130.914 6.0542 129.761 6.0542ZM124.523 27.2413H121.882L121.898 15.818L118.824 15.8052V13.1869H127.443V15.818H124.534L124.523 27.2413Z" fill="white"/>
<path fill-rule="evenodd" clip-rule="evenodd" d="M113.259 4.50879H101.503C100.351 4.50879 99.4163 5.46637 99.4163 6.64747V34.9608C99.4163 36.1421 100.351 37.0995 101.503 37.0995H113.259C114.411 37.0995 115.346 36.1421 115.346 34.9608V6.64747C115.346 5.46637 114.411 4.50879 113.259 4.50879ZM106.953 16.6794L105.447 22.3153H108.458L106.953 16.6794ZM105.329 13.1874H108.481L112.547 27.2412H109.743L109.134 24.902H104.785L104.025 27.2412H101.241L105.329 13.1874Z" fill="white"/>
<path fill-rule="evenodd" clip-rule="evenodd" d="M96.5784 0.40625H85.0703C83.918 0.40625 82.9833 1.36384 82.9833 2.54493V38.2923C82.9833 39.4736 83.918 40.431 85.0703 40.431H96.5784C97.7311 40.431 98.6658 39.4736 98.6658 38.2923V2.54493C98.6658 1.36384 97.7311 0.40625 96.5784 0.40625ZM95.9802 16.5312L93.9146 17.6674C93.7405 16.4868 89.9361 13.6349 88.6434 18.9982C87.435 24.0166 92.2841 27.0466 93.6972 23.0365C93.6972 23.0365 94.998 23.5487 95.9802 24.0166C95.5669 25.9104 93.1752 28.6057 89.5227 27.2021C83.9352 24.4844 85.3261 16.2414 88.2402 14.2589C90.8401 12.4886 94.4145 12.6324 95.9802 16.5312Z" fill="white"/>
<path fill-rule="evenodd" clip-rule="evenodd" d="M68.4106 40.4311H80.1236C81.2763 40.4311 82.211 39.4737 82.211 38.2924V2.54493C82.211 1.36384 81.2763 0.40625 80.1236 0.40625H68.4106C67.2578 0.40625 66.3235 1.36384 66.3235 2.54493V38.2924C66.3235 39.4737 67.2578 40.4311 68.4106 40.4311ZM75.0421 27.2023H72.5857V13.3902H75.0421V27.2023Z" fill="white"/>
<path fill-rule="evenodd" clip-rule="evenodd" d="M51.8302 37.0994H63.5898C64.7425 37.0994 65.6772 36.1416 65.6772 34.9607V6.56153C65.6772 5.37992 64.7425 4.42285 63.5898 4.42285H51.8302C50.6778 4.42285 49.7432 5.37992 49.7432 6.56153V34.9607C49.7432 36.1416 50.6778 37.0994 51.8302 37.0994ZM54.5832 27.2021V13.3899H57.0315V25.019H61.6056V27.2021H54.5832Z" fill="white"/>
<path fill-rule="evenodd" clip-rule="evenodd" d="M35.2356 33.8475H47.0707C48.2234 33.8475 49.1581 32.8898 49.1581 31.7087V8.27201C49.1581 7.09091 48.2234 6.1333 47.0707 6.1333H35.2356C34.0829 6.1333 33.1482 7.09091 33.1482 8.27201V31.7087C33.1482 32.8898 34.0829 33.8475 35.2356 33.8475ZM39.6252 19.8282H41.886C44.1469 19.8282 44.1469 15.8407 41.886 15.8407H39.6252V19.8282ZM37.1245 13.3898H42.973C48.0174 14.1474 48.0194 23.3293 39.6685 22.4679V27.2024H37.1245V13.3898Z" fill="white"/>
<path fill-rule="evenodd" clip-rule="evenodd" d="M18.8287 33.0078H30.3628C31.5154 33.0078 32.45 32.0502 32.45 30.8691V9.9849C32.45 8.8038 31.5154 7.84619 30.3628 7.84619H18.8287C17.6765 7.84619 16.7415 8.8038 16.7415 9.9849V30.8691C16.7415 32.0502 17.6765 33.0078 18.8287 33.0078ZM20.3829 27.3139V13.5236H27.9492V15.8853H22.7311L22.7744 19.227H27.9492V21.4769H22.8182V24.9747H27.9492V27.3139H20.3829Z" fill="white"/>
<path fill-rule="evenodd" clip-rule="evenodd" d="M2.08724 32.3418H13.9908C15.1434 32.3418 16.078 31.3842 16.078 30.2032V10.9556C16.078 9.77448 15.1434 8.81689 13.9908 8.81689H2.08724C0.934561 8.81689 0 9.77448 0 10.9556V30.2032C0 31.3842 0.934561 32.3418 2.08724 32.3418ZM6.21149 20.0622H8.44065C10.6698 20.0622 10.5514 16.1318 8.44065 16.1318H6.21149V20.0622ZM8.9703 13.6499C13.748 13.6499 13.6734 21.1652 10.3546 22.103L12.9408 27.5091H9.74414L7.69134 22.5099H6.2313V27.5091H3.45214V13.6499H8.9703Z" fill="white"/>
</svg>
