<svg width="46" height="66" viewBox="0 0 46 66" fill="none" xmlns="http://www.w3.org/2000/svg">
<path d="M40.4015 58.5961C39.0524 58.5961 37.4957 58.0928 35.8204 57.1157C31.9954 54.8654 23.4708 49.6839 15.2129 44.6949C12.7964 43.2293 10.4243 41.7933 8.25974 40.4905C7.8298 40.2388 7.35539 39.9575 6.85132 39.6614C3.73795 37.8701 0.209473 35.8419 0.209473 33.2216C0.209473 30.1867 3.38214 28.0697 8.23009 25.2125C18.2818 19.2759 28.0815 13.6503 35.8204 9.35707C38.8745 7.66938 41.1576 7.29927 42.7588 8.24675C44.3006 9.14981 45.0419 11.104 45.0419 14.2425V52.1118C45.0419 55.1171 44.2117 57.1157 42.5661 58.0632C41.9582 58.4185 41.2169 58.5961 40.4015 58.5961ZM40.787 9.37187C39.7344 9.37187 38.3408 9.8456 36.6507 10.7783C28.9266 15.0567 19.1417 20.6823 9.08998 26.6041C4.73126 29.18 1.86993 31.0305 1.86993 33.2068C1.86993 34.8796 5.38359 36.893 7.69637 38.2402C8.21527 38.5363 8.68968 38.8176 9.13445 39.0841C11.299 40.4016 13.6562 41.8229 16.0876 43.3033C24.3306 48.3071 32.8553 53.4738 36.6655 55.7241C38.7707 56.9676 40.6387 57.3081 41.7951 56.6419C43.1739 55.8573 43.4556 53.7403 43.4556 52.1118V14.2425C43.4556 12.54 43.2036 10.3786 41.973 9.65315C41.6469 9.4755 41.2466 9.37187 40.787 9.37187Z" fill="#172859"/>
<path d="M40.3867 65.9242C39.0376 65.9242 37.4661 65.4209 35.8056 64.4438C32.0844 62.2528 23.8414 57.2489 15.8801 52.4227C13.2263 50.8091 10.6318 49.2398 8.25974 47.8038C7.8298 47.5521 7.37021 47.2708 6.86614 46.9896C3.75278 45.1982 0.209473 43.1701 0.209473 40.5497C0.209473 37.5148 3.38214 35.3978 8.23009 32.5406C18.2966 26.5893 28.0963 20.9636 35.8204 16.6852C38.8745 14.9975 41.1576 14.6274 42.7588 15.5749C44.3006 16.4779 45.0419 18.4321 45.0419 21.5706V59.4399C45.0419 62.4452 44.2117 64.4438 42.5661 65.3913C41.9286 65.7466 41.2021 65.9242 40.3867 65.9242ZM36.6358 63.0522C38.7411 64.2958 40.6091 64.6362 41.7655 63.9701C43.1443 63.1854 43.4259 61.0684 43.4259 59.4399V21.5706C43.4259 19.8681 43.1739 17.7067 41.9434 16.9813C40.9056 16.3743 39.0524 16.7592 36.621 18.1064C28.9117 22.37 19.1269 27.9957 9.06032 33.9322C4.70161 36.5081 1.84028 38.3587 1.84028 40.5349C1.84028 42.2078 5.35394 44.236 7.68155 45.5683C8.18562 45.8644 8.67486 46.1309 9.1048 46.3974C11.4769 47.8334 14.0714 49.4026 16.7251 51.0163C24.6865 55.8721 32.9295 60.8612 36.6358 63.0522Z" fill="#172859"/>
<path d="M40.3869 51.5493C39.0229 51.5493 37.4514 51.0459 35.7761 50.054C31.7732 47.7002 22.4035 42.0153 14.1308 36.9967C12.0701 35.7531 10.0834 34.5392 8.23025 33.414C7.80031 33.1624 7.32589 32.8811 6.82182 32.5998C3.69363 30.7937 0.135498 28.7507 0.135498 26.1007C0.135498 23.0214 3.32299 20.9044 8.2006 18.0324C18.2523 12.0959 28.0668 6.47024 35.791 2.177C38.8747 0.474503 41.1578 0.104396 42.8035 1.06667C44.3601 1.98454 45.1162 3.96831 45.1162 7.12162V44.991C45.1162 48.0259 44.2712 50.054 42.5959 51.0015C41.9584 51.3716 41.2023 51.5493 40.3869 51.5493ZM40.7575 2.32504C39.7197 2.32504 38.341 2.79878 36.6508 3.73145C28.9267 8.00988 19.1419 13.6355 9.09013 19.5572C4.87967 22.0443 1.89974 23.9689 1.89974 26.1007C1.89974 27.7292 5.38374 29.7426 7.69653 31.0601C8.21543 31.3562 8.68984 31.6375 9.13461 31.904C10.9878 33.0291 12.9893 34.2431 15.0352 35.4866C23.3078 40.5053 32.6776 46.1901 36.6657 48.5292C38.7561 49.7579 40.5944 50.0984 41.7064 49.4619C43.0407 48.692 43.3223 46.6046 43.3223 44.991V7.12162C43.3223 5.44874 43.0703 3.30212 41.8843 2.59151C41.5878 2.41386 41.2023 2.32504 40.7575 2.32504Z" fill="#F44247"/>
</svg>
