<?xml version="1.0" encoding="utf-8"?>
<!-- Generator: Adobe Illustrator 25.2.3, SVG Export Plug-In . SVG Version: 6.00 Build 0)  -->
<svg version="1.1" id="Layer_1" xmlns="http://www.w3.org/2000/svg" xmlns:xlink="http://www.w3.org/1999/xlink" x="0px" y="0px"
	 viewBox="0 0 1241.1 1195.6" style="enable-background:new 0 0 1241.1 1195.6;" xml:space="preserve">
<style type="text/css">
	.st0{fill:#172859;}
	.st1{fill:#F44247;}
</style>
<path class="st0" d="M496,774.7c-5.5,0-10.4-1.2-14.7-3.7c-11.1-6.3-16.7-19.9-16.7-40.2V475.1c0-21.1,5-34.4,15.4-40.5
	c10.9-6.4,26.2-4,46.8,7.5C578.9,471,645,509,712.9,549.2c32.7,19.4,54.1,33.6,54.1,54.1c0,17.7-23.8,31.4-44.8,43.5
	c-3.4,2-6.6,3.8-9.5,5.6c-14.5,8.8-30.4,18.4-46.6,28.3c-55.7,33.9-113.4,68.9-139.2,84.1C515.7,771.4,505.1,774.7,496,774.7z
	 M493.5,442.2c-3.1,0-5.8,0.6-8,1.9c-8.2,4.9-10,19.5-10,31v255.8c0,11.1,1.9,25.4,11.2,30.6c7.7,4.4,20.3,2.1,34.6-6.3l0,0
	c25.8-15.2,83.4-50.2,139.1-84c16.2-9.9,32.1-19.5,46.6-28.3c3-1.8,6.2-3.7,9.7-5.7c15.7-9,39.3-22.6,39.3-34
	c0-14.7-19.3-27.2-48.7-44.6c-67.9-40.1-133.9-78.1-185.9-106.9C510,445.4,500.6,442.2,493.5,442.2z"/>
<path class="st0" d="M496.1,824.2c-5.5,0-10.4-1.2-14.7-3.7c-11.1-6.3-16.7-19.9-16.7-40.2V524.6c0-21.1,5-34.4,15.4-40.5
	c10.9-6.4,26.2-4,46.8,7.5C579,520.5,645.1,558.5,713,598.7c32.7,19.4,54.1,33.6,54.1,54.1c0,17.7-23.8,31.4-44.9,43.5
	c-3.4,1.9-6.6,3.8-9.4,5.5c-14.3,8.7-29.9,18.1-45.9,27.8c-56,34-114,69.2-140,84.6h0C515.8,820.8,505.2,824.2,496.1,824.2z
	 M493.6,491.7c-3.1,0-5.8,0.6-8,1.9c-8.2,4.9-10,19.5-10,31v255.8c0,11.1,1.9,25.4,11.2,30.6c7.7,4.4,20.3,2.1,34.6-6.2h0
	c25.9-15.3,83.8-50.5,139.8-84.5c16-9.7,31.6-19.2,45.9-27.8c3-1.8,6.2-3.7,9.6-5.6c15.7-9,39.4-22.7,39.4-34
	c0-14.7-20.2-27.8-48.7-44.6c-67.8-40.1-133.8-78.1-185.9-106.9C510.1,494.9,500.7,491.7,493.6,491.7z"/>
<path class="st1" d="M496.2,727.1c-5.6,0-10.6-1.2-14.9-3.7c-11.3-6.4-17-20.1-17-40.6V427c0-21.3,5.1-34.7,15.6-40.9
	c11-6.5,26.5-4,47.3,7.5c52.2,28.9,118.3,67,186.1,107.1c32.9,19.4,54.4,33.7,54.4,54.5c0,18-23.9,31.8-45.1,43.9
	c-3.4,2-6.6,3.8-9.5,5.6c-11.9,7.2-24.7,15-37.9,23C618.7,662.1,554.6,701,527.4,717C516,723.7,505.4,727.1,496.2,727.1z
	 M493.7,394.6c-3,0-5.6,0.6-7.7,1.8c-8,4.7-9.7,19.2-9.7,30.6v255.8c0,10.9,1.9,25,10.9,30.2c7.6,4.3,20,2,34-6.3l0,0
	c27.2-16,91.3-54.9,147.8-89.3c13.2-8,26-15.8,37.9-23c3-1.8,6.3-3.7,9.7-5.7c15.6-9,39.1-22.5,39.1-33.5
	c0-14.4-20.1-27.4-48.5-44.2c-67.7-40.1-133.7-78-185.9-106.9C510.1,397.8,500.7,394.6,493.7,394.6z"/>
</svg>
