<?xml version="1.0" encoding="utf-8"?>
<!-- Generator: Adobe Illustrator 25.2.3, SVG Export Plug-In . SVG Version: 6.00 Build 0)  -->
<svg version="1.1" id="Layer_1" xmlns="http://www.w3.org/2000/svg" xmlns:xlink="http://www.w3.org/1999/xlink" x="0px" y="0px"
	 viewBox="0 0 1241.1 1195.6" style="enable-background:new 0 0 1241.1 1195.6;" xml:space="preserve">
<style type="text/css">
	.st0{fill:#172859;}
	.st1{fill:#F44247;}
</style>
<path class="st0" d="M704.2,740.3c-9.1,0-19.6-3.4-30.9-10c-25.8-15.2-83.3-50.2-139-83.9c-16.3-9.9-32.3-19.6-46.9-28.4
	c-2.9-1.7-6.1-3.6-9.5-5.6c-21-12.1-44.8-25.8-44.8-43.5c0-20.5,21.4-34.8,54.1-54.1c67.8-40.1,133.9-78.1,186.1-107.1
	c20.6-11.4,36-13.9,46.8-7.5c10.4,6.1,15.4,19.3,15.4,40.5v255.8c0,20.3-5.6,33.8-16.7,40.2C714.7,739.1,709.7,740.3,704.2,740.3z
	 M706.8,407.8c-7.1,0-16.5,3.2-27.9,9.5c-52.1,28.9-118.1,66.9-185.9,106.9c-29.4,17.4-48.7,29.9-48.7,44.6
	c0,11.3,23.7,24.9,39.3,34c3.5,2,6.7,3.9,9.7,5.7c14.6,8.9,30.5,18.5,46.9,28.5c55.6,33.8,113.1,68.7,138.8,83.9l0,0
	c14.2,8.4,26.8,10.7,34.6,6.2c9.3-5.3,11.2-19.6,11.2-30.6V440.7c0-11.5-1.7-26.1-10-31C712.6,408.5,709.9,407.8,706.8,407.8z"/>
<path class="st0" d="M704.1,789.8c-9.1,0-19.7-3.4-30.9-10l0,0c-25.1-14.8-80.7-48.6-134.4-81.2c-17.9-10.9-35.4-21.5-51.4-31.2
	c-2.9-1.7-6-3.6-9.4-5.5c-21-12.1-44.9-25.8-44.9-43.5c0-20.5,21.4-34.8,54.1-54.1c67.9-40.2,134-78.2,186.1-107.1
	c20.6-11.4,36-13.9,46.8-7.5c10.4,6.1,15.4,19.3,15.4,40.5V746c0,20.3-5.6,33.8-16.7,40.2C714.5,788.6,709.6,789.8,704.1,789.8z
	 M678.8,770.4c14.2,8.4,26.8,10.7,34.6,6.2c9.3-5.3,11.2-19.6,11.2-30.6V490.2c0-11.5-1.7-26.1-10-31c-7-4.1-19.5-1.5-35.9,7.6
	c-52,28.8-118,66.8-185.9,106.9c-29.4,17.4-48.7,29.9-48.7,44.6c0,11.3,23.7,25,39.4,34c3.4,2,6.7,3.8,9.6,5.6
	c16,9.7,33.5,20.3,51.4,31.2C598.2,721.9,653.8,755.6,678.8,770.4L678.8,770.4z"/>
<path class="st1" d="M704.1,692.7c-9.2,0-19.8-3.4-31.1-10.1l0,0c-27-15.9-90.2-54.3-146-88.2c-13.9-8.4-27.3-16.6-39.8-24.2
	c-2.9-1.7-6.1-3.6-9.5-5.5c-21.1-12.2-45.1-26-45.1-43.9c0-20.8,21.5-35.1,54.4-54.5c67.8-40.1,134-78.1,186.1-107.1
	c20.8-11.5,36.2-14,47.3-7.5c10.5,6.2,15.6,19.6,15.6,40.9v255.8c0,20.5-5.7,34.2-17,40.6C714.7,691.5,709.6,692.7,704.1,692.7z
	 M706.6,360.2c-7,0-16.3,3.2-27.7,9.5c-52.1,28.9-118.1,66.9-185.9,106.9c-28.4,16.8-48.5,29.8-48.5,44.2c0,11,23.5,24.6,39.1,33.5
	c3.5,2,6.7,3.9,9.7,5.7c12.5,7.6,26,15.8,39.8,24.2c55.8,33.9,119,72.3,145.9,88.1l0,0c14.1,8.3,26.5,10.6,34,6.3
	c9-5.2,10.9-19.3,10.9-30.2V392.6c0-11.3-1.7-25.8-9.7-30.6C712.2,360.8,709.6,360.2,706.6,360.2z"/>
</svg>
