<svg width="48" height="70" viewBox="0 0 48 70" fill="none" xmlns="http://www.w3.org/2000/svg">
<path d="M5.31334 61.6509C4.45805 61.6509 3.69607 61.4642 3.02739 61.0753C1.30126 60.0952 0.43042 57.9794 0.43042 54.8213V15.042C0.43042 11.7594 1.20795 9.69034 2.82523 8.74136C4.52026 7.74571 6.89951 8.11908 10.103 9.90814C18.2049 14.4041 28.4839 20.3158 39.0428 26.5697C44.1279 29.5878 47.4558 31.7969 47.4558 34.9861C47.4558 37.7397 43.7547 39.871 40.4891 41.7534C39.9603 42.0645 39.4627 42.3446 39.0117 42.6246C36.7569 43.9936 34.2843 45.4871 31.7651 47.0272C23.1034 52.3011 14.1306 57.746 10.1185 60.1107C8.37684 61.1375 6.72846 61.6509 5.31334 61.6509ZM4.92457 9.9237C4.4425 9.9237 4.02263 10.017 3.68052 10.2193C2.40536 10.9816 2.12545 13.2529 2.12545 15.042V54.8369C2.12545 56.5637 2.42091 58.7884 3.86713 59.5973C5.06453 60.2818 7.02392 59.924 9.24767 58.6172C13.2598 56.2526 22.217 50.8076 30.8787 45.5493C33.3979 44.0092 35.8705 42.5157 38.1253 41.1467C38.5919 40.8667 39.0895 40.5711 39.6338 40.2599C42.0752 38.8598 45.7452 36.744 45.7452 34.9705C45.7452 32.6837 42.7439 30.739 38.172 28.0321C27.6131 21.7937 17.3496 15.882 9.26323 11.4016C7.49045 10.4215 6.02868 9.9237 4.92457 9.9237Z" fill="#172859"/>
<path d="M5.32897 69.3516C4.47368 69.3516 3.71169 69.1649 3.04301 68.776C1.31688 67.7959 0.446045 65.6801 0.446045 62.522V22.7426C0.446045 19.4601 1.22358 17.391 2.84086 16.442C4.53588 15.4464 6.91515 15.8198 10.1186 17.6088C18.2205 22.1048 28.4995 28.0165 39.0585 34.2704C44.1436 37.2885 47.4714 39.4976 47.4714 42.6868C47.4714 45.4404 43.7704 47.5717 40.4892 49.4541C39.9604 49.7497 39.4628 50.0453 39.0274 50.3098C36.8036 51.6632 34.3777 53.1256 31.8896 54.6346C23.1812 59.924 14.1618 65.4001 10.1186 67.7959C8.39247 68.8227 6.74409 69.3516 5.32897 69.3516ZM4.9402 17.6244C4.45813 17.6244 4.03826 17.7177 3.69615 17.92C2.42099 18.6823 2.14107 20.9536 2.14107 22.7426V62.5376C2.14107 64.2644 2.43653 66.4891 3.88275 67.2981C5.08016 67.9826 7.03955 67.6248 9.26331 66.3335C13.2909 63.9533 22.2948 58.4772 31.0032 53.1878C33.4913 51.6788 35.9172 50.2009 38.141 48.8629C38.6075 48.5829 39.1051 48.2873 39.6339 47.9918C42.0753 46.5916 45.7608 44.4603 45.7608 42.7024C45.7608 40.4155 42.6196 38.3775 38.1877 35.7639C27.6443 29.5255 17.3808 23.6138 9.27885 19.1334C7.50607 18.1222 6.0443 17.6244 4.9402 17.6244Z" fill="#172859"/>
<path d="M5.34435 54.2457C4.47351 54.2457 3.69597 54.059 3.02729 53.6701C1.27006 52.6744 0.383667 50.5431 0.383667 47.3539V7.55901C0.383667 4.24535 1.17676 2.16071 2.80958 1.19618C4.52016 0.184967 6.93053 0.573893 10.1651 2.36295C18.2826 6.85894 28.5616 12.7862 39.105 19.0245C44.2212 22.0426 47.5646 24.2673 47.5646 27.5031C47.5646 30.3034 43.8479 32.4503 40.5512 34.3327C40.0225 34.6438 39.5248 34.9238 39.0739 35.2039C37.2233 36.324 35.2328 37.5374 33.1802 38.782C24.394 44.1336 14.426 50.1853 10.1962 52.6744C8.4234 53.7168 6.77502 54.2457 5.34435 54.2457ZM4.95558 2.51852C4.48906 2.51852 4.08474 2.61186 3.75818 2.79855C2.51412 3.52973 2.24975 5.7855 2.24975 7.55901V47.3539C2.24975 49.0496 2.54522 51.2432 3.94479 52.0522C5.12664 52.7211 7.05493 52.3633 9.23203 51.0721C13.4618 48.5829 23.4298 42.5312 32.216 37.1796C34.2687 35.9351 36.2592 34.7216 38.1097 33.6015C38.5763 33.3215 39.0894 33.0259 39.6181 32.7147C42.0441 31.3146 45.6985 29.2144 45.6985 27.5031C45.6985 25.2629 42.5728 23.2405 38.1564 20.6269C27.6285 14.3885 17.3651 8.49243 9.24758 3.99644C7.5059 3.01635 6.04414 2.51852 4.95558 2.51852Z" fill="#F44247"/>
</svg>
