<svg width="926" height="369" viewBox="0 0 926 369" fill="none" xmlns="http://www.w3.org/2000/svg">
<path d="M2.79606 181.777H0.714844V30.3254C0.714844 23.8615 5.33977 18.7644 9.43284 14.2698C9.9647 13.6906 10.4734 13.1346 10.9591 12.5785C11.1903 12.3237 11.4216 12.0456 11.6759 11.7676C15.8152 7.06447 21.4808 0.646851 30.3375 0.646851H181.48V2.732H30.3144C22.4058 2.732 17.3183 8.5009 13.2253 13.1577C12.994 13.4357 12.7397 13.7138 12.5084 13.9686C12.0228 14.5247 11.4909 15.1039 10.9591 15.6831C7.12037 19.8997 2.77294 24.6724 2.77294 30.3254V181.777H2.79606Z" fill="#F44247"/>
<path d="M17.0175 196.118H14.9363V44.6898C14.9363 38.2259 19.5612 33.1288 23.6543 28.6342C24.163 28.055 24.6949 27.4989 25.1805 26.9429C25.4117 26.688 25.643 26.41 25.8974 26.132C30.0367 21.4288 35.7022 15.0112 44.559 15.0112H195.702V17.0964H44.559C36.6503 17.0964 31.5629 22.8653 27.4698 27.5221C27.2386 27.8001 26.9842 28.0781 26.753 28.333C26.2674 28.889 25.7355 29.4682 25.2036 30.0474C21.3649 34.2641 17.0175 39.0367 17.0175 44.6898V196.118Z" fill="#004E86"/>
<path d="M31.193 209.578H29.1118V58.8918C28.9268 52.4047 33.5518 47.3077 37.6448 42.813C38.1536 42.257 38.6623 41.6778 39.1479 41.1449C39.3792 40.8901 39.6104 40.6121 39.8648 40.334C44.0041 35.6309 49.6696 29.2133 58.5264 29.2133H209.022V31.2984H58.5264C50.6178 31.2984 45.5303 37.0673 41.4373 41.7241C41.206 42.0021 40.9516 42.2802 40.7204 42.535C40.2348 43.0911 39.726 43.6471 39.1942 44.2263C35.3786 48.4429 31.0312 53.2156 31.193 58.8455V58.8687V209.578Z" fill="#004E86"/>
<path d="M922.995 186.946L925.076 186.946L925.076 338.397C925.076 344.861 920.451 349.958 916.358 354.452C915.826 355.032 915.318 355.588 914.832 356.144C914.601 356.398 914.369 356.677 914.115 356.955C909.976 361.658 904.31 368.075 895.453 368.075L744.311 368.075L744.311 365.99L895.477 365.99C903.385 365.99 908.473 360.221 912.566 355.564C912.797 355.286 913.051 355.008 913.283 354.754C913.768 354.198 914.3 353.618 914.832 353.039C918.671 348.822 923.018 344.05 923.018 338.397L923.018 186.946L922.995 186.946Z" fill="#F44247"/>
<path d="M908.774 172.604L910.855 172.604L910.855 324.032C910.855 330.496 906.23 335.593 902.137 340.088C901.628 340.667 901.096 341.223 900.611 341.779C900.38 342.034 900.148 342.312 899.894 342.59C895.755 347.293 890.089 353.711 881.232 353.711L730.09 353.711L730.09 351.626L881.232 351.626C889.141 351.626 894.228 345.857 898.321 341.2C898.553 340.922 898.807 340.644 899.038 340.389C899.524 339.833 900.056 339.254 900.588 338.675C904.426 334.458 908.774 329.685 908.774 324.032L908.774 172.604Z" fill="#004E86"/>
<path d="M894.598 159.144L896.679 159.144L896.679 309.83C896.864 316.317 892.239 321.414 888.146 325.909C887.637 326.465 887.129 327.044 886.643 327.577C886.412 327.832 886.181 328.11 885.926 328.388C881.787 333.091 876.121 339.509 867.265 339.509L716.769 339.509L716.769 337.424L867.265 337.424C875.173 337.424 880.261 331.655 884.354 326.998C884.585 326.72 884.839 326.442 885.071 326.187C885.556 325.631 886.065 325.075 886.597 324.496C890.412 320.279 894.76 315.507 894.598 309.877L894.598 309.854L894.598 159.144Z" fill="#004E86"/>
</svg>
