<svg width="566" height="565" viewBox="0 0 566 565" fill="none" xmlns="http://www.w3.org/2000/svg">
<circle cx="275.248" cy="278.295" r="81.0044" stroke="#CEDFE6" stroke-width="7" stroke-linecap="round"/>
<rect x="195.835" y="387.389" width="159.16" height="301.087" rx="69.9584" stroke="#CEDFE6" stroke-width="7" stroke-linecap="round"/>
<path d="M380.118 548.232C486.833 506.624 562.5 402.336 562.5 280.265C562.5 121.605 434.674 -7.01367 276.992 -7.01367C119.311 -7.01367 -8.51538 121.605 -8.51538 280.265C-8.51538 401.129 65.6632 504.56 170.711 546.98" stroke="#CEDFE6" stroke-width="7" stroke-linecap="round"/>
<path d="M358.282 394.473C390.641 369.564 411.492 330.441 411.492 286.448C411.492 211.203 350.493 150.205 275.248 150.205C200.003 150.205 139.005 211.203 139.005 286.448C139.005 330.532 159.943 369.726 192.416 394.628" stroke="#CEDFE6" stroke-width="7" stroke-linecap="round"/>
<path d="M376.941 429.937C421.821 398.073 451.105 345.68 451.105 286.448C451.105 189.325 372.372 110.592 275.249 110.592C178.126 110.592 99.3921 189.325 99.3921 286.448C99.3921 345.803 128.797 398.289 173.835 430.135" stroke="#CEDFE6" stroke-width="7" stroke-linecap="round"/>
<path d="M380.118 468.779C446.11 432.152 490.811 361.461 490.811 280.265C490.811 161.444 395.081 65.1199 276.992 65.1199C158.903 65.1199 63.1733 161.444 63.1733 280.265C63.1733 360.16 106.454 429.883 170.711 466.992" stroke="#CEDFE6" stroke-width="7" stroke-linecap="round"/>
<path d="M380.118 509.985C466.997 470.435 527.444 382.453 527.444 280.265C527.444 141.086 415.313 28.2593 276.992 28.2593C138.671 28.2593 26.5393 141.086 26.5393 280.265C26.5393 381.212 85.5265 468.295 170.71 508.522" stroke="#CEDFE6" stroke-width="7" stroke-linecap="round"/>
</svg>
