<svg width="156" height="189" viewBox="0 0 156 189" fill="none" xmlns="http://www.w3.org/2000/svg">
<path d="M49.0654 140.091C48.9075 140.091 48.7495 140.046 48.5916 139.978C37.0406 134.513 27.2493 125.909 20.3006 115.137C13.1714 104.072 9.40381 91.2446 9.40381 78.0111C9.40381 59.719 16.533 42.5109 29.4602 29.571C42.3874 16.631 59.5786 9.49487 77.8528 9.49487C96.1269 9.49487 113.318 16.631 126.245 29.571C139.173 42.5109 146.279 59.719 146.279 78.0111C146.279 91.0639 142.602 103.755 135.653 114.708C128.885 125.367 119.319 133.949 108.016 139.527C107.452 139.798 106.775 139.572 106.505 139.007C106.234 138.443 106.46 137.765 107.024 137.494C117.966 132.119 127.193 123.809 133.758 113.489C140.481 102.897 144.046 90.6123 144.046 78.0111C144.046 60.3062 137.165 43.6852 124.666 31.1744C112.167 18.6635 95.5403 11.7757 77.8753 11.7757C60.1878 11.7757 43.5832 18.6635 31.0846 31.1744C18.586 43.6852 11.705 60.3288 11.705 78.0111C11.705 90.793 15.3598 103.213 22.2408 113.895C28.9639 124.306 38.4168 132.616 49.5843 137.901C50.1483 138.172 50.3965 138.849 50.1257 139.414C49.9001 139.843 49.494 140.091 49.0654 140.091Z" fill="#15265F"/>
<path d="M48.9977 127.603C48.7947 127.603 48.5916 127.558 48.4111 127.445C39.8155 122.296 32.6638 114.957 27.723 106.24C22.7822 97.5227 20.1652 87.5863 20.1878 77.5595C20.1878 62.0451 26.234 47.4341 37.1985 36.4588C48.1629 25.4836 62.7597 19.4314 78.2588 19.4314C93.7806 19.4314 108.355 25.4836 119.319 36.4588C130.284 47.4341 136.33 62.0226 136.33 77.5595C136.33 87.5637 133.735 97.4324 128.84 106.149C123.922 114.844 116.815 122.183 108.264 127.355C107.723 127.671 107.046 127.513 106.708 126.971C106.392 126.429 106.55 125.751 107.091 125.412C115.303 120.444 122.139 113.398 126.877 105.043C131.592 96.6872 134.096 87.1798 134.074 77.5595C134.074 62.6323 128.276 48.6084 117.717 38.0622C107.182 27.516 93.1489 21.6897 78.2588 21.6897C63.3463 21.6897 49.3361 27.4935 38.8003 38.0622C28.2419 48.6084 22.4438 62.6323 22.4438 77.5595C22.4438 87.2024 24.9481 96.7323 29.6858 105.111C34.4235 113.489 41.3045 120.557 49.5843 125.503C50.1257 125.819 50.2836 126.519 49.9678 127.061C49.7648 127.4 49.3812 127.603 48.9977 127.603Z" fill="#15265F"/>
<path d="M55.6532 108.43C55.405 108.43 55.1569 108.34 54.9538 108.182C47.2606 102.017 42.4101 93.232 41.3046 83.4311C40.1992 73.6302 42.9967 63.9647 49.1557 56.264C55.3148 48.5632 64.0909 43.7079 73.8822 42.6014C83.6735 41.4948 93.3294 44.2951 101.023 50.4602C116.928 63.1743 119.522 86.4798 106.821 102.378C105.241 104.365 103.459 106.172 101.496 107.798C101.023 108.204 100.301 108.137 99.9172 107.64C99.5111 107.166 99.5787 106.443 100.075 106.059C101.902 104.546 103.595 102.83 105.061 100.978C116.996 86.0281 114.536 64.168 99.6013 52.2216C92.3593 46.4405 83.3125 43.8208 74.1078 44.8597C64.9031 45.8985 56.6684 50.4376 50.8929 57.6867C45.1174 64.9358 42.5003 73.9915 43.5381 83.2053C44.5759 92.4191 49.1106 100.662 56.3526 106.443C56.8489 106.827 56.9166 107.55 56.5331 108.024C56.3074 108.272 55.969 108.43 55.6532 108.43Z" fill="#15265F"/>
<path d="M77.8303 99.2616C65.6475 99.2616 55.7434 89.3477 55.7434 77.153C55.7434 64.9583 65.6475 55.0444 77.8303 55.0444C90.013 55.0444 99.9171 64.9583 99.9171 77.153C99.9171 89.3477 89.9904 99.2616 77.8303 99.2616ZM77.8303 57.3253C66.9109 57.3253 57.9995 66.2229 57.9995 77.1756C57.9995 88.1282 66.8884 97.0259 77.8303 97.0259C88.7496 97.0259 97.6611 88.1282 97.6611 77.1756C97.6611 66.2229 88.7496 57.3253 77.8303 57.3253Z" fill="#F44247"/>
<path d="M80.5601 188.554H75.1004C64.6774 188.554 56.2172 180.063 56.2172 169.652V125.684C56.2172 115.25 64.7 106.782 75.1004 106.782H80.5601C90.9831 106.782 99.4433 115.273 99.4433 125.684V169.652C99.4433 180.086 90.9831 188.554 80.5601 188.554ZM75.1004 109.04C65.9408 109.04 58.4732 116.515 58.4732 125.684V169.652C58.4732 178.821 65.9408 186.296 75.1004 186.296H80.5601C89.7197 186.296 97.1873 178.821 97.1873 169.652V125.684C97.1873 116.515 89.7197 109.04 80.5601 109.04H75.1004Z" fill="#F44247"/>
<path d="M48.6819 116.989C48.4338 116.989 48.1856 116.899 47.9826 116.741C42.4101 112.292 37.8303 106.533 34.7395 100.12C31.6487 93.6835 30.0243 86.5248 30.0243 79.3886C30.0243 66.6067 34.9876 54.6153 44.0119 45.5821C53.0361 36.549 65.0384 31.5808 77.7852 31.5808C90.5545 31.5808 102.534 36.549 111.558 45.5821C120.583 54.6153 125.546 66.6293 125.546 79.3886C125.569 93.7061 119.252 107.143 108.219 116.244C107.746 116.65 107.024 116.582 106.64 116.086C106.234 115.611 106.302 114.889 106.798 114.505C117.311 105.833 123.313 93.0286 123.313 79.3886C123.313 54.2539 102.895 33.8165 77.7852 33.8165C52.6752 33.8165 32.2578 54.2539 32.2578 79.3886C32.2578 86.186 33.8145 93.0286 36.7474 99.1486C39.7028 105.269 44.057 110.756 49.3588 115.002C49.8551 115.386 49.9228 116.108 49.5392 116.582C49.3588 116.831 49.0203 116.989 48.6819 116.989Z" fill="#F44247"/>
<path d="M49.0204 150.163C48.885 150.163 48.7271 150.141 48.5917 150.073C34.4913 144.292 22.4891 134.536 13.8709 121.912C5.02713 108.972 0.379639 93.819 0.379639 78.0788C0.379639 57.3026 8.45634 37.7685 23.1433 23.0671C37.8077 8.36565 57.3227 0.281006 78.0784 0.281006C98.8342 0.281006 118.372 8.36565 133.036 23.0671C147.723 37.7685 155.8 57.3026 155.8 78.0788C155.8 93.7061 151.197 108.791 142.466 121.664C133.961 134.242 122.094 143.975 108.129 149.847C107.565 150.095 106.888 149.824 106.663 149.237C106.415 148.673 106.685 147.995 107.272 147.769C120.808 142.078 132.337 132.616 140.594 120.399C149.054 107.888 153.544 93.2544 153.544 78.0788C153.544 57.9123 145.693 38.9428 131.434 24.6704C117.199 10.3981 98.2477 2.53929 78.0784 2.53929C57.9092 2.53929 38.9583 10.3981 24.7 24.6704C10.4417 38.9428 2.59058 57.9123 2.59058 78.0788C2.59058 93.3673 7.12527 108.069 15.6983 120.647C24.0683 132.91 35.7321 142.372 49.4264 147.995C50.013 148.221 50.2837 148.898 50.0356 149.463C49.8777 149.915 49.449 150.163 49.0204 150.163Z" fill="#F44247"/>
</svg>
