<svg width="579" height="703" viewBox="0 0 579 703" fill="none" xmlns="http://www.w3.org/2000/svg">
<circle cx="287.763" cy="289.309" r="81.0044" stroke="#CEDFE6" stroke-width="7" stroke-linecap="round"/>
<rect x="208.35" y="398.403" width="159.16" height="301.087" rx="69.9584" stroke="#CEDFE6" stroke-width="7" stroke-linecap="round"/>
<path d="M392.634 559.246C499.348 517.637 575.015 413.349 575.015 291.279C575.015 132.619 447.189 4 289.508 4C131.826 4 4 132.619 4 291.279C4 412.143 78.1786 515.574 183.226 557.993" stroke="#CEDFE6" stroke-width="7" stroke-linecap="round"/>
<path d="M370.798 405.487C403.156 380.577 424.007 341.455 424.007 297.462C424.007 222.217 363.009 161.219 287.764 161.219C212.519 161.219 151.521 222.217 151.521 297.462C151.521 341.546 172.458 380.739 204.931 405.641" stroke="#CEDFE6" stroke-width="7" stroke-linecap="round"/>
<path d="M389.457 440.951C434.337 409.086 463.621 356.694 463.621 297.462C463.621 200.339 384.887 121.605 287.764 121.605C190.641 121.605 111.907 200.339 111.907 297.462C111.907 356.817 141.313 409.303 186.35 441.149" stroke="#CEDFE6" stroke-width="7" stroke-linecap="round"/>
<path d="M392.634 479.793C458.625 443.165 503.327 372.475 503.327 291.279C503.327 172.457 407.597 76.1335 289.508 76.1335C171.419 76.1335 75.6887 172.457 75.6887 291.279C75.6887 371.174 118.969 440.897 183.226 478.006" stroke="#CEDFE6" stroke-width="7" stroke-linecap="round"/>
<path d="M392.633 520.999C479.512 481.449 539.96 393.467 539.96 291.279C539.96 152.1 427.828 39.2729 289.507 39.2729C151.186 39.2729 39.0547 152.1 39.0547 291.279C39.0547 392.225 98.0419 479.309 183.226 519.535" stroke="#CEDFE6" stroke-width="7" stroke-linecap="round"/>
</svg>
