<svg width="301" height="719" viewBox="0 0 301 719" fill="none" xmlns="http://www.w3.org/2000/svg">
<path d="M186.078 532.886C185.56 532.886 185.042 532.799 184.61 532.54C140.559 511.652 103.245 478.938 76.7275 437.938C49.5193 395.815 35.0947 346.874 35.0947 296.551C35.0947 226.807 62.2165 161.293 111.623 112.006C160.943 62.7196 226.502 35.5299 296.293 35.5299C366.084 35.5299 431.642 62.7196 480.962 112.006C530.283 161.293 557.491 226.807 557.491 296.551C557.491 346.269 543.498 394.607 516.894 436.298C491.068 476.953 454.618 509.667 411.431 530.814C409.703 531.677 407.63 530.987 406.766 529.26C405.903 527.534 406.594 525.462 408.321 524.599C450.299 503.97 485.886 472.119 511.021 432.586C536.847 391.931 550.494 344.888 550.494 296.465C550.494 228.62 524.064 164.832 476.039 116.84C428.015 68.8481 364.183 42.4352 296.293 42.4352C228.402 42.4352 164.571 68.8481 116.546 116.84C68.5218 164.832 42.0911 228.62 42.0911 296.465C42.0911 345.493 56.0838 393.139 82.601 434.14C108.427 474.104 144.791 505.955 187.633 526.239C189.36 527.016 190.051 529.088 189.274 530.814C188.669 532.195 187.374 532.886 186.078 532.886Z" fill="#FFB0B3" fill-opacity="0.14"/>
<path d="M185.905 485.153C185.301 485.153 184.696 484.98 184.178 484.635C151.355 465.041 124.061 437.074 105.231 403.842C86.4014 370.611 76.4683 332.89 76.4683 294.652C76.4683 235.525 99.5304 179.937 141.336 138.16C183.055 96.4694 238.681 73.4229 297.847 73.4229C357.014 73.4229 412.64 96.4694 454.445 138.247C496.251 180.024 519.313 235.612 519.313 294.738C519.313 332.804 509.466 370.438 490.723 403.584C471.979 436.729 444.858 464.609 412.294 484.289C410.653 485.239 408.494 484.721 407.544 483.081C406.594 481.441 407.112 479.283 408.753 478.334C440.366 459.258 466.624 432.241 484.763 400.131C502.902 368.021 512.489 331.596 512.489 294.738C512.489 237.424 490.204 183.649 449.608 143.08C409.012 102.598 355.2 80.3282 297.847 80.3282C240.581 80.3282 186.683 102.598 146.173 143.167C105.663 183.649 83.2919 237.511 83.2919 294.738C83.2919 331.768 92.8795 368.28 111.191 400.476C129.416 432.672 155.933 459.689 187.633 478.679C189.274 479.628 189.792 481.786 188.842 483.426C188.238 484.548 187.028 485.153 185.905 485.153Z" fill="#FFB0B3" fill-opacity="0.14"/>
<path d="M211.3 411.87C210.522 411.87 209.745 411.611 209.14 411.093C179.773 387.701 161.375 354.297 157.142 317.008C152.996 279.719 163.534 243.121 186.942 213.774C235.225 153.266 323.846 143.339 384.309 191.59C413.676 214.982 432.074 248.386 436.306 285.675C440.452 322.964 429.915 359.562 406.507 388.91C400.461 396.419 393.637 403.411 386.209 409.539C384.741 410.748 382.581 410.575 381.372 409.108C380.163 407.64 380.335 405.482 381.804 404.274C388.886 398.405 395.365 391.844 401.065 384.68C423.35 356.8 433.37 321.928 429.396 286.538C425.423 251.149 407.889 219.384 379.99 197.114C322.551 151.194 238.335 160.603 192.383 218.176C170.099 246.056 160.079 280.841 164.052 316.318C168.026 351.707 185.56 383.472 213.459 405.741C214.927 406.95 215.186 409.108 213.977 410.575C213.286 411.438 212.336 411.87 211.3 411.87Z" fill="#FFB0B3" fill-opacity="0.14"/>
<path d="M296.206 376.912C250.082 376.912 212.509 339.364 212.509 293.271C212.509 247.178 250.082 209.63 296.206 209.63C342.33 209.63 379.903 247.178 379.903 293.271C379.903 339.364 342.33 376.912 296.206 376.912ZM296.206 216.536C253.882 216.536 219.419 250.976 219.419 293.271C219.419 335.566 253.882 370.006 296.206 370.006C338.53 370.006 372.993 335.566 372.993 293.271C372.993 250.976 338.53 216.536 296.206 216.536Z" fill="#FFB0B3" fill-opacity="0.14"/>
<path d="M306.744 718.207H285.841C246.454 718.207 214.409 686.184 214.409 646.823V478.679C214.409 439.319 246.454 407.295 285.841 407.295H306.744C346.131 407.295 378.176 439.319 378.176 478.679V646.737C378.176 686.184 346.131 718.207 306.744 718.207ZM285.841 414.2C250.255 414.2 221.319 443.116 221.319 478.679V646.737C221.319 682.299 250.255 711.215 285.841 711.215H306.744C342.331 711.215 371.266 682.299 371.266 646.737V478.679C371.266 443.116 342.331 414.2 306.744 414.2H285.841Z" fill="#FFB0B3" fill-opacity="0.14"/>
<path d="M184.696 444.584C183.918 444.584 183.141 444.325 182.536 443.807C161.288 426.889 143.84 404.964 132.093 380.537C120.346 356.109 114.127 328.747 114.127 301.644C114.127 201.344 195.752 119.689 296.206 119.689C396.574 119.689 478.284 201.344 478.284 301.644C478.371 356.109 454.272 407.209 412.208 441.822C410.739 443.03 408.58 442.857 407.371 441.39C406.161 439.923 406.334 437.765 407.802 436.556C448.226 403.238 471.374 354.038 471.288 301.644C471.288 205.142 392.687 126.594 296.12 126.594C199.552 126.594 120.951 205.142 120.951 301.644C120.951 327.798 126.911 354.038 138.226 377.516C149.541 401.08 166.384 422.055 186.769 438.369C188.237 439.577 188.496 441.735 187.287 443.203C186.682 444.152 185.732 444.584 184.696 444.584Z" fill="#FFB0B3" fill-opacity="0.14"/>
<path d="M185.905 571.469C185.473 571.469 185.041 571.383 184.609 571.21C130.798 549.113 84.9327 511.997 52.0239 463.832C18.3376 414.459 0.458008 356.714 0.458008 296.724C0.458008 217.485 31.2939 143.08 87.3513 87.0609C143.409 31.0415 217.95 0.226501 297.156 0.226501C376.448 0.226501 450.904 31.0415 506.961 87.0609C563.105 143.08 593.941 217.571 593.941 296.724C593.941 356.282 576.32 413.769 543.066 462.883C510.589 510.789 465.242 547.905 412.035 570.261C410.307 571.037 408.234 570.174 407.543 568.448C406.766 566.722 407.63 564.65 409.357 563.959C461.355 542.121 505.579 505.868 537.365 459.085C569.842 411.093 587.031 354.987 587.031 296.81C587.031 219.47 556.886 146.706 502.124 91.9809C447.362 37.2563 374.634 7.13182 297.156 7.13182C219.764 7.13182 146.95 37.2563 92.1882 91.9809C37.4265 146.706 7.28163 219.384 7.28163 296.81C7.28163 355.419 24.7294 411.784 57.6382 460.034C89.7697 507.077 134.598 543.33 187.114 564.909C188.842 565.599 189.706 567.671 189.015 569.397C188.583 570.692 187.287 571.469 185.905 571.469Z" fill="#FFB0B3" fill-opacity="0.14"/>
</svg>
