<svg width="571" height="587" viewBox="0 0 571 587" fill="none" xmlns="http://www.w3.org/2000/svg">
<path d="M178.679 512.075C178.383 512.075 178.014 512.001 177.718 511.853C135.409 491.816 99.535 460.393 74.0904 420.984C47.9802 380.54 34.1484 333.59 34.1484 285.16C34.1484 218.173 60.2587 155.252 107.597 107.931C154.936 60.6113 217.956 34.5112 284.895 34.5112C351.909 34.5112 414.855 60.6113 462.193 107.931C509.532 155.252 535.642 218.247 535.642 285.16C535.642 332.924 522.18 379.283 496.662 419.431C471.883 458.47 436.823 489.82 395.402 510.227C394.292 510.744 392.961 510.301 392.443 509.192C391.925 508.083 392.369 506.752 393.478 506.234C434.16 486.197 468.555 455.365 492.964 417.065C517.964 377.656 531.204 332.111 531.204 285.16C531.204 219.43 505.612 157.544 459.087 111.037C412.562 64.53 350.726 38.9475 284.895 38.9475C219.139 38.9475 157.229 64.53 110.704 111.037C64.1789 157.544 38.5864 219.356 38.5864 285.16C38.5864 332.702 52.1963 378.839 77.8627 418.544C102.863 457.287 138.072 488.119 179.641 507.787C180.75 508.304 181.194 509.635 180.676 510.744C180.307 511.632 179.567 512.075 178.679 512.075Z" fill="#102544"/>
<path d="M178.457 466.012C178.087 466.012 177.643 465.938 177.348 465.716C145.912 446.936 119.728 420.097 101.606 388.229C83.5578 356.362 74.0161 320.133 74.0161 283.46C74.0161 226.749 96.1321 173.366 136.222 133.292C176.312 93.2177 229.716 71.1104 286.448 71.1104C343.181 71.1104 396.585 93.2177 436.675 133.292C476.765 173.366 498.881 226.749 498.881 283.46C498.881 319.985 489.413 356.066 471.439 387.86C453.465 419.653 427.429 446.418 396.141 465.273C395.105 465.938 393.7 465.568 393.108 464.533C392.443 463.498 392.812 462.093 393.848 461.502C424.47 443.017 449.989 416.843 467.519 385.716C485.049 354.588 494.369 319.246 494.369 283.46C494.369 227.932 472.696 175.732 433.42 136.397C394.144 97.1365 341.923 75.4727 286.3 75.4727C230.751 75.4727 178.531 97.0625 139.181 136.397C100.052 175.732 78.4541 227.932 78.4541 283.46C78.4541 319.319 87.7739 354.81 105.452 386.011C123.13 417.213 148.796 443.461 179.567 461.871C180.602 462.537 180.972 463.868 180.306 464.903C179.936 465.642 179.197 466.012 178.457 466.012Z" fill="#102544"/>
<path d="M203.014 395.328C202.496 395.328 202.052 395.18 201.609 394.81C143.693 348.599 134.225 263.94 180.454 206.047C202.866 178.024 234.82 160.353 270.472 156.361C306.124 152.368 341.184 162.498 369.291 184.901C397.324 207.304 415.003 239.245 418.997 274.883C422.991 310.521 412.857 345.567 390.446 373.664C384.676 380.836 378.167 387.49 371.066 393.331C370.105 394.145 368.699 393.997 367.96 393.036C367.146 392.074 367.294 390.67 368.256 389.93C375.134 384.237 381.422 377.878 386.969 370.854C408.641 343.719 418.405 309.856 414.559 275.401C410.712 240.946 393.626 210.04 366.554 188.376C339.409 166.712 305.532 156.952 271.063 160.797C236.595 164.642 205.677 181.721 184.005 208.783C139.329 264.753 148.501 346.603 204.493 391.261C205.455 392 205.603 393.405 204.863 394.366C204.271 395.032 203.606 395.328 203.014 395.328Z" fill="#102544"/>
<path d="M294.955 690.783H274.836C237.483 690.783 207.083 660.395 207.083 623.056V460.91C207.083 423.572 237.483 393.183 274.836 393.183H294.955C332.308 393.183 362.708 423.572 362.708 460.91V623.056C362.782 660.395 332.382 690.783 294.955 690.783ZM274.836 397.62C239.924 397.62 211.521 426.012 211.521 460.91V623.056C211.521 657.955 239.924 686.347 274.836 686.347H294.955C329.867 686.347 358.27 657.955 358.27 623.056V460.91C358.27 426.012 329.867 397.62 294.955 397.62H274.836Z" fill="#102544"/>
<path d="M177.348 426.899C176.83 426.899 176.386 426.751 175.942 426.381C155.602 410.189 138.885 389.191 127.568 365.752C116.251 342.314 110.334 316.14 110.334 290.114C110.334 243.533 128.456 199.762 161.445 166.786C194.36 133.883 238.222 115.695 284.821 115.695C331.42 115.695 375.208 133.81 408.198 166.786C441.113 199.762 459.309 243.533 459.309 290.114C459.383 342.314 436.305 391.261 395.993 424.533C395.032 425.346 393.626 425.198 392.887 424.237C392.073 423.276 392.221 421.871 393.182 421.132C432.459 388.747 454.945 341.057 454.871 290.188C454.871 196.435 378.611 120.205 284.821 120.205C239.406 120.205 196.727 137.876 164.625 169.965C132.524 202.054 114.846 244.716 114.846 290.114C114.846 315.475 120.615 340.983 131.636 363.83C142.657 386.677 158.93 407.158 178.753 422.906C179.715 423.646 179.863 425.05 179.123 426.012C178.605 426.603 177.939 426.899 177.348 426.899Z" fill="#102544"/>
<path d="M178.531 549.266C178.235 549.266 177.939 549.192 177.718 549.118C126.015 527.898 82.0047 492.26 50.347 445.975C17.9496 398.581 0.863281 343.054 0.863281 285.456C0.863281 247.008 8.40789 209.67 23.2752 174.549C37.6247 140.612 58.1874 110.15 84.3716 83.9756C110.556 57.8017 141.03 37.247 174.981 22.903C210.115 8.04153 247.468 0.499878 285.931 0.499878C324.393 0.499878 361.747 8.04153 396.881 22.903C430.831 37.247 461.306 57.8017 487.49 83.9756C513.674 110.15 534.237 140.612 548.586 174.549C563.454 209.67 570.998 247.008 570.998 285.456C570.998 342.684 554.06 397.841 522.106 445.088C490.892 491.151 447.4 526.863 396.215 548.305C395.105 548.748 393.774 548.231 393.33 547.122C392.886 546.013 393.404 544.682 394.514 544.238C444.885 523.092 487.712 487.972 518.408 442.648C549.918 396.215 566.56 341.871 566.56 285.53C566.56 247.674 559.164 210.927 544.518 176.324C530.391 142.904 510.124 112.959 484.383 87.155C458.643 61.4246 428.612 41.1657 395.179 27.0435C360.563 12.4039 323.802 5.01008 285.931 5.01008C248.06 5.01008 211.298 12.4039 176.682 27.0435C143.249 41.1657 113.293 61.4246 87.4782 87.155C61.7378 112.885 41.471 142.904 27.3434 176.324C12.698 210.927 5.30128 247.674 5.30128 285.53C5.30128 342.24 22.1657 396.88 54.0453 443.535C85.1852 489.081 128.53 524.201 179.419 545.126C180.528 545.569 181.12 546.9 180.602 548.009C180.232 548.749 179.419 549.266 178.531 549.266Z" fill="#102544"/>
<path d="M239.588 383.381C239.346 383.381 239.104 383.312 238.862 383.208C221.164 374.849 206.163 361.688 195.516 345.211C184.593 328.284 178.821 308.664 178.821 288.421C178.821 260.441 189.744 234.119 209.55 214.326C229.356 194.533 255.696 183.617 283.694 183.617C311.693 183.617 338.032 194.533 357.839 214.326C377.645 234.119 388.533 260.441 388.533 288.421C388.533 308.387 382.899 327.801 372.253 344.554C361.883 360.859 347.227 373.985 329.909 382.517C329.045 382.932 328.008 382.586 327.593 381.723C327.179 380.859 327.524 379.823 328.388 379.408C345.153 371.187 359.29 358.475 369.349 342.689C379.65 326.488 385.111 307.697 385.111 288.421C385.111 261.339 374.569 235.916 355.419 216.779C336.269 197.642 310.794 187.106 283.729 187.106C256.629 187.106 231.188 197.642 212.039 216.779C192.889 235.916 182.347 261.374 182.347 288.421C182.347 307.973 187.946 326.972 198.489 343.311C208.79 359.235 223.273 371.947 240.383 380.03C241.247 380.445 241.627 381.481 241.213 382.345C240.867 383.001 240.245 383.381 239.588 383.381Z" fill="#004E86"/>
<path d="M239.484 364.279C239.173 364.279 238.862 364.21 238.585 364.037C225.416 356.161 214.458 344.934 206.888 331.601C199.318 318.267 195.308 303.068 195.343 287.731C195.343 263.999 204.607 241.65 221.406 224.862C238.205 208.074 260.569 198.816 284.316 198.816C308.098 198.816 330.427 208.074 347.227 224.862C364.026 241.65 373.289 263.965 373.289 287.731C373.289 303.033 369.314 318.129 361.813 331.462C354.278 344.762 343.39 355.988 330.289 363.899C329.46 364.382 328.423 364.14 327.904 363.311C327.42 362.482 327.662 361.446 328.492 360.928C341.074 353.328 351.547 342.551 358.806 329.77C366.03 316.989 369.867 302.446 369.833 287.731C369.833 264.897 360.949 243.446 344.772 227.314C328.63 211.183 307.13 202.27 284.316 202.27C261.468 202.27 240.002 211.148 223.86 227.314C207.683 243.446 198.8 264.897 198.8 287.731C198.8 302.481 202.636 317.058 209.895 329.873C217.154 342.689 227.697 353.501 240.383 361.066C241.212 361.55 241.454 362.621 240.97 363.45C240.659 363.968 240.072 364.279 239.484 364.279Z" fill="#004E86"/>
<path d="M249.681 334.951C249.301 334.951 248.921 334.813 248.61 334.571C236.823 325.141 229.391 311.704 227.697 296.712C226.003 281.72 230.29 266.935 239.726 255.156C249.163 243.377 262.609 235.95 277.611 234.257C292.612 232.565 307.407 236.848 319.194 246.279C343.563 265.726 347.538 301.375 328.077 325.694C325.658 328.733 322.927 331.497 319.92 333.984C319.194 334.606 318.088 334.502 317.5 333.742C316.878 333.017 316.981 331.911 317.742 331.324C320.542 329.01 323.134 326.385 325.381 323.552C343.666 300.684 339.899 267.246 317.016 248.973C305.92 240.13 292.059 236.123 277.956 237.712C263.853 239.301 251.237 246.244 242.388 257.332C233.539 268.421 229.529 282.273 231.119 296.366C232.709 310.46 239.657 323.068 250.753 331.911C251.513 332.499 251.617 333.604 251.029 334.329C250.684 334.709 250.165 334.951 249.681 334.951Z" fill="#004E86"/>
<path d="M283.66 320.927C264.994 320.927 249.819 305.762 249.819 287.109C249.819 268.455 264.994 253.291 283.66 253.291C302.325 253.291 317.5 268.455 317.5 287.109C317.5 305.762 302.291 320.927 283.66 320.927ZM283.66 256.78C266.93 256.78 253.276 270.39 253.276 287.143C253.276 303.897 266.895 317.507 283.66 317.507C300.39 317.507 314.043 303.897 314.043 287.143C314.043 270.39 300.39 256.78 283.66 256.78Z" fill="#F44247"/>
<path d="M287.842 457.511H279.477C263.508 457.511 250.545 444.523 250.545 428.598V361.342C250.545 345.383 263.542 332.43 279.477 332.43H287.842C303.812 332.43 316.774 345.418 316.774 361.342V428.598C316.774 444.557 303.812 457.511 287.842 457.511ZM279.477 335.884C265.443 335.884 254.002 347.318 254.002 361.342V428.598C254.002 442.623 265.443 454.057 279.477 454.057H287.842C301.876 454.057 313.317 442.623 313.317 428.598V361.342C313.317 347.318 301.876 335.884 287.842 335.884H279.477Z" fill="#F44247"/>
<path d="M239 348.043C238.62 348.043 238.24 347.905 237.929 347.663C229.391 340.858 222.374 332.05 217.638 322.239C212.903 312.395 210.414 301.444 210.414 290.529C210.414 270.977 218.019 252.635 231.845 238.817C245.672 225 264.061 217.4 283.591 217.4C303.155 217.4 321.51 225 335.336 238.817C349.162 252.635 356.767 271.012 356.767 290.529C356.802 312.429 347.123 332.982 330.22 346.903C329.494 347.525 328.388 347.421 327.801 346.662C327.178 345.936 327.282 344.831 328.043 344.243C344.15 330.979 353.345 311.393 353.345 290.529C353.345 252.082 322.063 220.82 283.591 220.82C245.118 220.82 213.836 252.082 213.836 290.529C213.836 300.926 216.221 311.393 220.715 320.754C225.243 330.115 231.914 338.509 240.037 345.003C240.798 345.591 240.901 346.696 240.314 347.421C240.037 347.801 239.519 348.043 239 348.043Z" fill="#F44247"/>
<path d="M239.519 398.787C239.311 398.787 239.069 398.753 238.862 398.649C217.258 389.806 198.869 374.883 185.665 355.574C172.115 335.78 164.994 312.602 164.994 288.525C164.994 256.745 177.369 226.865 199.871 204.378C222.339 181.89 252.239 169.523 284.04 169.523C315.841 169.523 345.775 181.89 368.243 204.378C390.745 226.865 403.12 256.745 403.12 288.525C403.12 312.429 396.069 335.504 382.692 355.194C369.66 374.434 351.478 389.322 330.082 398.304C329.218 398.684 328.181 398.269 327.835 397.371C327.455 396.508 327.87 395.471 328.768 395.126C349.508 386.421 367.171 371.947 379.823 353.259C392.785 334.122 399.663 311.738 399.663 288.525C399.663 257.678 387.634 228.661 365.789 206.83C343.977 184.999 314.942 172.978 284.04 172.978C253.138 172.978 224.102 184.999 202.256 206.83C180.411 228.661 168.382 257.678 168.382 288.525C168.382 311.911 175.329 334.399 188.465 353.639C201.289 372.396 219.159 386.87 240.141 395.471C241.04 395.817 241.454 396.853 241.074 397.717C240.832 398.407 240.175 398.787 239.519 398.787Z" fill="#F44247"/>
</svg>
