<svg width="99" height="113" viewBox="0 0 99 113" fill="none" xmlns="http://www.w3.org/2000/svg">
<path d="M48.9871 106.744C48.1203 106.744 47.2535 106.546 46.4523 106.163C46.3735 106.123 36.6153 101.405 26.7389 93.0666C20.8945 88.1374 16.219 82.9835 12.8699 77.7635C8.39141 70.7859 6.13245 63.6894 6.13245 56.6589V20.9913L46.9514 6.89074C47.5687 6.66608 48.2122 6.56036 48.882 6.56036H48.8951C49.5518 6.56036 50.1954 6.66608 50.8126 6.89074L91.671 20.8724V56.6589C91.671 63.8744 89.4383 71.0105 85.0386 77.8824C81.637 83.1949 76.9877 88.3488 71.2221 93.1987C61.5296 101.339 51.9159 105.991 51.5087 106.189C50.6944 106.559 49.8408 106.744 48.9871 106.744ZM7.43266 21.9428V56.6457C7.43266 63.4251 9.62596 70.2837 13.96 77.0367C17.2434 82.1509 21.827 87.1991 27.5795 92.049C37.3377 100.282 46.912 104.921 47.0171 104.96C48.2647 105.568 49.6832 105.568 50.9308 104.973C51.3248 104.788 60.8072 100.203 70.3684 92.168C76.029 87.4105 80.5994 82.3491 83.9222 77.1556C88.1906 70.4952 90.3445 63.5969 90.3445 56.6457V21.8106L50.3661 8.13297C49.8933 7.96117 49.3942 7.88188 48.882 7.88188C48.882 7.88188 48.882 7.88188 48.8689 7.88188C48.3567 7.88188 47.8576 7.97438 47.3717 8.14618L7.43266 21.9428Z" fill="#15265F"/>
<path d="M55.7771 112.717C54.9103 112.717 54.0435 112.519 53.2424 112.136C52.8352 111.938 43.2215 107.22 33.529 99.0398C27.6846 94.1106 23.009 88.9567 19.66 83.7367C15.1814 76.7591 12.9225 69.6626 12.9225 62.6322V26.9777L53.7415 12.864C54.976 12.4279 56.3419 12.4279 57.5896 12.864L98.4479 26.8456V62.6322C98.4479 69.8476 96.2152 76.9838 91.8155 83.8556C88.4139 89.1681 83.7647 94.322 77.9991 99.172C68.0964 107.484 58.3776 112.11 58.2725 112.162C57.4845 112.532 56.6308 112.717 55.7771 112.717ZM14.2227 27.916V62.6189C14.2227 69.3983 16.416 76.257 20.7501 83.0099C24.0334 88.1241 28.617 93.1855 34.3695 98.0223C43.9438 106.097 53.4131 110.748 53.8071 110.947C55.0417 111.541 56.4601 111.555 57.7078 110.96C57.7997 110.92 67.374 106.361 77.1454 98.1544C82.8059 93.397 87.3633 88.3488 90.6992 83.142C94.9676 76.4816 97.1215 69.5833 97.1215 62.6322V27.7971L57.1562 14.1194C56.1974 13.7758 55.1336 13.7758 54.1749 14.1194L14.2227 27.916Z" fill="#15265F"/>
<path d="M42.9063 100.824C42.0395 100.824 41.1727 100.626 40.3716 100.242C40.2796 100.203 30.5477 95.485 20.6713 87.1462C14.8269 82.217 10.1514 77.0631 6.80231 71.8431C2.32378 64.8655 0.0648193 57.769 0.0648193 50.7385V15.0841L40.8706 0.970385C42.1052 0.534286 43.4711 0.534286 44.7188 0.970385L85.564 14.952V50.7385C85.564 57.954 83.3313 65.0902 78.9315 71.962C75.53 77.2745 70.8807 82.4284 65.1151 87.2784C55.3044 95.5246 45.4936 100.216 45.3886 100.269C44.6006 100.639 43.76 100.824 42.9063 100.824ZM1.36504 16.0224V50.7253C1.36504 57.5047 3.55833 64.3633 7.89239 71.1163C11.1758 76.2305 15.7594 81.2787 21.5118 86.1286C31.27 94.3617 40.8444 99.0002 40.9363 99.053C42.1709 99.6477 43.6024 99.6609 44.837 99.0663C44.9289 99.0266 54.5952 94.3881 64.2746 86.2608C69.9351 81.5034 74.4924 76.4552 77.8283 71.2484C82.0967 64.588 84.2506 57.6897 84.2506 50.7385V15.9035L44.2854 2.22582C43.3266 1.88223 42.2628 1.88223 41.304 2.22582L1.36504 16.0224Z" fill="#F44247"/>
</svg>
