<?xml version="1.0" encoding="UTF-8" standalone="no"?>
<svg width="700px" height="306px" viewBox="0 0 700 306" version="1.1" xmlns="http://www.w3.org/2000/svg" xmlns:xlink="http://www.w3.org/1999/xlink">
    <!-- Generator: Sketch 39.1 (31720) - http://www.bohemiancoding.com/sketch -->
    <title>Product Security</title>
    <desc>Created with Sketch.</desc>
    <defs>
        <rect id="path-1" x="0" y="0" width="65" height="65" rx="5"></rect>
        <mask id="mask-2" maskContentUnits="userSpaceOnUse" maskUnits="objectBoundingBox" x="0" y="0" width="65" height="65" fill="white">
            <use xlink:href="#path-1"></use>
        </mask>
        <rect id="path-3" x="80" y="0" width="65" height="65" rx="5"></rect>
        <mask id="mask-4" maskContentUnits="userSpaceOnUse" maskUnits="objectBoundingBox" x="0" y="0" width="65" height="65" fill="white">
            <use xlink:href="#path-3"></use>
        </mask>
        <rect id="path-5" x="160" y="0" width="65" height="65" rx="5"></rect>
        <mask id="mask-6" maskContentUnits="userSpaceOnUse" maskUnits="objectBoundingBox" x="0" y="0" width="65" height="65" fill="white">
            <use xlink:href="#path-5"></use>
        </mask>
        <rect id="path-7" x="240" y="0" width="65" height="65" rx="5"></rect>
        <mask id="mask-8" maskContentUnits="userSpaceOnUse" maskUnits="objectBoundingBox" x="0" y="0" width="65" height="65" fill="white">
            <use xlink:href="#path-7"></use>
        </mask>
        <rect id="path-9" x="198" y="133" width="305" height="65" rx="5"></rect>
        <mask id="mask-10" maskContentUnits="userSpaceOnUse" maskUnits="objectBoundingBox" x="0" y="0" width="305" height="65" fill="white">
            <use xlink:href="#path-9"></use>
        </mask>
        <path d="M0,0.455247267 C0,-1.91768068 8.26628773,5.86665684 12.46,5.86665684 C16.5729544,5.86665684 23.7984926,0.455247252 24.9200001,0.455247267 C26.0415076,0.455247281 33.2192671,5.86665684 37.3800001,5.86665684 C41.5259337,5.86665684 49.8400002,-1.93519841 49.8400002,0.455247267 C49.8400002,2.84569294 49.8399974,39.5949469 49.8400002,41.0408191 C49.8400029,42.4866913 27.8958871,54.569343 24.9200001,54.569343 C21.9441131,54.569343 -1.91442334e-09,42.4673044 0,41.0408191 C1.91442328e-09,39.6143338 0,2.82817521 0,0.455247267 Z" id="path-11"></path>
        <mask id="mask-12" maskContentUnits="userSpaceOnUse" maskUnits="objectBoundingBox" x="-3" y="-3" width="55.8400002" height="60.569343">
            <rect x="-3" y="-3" width="55.8400002" height="60.569343" fill="white"></rect>
            <use xlink:href="#path-11" fill="black"></use>
        </mask>
        <mask id="mask-14" maskContentUnits="userSpaceOnUse" maskUnits="objectBoundingBox" x="-3" y="-3" width="55.8400002" height="60.569343">
            <rect x="-3" y="-3" width="55.8400002" height="60.569343" fill="white"></rect>
            <use xlink:href="#path-11" fill="black"></use>
        </mask>
    </defs>
    <g id="Page-1" stroke="none" stroke-width="1" fill="none" fill-rule="evenodd">
        <g id="Product-Security">
            <g id="Browser">
                <rect id="Rectangle-8" fill="#DEDEDE" x="0" y="0" width="700" height="306" rx="3"></rect>
                <g id="Browser-Top" transform="translate(13.000000, 11.000000)">
                    <circle id="Oval-1" fill="#F76461" cx="3.5" cy="7.5" r="3.5"></circle>
                    <circle id="Oval-1" fill="#FDBC4F" cx="13.5" cy="7.5" r="3.5"></circle>
                    <circle id="Oval-1" fill="#40C754" cx="23.5" cy="7.5" r="3.5"></circle>
                    <rect id="Search-Bar" fill="#FFFFFF" x="137" y="0" width="400" height="15" rx="3"></rect>
                    <text id="http://enterpriserea" font-family="Roboto, sans-serif" font-size="8" font-weight="300" fill="#85828E">
                        <tspan x="297.9" y="11">http://enterpriseready.io</tspan>
                    </text>
                </g>
                <g id="Background" transform="translate(0.000000, 35.000000)">
                    <rect id="Rectangle-2" fill="#FFFFFF" x="5" y="0" width="690" height="271"></rect>
                    <rect id="Rectangle-2" fill="#F4F4F4" x="695" y="0" width="5" height="271"></rect>
                    <rect id="Rectangle-2" fill="#F4F4F4" x="0" y="0" width="5" height="271"></rect>
                </g>
            </g>
            <g id="Group-21" transform="translate(198.000000, 213.000000)">
                <use id="Rectangle-16" stroke="#DEDEDE" mask="url(#mask-2)" stroke-width="2" xlink:href="#path-1"></use>
                <text id="4" font-family="Roboto, sans-serif" font-size="40" font-weight="400" fill="#222222">
                    <tspan x="21.0019531" y="46">4</tspan>
                </text>
                <use id="Rectangle-16" stroke="#DEDEDE" mask="url(#mask-4)" stroke-width="2" xlink:href="#path-3"></use>
                <text id="8" font-family="Roboto, sans-serif" font-size="40" font-weight="400" fill="#222222">
                    <tspan x="101.001953" y="46">8</tspan>
                </text>
                <use id="Rectangle-16" stroke="#DEDEDE" mask="url(#mask-6)" stroke-width="2" xlink:href="#path-5"></use>
                <text id="3" font-family="Roboto, sans-serif" font-size="40" font-weight="400" fill="#222222">
                    <tspan x="181.001953" y="46">3</tspan>
                </text>
                <use id="Rectangle-16" stroke="#DEDEDE" mask="url(#mask-8)" stroke-width="2" xlink:href="#path-7"></use>
                <text id="5" font-family="Roboto, sans-serif" font-size="40" font-weight="400" fill="#222222">
                    <tspan x="261.001953" y="46">5</tspan>
                </text>
            </g>
            <use id="Rectangle-16" stroke="#DEDEDE" mask="url(#mask-10)" stroke-width="2" xlink:href="#path-9"></use>
            <g id="Group-22" transform="translate(198.000000, 145.000000)" font-size="50" font-family="Roboto, sans-serif" fill="#222222" font-weight="400">
                <text id="*">
                    <tspan x="21.2026367" y="46">*</tspan>
                </text>
                <text id="*">
                    <tspan x="61.2026367" y="46">*</tspan>
                </text>
                <text id="*">
                    <tspan x="101.202637" y="46">*</tspan>
                </text>
                <text id="*">
                    <tspan x="141.202637" y="46">*</tspan>
                </text>
                <text id="*">
                    <tspan x="181.202637" y="46">*</tspan>
                </text>
                <text id="*">
                    <tspan x="221.202637" y="46">*</tspan>
                </text>
                <text id="*">
                    <tspan x="261.202637" y="46">*</tspan>
                </text>
            </g>
            <g id="Group-19" transform="translate(518.000000, 228.000000)">
                <circle id="Oval-5" stroke="#24B524" stroke-width="2" cx="17.5" cy="17.5" r="17.5"></circle>
                <path d="M15.6039904,24.7329294 C14.9738712,24.7257587 14.5785901,24.2067842 14.1725531,23.8016435 C13.5505007,23.1813839 12.9275521,22.5602279 12.3054998,21.9399682 C11.635942,21.2722031 10.9663843,20.604438 10.2968265,19.9366729 C9.94277655,19.5835193 9.48295978,19.2348473 9.20420147,18.8126764 C8.40557234,17.6053212 10.1408653,16.4042404 11.1142785,17.3749647 C11.5391385,17.798032 11.9631021,18.2210993 12.387962,18.6450629 C13.4725201,19.726932 14.5561819,20.8079047 15.6407399,21.8888775 C18.5457422,18.5975574 21.4507444,15.3062374 24.356643,12.014021 C24.9007147,11.3973467 25.5344193,10.6067845 26.4674978,11.2234588 C27.522477,11.9199065 26.7821093,12.8789785 26.1968064,13.531506 C24.569073,15.3501575 22.9395469,17.168809 21.3118134,18.9874605 C20.1394151,20.2969972 18.9679131,21.6056375 17.7955148,22.9151742 C17.2639917,23.508544 16.5146607,24.7463743 15.6039904,24.7329294 C15.2929643,24.729344 15.9132239,24.737411 15.6039904,24.7329294 L15.6039904,24.7329294 Z" id="Shape" fill="#24B524"></path>
            </g>
            <g id="Group-19" transform="translate(518.000000, 148.000000)">
                <circle id="Oval-5" stroke="#24B524" stroke-width="2" cx="17.5" cy="17.5" r="17.5"></circle>
                <path d="M15.6039904,24.7329294 C14.9738712,24.7257587 14.5785901,24.2067842 14.1725531,23.8016435 C13.5505007,23.1813839 12.9275521,22.5602279 12.3054998,21.9399682 C11.635942,21.2722031 10.9663843,20.604438 10.2968265,19.9366729 C9.94277655,19.5835193 9.48295978,19.2348473 9.20420147,18.8126764 C8.40557234,17.6053212 10.1408653,16.4042404 11.1142785,17.3749647 C11.5391385,17.798032 11.9631021,18.2210993 12.387962,18.6450629 C13.4725201,19.726932 14.5561819,20.8079047 15.6407399,21.8888775 C18.5457422,18.5975574 21.4507444,15.3062374 24.356643,12.014021 C24.9007147,11.3973467 25.5344193,10.6067845 26.4674978,11.2234588 C27.522477,11.9199065 26.7821093,12.8789785 26.1968064,13.531506 C24.569073,15.3501575 22.9395469,17.168809 21.3118134,18.9874605 C20.1394151,20.2969972 18.9679131,21.6056375 17.7955148,22.9151742 C17.2639917,23.508544 16.5146607,24.7463743 15.6039904,24.7329294 C15.2929643,24.729344 15.9132239,24.737411 15.6039904,24.7329294 L15.6039904,24.7329294 Z" id="Shape" fill="#24B524"></path>
            </g>
            <g id="Group-20" transform="translate(325.000000, 56.000000)">
                <g id="icon">
                    <mask id="mask-13" fill="white">
                        <use xlink:href="#path-11"></use>
                    </mask>
                    <g id="Mask" stroke="#EB4E48" mask="url(#mask-12)" stroke-width="6">
                        <use mask="url(#mask-14)" xlink:href="#path-11"></use>
                    </g>
                    <path d="M58.4700012,27.3607372 C58.4700012,25.2435397 58.2733107,23.1777845 57.8668168,21.045457 L57.7084557,20.2254087 L57.6872736,20.2254087 C55.8706598,12.208503 51.1046961,4.96423816 44.5140491,0.248707948 C44.0601478,-0.0770923211 43.4317467,0.0288179831 43.1059464,0.481710617 C42.7821635,0.934603251 42.8850478,1.56502173 43.3379404,1.88880466 C49.7369401,6.46816448 54.3072219,13.5913889 55.8817551,21.4317775 L55.9231106,21.6365374 C56.2801796,23.5681396 56.4526621,25.4422476 56.4526621,27.3607372 C56.4526621,27.9175228 56.9035374,28.3694067 57.4613317,28.3694067 C58.0191259,28.3694067 58.4700012,27.9175228 58.4700012,27.3607372 M0.162848413,8.55510181 C4.81584111,2.32051523 11.5941006,-1.92900964 19.2519199,-3.41074523 C21.1915915,-3.79101366 23.1917832,-3.98266087 25.195001,-3.98266087 C29.9700427,-3.98266087 34.5746193,-2.91246247 38.8846643,-0.803334407 C39.3869817,-0.558227703 39.9911748,-0.763996294 40.2342642,-1.26530507 C40.4783622,-1.76560517 40.2715849,-2.36979824 39.7712848,-2.61490494 C35.1838557,-4.86121206 30.2807129,-6 25.195001,-6 C23.0616649,-6 20.9313547,-5.79524008 18.8666081,-5.39076358 C10.7165581,-3.81320439 3.500536,0.710678608 -1.4540489,7.34873301 C-1.78791852,7.79557362 -1.69512092,8.42700077 -1.24928898,8.75986173 C-1.06772845,8.89502345 -0.856916516,8.96058697 -0.647113247,8.96058697 C-0.33846036,8.96058697 -0.0348508216,8.8203819 0.162848413,8.55510181 M-5.95876717,35.783128 C-5.41711161,35.6530096 -5.08324199,35.1083281 -5.21235169,34.5666725 C-5.23252508,34.4829529 -5.25269848,34.4123461 -5.2718632,34.3467826 L-5.26984586,34.3467826 L-5.48166647,33.1434398 C-6.829249,26.3258422 -5.76913729,19.1400802 -2.54038602,12.9085196 C-2.28418395,12.4142716 -2.42539769,11.8050351 -2.91964577,11.5488331 C-3.41490253,11.292631 -3.91923731,11.4862956 -4.17543938,11.9805436 C-7.59684654,18.5822859 -9.11085956,26.1937065 -7.09352043,33.4248586 L-7.09352043,33.4299019 C-7.09352043,34.1934648 -7.15000592,34.4738749 -7.04106961,34.7905972 C-7.01787021,34.8591867 -7.19943073,34.9328196 -7.17421399,35.0387299 C-7.06326034,35.4996919 -6.64970582,35.8123794 -6.19378718,35.8123794 C-6.11611962,35.8103621 -6.0374434,35.8002754 -5.95876717,35.783128 M17.9063547,59.1671145 C25.9696592,48.420749 28.4419083,38.8373795 26.1784538,27.1216825 C26.0725435,26.5749836 25.5409746,26.2169059 24.9962931,26.3228162 C24.4495942,26.4287265 24.0925251,26.9572693 24.1974268,27.5049769 C26.3741357,38.7516425 24.0824384,47.5734665 16.2934921,57.9557024 C15.9586138,58.4015343 16.049394,59.0339701 16.495226,59.3668311 C16.6767865,59.5030015 16.8896158,59.568565 17.0994191,59.568565 C17.4060546,59.571591 17.7086555,59.4323946 17.9063547,59.1671145 M22.3213014,59.9599288 C30.201028,48.8211908 32.5391241,38.7708073 30.1384905,26.3571109 C29.8822884,25.0317191 29.1247776,23.8858705 28.0071717,23.130377 C26.8925919,22.3769008 25.5500527,22.1035514 24.2297042,22.3607621 C22.9073384,22.6169642 21.7635071,23.3724577 21.0090223,24.4900636 C20.2555461,25.6066608 19.981188,26.9512173 20.2373901,28.2735831 C21.1361147,32.9225411 21.1391407,37.1226412 20.2474768,41.1139467 C20.1264364,41.6576196 20.4683754,42.1962491 21.0120483,42.3172894 C21.5587472,42.4393385 22.0953594,42.0963908 22.2163998,41.5527179 C23.1695925,37.2870543 23.1706012,32.8156222 22.2184171,27.8882713 C22.0650993,27.0934397 22.2295125,26.2865041 22.6813964,25.6157388 C23.1332804,24.9449735 23.8191757,24.4920809 24.6140073,24.3377545 C25.4078303,24.1844367 26.2107312,24.3478412 26.8784705,24.7987165 C27.5502444,25.2516091 28.0041457,25.9395217 28.1604895,26.7363707 C30.4461347,38.557978 28.207897,48.1463909 20.6761613,58.7918894 C20.3543957,59.2467994 20.4623234,59.8752005 20.9172334,60.1989835 C21.0947592,60.3240585 21.2975018,60.3845787 21.4992357,60.3845787 C21.8129319,60.3845787 22.1246108,60.2373129 22.3213014,59.9599288 M13.8404077,57.8417227 C16.8674251,53.9583449 19.056238,50.3563859 20.5309129,46.8270511 C20.7457595,46.3126296 20.5026702,45.7215492 19.9882487,45.5067026 C19.4718099,45.2898387 18.8827468,45.532928 18.6689089,46.0483582 C17.2648409,49.4092452 15.1647908,52.8609124 12.2497358,56.6000505 C11.9067881,57.0398304 11.9854644,57.6722662 12.4252443,58.0142052 C12.6098308,58.1584449 12.8277035,58.2280431 13.0445674,58.2280431 C13.3451509,58.2300605 13.6416998,58.0969161 13.8404077,57.8417227 M10.1083303,56.0543602 C17.3425084,47.0237416 19.8046708,39.70887 18.604354,30.8083697 C18.5297125,30.2546101 18.018317,29.8743417 17.4696008,29.9439399 C16.9178585,30.0185815 16.5305294,30.5259422 16.605171,31.0786932 C17.7389156,39.479902 15.4754611,46.1300604 8.53480579,54.794532 C8.18580612,55.2302772 8.25641299,55.865739 8.69114958,56.2117127 C8.87674477,56.3609958 9.09966075,56.43362 9.32156805,56.43362 C9.61609957,56.4326113 9.90962241,56.305519 10.1083303,56.0543602 M34.0440591,35.3554521 C34.6018533,35.3554521 35.0456679,34.9176895 35.0375986,34.3629213 C34.9942258,31.5235164 34.6805296,28.5903054 34.0975185,25.5885047 C33.2724268,21.3238498 29.5292541,18.2292516 25.1929836,18.2292516 C24.6129986,18.2292516 24.0299876,18.2857371 23.461098,18.3956821 C21.0796292,18.8576527 19.0209346,20.2193566 17.6632653,22.2296351 C17.0116648,23.1959405 16.5567548,24.2631129 16.3116481,25.4019009 C16.1946425,25.9465824 16.5406161,26.4831946 17.0852977,26.6002003 C17.6319966,26.71418 18.1665915,26.3702236 18.2835971,25.8265507 C18.4742357,24.9399302 18.8292874,24.1077778 19.3356395,23.356319 C20.3907078,21.7928812 21.9924751,20.7317608 23.8454011,20.3726744 C24.288207,20.2869375 24.7421083,20.23953 25.1929836,20.23953 C28.5639573,20.23953 31.4759864,22.6401636 32.1175002,25.9566691 C32.6752945,28.8434814 32.978904,31.6717909 33.0202595,34.3931814 C33.0283288,34.9449236 33.4771868,35.3564608 34.028929,35.3564608 C34.0329637,35.3554521 34.0390157,35.3554521 34.0440591,35.3554521 M27.0741524,60.1132466 C31.455813,53.3662558 33.9704262,46.7473662 34.7602145,39.8783264 C34.822752,39.3245669 34.4273535,38.8242667 33.8735939,38.7617292 C33.317817,38.6991917 32.8195342,39.0955989 32.7569967,39.6483498 C32.0025119,46.1996586 29.5897743,52.5341035 25.3816048,59.0137967 C25.0779953,59.4818194 25.2111397,60.1061859 25.6781537,60.4097954 C25.8486189,60.5197404 26.0392574,60.5721912 26.2268699,60.5721912 C26.5567049,60.5721912 26.8825052,60.4108041 27.0741524,60.1132466 M32.2032371,59.5060275 C38.6415749,48.4721911 40.5035789,37.4504588 38.0605813,24.8198985 C37.3434172,21.1170726 35.0567633,17.895382 31.7896826,15.9829445 C31.3095559,15.700517 30.6912414,15.8619041 30.4108313,16.3430395 C30.1294125,16.8241749 30.2907996,17.4414807 30.7709263,17.7228995 C33.5377069,19.3428228 35.4723352,22.0692566 36.0805629,25.203193 C38.4237023,37.3253838 36.6403745,47.9022928 30.4622734,58.4892886 C30.182872,58.9714326 30.3452678,59.5887384 30.8243858,59.8681399 C30.9837556,59.9629548 31.1592641,60.0063276 31.3327553,60.0063276 C31.6777203,60.0063276 32.0156246,59.8298104 32.2032371,59.5060275 M6.71012255,53.8443652 C13.955396,44.9136049 16.0110646,38.2947152 14.2963263,29.4244751 C13.7324801,26.5114374 14.3356645,23.5540182 15.9959346,21.0968992 C17.6562047,18.6387714 20.1718266,16.9754753 23.0818382,16.4106204 C24.0763864,16.2159471 25.1082554,16.167531 26.1078469,16.2472159 C26.6575718,16.2915974 27.1498026,15.8780428 27.1941841,15.3232746 C27.2395742,14.7685063 26.8260197,14.2813189 26.2702427,14.2369375 C25.0890907,14.1411139 23.8706178,14.201634 22.6965265,14.4295933 C19.2579719,15.0953153 16.2844141,17.0622209 14.3235604,19.9661806 C12.3627068,22.8691316 11.6495774,26.3641716 12.3152993,29.8057522 C13.8999192,38.0032097 11.956213,44.1732414 5.14365872,52.5704156 C4.79264171,53.0041435 4.85820523,53.6396053 5.29092448,53.988605 C5.47752834,54.1399054 5.70246166,54.2155556 5.92537763,54.2155556 C6.21990914,54.217573 6.51040598,54.0904806 6.71012255,53.8443652 M37.6974602,57.8810608 C39.2064299,54.8611041 40.4218767,51.7473412 41.3105146,48.6255089 C41.461815,48.0899054 41.1521535,47.5321111 40.6165499,47.379802 C40.0799377,47.2254755 39.5221435,47.5381631 39.370843,48.0737666 C38.5175086,51.0755673 37.3494692,54.0703072 35.8949677,56.9783016 C35.6458263,57.4765843 35.8465516,58.0827947 36.3448343,58.3319361 C36.4910914,58.402543 36.6444092,58.4368377 36.7957096,58.4368377 C37.1648827,58.4388551 37.5199344,58.2361125 37.6974602,57.8810608 M42.5128487,43.2755255 C43.5073969,37.1982914 43.3470184,30.9092367 42.020618,24.0533097 C40.4622235,15.9990832 33.3864065,10.1528344 25.1970183,10.1528344 C24.1005945,10.1528344 23.0021533,10.2587447 21.9329636,10.4675393 C17.435306,11.3370125 13.5468849,13.9091199 10.9828468,17.7087781 C8.41780012,21.506419 7.48578945,26.0767008 8.35627128,30.5783931 C8.79605121,32.8519343 8.91406555,34.7603371 8.72847035,36.586029 C8.67198485,37.1407972 9.07545268,37.6350453 9.62921227,37.6925395 C10.1920499,37.7379296 10.6782286,37.3455572 10.7347141,36.7907889 C10.9425,34.7633631 10.8154077,32.6673477 10.3372983,30.19409 C9.56768343,26.2219492 10.3907578,22.1892883 12.6542123,18.8374793 C14.9166581,15.4856704 18.3471433,13.2161639 22.3172667,12.4485663 C23.2603728,12.2639798 24.2297042,12.1711822 25.1960096,12.1711822 C32.4231271,12.1711822 38.665783,17.3295183 40.0405996,24.4376128 C41.3206013,31.0554938 41.4769451,37.1115458 40.521735,42.9507339 C40.4319634,43.5004588 40.8031538,44.018915 41.3548961,44.1076779 C41.4103729,44.1177646 41.4628237,44.1217993 41.5183005,44.1217993 C42.0034706,44.119782 42.4321552,43.7697736 42.5128487,43.2755255 M3.63065437,51.2319111 C6.30161138,47.9224662 8.15857205,44.9852204 9.30542934,42.2557606 C9.52128463,41.7413391 9.2802126,41.1502588 8.76579112,40.9344035 C8.25036098,40.7195569 7.66129795,40.9596202 7.44544266,41.4720244 C6.37322692,44.024967 4.61108119,46.802843 2.06015586,49.9650221 C1.71014752,50.39875 1.77873705,51.0342118 2.2114563,51.3832115 C2.39806017,51.5324946 2.62198481,51.6061275 2.84389211,51.6061275 C3.1394323,51.6061275 3.43194647,51.4780264 3.63065437,51.2319111 M0.872951786,48.2180064 C7.45351202,39.9085865 7.28203819,35.6560356 6.37524426,30.9606788 C5.40187813,25.9314524 6.44383379,20.822541 9.30946402,16.5760422 C10.338307,15.0529511 11.5739272,13.6872125 12.9840472,12.5181645 C13.4127318,12.1621042 13.4722433,11.5266423 13.116183,11.0979578 C12.7601226,10.6692732 12.1246608,10.6107704 11.6959762,10.9658221 C10.1385904,12.2569191 8.77285181,13.7648801 7.63708988,15.4473409 C4.46986745,20.1396717 3.31897548,25.7851953 4.39421723,31.3419559 C5.22939563,35.6620877 5.35245332,39.3114541 -0.70864209,46.9642301 C-1.05461575,47.4019927 -0.980982872,48.0354372 -0.543220282,48.3814109 C-0.357625082,48.5286766 -0.137735117,48.5992835 0.0821548478,48.5992835 C0.379712369,48.6002922 0.674243882,48.4691651 0.872951786,48.2180064 M43.4932755,54.8802689 C47.4351562,44.934787 48.2249445,34.8954988 45.9806547,23.2847034 C45.405713,20.3061022 44.221535,17.5403303 42.4634239,15.0630378 C42.1406497,14.6091365 41.5122485,14.5022176 41.0563299,14.8249918 C40.6024286,15.1477661 40.4945009,15.7771759 40.8182839,16.2320859 C42.4089558,18.472341 43.4801628,20.9748501 43.9996277,23.6690066 C46.1682672,34.8844034 45.411765,44.5656139 41.6181588,54.1388967 C41.4133989,54.6563442 41.666575,55.2433899 42.1850311,55.4481498 C42.3070801,55.496566 42.4311465,55.5187567 42.5552128,55.5187567 C42.9566633,55.5187567 43.3369318,55.2776847 43.4932755,54.8802689 M38.775728,12.3708988 C39.1307797,11.9412055 39.0692508,11.304735 38.6375403,10.950692 C34.8530121,7.83188573 30.0799877,6.11412146 25.195001,6.11412146 C23.8393491,6.11412146 22.4826885,6.24423984 21.1643574,6.50245924 C19.5504861,6.81514681 17.9688922,7.31645558 16.4649659,7.99428153 C15.9576051,8.22324952 15.7306545,8.8203819 15.9596225,9.32774269 C16.1875818,9.83510348 16.7837055,10.0620541 17.2930836,9.83308614 C18.6547875,9.21981505 20.0870983,8.76591375 21.5496692,8.4824776 C22.7419166,8.24947493 23.9684588,8.13146059 25.195001,8.13146059 C29.611965,8.13146059 33.9310881,9.68582039 37.3545126,12.5070692 C37.5421251,12.6624043 37.7680671,12.7380545 37.9950177,12.7380545 C38.2865232,12.7380545 38.5739941,12.6129795 38.775728,12.3708988 M49.6098478,26.6355037 C50.1605814,26.5507755 50.5388324,26.0353453 50.4530955,25.4846118 C50.3028038,24.5031763 50.1353646,23.5156888 49.9417001,22.5181146 C47.6500028,10.6733079 37.2435589,2.0764172 25.195001,2.0764172 C23.5821383,2.0764172 21.9672584,2.23175231 20.3987772,2.53838786 C13.7859395,3.8193982 8.06678312,7.6009004 4.29536762,13.1869124 C2.28408051,16.1655137 0.954654021,19.4588198 0.343400265,22.9740332 C0.247576656,23.5227495 0.615741047,24.0452403 1.16445729,24.1410639 C1.71922555,24.2368875 2.23566437,23.8687231 2.33148798,23.3200069 C2.89331692,20.0862123 4.1168331,17.0571776 5.96673308,14.3156137 C9.43655638,9.17644226 14.6977768,5.69754093 20.7830803,4.51840621 C22.2274951,4.2369874 23.7112481,4.09375633 25.195001,4.09375633 C36.2792708,4.09375633 45.8535623,12.003743 47.9616817,22.901409 C48.1492942,23.8747751 48.3126987,24.8370459 48.4589558,25.7942733 C48.534606,26.2925561 48.9653079,26.6486164 49.4545127,26.6486164 C49.5059548,26.6476078 49.557397,26.6435731 49.6098478,26.6355037 M49.4171919,49.9398053 C51.0421586,43.8232331 51.5838141,37.5896552 51.077462,30.8830113 C51.0350979,30.3272343 50.5509365,29.9136798 49.9971769,29.9530179 C49.4403913,29.9943734 49.0238108,30.4785348 49.0661749,31.033303 C49.5563883,37.5119876 49.0338975,43.5266843 47.4684423,49.4203405 C47.3252112,49.9579614 47.6469768,50.511721 48.1845977,50.6549521 C48.2713433,50.6771428 48.3601062,50.6882382 48.4448344,50.6882382 C48.8906664,50.6892468 49.2981689,50.3906806 49.4171919,49.9398053 M-1.54583783,44.7562525 C3.61451566,37.9396635 3.03150465,34.9217242 2.41419888,31.7242417 C2.20641295,30.655052 2.07326857,29.5535848 2.01678307,28.4460656 C1.98954899,27.8882713 1.52455232,27.4605954 0.958688699,27.4898469 C0.402911769,27.5180896 -0.0257727955,27.9921643 0.00246995225,28.5479412 C0.0629901261,29.748258 0.208238543,30.9465575 0.433171856,32.1075361 C1.00811351,35.0851287 1.46302348,37.4373461 -3.15466578,43.536771 C-3.49055275,43.9805856 -3.40380716,44.61403 -2.95898389,44.9489083 C-2.7764147,45.0870961 -2.56257675,45.1536683 -2.35075614,45.1536683 C-2.04613793,45.1566943 -1.74454573,45.0185065 -1.54583783,44.7562525 M-3.59343704,40.7155222 C-0.763110247,36.5466909 -1.12623129,34.6675395 -1.54583783,32.4928479 C-2.9287238,25.346424 -1.44698821,18.0880379 2.62501082,12.0541765 C6.69801852,6.02031519 12.8751109,1.93621213 20.0185088,0.553326156 C22.8417749,0.000575235332 25.7981854,-0.0982743819 28.7263531,0.287037391 C29.2821301,0.352600913 29.7864648,-0.0296848516 29.8570717,-0.581427103 C29.9296959,-1.13417802 29.5423668,-1.64053015 28.9886072,-1.71315435 C25.8476102,-2.12670887 22.6662664,-2.02079857 19.6342057,-1.4266922 C11.9632736,0.05907807 5.32824525,4.445782 0.953645351,10.926484 C-3.41994588,17.4061772 -5.01162645,25.2021843 -3.52585618,32.877151 C-3.14962243,34.8238833 -2.90148972,36.1079196 -5.26076783,39.5827863 C-5.57446407,40.0437483 -5.45342372,40.6721494 -4.99246173,40.984837 C-4.81897056,41.1028513 -4.62228,41.1593368 -4.4265981,41.1593368 C-4.10584118,41.1583281 -3.78911894,41.0040017 -3.59343704,40.7155222 M54.0015951,42.8579363 C53.9693176,42.8579363 53.9350229,42.855919 53.8977021,42.8539017 C53.3439425,42.7953988 52.9414833,42.3011507 52.9959515,41.7463825 C53.6273786,35.5521427 53.2733356,29.1380129 51.9207097,22.1328028 C50.0526537,12.4858871 43.0918251,4.56077033 33.7545709,1.44902473 C33.2270367,1.27250756 32.9405746,0.701600582 33.1170917,0.173057731 C33.2936089,-0.354476451 33.8604812,-0.641947277 34.3930587,-0.464421434 C44.4182255,2.87629216 51.895493,11.3894633 53.9007281,21.750517 C55.2937008,28.9524177 55.6548045,35.560212 55.0042126,41.9521511 C54.9537791,42.4716159 54.5139992,42.8579363 54.0015951,42.8579363" fill="#EB4E48" mask="url(#mask-13)"></path>
                </g>
            </g>
        </g>
    </g>
</svg>
