<svg width="391" height="377" viewBox="0 0 391 377" fill="none" xmlns="http://www.w3.org/2000/svg">
<path d="M346.169 294.228H49.4932V85.5156H346.169V294.228ZM52.6436 291.074H343.019V88.6688H52.6436V291.074Z" fill="#15265F"/>
<path d="M364.001 312.264H67.3247V103.52H364.001V312.264ZM70.4751 309.111H360.85V106.674H70.4751V309.111Z" fill="#15265F"/>
<path d="M328.212 276.696H31.5044V67.9521H328.18V276.696H328.212ZM34.6548 273.543H325.03V71.1053H34.6548V273.543Z" fill="#F44247"/>
<path d="M251.341 236.807L335.521 256.673C337.569 257.146 339.648 255.884 340.121 253.835L365.103 147.855C365.734 145.238 365.198 142.494 363.654 140.287L332.938 96.4573C332.812 96.2996 332.686 96.1419 332.56 95.9843C330.638 94.0608 327.802 93.3986 325.251 94.2815C325.061 94.3446 324.872 94.4392 324.715 94.5338L278.089 120.106C275.757 121.399 274.087 123.607 273.489 126.192L248.506 232.204C247.97 234.253 249.262 236.303 251.341 236.807C251.31 236.807 251.31 236.807 251.341 236.807Z" fill="#15265F"/>
<path d="M326.7 108.187C328.701 108.187 330.323 106.564 330.323 104.561C330.323 102.558 328.701 100.935 326.7 100.935C324.699 100.935 323.077 102.558 323.077 104.561C323.077 106.564 324.699 108.187 326.7 108.187Z" fill="#DBE6E9"/>
<path fill-rule="evenodd" clip-rule="evenodd" d="M338.482 224.005L333.032 222.681C332.496 222.555 331.961 222.902 331.835 223.438L329.661 232.456C329.535 232.992 329.85 233.56 330.386 233.686L335.836 235.01C336.371 235.136 336.938 234.789 337.033 234.253L339.207 225.235C339.333 224.699 339.018 224.131 338.482 224.005ZM332.748 230.722L333.883 231.006C335.363 231.352 336.403 227.222 334.733 226.843L333.757 226.591L332.748 230.722ZM332.78 225.109L334.985 225.645C338.325 226.465 336.938 232.961 333.442 232.109L331.268 231.573L332.78 225.109Z" fill="white"/>
<path fill-rule="evenodd" clip-rule="evenodd" d="M330.858 221.83L325.439 220.505C324.904 220.379 324.368 220.726 324.242 221.262L321.879 231.069C321.753 231.605 322.069 232.172 322.604 232.298L328.023 233.623C328.558 233.749 329.125 233.402 329.22 232.866L331.583 223.059C331.709 222.523 331.394 221.987 330.858 221.83ZM323.99 229.839L325.534 223.375L329.062 224.226L328.81 225.33L326.385 224.731L326.038 226.307L328.432 226.875L328.18 227.915L325.786 227.348L325.408 228.987L327.802 229.555L327.55 230.659L323.99 229.839Z" fill="white"/>
<path fill-rule="evenodd" clip-rule="evenodd" d="M323.36 219.149L317.942 217.857C317.406 217.73 316.839 218.077 316.744 218.613L314.098 229.587C313.972 230.123 314.287 230.69 314.823 230.816L320.241 232.109C320.777 232.235 321.312 231.888 321.439 231.352L324.085 220.348C324.211 219.843 323.896 219.276 323.36 219.149ZM318.54 228.514L317.311 228.231L318.603 222.87L317.185 222.523L317.469 221.294L321.47 222.271L321.186 223.501L319.832 223.186L318.54 228.514Z" fill="white"/>
<path fill-rule="evenodd" clip-rule="evenodd" d="M315.862 216.564L310.412 215.239C309.876 215.113 309.341 215.46 309.215 215.996L306.033 229.271C305.907 229.807 306.222 230.375 306.757 230.501L312.208 231.825C312.743 231.952 313.31 231.605 313.405 231.069L316.587 217.793C316.713 217.257 316.398 216.721 315.862 216.564ZM311.546 221.577L310.223 224.037L311.609 224.384L311.546 221.577ZM311.2 219.749L312.68 220.095L312.995 227.127L311.704 226.812L311.672 225.645L309.656 225.172L309.026 226.181L307.734 225.866L311.2 219.749Z" fill="white"/>
<path fill-rule="evenodd" clip-rule="evenodd" d="M308.585 212.78L303.229 211.487C302.694 211.361 302.126 211.708 302.032 212.244L297.999 229.019C297.873 229.555 298.188 230.123 298.724 230.249L304.08 231.542C304.615 231.668 305.182 231.321 305.277 230.785L309.309 214.01C309.435 213.474 309.12 212.938 308.585 212.78ZM306.474 220.285L305.371 220.6C305.434 220.032 303.985 218.266 302.788 220.631C301.654 222.839 303.576 224.825 304.678 223.091C304.678 223.091 305.214 223.469 305.623 223.816C305.056 224.92 303.702 225.361 302.599 224.794C302.473 224.731 302.378 224.668 302.252 224.573C299.953 222.681 301.528 218.96 303.135 218.361C304.552 217.825 306.19 218.266 306.474 220.285Z" fill="white"/>
<path fill-rule="evenodd" clip-rule="evenodd" d="M290.974 228.42L296.424 229.744C296.96 229.87 297.495 229.524 297.621 228.987L301.654 212.212C301.78 211.676 301.465 211.14 300.929 210.983L295.479 209.658C294.943 209.532 294.376 209.879 294.282 210.415L290.249 227.19C290.123 227.726 290.438 228.262 290.974 228.42ZM295.542 222.933L294.408 222.649L295.951 216.185L297.086 216.469L295.542 222.933Z" fill="white"/>
<path fill-rule="evenodd" clip-rule="evenodd" d="M283.633 224.983L289.083 226.307C289.619 226.433 290.155 226.087 290.281 225.55L293.494 212.244C293.62 211.708 293.305 211.14 292.769 211.014L287.288 209.69C286.752 209.564 286.185 209.91 286.09 210.446L282.909 223.753C282.783 224.289 283.098 224.857 283.633 224.983ZM286.027 220.663L287.603 214.199L288.737 214.483L287.414 219.938L289.556 220.442L289.304 221.451L286.027 220.663Z" fill="white"/>
<path fill-rule="evenodd" clip-rule="evenodd" d="M276.293 221.609L281.806 222.933C282.342 223.059 282.877 222.713 283.003 222.176L285.65 211.172C285.776 210.636 285.461 210.068 284.925 209.942L279.443 208.618C278.908 208.491 278.341 208.838 278.246 209.374L275.6 220.379C275.442 220.915 275.757 221.451 276.293 221.609ZM279.916 215.523L280.955 215.775C281.995 216.028 282.468 214.167 281.397 213.915L280.357 213.663L279.916 215.523ZM279.475 212.212L282.184 212.874C284.452 213.789 283.413 218.109 279.632 216.753L279.097 218.96L277.9 218.676L279.475 212.212Z" fill="white"/>
<path fill-rule="evenodd" clip-rule="evenodd" d="M268.763 219.37L274.119 220.663C274.655 220.789 275.222 220.442 275.316 219.875L277.679 210.068C277.805 209.532 277.49 208.964 276.954 208.838L271.599 207.546C271.063 207.419 270.496 207.766 270.401 208.302L268.039 218.109C267.913 218.676 268.228 219.244 268.763 219.37ZM270.149 216.879L271.693 210.415L275.19 211.266L274.938 212.37L272.512 211.771L272.166 213.347L274.56 213.915L274.308 214.956L271.914 214.388L271.536 216.028L273.93 216.595L273.678 217.699L270.149 216.879Z" fill="white"/>
<path fill-rule="evenodd" clip-rule="evenodd" d="M261.076 217.194L266.621 218.519C267.157 218.645 267.724 218.298 267.818 217.73L269.992 208.712C270.118 208.176 269.803 207.609 269.267 207.482L263.723 206.158C263.187 206.032 262.62 206.379 262.525 206.946L260.352 215.965C260.226 216.501 260.541 217.037 261.076 217.194ZM264.384 211.897L265.424 212.149C266.463 212.401 266.842 210.541 265.865 210.32L264.825 210.068L264.384 211.897ZM266.369 209.185C268.574 209.721 267.692 213.221 266.054 213.316L266.653 216.154L265.172 215.807L264.794 213.221L264.101 213.064L263.534 215.397L262.242 215.082L263.817 208.586L266.369 209.185Z" fill="white"/>
<path d="M325.062 104.593V69.6864C325.062 68.8665 325.723 68.2043 326.542 68.2043H326.7C327.519 68.2043 328.18 68.8665 328.18 69.6864V104.593C328.18 105.412 327.519 106.075 326.7 106.075H326.542C325.723 106.075 325.062 105.412 325.062 104.593Z" fill="#F44247"/>
</svg>
