<svg width="101" height="122" viewBox="0 0 101 122" fill="none" xmlns="http://www.w3.org/2000/svg">
<path d="M90.5255 114.154H10.2598V48.7619H11.7995V112.614H88.9858V19.23L78.9776 11.2081L79.9476 10.0071L90.5255 18.4909V114.154Z" fill="#15265F"/>
<path d="M11.7995 50.7328H10.2598V8.11328H67.9224V9.653H11.7995V50.7328Z" fill="#15265F"/>
<path d="M100.087 121.714H19.8213V15.6733H87.0302L100.072 26.0357V121.714H100.087ZM21.361 120.174H98.5319V26.7901L86.5067 17.2131H21.3764V120.174H21.361Z" fill="#15265F"/>
<path d="M80.9791 106.517H0.713379V0.476318H67.9222L80.9637 10.8386V106.517H80.9791ZM2.2531 104.977H79.4394V11.5777L67.3987 2.00064H2.26849V104.977H2.2531Z" fill="#F44247"/>
<path d="M56.3436 80.8959H43.6101V48.5618H56.3436V80.8959ZM45.1498 79.3562H54.8039V50.1015H45.1498V79.3562Z" fill="#F44247"/>
<path d="M72.8959 80.6649H60.1624V41.6946H72.8959V80.6649ZM61.7021 79.1252H71.3561V43.2343H61.7021V79.1252Z" fill="#F44247"/>
<path d="M40.2225 81.0345H27.489V54.7515H40.2225V81.0345ZM29.0287 79.4948H38.6828V56.2912H29.0287V79.4948Z" fill="#F44247"/>
<path d="M80.2554 12.3322H67.1523V1.12305H68.6921V10.7925H80.2554V12.3322Z" fill="#F44247"/>
</svg>
