<svg width="81" height="107" viewBox="0 0 81 107" fill="none" xmlns="http://www.w3.org/2000/svg">
<path d="M80.8304 106.222H0.564697V0.181274H67.7736L80.815 10.5436V106.222H80.8304ZM2.10442 104.682H79.2907V11.2827L67.2501 1.7056H2.11981V104.682H2.10442Z" fill="#11172B"/>
<path d="M46.8486 72.7331H34.1151V40.3989H46.8486V72.7331ZM35.6548 71.1934H45.3089V41.9386H35.6548V71.1934Z" fill="#11172B"/>
<path d="M63.4009 72.502H50.6674V33.5316H63.4009V72.502ZM52.2071 70.9623H61.8612V35.0713H52.2071V70.9623Z" fill="#11172B"/>
<path d="M30.7277 72.8717H17.9942V46.5886H30.7277V72.8717ZM19.5339 71.332H29.188V48.1283H19.5339V71.332Z" fill="#11172B"/>
<path d="M80.1067 12.0371H67.0037V0.827881H68.5434V10.4973H80.1067V12.0371Z" fill="#11172B"/>
</svg>
