<?xml version="1.0" encoding="utf-8"?>
<!-- Generator: Adobe Illustrator 25.2.3, SVG Export Plug-In . SVG Version: 6.00 Build 0)  -->
<svg version="1.1" id="Layer_1" xmlns="http://www.w3.org/2000/svg" xmlns:xlink="http://www.w3.org/1999/xlink" x="0px" y="0px"
	 viewBox="0 0 1241.1 1195.6" style="enable-background:new 0 0 1241.1 1195.6;" xml:space="preserve">
<style type="text/css">
	.st0{fill:#15265F;}
	.st1{fill:#FFFFFF;}
</style>
<path class="st0" d="M889.1,1006.8H347c-80.4,0-145.7-65.4-145.7-145.7V319c0-80.4,65.4-145.7,145.7-145.7h542.1
	c80.4,0,145.7,65.4,145.7,145.7v542.1C1034.8,941.4,969.4,1006.8,889.1,1006.8z M347,183.3c-74.8,0-135.7,60.9-135.7,135.7v542.1
	c0,74.8,60.9,135.7,135.7,135.7h542.1c74.8,0,135.7-60.9,135.7-135.7V319c0-74.8-60.9-135.7-135.7-135.7H347z"/>
<path class="st0" d="M945,1062.7H402.9c-80.4,0-145.7-65.4-145.7-145.7V374.9c0-80.4,65.4-145.7,145.7-145.7H945
	c80.4,0,145.7,65.4,145.7,145.7V917C1090.7,997.3,1025.3,1062.7,945,1062.7z M402.9,239.2c-74.8,0-135.7,60.9-135.7,135.7V917
	c0,74.8,60.9,135.7,135.7,135.7H945c74.8,0,135.7-60.9,135.7-135.7V374.9c0-74.8-60.9-135.7-135.7-135.7H402.9z"/>
<path class="st1" d="M836.2,950.2H294.2c-80.4,0-145.7-65.4-145.7-145.7V262.4c0-80.4,65.4-145.7,145.7-145.7h542.1
	c80.4,0,145.7,65.4,145.7,145.7v542.1C982,884.8,916.6,950.2,836.2,950.2z M294.2,126.7c-74.8,0-135.7,60.9-135.7,135.7v542.1
	c0,74.8,60.9,135.7,135.7,135.7h542.1c74.8,0,135.7-60.9,135.7-135.7V262.4c0-74.8-60.9-135.7-135.7-135.7H294.2z"/>
</svg>
