<svg width="136" height="96" viewBox="0 0 136 96" fill="none" xmlns="http://www.w3.org/2000/svg">
<path d="M131.611 95.5356H3.69375C1.72888 95.5356 0.122559 93.9337 0.122559 91.9742V4.42899C0.122559 2.46955 1.72888 0.867676 3.69375 0.867676H131.611C133.576 0.867676 135.182 2.46955 135.182 4.42899V91.9742C135.182 93.9337 133.576 95.5356 131.611 95.5356ZM3.69375 2.28362C2.51769 2.28362 1.55677 3.24188 1.55677 4.41468V91.9599C1.55677 93.1327 2.51769 94.091 3.69375 94.091H131.611C132.787 94.091 133.748 93.1327 133.748 91.9599V4.42899C133.748 3.25619 132.787 2.29792 131.611 2.29792H3.69375V2.28362Z" fill="#11172B"/>
<path d="M62.0376 80.2319H60.6034V64.3562C60.6034 60.2085 57.4194 56.8331 53.4897 56.8331H23.3426C19.4272 56.8331 16.2289 60.2085 16.2289 64.3562V80.1318H14.7947V64.3562C14.7947 59.4218 18.624 55.4028 23.3426 55.4028H53.4897C58.1939 55.4028 62.0376 59.4218 62.0376 64.3562V80.2319Z" fill="#11172B"/>
<path d="M38.2869 53.7866C31.7325 53.7866 26.4116 48.4661 26.4116 41.9442C26.4116 35.4223 31.7469 30.1018 38.2869 30.1018C44.8269 30.1018 50.1622 35.4223 50.1622 41.9442C50.1622 48.4661 44.8412 53.7866 38.2869 53.7866ZM38.2869 31.5177C32.5214 31.5177 27.8458 36.1946 27.8458 41.9299C27.8458 47.6652 32.5357 52.3421 38.2869 52.3421C44.0381 52.3421 48.728 47.6652 48.728 41.9299C48.728 36.1946 44.0524 31.5177 38.2869 31.5177Z" fill="#11172B"/>
<path d="M68.5918 81.0042H8.2832V14.9841H68.5918V81.0042ZM9.71741 79.574H67.1576V16.4144H9.71741V79.574Z" fill="#11172B"/>
<path d="M122.231 30.0875H78.2871V31.7609H122.231V30.0875Z" fill="#11172B"/>
<path d="M115.132 38.9407H78.2871V40.6141H115.132V38.9407Z" fill="#11172B"/>
<path d="M122.231 47.8083H78.2871V49.4817H122.231V47.8083Z" fill="#11172B"/>
<path d="M111.546 56.6615H78.2871V58.3349H111.546V56.6615Z" fill="#11172B"/>
</svg>
