<svg width="153" height="112" viewBox="0 0 153 112" fill="none" xmlns="http://www.w3.org/2000/svg">
<path d="M140.731 103.397H12.3113C10.4755 103.397 8.98389 101.91 8.98389 100.079V94.5155H10.4181V100.079C10.4181 101.123 11.2643 101.967 12.3113 101.967H140.731C141.778 101.967 142.624 101.123 142.624 100.079V12.0477C142.624 11.0036 141.778 10.1597 140.731 10.1597H135.209V8.72949H140.731C142.566 8.72949 144.058 10.2169 144.058 12.0477V100.093C144.044 101.924 142.566 103.397 140.731 103.397Z" fill="#15265F"/>
<path d="M148.647 111.578H20.6297C18.6935 111.578 17.1016 110.005 17.1016 108.074V102.797H18.5358V108.074C18.5358 109.219 19.468 110.148 20.6297 110.148H148.647C149.207 110.148 149.737 109.934 150.125 109.533C150.512 109.133 150.741 108.618 150.741 108.06V20.4146C150.741 19.2704 149.809 18.3408 148.662 18.3408H143.384V16.9105H148.662C150.598 16.9105 152.176 18.4838 152.176 20.4146V108.06C152.176 109.004 151.817 109.876 151.143 110.549C150.469 111.207 149.594 111.578 148.647 111.578Z" fill="#15265F"/>
<path d="M132.297 95.4452H4.38003C2.41516 95.4452 0.808838 93.8433 0.808838 91.8839V4.33865C0.808838 2.37922 2.41516 0.777344 4.38003 0.777344H132.297C134.262 0.777344 135.869 2.37922 135.869 4.33865V91.8839C135.869 93.8433 134.262 95.4452 132.297 95.4452ZM4.38003 2.19328C3.20397 2.19328 2.24305 3.15155 2.24305 4.32435V91.8696C2.24305 93.0424 3.20397 94.0007 4.38003 94.0007H132.297C133.473 94.0007 134.434 93.0424 134.434 91.8696V4.33865C134.434 3.16585 133.473 2.20759 132.297 2.20759H4.38003V2.19328Z" fill="#F44247"/>
<path d="M62.7239 80.1416H61.2897V64.2659C61.2897 60.1182 58.1057 56.7428 54.176 56.7428H24.0289C20.1135 56.7428 16.9152 60.1182 16.9152 64.2659V80.0415H15.481V64.2659C15.481 59.3316 19.3103 55.3126 24.0289 55.3126H54.176C58.8802 55.3126 62.7239 59.3316 62.7239 64.2659V80.1416Z" fill="#F44247"/>
<path d="M38.9732 53.6964C32.4188 53.6964 27.0979 48.3759 27.0979 41.8539C27.0979 35.332 32.4332 30.0115 38.9732 30.0115C45.5132 30.0115 50.8484 35.332 50.8484 41.8539C50.8484 48.3759 45.5275 53.6964 38.9732 53.6964ZM38.9732 31.4275C33.2076 31.4275 28.5321 36.1044 28.5321 41.8396C28.5321 47.5749 33.222 52.2518 38.9732 52.2518C44.7244 52.2518 49.4142 47.5749 49.4142 41.8396C49.4142 36.1044 44.7387 31.4275 38.9732 31.4275Z" fill="#F44247"/>
<path d="M69.2781 80.9139H8.96948V14.8939H69.2781V80.9139ZM10.4037 79.4837H67.8439V16.3241H10.4037V79.4837Z" fill="#F44247"/>
<path d="M122.918 29.9972H78.9734V31.6706H122.918V29.9972Z" fill="#F44247"/>
<path d="M115.818 38.8504H78.9734V40.5238H115.818V38.8504Z" fill="#F44247"/>
<path d="M122.918 47.718H78.9734V49.3913H122.918V47.718Z" fill="#F44247"/>
<path d="M112.233 56.5712H78.9734V58.2445H112.233V56.5712Z" fill="#F44247"/>
</svg>
