<svg width="86" height="101" viewBox="0 0 86 101" fill="none" xmlns="http://www.w3.org/2000/svg">
<path d="M42.96 100.292C42.0932 100.292 41.2264 100.094 40.4252 99.7104C40.3333 99.6708 30.6013 94.953 20.7249 86.6142C14.8805 81.685 10.205 76.5311 6.85596 71.3111C2.37743 64.3335 0.118469 57.237 0.118469 50.2066V14.5522L40.9243 0.438402C42.1588 0.00230334 43.5247 0.00230334 44.7724 0.438402L85.6176 14.42V50.2066C85.6176 57.422 83.3849 64.5582 78.9852 71.4301C75.5836 76.7425 70.9344 81.8964 65.1687 86.7464C55.358 94.9926 45.5473 99.684 45.4422 99.7368C44.6542 100.107 43.8137 100.292 42.96 100.292ZM1.41869 15.4904V50.1933C1.41869 56.9727 3.61198 63.8314 7.94604 70.5843C11.2294 75.6985 15.813 80.7467 21.5655 85.5967C31.3237 93.8297 40.898 98.4682 40.99 98.5211C42.2245 99.1157 43.6561 99.129 44.8906 98.5343C44.9825 98.4946 54.6488 93.8561 64.3282 85.7288C69.9888 80.9714 74.5461 75.9232 77.882 70.7164C82.1504 64.056 84.3043 57.1577 84.3043 50.2066V15.3715L44.339 1.69384C43.3803 1.35025 42.3164 1.35025 41.3577 1.69384L1.41869 15.4904Z" fill="#11172B"/>
</svg>
