<?xml version="1.0" encoding="UTF-8" standalone="no"?>
<svg width="700px" height="306px" viewBox="0 0 700 306" version="1.1" xmlns="http://www.w3.org/2000/svg" xmlns:xlink="http://www.w3.org/1999/xlink">
    <!-- Generator: Sketch 39.1 (31720) - http://www.bohemiancoding.com/sketch -->
    <title>Single Sign On</title>
    <desc>Created with Sketch.</desc>
    <defs>
        <rect id="path-1" x="258" y="58" width="250" height="172" rx="3"></rect>
        <mask id="mask-2" maskContentUnits="userSpaceOnUse" maskUnits="objectBoundingBox" x="0" y="0" width="250" height="172" fill="white">
            <use xlink:href="#path-1"></use>
        </mask>
        <rect id="path-3" x="248" y="68" width="250" height="172" rx="3"></rect>
        <mask id="mask-4" maskContentUnits="userSpaceOnUse" maskUnits="objectBoundingBox" x="0" y="0" width="250" height="172" fill="white">
            <use xlink:href="#path-3"></use>
        </mask>
        <rect id="path-5" x="238" y="78" width="250" height="172" rx="3"></rect>
        <mask id="mask-6" maskContentUnits="userSpaceOnUse" maskUnits="objectBoundingBox" x="0" y="0" width="250" height="172" fill="white">
            <use xlink:href="#path-5"></use>
        </mask>
        <rect id="path-7" x="228" y="88" width="250" height="172" rx="3"></rect>
        <mask id="mask-8" maskContentUnits="userSpaceOnUse" maskUnits="objectBoundingBox" x="0" y="0" width="250" height="172" fill="white">
            <use xlink:href="#path-7"></use>
        </mask>
        <rect id="path-9" x="283" y="99" width="140" height="172" rx="3"></rect>
        <mask id="mask-10" maskContentUnits="userSpaceOnUse" maskUnits="objectBoundingBox" x="0" y="0" width="140" height="172" fill="white">
            <use xlink:href="#path-9"></use>
        </mask>
        <circle id="path-11" cx="25" cy="25" r="25"></circle>
        <mask id="mask-13" maskContentUnits="userSpaceOnUse" maskUnits="objectBoundingBox" x="-6" y="-6" width="62" height="62">
            <rect x="-6" y="-6" width="62" height="62" fill="white"></rect>
            <use xlink:href="#path-11" fill="black"></use>
        </mask>
        <mask id="mask-14" maskContentUnits="userSpaceOnUse" maskUnits="objectBoundingBox" x="-5" y="-5" width="60" height="60">
            <rect x="-5" y="-5" width="60" height="60" fill="white"></rect>
            <use xlink:href="#path-11" fill="black"></use>
        </mask>
        <rect id="path-15" x="0" y="0" width="86" height="25" rx="2"></rect>
        <mask id="mask-16" maskContentUnits="userSpaceOnUse" maskUnits="objectBoundingBox" x="0" y="0" width="86" height="25" fill="white">
            <use xlink:href="#path-15"></use>
        </mask>
        <rect id="path-17" x="0" y="0" width="86" height="25" rx="2"></rect>
        <mask id="mask-18" maskContentUnits="userSpaceOnUse" maskUnits="objectBoundingBox" x="0" y="0" width="86" height="25" fill="white">
            <use xlink:href="#path-17"></use>
        </mask>
    </defs>
    <g id="Page-1" stroke="none" stroke-width="1" fill="none" fill-rule="evenodd">
        <g id="Single-Sign-On">
            <g id="Browser">
                <rect id="Rectangle-8" fill="#DEDEDE" x="0" y="0" width="700" height="306" rx="3"></rect>
                <g id="Browser-Top" transform="translate(13.000000, 11.000000)">
                    <circle id="Oval-1" fill="#F76461" cx="3.5" cy="7.5" r="3.5"></circle>
                    <circle id="Oval-1" fill="#FDBC4F" cx="13.5" cy="7.5" r="3.5"></circle>
                    <circle id="Oval-1" fill="#40C754" cx="23.5" cy="7.5" r="3.5"></circle>
                    <rect id="Search-Bar" fill="#FFFFFF" x="137" y="0" width="400" height="15" rx="3"></rect>
                    <text id="http://enterpriserea" font-family="Roboto, sans-serif" font-size="8" font-weight="300" fill="#85828E">
                        <tspan x="297.9" y="11">http://enterpriseready.io</tspan>
                    </text>
                </g>
                <g id="Background" transform="translate(0.000000, 35.000000)">
                    <rect id="Rectangle-2" fill="#FFFFFF" x="5" y="0" width="690" height="271"></rect>
                    <rect id="Rectangle-2" fill="#F4F4F4" x="695" y="0" width="5" height="271"></rect>
                    <rect id="Rectangle-2" fill="#F4F4F4" x="0" y="0" width="5" height="271"></rect>
                </g>
            </g>
            <use id="Rectangle-10" stroke="#CCCCCC" mask="url(#mask-2)" stroke-width="2" fill="#FFFFFF" xlink:href="#path-1"></use>
            <use id="Rectangle-10" stroke="#CCCCCC" mask="url(#mask-4)" stroke-width="2" fill="#FFFFFF" xlink:href="#path-3"></use>
            <use id="Rectangle-10" stroke="#CCCCCC" mask="url(#mask-6)" stroke-width="2" fill="#FFFFFF" xlink:href="#path-5"></use>
            <use id="Rectangle-10" stroke="#CCCCCC" mask="url(#mask-8)" stroke-width="2" fill="#FFFFFF" xlink:href="#path-7"></use>
            <use id="Rectangle-10" stroke="#CCCCCC" mask="url(#mask-10)" stroke-width="2" fill="#F2F2F2" xlink:href="#path-9"></use>
            <g id="Group-17" transform="translate(238.000000, 98.000000)">
                <circle id="Oval-1" fill="#F76461" cx="3.5" cy="3.5" r="3.5"></circle>
                <circle id="Oval-1" fill="#FDBC4F" cx="13.5" cy="3.5" r="3.5"></circle>
                <circle id="Oval-1" fill="#40C754" cx="23.5" cy="3.5" r="3.5"></circle>
            </g>
            <g id="Group-9" transform="translate(328.000000, 130.000000)">
                <g id="Fill-14">
                    <mask id="mask-12" fill="white">
                        <use xlink:href="#path-11"></use>
                    </mask>
                    <g id="Mask">
                        <use fill="#EB4E48" fill-rule="evenodd" xlink:href="#path-11"></use>
                        <use stroke="#CCCCCC" mask="url(#mask-13)" stroke-width="12" xlink:href="#path-11"></use>
                        <use stroke="#FFFFFF" mask="url(#mask-14)" stroke-width="10" xlink:href="#path-11"></use>
                    </g>
                    <path d="M44,45.5908333 L44,50 L7,50 L7,45.5908333 L19.3333333,37.6666667 L19.3333333,34.5833333 C18.5727778,34.5833333 17.8697778,33.8176389 17.2222778,32.28625 C16.57375,30.7548611 16.25,29.465 16.25,28.4166667 L16.25,22.25 C16.25,19.7021389 17.1544444,17.5222222 18.9643611,15.7133333 C20.77325,13.9044444 22.9511111,13 25.5,13 C28.0488889,13 30.2277778,13.9044444 32.0366667,15.7133333 C33.8455556,17.5222222 34.75,19.7021389 34.75,22.25 L34.75,28.4166667 C34.75,29.465 34.4272778,30.7548611 33.77875,32.28625 C33.13125,33.8176389 32.42825,34.5833333 31.6666667,34.5833333 L31.6666667,37.6666667 L44,45.5908333" fill="#FFFFFF" mask="url(#mask-12)"></path>
                </g>
            </g>
            <g id="Dynamic-group" transform="translate(310.000000, 196.000000)" stroke="#CCCCCC" stroke-width="2" fill="#FFFFFF">
                <use id="BG" mask="url(#mask-16)" xlink:href="#path-15"></use>
            </g>
            <g id="Dynamic-group" transform="translate(310.000000, 226.000000)">
                <use id="BG" stroke="#CCCCCC" mask="url(#mask-18)" stroke-width="2" fill="#EEEEEE" xlink:href="#path-17"></use>
                <text id="8:8" font-family="Roboto, sans-serif" font-size="8" font-weight="400" fill="#222222">
                    <tspan x="31.2226562" y="15">Sign In</tspan>
                </text>
            </g>
        </g>
    </g>
</svg>
