<svg width="107" height="134" viewBox="0 0 107 134" fill="none" xmlns="http://www.w3.org/2000/svg">
<path d="M0.0935755 116.077L6.47059 100.182L7.6744 100.662L2.2958 114.052L16.1123 109.873L90.2438 40.4663L86.1141 36.057L87.0565 35.1625L92.0873 40.5311L91.6017 40.9796L16.7849 111.02L16.631 111.056L0.0935755 116.077Z" fill="#15265F"/>
<path d="M5.95222 101.413L12.3413 85.5226L13.5451 86.0024L8.15444 99.3876L21.9757 95.1964L96.1144 25.8069L91.9775 21.3808L92.9272 20.5032L97.9459 25.867L97.4771 26.3082L22.6436 96.3558L5.95222 101.413Z" fill="#15265F"/>
<path d="M13.2567 85.3573L12.3103 86.2431L21.6857 96.2657L22.6321 95.3798L13.2567 85.3573Z" fill="#172859"/>
<path d="M7.64854 100.007L6.70215 100.893L16.0775 110.916L17.0239 110.03L7.64854 100.007Z" fill="#172859"/>
<path d="M19.6417 70.1214L18.6953 71.0073L28.0706 81.0299L29.017 80.144L19.6417 70.1214Z" fill="#F44247"/>
<path d="M11.9359 86.5054L18.3777 70.4827L18.4859 70.3863L93.6752 0.00593893L103.925 10.9716L103.456 11.4128L28.6152 81.4436L11.9359 86.5054ZM19.4591 71.2347L14.1381 84.4802L27.9545 80.301L102.086 10.8947L93.5954 1.81638L19.4591 71.2347Z" fill="#F44247"/>
</svg>
