<svg width="150" height="110" viewBox="0 0 150 110" fill="none" xmlns="http://www.w3.org/2000/svg">
<path d="M141.669 101.672H8.88599V8.11182H141.669V101.672ZM10.296 100.259H140.259V9.52533H10.296V100.259Z" fill="#15265F"/>
<path d="M149.664 109.758H16.8669V16.1829H149.65V109.758H149.664ZM18.277 108.344H148.24V17.5964H18.277V108.344Z" fill="#15265F"/>
<path d="M133.632 93.7992H0.848877V0.238525H133.632V93.7992ZM2.25892 92.3856H132.222V1.65204H2.25892V92.3856Z" fill="#F44247"/>
<path d="M52.6678 36.071H41.1055V24.4802H52.6678V36.071ZM42.5155 34.6575H51.2577V25.8937H42.5155V34.6575Z" fill="#15265F"/>
<path d="M66.8951 36.071H55.3328V24.4802H66.8951V36.071ZM56.7428 34.6575H65.485V25.8937H56.7428V34.6575Z" fill="#15265F"/>
<path d="M81.2069 36.071H69.6445V24.4802H81.2069V36.071ZM71.0546 34.6575H79.7968V25.8937H71.0546V34.6575Z" fill="#15265F"/>
<path d="M95.4344 36.071H83.8721V24.4802H95.4344V36.071ZM85.2821 34.6575H94.0243V25.8937H85.2821V34.6575Z" fill="#15265F"/>
<path d="M109.746 36.071H98.1838V24.4802H109.746V36.071ZM99.5939 34.6575H108.336V25.8937H99.5939V34.6575Z" fill="#15265F"/>
<path d="M123.973 36.071H112.411V24.4802H123.973V36.071ZM113.821 34.6575H122.563V25.8937H113.821V34.6575Z" fill="#15265F"/>
<path d="M52.7664 52.0862H41.2041V40.4954H52.7664V52.0862ZM42.6141 50.6727H51.3564V41.9089H42.6141V50.6727Z" fill="#15265F"/>
<path d="M66.9937 52.0862H55.4314V40.4954H66.9937V52.0862ZM56.8414 50.6727H65.5837V41.9089H56.8414V50.6727Z" fill="#15265F"/>
<path d="M81.3057 52.0862H69.7434V40.4954H81.3057V52.0862ZM71.1534 50.6727H79.8957V41.9089H71.1534V50.6727Z" fill="#F44247"/>
<path d="M95.533 52.0862H83.9707V40.4954H95.533V52.0862ZM85.3807 50.6727H94.123V41.9089H85.3807V50.6727Z" fill="#F44247"/>
<path d="M109.845 52.0862H98.2825V40.4954H109.845V52.0862ZM99.6925 50.6727H108.435V41.9089H99.6925V50.6727Z" fill="#15265F"/>
<path d="M124.072 52.0862H112.51V40.4954H124.072V52.0862ZM113.92 50.6727H122.662V41.9089H113.92V50.6727Z" fill="#15265F"/>
<path d="M38.3699 52.0862H26.8076V40.4954H38.3699V52.0862ZM28.2177 50.6727H36.9599V41.9089H28.2177V50.6727Z" fill="#15265F"/>
<path d="M52.7664 68.0872H41.2041V56.4963H52.7664V68.0872ZM42.6141 66.6737H51.3564V57.9099H42.6141V66.6737Z" fill="#15265F"/>
<path d="M66.9937 68.0872H55.4314V56.4963H66.9937V68.0872ZM56.8414 66.6737H65.5837V57.9099H56.8414V66.6737Z" fill="#15265F"/>
<path d="M81.3057 68.0872H69.7434V56.4963H81.3057V68.0872ZM71.1534 66.6737H79.8957V57.9099H71.1534V66.6737Z" fill="#15265F"/>
<path d="M95.533 68.0872H83.9707V56.4963H95.533V68.0872ZM85.3807 66.6737H94.123V57.9099H85.3807V66.6737Z" fill="#15265F"/>
<path d="M109.845 68.0872H98.2825V56.4963H109.845V68.0872ZM99.6925 66.6737H108.435V57.9099H99.6925V66.6737Z" fill="#15265F"/>
<path d="M124.072 68.0872H112.51V56.4963H124.072V68.0872ZM113.92 66.6737H122.662V57.9099H113.92V66.6737Z" fill="#15265F"/>
<path d="M38.3699 68.0872H26.8076V56.4963H38.3699V68.0872ZM28.2177 66.6737H36.9599V57.9099H28.2177V66.6737Z" fill="#F44247"/>
<path d="M52.7664 84.1023H41.2041V72.5115H52.7664V84.1023ZM42.6141 82.6888H51.3564V73.925H42.6141V82.6888Z" fill="#F44247"/>
<path d="M66.9937 84.1023H55.4314V72.5115H66.9937V84.1023ZM56.8414 82.6888H65.5837V73.925H56.8414V82.6888Z" fill="#F44247"/>
<path d="M81.3057 84.1023H69.7434V72.5115H81.3057V84.1023ZM71.1534 82.6888H79.8957V73.925H71.1534V82.6888Z" fill="#15265F"/>
<path d="M95.533 84.1023H83.9707V72.5115H95.533V84.1023ZM85.3807 82.6888H94.123V73.925H85.3807V82.6888Z" fill="#15265F"/>
<path d="M38.3699 84.1023H26.8076V72.5115H38.3699V84.1023ZM28.2177 82.6888H36.9599V73.925H28.2177V82.6888Z" fill="#15265F"/>
</svg>
