<svg width="134" height="94" viewBox="0 0 134 94" fill="none" xmlns="http://www.w3.org/2000/svg">
<path d="M133.614 93.9819H0.830414V0.421265H133.614V93.9819ZM2.24045 92.5684H132.204V1.83478H2.24045V92.5684Z" fill="#11172B"/>
<path d="M44.45 28.9813H32.8877V17.3905H44.45V28.9813ZM34.2978 27.5678H43.04V18.804H34.2978V27.5678Z" fill="#15265F"/>
<path d="M58.6773 28.9813H47.115V17.3905H58.6773V28.9813ZM48.5251 27.5678H57.2673V18.804H48.5251V27.5678Z" fill="#15265F"/>
<path d="M72.9891 28.9813H61.4268V17.3905H72.9891V28.9813ZM62.8368 27.5678H71.5791V18.804H62.8368V27.5678Z" fill="#15265F"/>
<path d="M87.2166 28.9813H75.6543V17.3905H87.2166V28.9813ZM77.0644 27.5678H85.8066V18.804H77.0644V27.5678Z" fill="#15265F"/>
<path d="M101.528 28.9813H89.9661V17.3905H101.528V28.9813ZM91.3761 27.5678H100.118V18.804H91.3761V27.5678Z" fill="#15265F"/>
<path d="M115.756 28.9813H104.193V17.3905H115.756V28.9813ZM105.603 27.5678H114.346V18.804H105.603V27.5678Z" fill="#15265F"/>
<path d="M44.5487 44.9965H32.9864V33.4056H44.5487V44.9965ZM34.3964 43.583H43.1386V34.8192H34.3964V43.583Z" fill="#15265F"/>
<path d="M58.776 44.9965H47.2137V33.4056H58.776V44.9965ZM48.6237 43.583H57.3659V34.8192H48.6237V43.583Z" fill="#15265F"/>
<path d="M73.088 44.9965H61.5257V33.4056H73.088V44.9965ZM62.9357 43.583H71.678V34.8192H62.9357V43.583Z" fill="#11172B"/>
<path d="M87.3153 44.9965H75.753V33.4056H87.3153V44.9965ZM77.163 43.583H85.9053V34.8192H77.163V43.583Z" fill="#11172B"/>
<path d="M101.627 44.9965H90.0647V33.4056H101.627V44.9965ZM91.4748 43.583H100.217V34.8192H91.4748V43.583Z" fill="#15265F"/>
<path d="M115.854 44.9965H104.292V33.4056H115.854V44.9965ZM105.702 43.583H114.444V34.8192H105.702V43.583Z" fill="#15265F"/>
<path d="M30.1522 44.9965H18.5899V33.4056H30.1522V44.9965ZM19.9999 43.583H28.7422V34.8192H19.9999V43.583Z" fill="#15265F"/>
<path d="M44.5487 60.9974H32.9864V49.4066H44.5487V60.9974ZM34.3964 59.5839H43.1386V50.8201H34.3964V59.5839Z" fill="#15265F"/>
<path d="M58.776 60.9974H47.2137V49.4066H58.776V60.9974ZM48.6237 59.5839H57.3659V50.8201H48.6237V59.5839Z" fill="#15265F"/>
<path d="M73.088 60.9974H61.5257V49.4066H73.088V60.9974ZM62.9357 59.5839H71.678V50.8201H62.9357V59.5839Z" fill="#15265F"/>
<path d="M87.3153 60.9974H75.753V49.4066H87.3153V60.9974ZM77.163 59.5839H85.9053V50.8201H77.163V59.5839Z" fill="#15265F"/>
<path d="M101.627 60.9974H90.0647V49.4066H101.627V60.9974ZM91.4748 59.5839H100.217V50.8201H91.4748V59.5839Z" fill="#15265F"/>
<path d="M115.854 60.9974H104.292V49.4066H115.854V60.9974ZM105.702 59.5839H114.444V50.8201H105.702V59.5839Z" fill="#15265F"/>
<path d="M30.1522 60.9974H18.5899V49.4066H30.1522V60.9974ZM19.9999 59.5839H28.7422V50.8201H19.9999V59.5839Z" fill="#11172B"/>
<path d="M44.5487 77.0126H32.9864V65.4218H44.5487V77.0126ZM34.3964 75.5991H43.1386V66.8353H34.3964V75.5991Z" fill="#11172B"/>
<path d="M58.776 77.0126H47.2137V65.4218H58.776V77.0126ZM48.6237 75.5991H57.3659V66.8353H48.6237V75.5991Z" fill="#11172B"/>
<path d="M73.088 77.0126H61.5257V65.4218H73.088V77.0126ZM62.9357 75.5991H71.678V66.8353H62.9357V75.5991Z" fill="#15265F"/>
<path d="M87.3153 77.0126H75.753V65.4218H87.3153V77.0126ZM77.163 75.5991H85.9053V66.8353H77.163V75.5991Z" fill="#15265F"/>
<path d="M30.1522 77.0126H18.5899V65.4218H30.1522V77.0126ZM19.9999 75.5991H28.7422V66.8353H19.9999V75.5991Z" fill="#15265F"/>
</svg>
