<svg width="123" height="38" viewBox="0 0 123 38" fill="none" xmlns="http://www.w3.org/2000/svg">
<g clip-path="url(#clip0)">
<path d="M44.0395 15.0822C44.0395 11.459 46.6755 8.93147 51.471 8.93147C54.394 8.93147 56.7869 9.8665 58.0855 10.782C58.2703 10.9135 58.601 11.2301 58.4016 11.8193C58.1487 12.4524 57.6818 13.4118 57.3462 14.0303C57.1517 14.3907 56.6556 14.342 56.3978 14.2153C55.4737 13.7478 53.9612 12.954 52.5702 12.8079C52.22 12.769 51.865 12.7544 51.5099 12.7641C50.2843 12.7933 49.2629 13.217 48.8982 14.152C48.8252 14.3273 48.7863 14.5173 48.7814 14.7072C48.7474 15.9393 50.4642 16.3873 52.541 16.7428C56.4027 17.4051 59.3257 18.5398 59.3257 22.5186C59.3257 25.8983 56.6459 28.9517 51.3883 28.8592C47.9255 28.791 45.4645 27.6174 44.1465 26.4778C44.1027 26.4388 43.6017 25.9275 43.8692 25.3139C44.1756 24.5201 44.696 23.6143 45.1046 23.1322C45.3332 22.8205 45.9265 22.7718 46.2378 22.9666C47.3224 23.6435 49.1122 24.7246 51.1695 24.7977C51.33 24.8025 51.4953 24.8025 51.651 24.8025C53.504 24.7587 54.6226 24.0526 54.6031 22.8692C54.5837 21.827 53.1149 21.2134 50.7755 20.7751C47.0403 20.0739 44.0395 18.8418 44.0395 15.0822ZM77.9289 20.2394C75.2977 20.2735 72.8854 20.9943 72.8173 23.0542C72.8173 24.6857 74.1402 25.4892 75.998 25.3869C77.7781 25.2165 79.1399 24.4422 79.7381 23.4146C79.9619 23.0348 79.991 21.6079 79.9813 21.004C79.9765 20.8725 79.7236 20.629 79.6117 20.5803C79.0475 20.3417 78.6341 20.2687 77.9289 20.2394ZM69.1793 11.946C70.4098 10.8454 72.8464 9.12627 76.7373 9.2188C81.8684 9.32594 84.5774 11.7317 84.8303 17.4928C84.9324 19.8693 84.7622 26.4924 84.7233 28.1433C84.7184 28.3819 84.6358 28.5426 84.3196 28.5524C83.4734 28.5865 81.5231 28.5719 80.6282 28.5621C80.1759 28.5378 80.1224 28.3138 80.1175 28.08C80.1126 27.9242 80.098 27.4713 80.0932 27.0963C80.0883 26.8966 79.9035 26.9064 79.8549 26.9551C78.6536 28.2407 76.6789 28.8641 74.5827 28.8641C71.3971 28.8641 68.2212 26.9891 68.2309 23.2734C68.2406 19.47 70.9351 17.5902 73.897 17.147C75.7938 16.8646 77.9289 17.1178 79.5485 17.7606C79.6506 17.8045 79.8646 17.7412 79.8646 17.5951C79.8695 17.1081 79.85 16.1877 79.7527 15.7494C79.5144 14.6342 78.5855 13.7332 76.6303 13.4946C76.2266 13.4459 75.823 13.4264 75.4193 13.4605C73.8678 13.5822 72.0002 14.7949 71.2269 15.2478C71.0469 15.3549 70.76 15.277 70.6676 15.1552C70.2153 14.5708 69.082 12.8615 68.9896 12.5888C68.8924 12.3161 69.0188 12.0872 69.1793 11.946ZM86.518 19.0317C86.4888 13.7235 90.1802 9.24802 96.177 9.20906C99.9171 9.18471 102.636 10.8843 103.117 11.683C103.215 11.8729 103.166 12.0287 103.098 12.2187C102.782 12.8907 101.979 14.1812 101.41 14.9166C101.167 15.2283 100.904 14.9604 100.598 14.7559C99.7469 14.191 98.1322 13.4946 96.5418 13.4946C93.6577 13.4946 91.508 15.4766 91.5323 19.1194C91.5566 22.616 93.6139 24.5347 96.5515 24.6078C98.0884 24.6467 99.5767 23.7604 100.374 23.0396C100.627 22.8205 100.885 22.9276 101.172 23.1565C101.736 23.7312 102.543 24.6224 102.991 25.236C103.283 25.5769 103.064 25.908 102.957 26.0444C101.741 27.5881 99.3919 28.8835 96.2792 28.903C89.7766 28.942 86.5472 24.3545 86.518 19.0317ZM117.596 28.6547C117.903 28.6303 121.161 28.1823 122.163 27.9534C122.411 27.8949 122.499 27.6855 122.363 27.481C121.803 26.6434 120.334 24.2571 118.793 22.1241C117.377 20.1615 115.884 18.4376 115.403 17.7753C115.286 17.6145 115.291 17.4538 115.417 17.3321C116.337 16.4312 120.174 12.6618 121.618 11.1083C122.178 10.5045 121.842 10.2415 121.366 10.1003C120.446 9.82754 118.963 9.48665 118.122 9.30646C117.766 9.23341 117.338 9.25776 117.027 9.57917C115.583 10.9281 111.176 15.3549 109.863 16.6795C109.625 16.9181 109.489 16.8646 109.489 16.5237C109.479 13.9718 109.425 3.04861 109.338 1.25161C109.333 1.01298 109.046 0.832797 108.886 0.823057C108.059 0.779228 105.967 0.769488 105.145 0.813317C104.917 0.837667 104.693 1.07629 104.674 1.27596C104.484 4.14921 104.756 25.2408 104.868 28.192C104.878 28.4063 105.034 28.5719 105.238 28.5816C106.06 28.6303 108.093 28.6254 109.041 28.606C109.508 28.606 109.566 28.2797 109.566 28.2797L109.635 22.6208C109.635 22.6208 109.683 22.3676 109.761 22.2848C110.097 21.9244 111.021 20.931 111.415 20.5462C111.507 20.4537 111.658 20.4586 111.755 20.5901C112.222 21.2232 113.559 23.2831 114.8 25.1191C115.938 26.809 116.998 28.304 117.076 28.4112C117.246 28.6498 117.445 28.6595 117.596 28.6547ZM62.132 28.6352C62.4189 28.6449 64.5929 28.64 65.5608 28.64C65.8867 28.6449 66.052 28.4014 66.0666 28.1823C66.2709 24.0477 66.1833 4.34888 66.052 1.24187C66.0423 0.974025 65.9256 0.871756 65.7408 0.847407C64.9139 0.735398 62.56 0.764618 61.8061 0.959415C61.6602 0.998374 61.5727 1.11038 61.5678 1.25648C61.383 9.27237 61.5094 27.7537 61.5483 28.1044C61.5873 28.455 61.7721 28.6254 62.132 28.6352Z" fill="#9B9B9B"/>
<path d="M3.89565 20.4098C2.55331 20.4195 1.42009 19.6208 1.00182 18.3693C0.987232 18.3206 0.972642 18.2767 0.958051 18.228C0.500874 16.6307 1.38605 14.9554 2.97157 14.4198L28.413 5.88278C28.7145 5.79512 29.0258 5.75129 29.3419 5.74642C30.7183 5.73668 31.8856 6.55483 32.3136 7.83075L32.3525 7.9525C32.8291 9.61801 31.6473 11.1033 30.2271 11.5806C30.2271 11.5806 29.9693 11.6682 4.92673 20.2296C4.59601 20.3464 4.24583 20.4049 3.89565 20.4098Z" fill="#9B9B9B"/>
<path d="M8.13702 32.9402C6.78494 32.9499 5.64686 32.161 5.23345 30.9289C5.21886 30.8802 5.20427 30.8364 5.18968 30.7877C4.72764 29.1709 5.61281 27.4761 7.20321 26.9405L32.6495 18.3256C32.9802 18.2136 33.3158 18.16 33.6611 18.1551C35.018 18.1454 36.2048 18.9733 36.6279 20.22L36.6668 20.3514C36.9148 21.2134 36.7689 22.1777 36.2777 22.9422C35.9129 23.512 34.7651 24.0088 34.7651 24.0088L9.21673 32.7551C8.87142 32.872 8.50665 32.9353 8.13702 32.9402Z" fill="#9B9B9B"/>
<path d="M29.318 32.9939C27.9659 33.0085 26.7597 32.1465 26.3269 30.8608L17.835 5.60542L17.7913 5.46419C17.3292 3.85225 18.2144 2.17212 19.7999 1.63643C20.1161 1.52929 20.4468 1.47573 20.7775 1.47086C21.2687 1.46599 21.7405 1.57799 22.188 1.79714C22.9321 2.16725 23.4963 2.81495 23.7638 3.60388L32.2556 28.8593L32.2799 28.9421C32.7565 30.6125 31.8762 32.2975 30.2858 32.8283C29.9746 32.9354 29.6487 32.989 29.318 32.9939Z" fill="#9B9B9B"/>
<path d="M16.6968 37.2502C15.3447 37.2648 14.1336 36.4029 13.7056 35.1172L5.21383 9.85693C4.65938 8.22063 5.53969 6.44798 7.17386 5.89281H7.17872C7.49485 5.78567 7.82071 5.7321 8.15144 5.72723C9.50351 5.71262 10.7145 6.5746 11.1425 7.86026L19.6344 33.1157C20.1888 34.752 19.3085 36.5246 17.6743 37.0798C17.6695 37.0798 17.6695 37.0798 17.6646 37.0847C17.3533 37.1918 17.0226 37.2454 16.6968 37.2502Z" fill="#9B9B9B"/>
<path d="M25.13 27.3058L31.049 25.2799L29.1133 19.5237L23.1846 21.5301L25.13 27.3058Z" fill="#9B9B9B"/>
<path d="M12.5284 31.6204L18.4474 29.5945L16.4971 23.7944L10.5684 25.8008L12.5284 31.6204Z" fill="#9B9B9B"/>
<path d="M20.9182 14.7706L26.842 12.7447L24.9306 7.05664L18.9971 9.04844L20.9182 14.7706Z" fill="#9B9B9B"/>
<path d="M8.31162 19.0805L14.2306 17.0546L12.2949 11.2935L6.36133 13.2853L8.31162 19.0805Z" fill="#9B9B9B"/>
</g>
<defs>
<clipPath id="clip0">
<rect width="123" height="38" fill="white"/>
</clipPath>
</defs>
</svg>
