<svg width="195" height="58" viewBox="0 0 195 58" fill="none" xmlns="http://www.w3.org/2000/svg">
<g clip-path="url(#clip0)">
<path d="M69.0648 22.7508C69.0648 16.9895 73.2708 12.9706 80.9221 12.9706C85.5859 12.9706 89.4038 14.4573 91.4757 15.9132C91.7706 16.1222 92.2983 16.6256 91.9801 17.5626C91.5766 18.5692 90.8316 20.0947 90.2962 21.0782C89.9858 21.6512 89.1943 21.5738 88.783 21.3724C87.3086 20.629 84.8952 19.3668 82.6759 19.1345C82.1172 19.0726 81.5507 19.0493 80.9842 19.0648C79.0287 19.1113 77.3991 19.785 76.8171 21.2718C76.7007 21.5505 76.6386 21.8525 76.6308 22.1545C76.5765 24.1137 79.3158 24.8261 82.6293 25.3914C88.7908 26.4445 93.4545 28.2488 93.4545 34.5754C93.4545 39.9495 89.1788 44.8047 80.7902 44.6576C75.2651 44.5492 71.3385 42.683 69.2356 40.871C69.1657 40.809 68.3664 39.9959 68.7932 39.0202C69.2821 37.758 70.1124 36.3177 70.7643 35.5511C71.129 35.0555 72.0757 34.978 72.5724 35.2878C74.3028 36.3642 77.1585 38.0832 80.441 38.1994C80.6971 38.2071 80.9609 38.2071 81.2092 38.2071C84.1658 38.1375 85.9506 37.0146 85.9196 35.1329C85.8885 33.4758 83.545 32.5001 79.8124 31.8031C73.8528 30.6881 69.0648 28.7289 69.0648 22.7508ZM123.137 30.9513C118.938 31.0055 115.089 32.1516 114.981 35.4272C114.981 38.0213 117.091 39.299 120.056 39.1364C122.896 38.8654 125.069 37.6341 126.023 36.0002C126.38 35.3962 126.427 33.1273 126.411 32.1671C126.403 31.958 126 31.5708 125.821 31.4934C124.921 31.114 124.262 30.9978 123.137 30.9513ZM109.169 17.7639C111.132 16.0138 115.02 13.2803 121.228 13.4274C129.414 13.5978 133.737 17.4232 134.14 26.5839C134.303 30.3628 134.032 40.8942 133.969 43.5193C133.962 43.8987 133.83 44.1543 133.325 44.1698C131.975 44.224 128.863 44.2007 127.436 44.1852C126.714 44.1465 126.629 43.7903 126.621 43.4186C126.613 43.1708 126.59 42.4507 126.582 41.8544C126.574 41.5369 126.279 41.5524 126.202 41.6298C124.285 43.6742 121.134 44.6654 117.79 44.6654C112.707 44.6654 107.64 41.684 107.655 35.7756C107.671 29.7278 111.97 26.7388 116.696 26.0341C119.722 25.585 123.129 25.9877 125.713 27.0098C125.876 27.0795 126.217 26.9788 126.217 26.7465C126.225 25.9722 126.194 24.5086 126.039 23.8117C125.659 22.0384 124.176 20.6058 121.057 20.2264C120.413 20.1489 119.769 20.118 119.125 20.1722C116.649 20.3658 113.669 22.2939 112.435 23.0141C112.148 23.1845 111.691 23.0605 111.543 22.867C110.821 21.9377 109.013 19.2197 108.866 18.7861C108.718 18.3524 108.92 17.9885 109.169 17.7639ZM136.841 29.0309C136.794 20.5903 142.684 13.4739 152.252 13.412C158.219 13.3732 162.557 16.0758 163.326 17.3457C163.481 17.6477 163.403 17.8955 163.295 18.1975C162.79 19.2662 161.51 21.3182 160.602 22.4875C160.214 22.9831 159.795 22.5572 159.306 22.232C157.948 21.3337 155.372 20.2264 152.834 20.2264C148.232 20.2264 144.802 23.378 144.841 29.1703C144.88 34.7302 148.163 37.7812 152.85 37.8974C155.302 37.9593 157.676 36.55 158.949 35.4039C159.352 35.0555 159.764 35.2258 160.222 35.5898C161.122 36.5035 162.41 37.9206 163.124 38.8963C163.589 39.4384 163.24 39.965 163.069 40.1818C161.129 42.6365 157.381 44.6963 152.415 44.7273C142.04 44.7893 136.887 37.4947 136.841 29.0309ZM186.427 44.3324C186.916 44.2937 192.115 43.5812 193.714 43.2173C194.109 43.1244 194.249 42.7914 194.032 42.4662C193.139 41.1343 190.796 37.3399 188.336 33.9481C186.078 30.8274 183.696 28.0862 182.927 27.033C182.741 26.7775 182.749 26.522 182.951 26.3284C184.417 24.8958 190.54 18.9022 192.845 16.432C193.737 15.4718 193.202 15.0536 192.441 14.829C190.974 14.3954 188.608 13.8533 187.265 13.5668C186.699 13.4507 186.016 13.4894 185.519 14.0005C183.214 16.1455 176.184 23.1844 174.089 25.2907C173.708 25.6702 173.491 25.585 173.491 25.0429C173.476 20.9852 173.39 3.61623 173.251 0.758818C173.243 0.379378 172.785 0.092863 172.529 0.0773757C171.21 0.00768274 167.873 -0.00780457 166.561 0.0618883C166.197 0.100607 165.84 0.480046 165.809 0.797536C165.506 5.36629 165.941 38.9041 166.119 43.5967C166.135 43.9375 166.383 44.2007 166.709 44.2162C168.02 44.2937 171.264 44.2859 172.777 44.2549C173.522 44.2549 173.615 43.7361 173.615 43.7361L173.724 34.738C173.724 34.738 173.802 34.3353 173.926 34.2037C174.461 33.6306 175.936 32.0509 176.564 31.4392C176.712 31.2921 176.952 31.2998 177.107 31.5089C177.852 32.5156 179.986 35.7911 181.965 38.7105C183.781 41.3975 185.473 43.7748 185.597 43.9452C185.868 44.3246 186.187 44.3401 186.427 44.3324ZM97.932 44.3014C98.3899 44.3169 101.859 44.3092 103.403 44.3092C103.923 44.3169 104.187 43.9297 104.21 43.5812C104.536 37.0069 104.396 5.68378 104.187 0.74333C104.171 0.317429 103.985 0.154812 103.69 0.116094C102.371 -0.0620102 98.6149 -0.0155482 97.4121 0.294198C97.1793 0.356147 97.0396 0.534251 97.0319 0.766561C96.737 13.5126 96.9388 42.8998 97.0008 43.4573C97.0629 44.0149 97.3578 44.2859 97.932 44.3014Z" fill="white"/>
<path d="M5.01401 31.2224C2.87225 31.2379 1.06417 29.9679 0.396813 27.9778C0.373533 27.9003 0.350253 27.8306 0.326973 27.7532C-0.402467 25.2133 1.00985 22.5495 3.53961 21.6977L44.1322 8.13078C44.6133 7.99139 45.1099 7.9217 45.6143 7.91396C47.8104 7.89847 49.6728 9.1994 50.3557 11.2282L50.4178 11.4218C51.1782 14.0702 49.2926 16.432 47.0266 17.1909C47.0266 17.1909 46.6154 17.3302 6.65913 30.9436C6.13145 31.1217 5.57273 31.2146 5.01401 31.2224Z" fill="white"/>
<path d="M11.7805 51.1469C9.62323 51.1624 7.80739 49.9079 7.14779 47.9488C7.12451 47.8714 7.10123 47.8017 7.07795 47.7242C6.34075 45.1533 7.75307 42.4585 10.2906 41.6067L50.8831 27.9159C51.4108 27.7378 51.9463 27.6527 52.4972 27.6449C54.6623 27.6294 56.5557 28.9458 57.2308 30.9282L57.2929 31.1373C57.6887 32.5079 57.4559 34.0412 56.6721 35.2569C56.0901 36.1629 54.2587 36.9528 54.2587 36.9528L13.5032 50.8527C12.9523 51.0385 12.3703 51.1392 11.7805 51.1469Z" fill="white"/>
<path d="M45.5751 51.2321C43.4179 51.2553 41.4934 49.8847 40.8027 47.8404L27.2538 7.68178L27.1839 7.45722C26.4467 4.89407 27.8591 2.22251 30.3888 1.3707C30.8932 1.20034 31.4209 1.11516 31.9486 1.10742C32.7323 1.09968 33.4851 1.27778 34.199 1.62624C35.3863 2.21476 36.2864 3.24467 36.7132 4.49914L50.2622 44.6655L50.301 44.7971C51.0615 47.4532 49.6569 50.1325 47.1194 50.9766C46.6227 51.1392 46.1028 51.2244 45.5751 51.2321Z" fill="white"/>
<path d="M25.4382 58.0001C23.281 58.0233 21.3487 56.6527 20.6658 54.6083L7.11688 14.4497C6.23224 11.8479 7.6368 9.02916 10.2442 8.14639H10.2519C10.7563 7.97603 11.2762 7.89085 11.8039 7.8831C13.9612 7.85987 15.8934 9.2305 16.5763 11.2748L30.1253 51.4334C31.0099 54.0353 29.6054 56.854 26.998 57.7368C26.9902 57.7368 26.9902 57.7368 26.9825 57.7445C26.4858 57.9071 25.9582 57.9923 25.4382 58.0001Z" fill="white"/>
<path d="M38.8941 42.1874L48.338 38.966L45.2573 29.813L35.7979 33.0034L38.8941 42.1874Z" fill="white"/>
<path d="M18.7879 49.0483L28.2319 45.8269L25.1201 36.6042L15.6606 39.7946L18.7879 49.0483Z" fill="white"/>
<path d="M32.1663 22.2552L41.6102 19.0338L38.5683 9.98926L29.1011 13.1564L32.1663 22.2552Z" fill="white"/>
<path d="M12.06 29.1084L21.5039 25.8871L18.4154 16.7263L8.94824 19.8935L12.06 29.1084Z" fill="white"/>
</g>
<defs>
<clipPath id="clip0">
<rect width="194" height="58" fill="white" transform="translate(0.132812)"/>
</clipPath>
</defs>
</svg>
