<svg width="123" height="38" viewBox="0 0 123 38" fill="none" xmlns="http://www.w3.org/2000/svg">
<g clip-path="url(#clip0)">
<path d="M44.2016 15.3C44.2016 11.6767 46.8376 9.14925 51.6331 9.14925C54.5561 9.14925 56.949 10.0843 58.2476 10.9998C58.4324 11.1313 58.7631 11.4479 58.5637 12.0371C58.3108 12.6702 57.8439 13.6296 57.5083 14.2481C57.3138 14.6084 56.8177 14.5597 56.5599 14.4331C55.6358 13.9656 54.1233 13.1718 52.7323 13.0257C52.3821 12.9867 52.0271 12.9721 51.672 12.9819C50.4464 13.0111 49.425 13.4348 49.0603 14.3698C48.9873 14.5451 48.9484 14.735 48.9436 14.925C48.9095 16.1571 50.6264 16.6051 52.7031 16.9606C56.5648 17.6229 59.4878 18.7576 59.4878 22.7363C59.4878 26.1161 56.808 29.1695 51.5504 29.077C48.0876 29.0088 45.6266 27.8351 44.3086 26.6956C44.2648 26.6566 43.7638 26.1453 44.0313 25.5317C44.3377 24.7379 44.8581 23.8321 45.2667 23.3499C45.4953 23.0383 46.0886 22.9896 46.3999 23.1844C47.4845 23.8613 49.2743 24.9424 51.3316 25.0155C51.4921 25.0203 51.6574 25.0203 51.8131 25.0203C53.6661 24.9765 54.7847 24.2704 54.7653 23.087C54.7458 22.0448 53.277 21.4312 50.9376 20.9929C47.2024 20.2916 44.2016 19.0595 44.2016 15.3ZM78.091 20.4572C75.4598 20.4913 73.0475 21.212 72.9794 23.272C72.9794 24.9034 74.3023 25.707 76.1602 25.6047C77.9402 25.4343 79.302 24.6599 79.9003 23.6324C80.124 23.2525 80.1532 21.8257 80.1434 21.2218C80.1386 21.0903 79.8857 20.8468 79.7738 20.7981C79.2096 20.5595 78.7962 20.4864 78.091 20.4572ZM69.3414 12.1637C70.5719 11.0631 73.0086 9.34405 76.8994 9.43657C82.0305 9.54371 84.7395 11.9495 84.9924 17.7106C85.0946 20.0871 84.9243 26.7102 84.8854 28.3611C84.8806 28.5997 84.7979 28.7604 84.4817 28.7702C83.6355 28.8043 81.6852 28.7896 80.7903 28.7799C80.338 28.7556 80.2845 28.5315 80.2796 28.2978C80.2747 28.1419 80.2602 27.689 80.2553 27.3141C80.2504 27.1144 80.0656 27.1241 80.017 27.1728C78.8157 28.4585 76.8411 29.0818 74.7449 29.0818C71.5592 29.0818 68.3833 27.2069 68.393 23.4912C68.4027 19.6878 71.0972 17.808 74.0591 17.3648C75.9559 17.0823 78.091 17.3356 79.7106 17.9784C79.8127 18.0222 80.0267 17.9589 80.0267 17.8128C80.0316 17.3258 80.0121 16.4054 79.9148 15.9671C79.6765 14.8519 78.7476 13.951 76.7924 13.7124C76.3887 13.6637 75.9851 13.6442 75.5814 13.6783C74.0299 13.8 72.1623 15.0126 71.389 15.4655C71.209 15.5727 70.9221 15.4948 70.8297 15.373C70.3774 14.7886 69.2441 13.0793 69.1517 12.8066C69.0545 12.5338 69.1809 12.305 69.3414 12.1637ZM86.6801 19.2495C86.6509 13.9413 90.3424 9.46579 96.3392 9.42684C100.079 9.40248 102.798 11.1021 103.279 11.9008C103.377 12.0907 103.328 12.2465 103.26 12.4364C102.944 13.1085 102.141 14.399 101.572 15.1344C101.329 15.4461 101.067 15.1782 100.76 14.9737C99.909 14.4088 98.2943 13.7124 96.7039 13.7124C93.8198 13.7124 91.6701 15.6944 91.6944 19.3371C91.7188 22.8337 93.776 24.7525 96.7136 24.8255C98.2505 24.8645 99.7388 23.9782 100.536 23.2574C100.789 23.0383 101.047 23.1454 101.334 23.3743C101.898 23.9489 102.706 24.8401 103.153 25.4537C103.445 25.7946 103.226 26.1258 103.119 26.2622C101.903 27.8059 99.554 29.1013 96.4413 29.1208C89.9387 29.1598 86.7093 24.5723 86.6801 19.2495ZM117.758 28.8724C118.065 28.8481 121.323 28.4 122.325 28.1712C122.573 28.1127 122.661 27.9033 122.525 27.6988C121.965 26.8612 120.497 24.4749 118.955 22.3419C117.54 20.3793 116.046 18.6553 115.565 17.993C115.448 17.8323 115.453 17.6716 115.579 17.5499C116.499 16.6489 120.336 12.8796 121.781 11.3261C122.34 10.7222 122.004 10.4593 121.528 10.318C120.608 10.0453 119.125 9.70442 118.284 9.52423C117.929 9.45118 117.501 9.47553 117.189 9.79695C115.745 11.1459 111.338 15.5727 110.025 16.8973C109.787 17.1359 109.651 17.0823 109.651 16.7415C109.641 14.1896 109.588 3.26638 109.5 1.46938C109.495 1.23076 109.208 1.05057 109.048 1.04083C108.221 0.997001 106.13 0.987261 105.308 1.03109C105.079 1.05544 104.855 1.29407 104.836 1.49373C104.646 4.36699 104.919 25.4586 105.03 28.4098C105.04 28.6241 105.196 28.7896 105.4 28.7994C106.222 28.8481 108.255 28.8432 109.203 28.8237C109.67 28.8237 109.729 28.4974 109.729 28.4974L109.797 22.8386C109.797 22.8386 109.845 22.5854 109.923 22.5026C110.259 22.1422 111.183 21.1487 111.577 20.764C111.669 20.6715 111.82 20.6764 111.917 20.8078C112.384 21.4409 113.722 23.5009 114.962 25.3369C116.1 27.0267 117.16 28.5218 117.238 28.6289C117.408 28.8676 117.608 28.8773 117.758 28.8724ZM62.2941 28.8529C62.581 28.8627 64.7551 28.8578 65.7229 28.8578C66.0488 28.8627 66.2141 28.6192 66.2287 28.4C66.433 24.2655 66.3454 4.56665 66.2141 1.45964C66.2044 1.1918 66.0877 1.08953 65.9029 1.06518C65.0761 0.953172 62.7221 0.982391 61.9682 1.17719C61.8223 1.21615 61.7348 1.32816 61.7299 1.47425C61.5451 9.49014 61.6715 27.9715 61.7105 28.3221C61.7494 28.6728 61.9342 28.8432 62.2941 28.8529Z" fill="#443642"/>
<path d="M4.05776 20.6275C2.71542 20.6373 1.5822 19.8386 1.16393 18.587C1.14934 18.5383 1.13475 18.4945 1.12016 18.4458C0.662984 16.8485 1.54816 15.1732 3.13368 14.6375L28.5751 6.10056C28.8766 6.0129 29.1879 5.96907 29.504 5.9642C30.8804 5.95446 32.0477 6.7726 32.4757 8.04852L32.5146 8.17027C32.9912 9.83579 31.8094 11.3211 30.3892 11.7984C30.3892 11.7984 30.1314 11.886 5.08884 20.4473C4.75812 20.5642 4.40794 20.6227 4.05776 20.6275Z" fill="#70CADB"/>
<path d="M8.29912 33.158C6.94705 33.1677 5.80897 32.3788 5.39556 31.1467C5.38097 31.098 5.36638 31.0542 5.35179 31.0055C4.88975 29.3887 5.77492 27.6939 7.36532 27.1582L32.8116 18.5433C33.1423 18.4313 33.4779 18.3778 33.8232 18.3729C35.1802 18.3631 36.3669 19.191 36.79 20.4377L36.8289 20.5692C37.077 21.4312 36.931 22.3954 36.4398 23.16C36.0751 23.7298 34.9272 24.2265 34.9272 24.2265L9.37884 32.9729C9.03353 33.0898 8.66876 33.1531 8.29912 33.158Z" fill="#E01765"/>
<path d="M29.4801 33.2116C28.128 33.2262 26.9218 32.3643 26.489 31.0786L17.9972 5.82319L17.9534 5.68196C17.4913 4.07002 18.3765 2.3899 19.962 1.85421C20.2782 1.74707 20.6089 1.6935 20.9396 1.68863C21.4308 1.68376 21.9026 1.79577 22.3501 2.01491C23.0942 2.38503 23.6584 3.03273 23.9259 3.82165L32.4177 29.0771L32.442 29.1599C32.9186 30.8302 32.0383 32.5152 30.4479 33.0461C30.1367 33.1532 29.8108 33.2068 29.4801 33.2116Z" fill="#E8A723"/>
<path d="M16.8589 37.468C15.5068 37.4826 14.2958 36.6206 13.8678 35.335L5.37594 10.0747C4.82149 8.43841 5.7018 6.66576 7.33597 6.11058H7.34083C7.65696 6.00345 7.98282 5.94988 8.31355 5.94501C9.66562 5.9304 10.8767 6.79237 11.3047 8.07803L19.7965 33.3334C20.3509 34.9697 19.4706 36.7424 17.8364 37.2976C17.8316 37.2976 17.8316 37.2976 17.8267 37.3024C17.5154 37.4096 17.1847 37.4631 16.8589 37.468Z" fill="#3EB890"/>
<path d="M25.2921 27.5236L31.2111 25.4977L29.2754 19.7415L23.3467 21.7479L25.2921 27.5236Z" fill="#CC2027"/>
<path d="M12.6905 31.8382L18.6095 29.8123L16.6592 24.0122L10.7305 26.0186L12.6905 31.8382Z" fill="#361238"/>
<path d="M21.0803 14.9884L27.0041 12.9625L25.0928 7.27441L19.1592 9.26621L21.0803 14.9884Z" fill="#65863A"/>
<path d="M8.47373 19.2982L14.3927 17.2723L12.457 11.5112L6.52344 13.503L8.47373 19.2982Z" fill="#1A937D"/>
</g>
<defs>
<clipPath id="clip0">
<rect width="123" height="38" fill="white"/>
</clipPath>
</defs>
</svg>
