<svg width="123" height="38" viewBox="0 0 123 38" fill="none" xmlns="http://www.w3.org/2000/svg">
<path d="M44.1723 15.0821C44.1723 11.4588 46.8083 8.93135 51.6038 8.93135C54.5268 8.93135 56.9197 9.86638 58.2183 10.7819C58.4031 10.9134 58.7338 11.23 58.5344 11.8192C58.2815 12.4523 57.8146 13.4117 57.479 14.0302C57.2845 14.3905 56.7884 14.3418 56.5306 14.2152C55.6065 13.7477 54.094 12.9539 52.703 12.8078C52.3528 12.7689 51.9978 12.7542 51.6427 12.764C50.4171 12.7932 49.3958 13.2169 49.031 14.1519C48.958 14.3272 48.9191 14.5172 48.9143 14.7071C48.8802 15.9392 50.5971 16.3872 52.6738 16.7427C56.5355 17.405 59.4585 18.5397 59.4585 22.5184C59.4585 25.8982 56.7787 28.9516 51.5211 28.8591C48.0583 28.7909 45.5973 27.6172 44.2793 26.4777C44.2355 26.4387 43.7345 25.9274 44.002 25.3138C44.3084 24.52 44.8288 23.6142 45.2374 23.132C45.466 22.8204 46.0593 22.7717 46.3706 22.9665C47.4552 23.6434 49.245 24.7245 51.3023 24.7976C51.4628 24.8024 51.6281 24.8024 51.7838 24.8024C53.6368 24.7586 54.7554 24.0525 54.736 22.8691C54.7165 21.8269 53.2477 21.2133 50.9083 20.775C47.1731 20.0737 44.1723 18.8416 44.1723 15.0821ZM78.0617 20.2393C75.4305 20.2734 73.0182 20.9941 72.9501 23.0541C72.9501 24.6855 74.273 25.4891 76.1309 25.3868C77.9109 25.2164 79.2727 24.4421 79.871 23.4145C80.0947 23.0346 80.1239 21.6078 80.1141 21.0039C80.1093 20.8724 79.8564 20.6289 79.7445 20.5802C79.1803 20.3416 78.7669 20.2685 78.0617 20.2393ZM69.3121 11.9458C70.5426 10.8452 72.9793 9.12615 76.8701 9.21868C82.0012 9.32582 84.7102 11.7316 84.9631 17.4927C85.0653 19.8692 84.895 26.4923 84.8561 28.1432C84.8513 28.3818 84.7686 28.5425 84.4524 28.5523C83.6062 28.5864 81.6559 28.5717 80.761 28.562C80.3087 28.5377 80.2552 28.3136 80.2503 28.0799C80.2455 27.924 80.2309 27.4711 80.226 27.0962C80.2211 26.8965 80.0363 26.9062 79.9877 26.9549C78.7864 28.2406 76.8118 28.8639 74.7156 28.8639C71.5299 28.8639 68.354 26.989 68.3637 23.2733C68.3734 19.4699 71.0679 17.5901 74.0298 17.1469C75.9266 16.8645 78.0617 17.1177 79.6813 17.7605C79.7834 17.8043 79.9974 17.741 79.9974 17.5949C80.0023 17.108 79.9828 16.1875 79.8855 15.7492C79.6472 14.634 78.7183 13.7331 76.7631 13.4945C76.3594 13.4458 75.9558 13.4263 75.5521 13.4604C74.0006 13.5821 72.133 14.7947 71.3597 15.2476C71.1797 15.3548 70.8928 15.2769 70.8004 15.1551C70.3481 14.5707 69.2148 12.8614 69.1224 12.5887C69.0252 12.3159 69.1516 12.0871 69.3121 11.9458ZM86.6508 19.0316C86.6216 13.7234 90.3131 9.2479 96.3099 9.20894C100.05 9.18459 102.769 10.8842 103.25 11.6829C103.347 11.8728 103.299 12.0286 103.231 12.2185C102.915 12.8906 102.112 14.1811 101.543 14.9165C101.3 15.2282 101.037 14.9603 100.731 14.7558C99.8797 14.1909 98.265 13.4945 96.6746 13.4945C93.7905 13.4945 91.6408 15.4765 91.6651 19.1192C91.6895 22.6158 93.7467 24.5346 96.6844 24.6076C98.2212 24.6466 99.7095 23.7603 100.507 23.0395C100.76 22.8204 101.018 22.9275 101.305 23.1564C101.869 23.731 102.676 24.6222 103.124 25.2358C103.416 25.5767 103.197 25.9079 103.09 26.0443C101.874 27.588 99.5247 28.8834 96.412 28.9029C89.9094 28.9419 86.68 24.3544 86.6508 19.0316ZM117.729 28.6545C118.035 28.6302 121.294 28.1822 122.296 27.9533C122.544 27.8948 122.632 27.6854 122.495 27.4809C121.936 26.6433 120.467 24.257 118.926 22.124C117.51 20.1614 116.017 18.4374 115.536 17.7751C115.419 17.6144 115.424 17.4537 115.55 17.332C116.469 16.431 120.307 12.6617 121.751 11.1082C122.311 10.5043 121.975 10.2414 121.498 10.1001C120.579 9.82742 119.096 9.48652 118.254 9.30634C117.899 9.23329 117.471 9.25764 117.16 9.57905C115.716 10.928 111.309 15.3548 109.996 16.6794C109.758 16.918 109.621 16.8645 109.621 16.5236C109.612 13.9717 109.558 3.04849 109.471 1.25149C109.466 1.01286 109.179 0.832675 109.018 0.822935C108.192 0.779106 106.1 0.769366 105.278 0.813195C105.05 0.837545 104.826 1.07617 104.807 1.27584C104.617 4.14909 104.889 25.2407 105.001 28.1919C105.011 28.4062 105.166 28.5717 105.371 28.5815C106.193 28.6302 108.226 28.6253 109.174 28.6058C109.641 28.6058 109.699 28.2796 109.699 28.2796L109.767 22.6207C109.767 22.6207 109.816 22.3675 109.894 22.2847C110.229 21.9243 111.154 20.9308 111.547 20.5461C111.64 20.4536 111.791 20.4585 111.888 20.5899C112.355 21.223 113.692 23.283 114.933 25.119C116.071 26.8088 117.131 28.3039 117.209 28.411C117.379 28.6497 117.578 28.6594 117.729 28.6545ZM62.2648 28.6351C62.5517 28.6448 64.7258 28.6399 65.6936 28.6399C66.0195 28.6448 66.1848 28.4013 66.1994 28.1822C66.4037 24.0476 66.3162 4.34876 66.1848 1.24175C66.1751 0.973902 66.0584 0.871634 65.8736 0.847285C65.0468 0.735276 62.6928 0.764496 61.9389 0.959293C61.793 0.998252 61.7055 1.11026 61.7006 1.25636C61.5158 9.27225 61.6423 27.7536 61.6812 28.1042C61.7201 28.4549 61.9049 28.6253 62.2648 28.6351Z" fill="#9B9B9B"/>
<path d="M4.02847 20.4098C2.68612 20.4195 1.5529 19.6208 1.13464 18.3693C1.12004 18.3206 1.10545 18.2767 1.09086 18.228C0.633687 16.6307 1.51886 14.9554 3.10439 14.4198L28.5458 5.88278C28.8473 5.79512 29.1586 5.75129 29.4747 5.74642C30.8511 5.73668 32.0184 6.55483 32.4464 7.83075L32.4853 7.9525C32.9619 9.61801 31.7801 11.1033 30.3599 11.5806C30.3599 11.5806 30.1021 11.6682 5.05955 20.2296C4.72882 20.3464 4.37864 20.4049 4.02847 20.4098Z" fill="#9B9B9B"/>
<path d="M8.26934 32.9401C6.91726 32.9498 5.77918 32.1609 5.36578 30.9288C5.35119 30.8801 5.3366 30.8363 5.32201 30.7876C4.85997 29.1708 5.74514 27.476 7.33553 26.9403L32.7818 18.3254C33.1125 18.2134 33.4481 18.1599 33.7934 18.155C35.1504 18.1453 36.3371 18.9731 36.7602 20.2198L36.7991 20.3513C37.0472 21.2133 36.9013 22.1775 36.41 22.9421C36.0453 23.5119 34.8975 24.0086 34.8975 24.0086L9.34906 32.755C9.00374 32.8719 8.63897 32.9352 8.26934 32.9401Z" fill="#9B9B9B"/>
<path d="M29.4503 32.9936C28.0982 33.0082 26.892 32.1462 26.4592 30.8606L17.9674 5.60517L17.9236 5.46395C17.4616 3.852 18.3467 2.17188 19.9323 1.63619C20.2484 1.52905 20.5791 1.47548 20.9098 1.47061C21.4011 1.46574 21.8728 1.57775 22.3203 1.7969C23.0644 2.16701 23.6286 2.81471 23.8961 3.60364L32.3879 28.859L32.4122 28.9418C32.8889 30.6122 32.0085 32.2972 30.4181 32.828C30.1069 32.9352 29.781 32.9887 29.4503 32.9936Z" fill="#9B9B9B"/>
<path d="M16.8296 37.25C15.4775 37.2646 14.2665 36.4026 13.8385 35.117L5.34664 9.85668C4.7922 8.22039 5.6725 6.44774 7.30667 5.89257H7.31153C7.62767 5.78543 7.95353 5.73186 8.28425 5.72699C9.63633 5.71238 10.8474 6.57436 11.2754 7.86001L19.7672 33.1154C20.3216 34.7517 19.4413 36.5244 17.8071 37.0795C17.8023 37.0795 17.8023 37.0795 17.7974 37.0844C17.4862 37.1916 17.1554 37.2451 16.8296 37.25Z" fill="#9B9B9B"/>
<path d="M25.2628 27.3056L31.1818 25.2797L29.2461 19.5234L23.3174 21.5298L25.2628 27.3056Z" fill="#9B9B9B"/>
<path d="M12.6617 31.6204L18.5807 29.5945L16.6304 23.7944L10.7017 25.8008L12.6617 31.6204Z" fill="#9B9B9B"/>
<path d="M21.051 14.7704L26.9748 12.7445L25.0635 7.0564L19.1299 9.04819L21.051 14.7704Z" fill="#9B9B9B"/>
<path d="M8.44444 19.0803L14.3634 17.0545L12.4277 11.2933L6.49414 13.2851L8.44444 19.0803Z" fill="#9B9B9B"/>
</svg>
