<svg width="123" height="36" viewBox="0 0 123 36" fill="none" xmlns="http://www.w3.org/2000/svg">
<g clip-path="url(#clip0)">
<path d="M43.4817 14.1213C43.4817 10.5453 46.1267 8.05078 50.9383 8.05078C53.8712 8.05078 56.2722 8.97361 57.5751 9.87721C57.7606 10.007 58.0924 10.3194 57.8923 10.901C57.6386 11.5258 57.1701 12.4727 56.8334 13.0831C56.6382 13.4388 56.1404 13.3907 55.8818 13.2657C54.9546 12.8043 53.4369 12.0209 52.0412 11.8767C51.6899 11.8382 51.3336 11.8238 50.9774 11.8334C49.7476 11.8623 48.7228 12.2804 48.3568 13.2032C48.2836 13.3763 48.2446 13.5637 48.2397 13.7512C48.2055 14.9672 49.9282 15.4094 52.0119 15.7603C55.8867 16.4139 58.8195 17.5338 58.8195 21.4607C58.8195 24.7963 56.1307 27.8099 50.8554 27.7186C47.3808 27.6513 44.9115 26.493 43.5891 25.3683C43.5451 25.3298 43.0425 24.8251 43.3109 24.2195C43.6183 23.4361 44.1405 22.5421 44.5504 22.0663C44.7798 21.7587 45.3751 21.7106 45.6875 21.9028C46.7757 22.5709 48.5715 23.638 50.6358 23.7101C50.7968 23.7149 50.9627 23.7149 51.1189 23.7149C52.9782 23.6716 54.1006 22.9747 54.0811 21.8067C54.0615 20.7781 52.5878 20.1725 50.2405 19.74C46.4927 19.0478 43.4817 17.8318 43.4817 14.1213ZM77.4855 19.2113C74.8455 19.2449 72.425 19.9563 72.3567 21.9894C72.3567 23.5995 73.684 24.3926 75.5482 24.2916C77.3343 24.1234 78.7007 23.3592 79.3009 22.345C79.5254 21.9701 79.5547 20.5619 79.5449 19.9659C79.54 19.8361 79.2863 19.5958 79.174 19.5477C78.6079 19.3122 78.1931 19.2401 77.4855 19.2113ZM68.7015 11.0259C69.9362 9.9397 72.3811 8.24304 76.2851 8.33436C81.4335 8.4401 84.1516 10.8145 84.4054 16.5004C84.5079 18.846 84.3371 25.3827 84.298 27.0121C84.2931 27.2476 84.2102 27.4062 83.893 27.4158C83.0439 27.4494 81.087 27.435 80.1891 27.4254C79.7352 27.4014 79.6815 27.1803 79.6767 26.9496C79.6718 26.7958 79.6571 26.3488 79.6523 25.9787C79.6474 25.7816 79.4619 25.7912 79.4131 25.8393C78.2078 27.1082 76.2265 27.7234 74.1232 27.7234C70.9268 27.7234 67.7402 25.8729 67.7499 22.2057C67.7597 18.4518 70.4632 16.5966 73.4351 16.1592C75.3383 15.8804 77.4807 16.1304 79.1057 16.7648C79.2082 16.8081 79.4229 16.7456 79.4229 16.6014C79.4278 16.1207 79.4083 15.2123 79.3107 14.7797C79.0715 13.6791 78.1395 12.7899 76.1777 12.5544C75.7727 12.5063 75.3676 12.4871 74.9626 12.5207C73.4059 12.6409 71.5319 13.8377 70.756 14.2847C70.5755 14.3904 70.2875 14.3135 70.1948 14.1934C69.741 13.6166 68.6039 11.9296 68.5112 11.6604C68.4185 11.3912 68.5454 11.1653 68.7015 11.0259ZM86.1036 18.0193C86.0743 12.7803 89.7783 8.3632 95.7953 8.32475C99.548 8.30071 102.276 9.97815 102.759 10.7664C102.857 10.9538 102.808 11.1077 102.74 11.2951C102.422 11.9584 101.617 13.2321 101.046 13.9579C100.802 14.2655 100.539 14.0011 100.231 13.7992C99.3772 13.2417 97.7571 12.5544 96.1613 12.5544C93.2675 12.5544 91.1105 14.5106 91.1349 18.1058C91.1593 21.5568 93.2235 23.4505 96.1711 23.5226C97.7131 23.5611 99.2064 22.6863 100.007 21.9749C100.26 21.7587 100.519 21.8644 100.807 22.0903C101.373 22.6575 102.183 23.537 102.632 24.1426C102.925 24.4791 102.705 24.8059 102.598 24.9405C101.378 26.4641 99.021 27.7426 95.8978 27.7619C89.3732 27.8003 86.1329 23.2727 86.1036 18.0193ZM117.287 27.5167C117.594 27.4927 120.864 27.0505 121.869 26.8246C122.118 26.7669 122.206 26.5603 122.069 26.3584C121.508 25.5317 120.034 23.1765 118.487 21.0713C117.067 19.1344 115.569 17.4329 115.086 16.7792C114.969 16.6206 114.974 16.462 115.101 16.3418C116.023 15.4526 119.873 11.7325 121.323 10.1992C121.884 9.60325 121.547 9.3437 121.069 9.20432C120.146 8.93516 118.658 8.59871 117.814 8.42087C117.458 8.34878 117.028 8.37281 116.716 8.69003C115.266 10.0214 110.845 14.3904 109.528 15.6978C109.288 15.9333 109.152 15.8804 109.152 15.544C109.142 13.0254 109.088 2.24464 109.001 0.471074C108.996 0.23556 108.708 0.0577233 108.547 0.0481105C107.717 0.00485279 105.619 -0.00476003 104.794 0.0384976C104.565 0.0625297 104.34 0.298044 104.321 0.495106C104.13 3.33089 104.404 24.1474 104.516 27.0601C104.526 27.2716 104.682 27.435 104.887 27.4446C105.711 27.4927 107.751 27.4879 108.703 27.4687C109.171 27.4687 109.23 27.1466 109.23 27.1466L109.298 21.5616C109.298 21.5616 109.347 21.3117 109.425 21.2299C109.762 20.8743 110.689 19.8938 111.084 19.5141C111.177 19.4227 111.328 19.4275 111.426 19.5573C111.894 20.1822 113.236 22.2153 114.481 24.0273C115.623 25.6951 116.687 27.1707 116.765 27.2764C116.935 27.5119 117.136 27.5215 117.287 27.5167ZM61.6353 27.4975C61.9232 27.5071 64.1046 27.5023 65.0757 27.5023C65.4027 27.5071 65.5686 27.2668 65.5832 27.0505C65.7882 22.9699 65.7003 3.52795 65.5686 0.461462C65.5588 0.197109 65.4417 0.0961745 65.2563 0.0721425C64.4267 -0.0384049 62.0647 -0.00956645 61.3083 0.18269C61.1619 0.221141 61.0741 0.331689 61.0692 0.475881C60.8838 8.38723 61.0107 26.6275 61.0497 26.9736C61.0887 27.3197 61.2742 27.4879 61.6353 27.4975Z" fill="#443642"/>
<path d="M3.20236 19.3795C1.85548 19.3891 0.718443 18.6008 0.298763 17.3656C0.284123 17.3175 0.269483 17.2743 0.254843 17.2262C-0.203877 15.6497 0.684283 13.9963 2.27516 13.4676L27.8024 5.04677C28.105 4.96026 28.4173 4.917 28.7345 4.91219C30.1156 4.90258 31.2868 5.71006 31.7162 6.96934L31.7552 7.0895C32.2335 8.73329 31.0476 10.1992 29.6227 10.6703C29.6227 10.6703 29.364 10.7568 4.23692 19.2065C3.90508 19.317 3.55372 19.3747 3.20236 19.3795Z" fill="#70CADB"/>
<path d="M7.45743 31.7462C6.10079 31.7558 4.95887 30.9772 4.54407 29.7612C4.52943 29.7131 4.51479 29.6699 4.50015 29.6218C4.03655 28.0261 4.92471 26.3534 6.52047 25.8247L32.0478 17.327C32.3796 17.2165 32.7163 17.1636 33.0628 17.1588C34.4243 17.1492 35.615 17.9663 36.0396 19.1967L36.0786 19.3265C36.3275 20.1772 36.1811 21.1289 35.6882 21.8835C35.3222 22.4458 34.1706 22.9361 34.1706 22.9361L8.54079 31.5636C8.19431 31.6789 7.82831 31.7414 7.45743 31.7462Z" fill="#E01765"/>
<path d="M28.7103 31.7993C27.3537 31.8137 26.1434 30.963 25.7091 29.6941L17.1886 4.76805L17.1447 4.62866C16.6811 3.03774 17.5693 1.37953 19.1602 0.850824C19.4774 0.745083 19.8092 0.692213 20.141 0.687406C20.6339 0.6826 21.1073 0.793147 21.5562 1.00944C22.3029 1.37472 22.869 2.01397 23.1374 2.79261L31.6578 27.7235L31.6822 27.8052C32.1605 29.4538 31.2772 31.1168 29.6814 31.6407C29.3691 31.7416 29.0421 31.7945 28.7103 31.7993Z" fill="#E8A723"/>
<path d="M16.0466 36.0001C14.69 36.0145 13.4749 35.1638 13.0454 33.8949L4.52494 8.96884C3.96862 7.35388 4.8519 5.60435 6.49158 5.05642H6.49646C6.81366 4.95068 7.14062 4.89781 7.47246 4.893C8.8291 4.87858 10.0442 5.72932 10.4737 6.99821L18.9941 31.9242C19.5505 33.5392 18.6672 35.2887 17.0275 35.8367C17.0226 35.8367 17.0226 35.8367 17.0177 35.8415C16.7054 35.9424 16.3736 35.9953 16.0466 36.0001Z" fill="#3EB890"/>
<path d="M24.5082 26.1853L30.4471 24.1858L28.5098 18.5046L22.561 20.4849L24.5082 26.1853Z" fill="#CC2027"/>
<path d="M11.8646 30.4436L17.8036 28.4442L15.8467 22.7197L9.89795 24.7L11.8646 30.4436Z" fill="#361238"/>
<path d="M20.2772 13.8135L26.2162 11.8141L24.3032 6.2002L18.3496 8.16602L20.2772 13.8135Z" fill="#65863A"/>
<path d="M7.63364 18.0673L13.5726 16.0678L11.6304 10.3818L5.67676 12.3477L7.63364 18.0673Z" fill="#1A937D"/>
</g>
<defs>
<clipPath id="clip0">
<rect width="122" height="36" fill="white" transform="translate(0.132812)"/>
</clipPath>
</defs>
</svg>
