<svg width="128" height="131" viewBox="0 0 128 131" fill="none" xmlns="http://www.w3.org/2000/svg">
<path d="M64.6811 59.9364C55.7335 59.9364 47.1921 55.9235 41.8452 49.1905L42.9011 48.3556C47.9907 54.7654 56.1261 58.5898 64.6811 58.5898C78.4882 58.5898 89.7234 47.413 89.7234 33.6776C89.7234 29.5974 88.654 25.4903 86.6235 21.8275C84.6743 18.2994 81.8993 15.2426 78.5965 12.9803L79.368 11.8761C82.8469 14.2596 85.7572 17.478 87.8148 21.1811C89.9535 25.0459 91.077 29.3685 91.077 33.6776C91.077 40.6934 88.3291 47.2918 83.3477 52.2473C78.3664 57.2163 71.7335 59.9364 64.6811 59.9364Z" fill="#15265F"/>
<path d="M120.302 122.324H118.948V85.8584C118.948 82.7478 118.136 79.6641 116.607 76.9439C115.077 74.2238 112.857 71.9346 110.19 70.2917L110.894 69.1471C113.75 70.8977 116.133 73.362 117.771 76.2841C119.409 79.2062 120.289 82.5054 120.289 85.845V122.324H120.302Z" fill="#15265F"/>
<path d="M60.4171 56.7584C55.923 56.7584 51.7538 55.8023 48.0178 53.917C44.3359 52.0587 41.1683 49.352 38.5964 45.8778L39.6929 45.0833C42.1294 48.3959 45.1345 50.968 48.6269 52.7185C52.1734 54.5095 56.1396 55.4117 60.4171 55.4117C67.1041 55.4117 73.3985 52.8263 78.1227 48.1132C82.8469 43.4135 85.4594 37.1518 85.4594 30.4996C85.4594 21.8274 82.0888 14.9328 75.6997 10.5564L76.4712 9.45215C83.2394 14.0979 86.8265 21.3696 86.8265 30.4996C86.8265 37.5154 84.0787 44.1137 79.0973 49.0692C74.0888 54.0247 67.4695 56.7584 60.4171 56.7584Z" fill="#15265F"/>
<path d="M113.263 114.932H111.909V78.4522C111.909 73.5909 109.987 69.0125 106.508 65.5382C103.029 62.0775 98.4136 60.1653 93.5269 60.1653H20.1598C15.2731 60.1653 10.6708 62.0775 7.19191 65.5382C3.71306 68.999 1.79089 73.5909 1.79089 78.4522V114.703H0.437256V78.4522C0.437256 73.2274 2.49479 68.3123 6.23083 64.5956C9.96687 60.879 14.9212 58.8322 20.1598 58.8322H93.5405C98.7926 58.8322 103.733 60.879 107.469 64.5956C111.205 68.3123 113.263 73.2408 113.263 78.4522V114.932Z" fill="#F44247"/>
<path d="M56.7759 53.1495C42.2108 53.1495 30.3665 41.3667 30.3665 26.8907C30.3665 12.4147 42.2108 0.631958 56.7759 0.631958C71.3411 0.631958 83.1854 12.4147 83.1854 26.8907C83.1854 41.3667 71.3275 53.1495 56.7759 53.1495ZM56.7759 1.9651C42.9688 1.9651 31.7201 13.1419 31.7201 26.8773C31.7201 40.6126 42.9553 51.7895 56.7759 51.7895C70.583 51.7895 81.8318 40.6126 81.8318 26.8773C81.8318 13.1419 70.583 1.9651 56.7759 1.9651Z" fill="#F44247"/>
<path d="M127.476 130.054H126.123V93.5745C126.123 90.4639 125.311 87.3802 123.781 84.66C122.251 81.9399 120.031 79.6506 117.365 78.0078L118.069 76.8632C120.925 78.6137 123.307 81.078 124.945 84.0002C126.583 86.9223 127.463 90.2215 127.463 93.5611V130.054H127.476Z" fill="#15265F"/>
</svg>
