<svg width="114" height="115" viewBox="0 0 114 115" fill="none" xmlns="http://www.w3.org/2000/svg">
<path d="M113.134 114.351H111.78V77.872C111.78 73.0107 109.858 68.4323 106.379 64.958C102.9 61.4973 98.2842 59.5851 93.3975 59.5851H20.0303C15.1437 59.5851 10.5413 61.4973 7.06249 64.958C3.58364 68.4188 1.66147 73.0107 1.66147 77.872V114.123H0.307831V77.872C0.307831 72.6472 2.36536 67.7321 6.1014 64.0154C9.83744 60.2988 14.7918 58.252 20.0303 58.252H93.4111C98.6632 58.252 103.604 60.2988 107.34 64.0154C111.076 67.7321 113.134 72.6606 113.134 77.872V114.351Z" fill="#11172B"/>
<path d="M56.6465 52.5693C42.0814 52.5693 30.237 40.7865 30.237 26.3105C30.237 11.8345 42.0814 0.0517578 56.6465 0.0517578C71.2116 0.0517578 83.056 11.8345 83.056 26.3105C83.056 40.7865 71.1981 52.5693 56.6465 52.5693ZM56.6465 1.3849C42.8394 1.3849 31.5907 12.5617 31.5907 26.2971C31.5907 40.0324 42.8259 51.2093 56.6465 51.2093C70.4536 51.2093 81.7023 40.0324 81.7023 26.2971C81.7023 12.5617 70.4536 1.3849 56.6465 1.3849Z" fill="#11172B"/>
</svg>
