<svg width="154" height="31" viewBox="0 0 154 31" fill="none" xmlns="http://www.w3.org/2000/svg">
<g clip-path="url(#clip0)">
<g clip-path="url(#clip1)">
<path d="M101.215 25.6517C103.158 25.6989 105.025 24.9744 106.432 23.6137L109.005 26.3998C107.297 28.1551 104.936 29.4627 101.263 29.4627C94.951 29.4627 90.8827 25.2748 90.8827 19.6143C90.8827 14.001 95.163 9.76593 100.68 9.76593C106.944 9.76593 110.477 14.537 110.171 21.134H95.3926C95.9107 23.8965 97.8478 25.6517 101.215 25.6517ZM105.708 18.0063C105.307 15.4558 103.788 13.5592 100.727 13.5592C97.8713 13.5592 95.9107 15.1731 95.3985 18.0063H105.708ZM4.11084 25.4456L15.4975 13.8655H4.3699V10.2371H20.7611V13.9597L9.39793 25.5163H20.9259V29.1446H4.11084V25.4456ZM33.6903 25.6517C35.6332 25.6989 37.4996 24.9744 38.9067 23.6137L41.4796 26.3998C39.7722 28.1551 37.4113 29.4627 33.7374 29.4627C27.4494 29.4627 23.3575 25.2748 23.3575 19.6143C23.3575 14.001 27.6378 9.76593 33.1545 9.76593C39.4189 9.76593 42.9515 14.537 42.6454 21.134H27.8674C28.4032 23.8965 30.3226 25.6517 33.6903 25.6517ZM38.2002 18.0063C37.7998 15.4558 36.2808 13.5592 33.2193 13.5592C30.3638 13.5592 28.4032 15.1731 27.891 18.0063H38.2002ZM67.2439 19.6438C67.2439 13.5828 71.7538 9.81894 76.7347 9.81894C79.237 9.81894 81.6215 10.9204 83.0227 12.6521V1.49023H87.044V29.0916H83.0286V26.4705C81.5803 28.32 79.1958 29.4627 76.6935 29.4627C71.8716 29.4686 67.2439 25.6517 67.2439 19.6438ZM83.2582 19.5966C83.2582 16.2275 80.7089 13.465 77.2705 13.465C73.9028 13.465 71.2828 16.1568 71.2828 19.5966C71.2828 23.0365 73.9028 25.746 77.2705 25.746C80.7089 25.7695 83.2582 23.0129 83.2582 19.5966ZM112.791 25.0686L116.441 23.172C117.424 24.9272 119.296 25.9816 121.304 25.9345C123.571 25.9345 124.766 24.7623 124.766 23.4311C124.766 21.9115 122.57 21.5816 120.185 21.0927C116.959 20.4154 113.615 19.361 113.615 15.4558C113.615 12.4636 116.47 9.70114 120.933 9.74826C124.466 9.74826 127.08 11.1501 128.558 13.4237L125.166 15.2968C124.301 13.9656 122.805 13.1469 120.91 13.1469C118.737 13.1469 117.636 14.2012 117.636 15.4146C117.636 16.7694 119.391 17.1463 122.128 17.753C125.237 18.4304 128.77 19.4612 128.77 23.3899C128.77 26.011 126.503 29.5216 121.098 29.4745C117.165 29.4686 114.38 27.8782 112.791 25.0686ZM139.679 20.6922L136.5 24.1792V29.0916H132.479V1.49023H136.5V19.5495L145.037 10.19H149.924L142.535 18.2831L150.136 29.0916H145.579L139.679 20.6922ZM55.0859 9.79538C50.2934 9.79538 46.2957 12.9054 46.2957 18.0299V29.0916H50.4111V18.5659C50.4111 15.4558 52.1892 13.6063 55.2272 13.6063C58.2652 13.6063 59.7843 15.4558 59.7843 18.5659V29.0916H63.8761V18.0534C63.8761 12.9054 59.8785 9.79538 55.0859 9.79538Z" fill="#9B9B9B"/>
<path d="M148.799 7.73388C149.359 7.17432 150.295 7.17432 150.854 7.73388C151.414 8.29345 151.414 9.22999 150.854 9.78955C150.295 10.3491 149.359 10.3491 148.799 9.78955C148.217 9.22999 148.217 8.3229 148.799 7.73388ZM150.601 9.55984C151.019 9.11807 151.001 8.41125 150.578 7.99305C150.136 7.57485 149.429 7.59252 149.011 8.01661C148.593 8.45838 148.593 9.14164 149.035 9.55984C149.477 10.0016 150.177 9.97804 150.601 9.55984ZM149.948 7.82813L150.389 8.26989C150.672 8.55262 150.672 8.87658 150.483 9.06506C150.342 9.22999 150.106 9.27711 149.924 9.18287L149.783 9.74243L149.477 9.43614L149.688 8.66453L149.806 8.78234C149.877 8.87658 150.042 8.90014 150.136 8.82946L150.159 8.8059C150.254 8.71165 150.23 8.54673 150.136 8.47605L150.112 8.45249L149.948 8.28756L149.129 9.10629L148.87 8.84713L149.948 7.82813Z" fill="white"/>
</g>
</g>
<defs>
<clipPath id="clip0">
<rect width="153" height="31" fill="white" transform="translate(0.132812)"/>
</clipPath>
<clipPath id="clip1">
<rect width="151" height="31" fill="white" transform="translate(2.13281)"/>
</clipPath>
</defs>
</svg>
