<svg width="154" height="31" viewBox="0 0 154 31" fill="none" xmlns="http://www.w3.org/2000/svg">
<g clip-path="url(#clip0)">
<g clip-path="url(#clip1)">
<path d="M101.216 25.6517C103.159 25.6989 105.025 24.9744 106.432 23.6137L109.005 26.3998C107.298 28.1551 104.937 29.4627 101.263 29.4627C94.9515 29.4627 90.8832 25.2748 90.8832 19.6143C90.8832 14.001 95.1635 9.76593 100.68 9.76593C106.945 9.76593 110.477 14.537 110.171 21.134H95.3931C95.9112 23.8965 97.8483 25.6517 101.216 25.6517ZM105.708 18.0063C105.308 15.4558 103.789 13.5592 100.727 13.5592C97.8718 13.5592 95.9112 15.1731 95.399 18.0063H105.708ZM4.11133 25.4456L15.498 13.8655H4.37038V10.2371H20.7615V13.9597L9.39842 25.5163H20.9264V29.1446H4.11133V25.4456ZM33.6908 25.6517C35.6337 25.6989 37.5001 24.9744 38.9072 23.6137L41.4801 26.3998C39.7727 28.1551 37.4118 29.4627 33.7379 29.4627C27.4499 29.4627 23.358 25.2748 23.358 19.6143C23.358 14.001 27.6383 9.76593 33.155 9.76593C39.4194 9.76593 42.952 14.537 42.6459 21.134H27.8679C28.4037 23.8965 30.323 25.6517 33.6908 25.6517ZM38.2007 18.0063C37.8003 15.4558 36.2813 13.5592 33.2198 13.5592C30.3643 13.5592 28.4037 15.1731 27.8915 18.0063H38.2007ZM67.2444 19.6438C67.2444 13.5828 71.7543 9.81894 76.7352 9.81894C79.2375 9.81894 81.622 10.9204 83.0232 12.6521V1.49023H87.0445V29.0916H83.0291V26.4705C81.5807 28.32 79.1963 29.4627 76.694 29.4627C71.872 29.4686 67.2444 25.6517 67.2444 19.6438ZM83.2587 19.5966C83.2587 16.2275 80.7094 13.465 77.271 13.465C73.9033 13.465 71.2833 16.1568 71.2833 19.5966C71.2833 23.0365 73.9033 25.746 77.271 25.746C80.7094 25.7695 83.2587 23.0129 83.2587 19.5966ZM112.791 25.0686L116.441 23.172C117.425 24.9272 119.297 25.9816 121.305 25.9345C123.571 25.9345 124.766 24.7623 124.766 23.4311C124.766 21.9115 122.57 21.5816 120.186 21.0927C116.959 20.4154 113.615 19.361 113.615 15.4558C113.615 12.4636 116.471 9.70114 120.934 9.74826C124.466 9.74826 127.08 11.1501 128.558 13.4237L125.167 15.2968C124.301 13.9656 122.806 13.1469 120.91 13.1469C118.738 13.1469 117.637 14.2012 117.637 15.4146C117.637 16.7694 119.391 17.1463 122.129 17.753C125.237 18.4304 128.77 19.4612 128.77 23.3899C128.77 26.011 126.503 29.5216 121.098 29.4745C117.166 29.4686 114.381 27.8782 112.791 25.0686ZM139.68 20.6922L136.501 24.1792V29.0916H132.479V1.49023H136.501V19.5495L145.038 10.19H149.924L142.535 18.2831L150.136 29.0916H145.579L139.68 20.6922ZM55.0864 9.79538C50.2939 9.79538 46.2962 12.9054 46.2962 18.0299V29.0916H50.4116V18.5659C50.4116 15.4558 52.1897 13.6063 55.2277 13.6063C58.2657 13.6063 59.7847 15.4558 59.7847 18.5659V29.0916H63.8766V18.0534C63.8766 12.9054 59.8789 9.79538 55.0864 9.79538Z" fill="#9B9B9B"/>
<path d="M148.799 7.73388C149.359 7.17432 150.295 7.17432 150.854 7.73388C151.414 8.29345 151.414 9.22999 150.854 9.78955C150.295 10.3491 149.359 10.3491 148.799 9.78955C148.217 9.22999 148.217 8.3229 148.799 7.73388ZM150.601 9.55984C151.019 9.11807 151.001 8.41125 150.578 7.99305C150.136 7.57485 149.429 7.59252 149.011 8.01661C148.593 8.45838 148.593 9.14164 149.035 9.55984C149.477 10.0016 150.177 9.97804 150.601 9.55984ZM149.948 7.82813L150.389 8.26989C150.672 8.55262 150.672 8.87658 150.483 9.06506C150.342 9.22999 150.106 9.27711 149.924 9.18287L149.783 9.74243L149.477 9.43614L149.688 8.66453L149.806 8.78234C149.877 8.87658 150.042 8.90014 150.136 8.82946L150.159 8.8059C150.254 8.71165 150.23 8.54673 150.136 8.47605L150.112 8.45249L149.948 8.28756L149.129 9.10629L148.87 8.84713L149.948 7.82813Z" fill="white"/>
</g>
</g>
<defs>
<clipPath id="clip0">
<rect width="153" height="31" fill="white" transform="translate(0.132812)"/>
</clipPath>
<clipPath id="clip1">
<rect width="151" height="31" fill="white" transform="translate(2.13281)"/>
</clipPath>
</defs>
</svg>
