<svg width="208" height="147" viewBox="0 0 208 147" fill="none" xmlns="http://www.w3.org/2000/svg">
<path d="M99.5321 22.9389V86.8913H45.9929L99.5321 22.9389ZM99.5321 0C99.5321 14.6177 87.568 26.4534 72.7917 26.4534C58.0153 26.4534 45.9929 14.6177 45.9929 0H99.5321ZM108.351 86.8996C108.351 72.2819 120.315 60.4461 135.092 60.4461C149.868 60.4461 161.832 72.2819 161.832 86.8996H108.351ZM108.351 63.9524V0H161.891L108.351 63.9524ZM138.303 141.56C141.049 141.617 143.745 140.597 145.75 138.728L149.411 142.638C147.006 145.132 143.628 146.942 138.362 146.942C129.368 146.942 123.585 141.049 123.585 133.065C123.411 125.534 129.484 119.353 137.039 119.189H137.496C146.432 119.189 151.466 125.872 151.008 135.222H129.992C130.74 139.123 133.486 141.617 138.303 141.56ZM144.71 130.851C144.136 127.23 141.964 124.563 137.613 124.563C133.544 124.563 130.74 126.827 130 130.851H144.71ZM0.00830078 141.28L16.2157 124.966H0.415981V119.872H23.7203V125.082L7.51294 141.395H23.9449V146.49H0.00830078V141.28ZM42.1574 141.56C44.903 141.617 47.5987 140.597 49.5456 138.728L53.2064 142.638C50.8019 145.132 47.424 146.942 42.1574 146.942C33.1635 146.942 27.3811 141.049 27.3811 133.065C27.2064 125.534 33.28 119.353 40.8345 119.189H41.2921C50.2278 119.189 55.2614 125.872 54.8038 135.222H33.8541C34.5945 139.123 37.3485 141.617 42.1574 141.56ZM48.5721 130.851C47.9981 127.23 45.8265 124.563 41.4752 124.563C37.4067 124.563 34.6029 126.827 33.8624 130.851H48.5721ZM89.9142 133.123C89.9142 124.629 96.3289 119.304 103.426 119.304C106.862 119.246 110.123 120.719 112.42 123.271V107.575H118.144V146.432H112.42V142.753C110.19 145.411 106.862 147 103.376 146.942C96.4953 146.942 89.9142 141.56 89.9142 133.123ZM112.703 133.065C112.586 128.423 108.634 124.736 103.942 124.851C99.2493 124.966 95.5219 128.876 95.6384 133.518C95.7549 138.103 99.5321 141.732 104.166 141.732C109.1 141.732 112.703 137.88 112.703 133.065ZM154.794 140.769L160.002 138.111C161.375 140.605 164.07 142.078 166.932 142.02C170.194 142.02 171.858 140.374 171.858 138.506C171.858 136.35 168.705 135.897 165.327 135.222C160.742 134.259 155.992 132.786 155.992 127.288C155.992 123.098 160.06 119.189 166.417 119.246C171.459 119.246 175.178 121.23 177.299 124.399L172.49 127.008C171.117 125.024 168.829 123.888 166.417 123.946C163.322 123.946 161.782 125.419 161.782 127.115C161.782 129.041 164.245 129.551 168.139 130.399C172.548 131.362 177.59 132.777 177.59 138.333C177.59 142.012 174.329 146.942 166.65 146.885C161.034 146.942 157.082 144.737 154.794 140.769ZM193.099 134.596L188.573 139.527V146.44H182.849V107.575H188.573V133.008L200.712 119.806H207.7L197.167 131.197L207.992 146.432H201.519L193.099 134.596ZM72.6169 119.246C65.8029 119.246 60.0787 123.608 60.0787 130.86V146.44H65.9193V131.6C65.9193 127.238 68.4403 124.629 72.7917 124.629C77.143 124.629 79.2646 127.238 79.2646 131.6V146.44H85.047V130.86C85.1053 123.608 79.3811 119.246 72.6169 119.246Z" fill="white"/>
</svg>
