<svg width="154" height="31" viewBox="0 0 154 31" fill="none" xmlns="http://www.w3.org/2000/svg">
<path d="M100.552 25.74C102.521 25.7871 104.412 25.0626 105.837 23.702L108.444 26.4881C106.714 28.2433 104.322 29.5509 100.6 29.5509C94.2045 29.5509 90.0823 25.363 90.0823 19.7026C90.0823 14.0892 94.4193 9.85419 100.009 9.85419C106.356 9.85419 109.936 14.6252 109.626 21.2222H94.652C95.1769 23.9906 97.1396 25.74 100.552 25.74ZM105.104 18.0945C104.698 15.5441 103.159 13.6475 100.057 13.6475C97.1635 13.6475 95.1769 15.2614 94.6579 18.0945H105.104ZM2.16113 25.5338L13.6986 13.9538H2.42362V10.3254H19.0319V14.0421L7.51825 25.5986H19.1989V29.227H2.1671L2.16113 25.5338ZM32.1324 25.74C34.101 25.7871 35.9921 25.0626 37.4179 23.702L40.0249 26.4881C38.2948 28.2433 35.9026 29.5509 32.1801 29.5509C25.8088 29.5509 21.6627 25.363 21.6627 19.7026C21.6627 14.0892 25.9997 9.85419 31.5895 9.85419C37.9369 9.85419 41.5163 14.6252 41.2061 21.2222H26.2324C26.7752 23.9906 28.72 25.74 32.1324 25.74ZM36.702 18.0945C36.2964 15.5441 34.7572 13.6475 31.6551 13.6475C28.7618 13.6475 26.7752 15.2614 26.2562 18.0945H36.702ZM66.1304 19.732C66.1304 13.671 70.7 9.9072 75.7469 9.9072C78.2823 9.9072 80.6984 11.0087 82.1182 12.7404V1.57849H86.1927V29.1799H82.1182V26.5587C80.6507 28.4082 78.2346 29.5509 75.6992 29.5509C70.8193 29.5568 66.1304 25.74 66.1304 19.732ZM82.3568 19.6849C82.3568 16.3157 79.7737 13.5532 76.2898 13.5532C72.8775 13.5532 70.2228 16.245 70.2228 19.6849C70.2228 23.1248 72.8775 25.8342 76.2898 25.8342C79.7737 25.8578 82.3568 23.1012 82.3568 19.6849ZM112.28 25.1569L115.979 23.2602C116.975 25.0155 118.872 26.0698 120.907 26.0227C123.203 26.0227 124.414 24.8506 124.414 23.5194C124.414 21.9997 122.189 21.6699 119.773 21.181C116.504 20.5036 113.116 19.4493 113.116 15.5441C113.116 12.5519 116.009 9.7894 120.531 9.83652C124.11 9.83652 126.759 11.2384 128.256 13.512L124.82 15.3851C123.943 14.0539 122.428 13.2352 120.507 13.2352C118.306 13.2352 117.19 14.2895 117.19 15.5029C117.19 16.8576 118.968 17.2346 121.742 17.8413C124.892 18.5186 128.471 19.5494 128.471 23.4782C128.471 26.0993 126.174 29.6098 120.698 29.5627C116.713 29.5568 113.891 27.9665 112.28 25.1569ZM139.525 20.7864L136.304 24.2733V29.1858H132.229V1.57849H136.304V19.6378L144.954 10.2783H149.905L142.419 18.3714L150.12 29.1799H145.503L139.525 20.7864ZM53.8114 9.88364C48.9554 9.88364 44.9047 12.9937 44.9047 18.1181V29.1799H49.0747V18.6541C49.0747 15.5441 50.8763 13.6946 53.9546 13.6946C57.0328 13.6946 58.5719 15.5441 58.5719 18.6541V29.1799H62.718V18.1417C62.718 12.9937 58.6674 9.88364 53.8114 9.88364Z" fill="#03363D"/>
</svg>
