<svg width="1440" height="1440" viewBox="0 0 1440 1440" fill="none" xmlns="http://www.w3.org/2000/svg">
<g clip-path="url(#clip0)">
<path d="M687.893 34.4621C708.182 24.6911 731.818 24.691 752.107 34.4621L1254.72 276.508C1275.01 286.279 1289.75 304.758 1294.76 326.713L1418.89 870.585C1423.9 892.54 1418.64 915.583 1404.6 933.189L1056.78 1369.34C1042.74 1386.95 1021.45 1397.2 998.929 1397.2H441.071C418.551 1397.2 397.256 1386.95 383.215 1369.34L35.3963 933.189C21.3553 915.583 16.0959 892.54 21.1071 870.585L145.242 326.713C150.253 304.758 164.99 286.279 185.28 276.508L687.893 34.4621Z" fill="url(#paint0_linear)"/>
<g opacity="0.08">
<path d="M569.874 308.583C566.588 316.805 560.706 322.2 552.23 324.767L365.757 381.136C357.281 383.692 349.402 382.46 342.118 377.438L181.787 266.842C174.498 261.815 170.549 254.887 169.939 246.057L156.498 51.7741C155.888 42.9441 158.846 35.5363 165.372 29.5506L308.92 -102.115C315.446 -108.101 323.083 -110.41 331.83 -109.044L524.288 -78.9602C533.035 -77.5936 539.601 -73.0644 543.984 -65.3727L640.421 103.829C644.799 111.515 645.35 119.469 642.074 127.692L569.874 308.583Z" fill="white"/>
<path d="M-98.4828 413.856C-95.1972 405.634 -89.3164 400.238 -80.8403 397.67L105.625 341.279C114.101 338.721 121.981 339.952 129.265 344.973L289.61 455.55C296.899 460.576 300.849 467.504 301.461 476.334L314.925 670.614C315.536 679.444 312.579 686.852 306.054 692.839L162.522 824.522C155.997 830.509 148.361 832.819 139.613 831.453L-52.8489 801.394C-61.5963 800.028 -68.1621 795.5 -72.5463 787.808L-169.004 618.619C-173.384 610.933 -173.935 602.979 -170.66 594.756L-98.4828 413.856Z" fill="white"/>
<path d="M181.147 266.106C173.85 261.09 169.884 254.167 169.249 245.336L155.382 51.0856C154.758 42.2574 157.698 34.8452 164.204 28.8486L307.476 -103.142C313.988 -109.142 321.619 -111.467 330.369 -110.118L522.891 -80.4401C531.641 -79.0907 538.216 -74.575 542.617 -66.8932L639.418 102.082C643.818 109.764 644.387 117.719 641.124 125.948L569.321 306.997C566.058 315.225 560.191 320.63 551.719 323.21L365.361 379.989C356.896 382.566 349.014 381.351 341.713 376.346L181.147 266.106Z" fill="white"/>
</g>
<g opacity="0.06">
<path d="M787.108 1407.44C784.832 1399.58 786.057 1392.3 790.781 1385.61L894.771 1238.51C899.501 1231.83 905.949 1228.25 914.116 1227.77L1093.93 1217.33C1102.1 1216.85 1108.92 1219.66 1114.39 1225.75L1234.61 1359.84C1240.07 1365.93 1242.12 1373.02 1240.77 1381.09L1210.88 1558.72C1209.52 1566.8 1205.27 1572.82 1198.11 1576.8L1040.62 1664.24C1033.46 1668.21 1026.1 1668.64 1018.53 1665.52L852.016 1596.9C844.454 1593.78 839.531 1588.29 837.248 1580.43L787.108 1407.44Z" fill="white"/>
<path d="M1214.82 950.794C1217.1 958.659 1215.88 965.937 1211.15 972.628L1107.18 1119.74C1102.45 1126.42 1096 1130 1087.84 1130.48L908.026 1140.95C899.852 1141.43 893.033 1138.62 887.569 1132.52L767.329 998.453C761.864 992.359 759.811 985.275 761.169 977.199L791.03 799.565C792.388 791.489 796.645 785.464 803.802 781.489L961.282 694.032C968.439 690.057 975.802 689.629 983.371 692.748L1149.89 761.345C1157.45 764.463 1162.38 769.952 1164.66 777.811L1214.82 950.794Z" fill="white"/>
<path d="M1500.27 1011.75C1493.09 1015.68 1485.72 1016.07 1478.16 1012.92L1312.01 943.462C1304.46 940.301 1299.56 934.787 1297.32 926.918L1248.06 753.669C1245.82 745.794 1247.08 738.526 1251.84 731.865L1356.58 585.294C1361.34 578.632 1367.81 575.085 1375.98 574.652L1555.83 565.119C1564.01 564.685 1570.81 567.529 1576.25 573.65L1695.8 708.333C1701.23 714.454 1703.25 721.548 1701.85 729.616L1671.06 907.108C1669.66 915.17 1665.37 921.171 1658.2 925.113L1500.27 1011.75Z" fill="white"/>
<path d="M1094.81 1217.5C1102.99 1217.01 1109.82 1219.81 1115.3 1225.89L1235.81 1359.71C1241.29 1365.79 1243.35 1372.87 1242.02 1380.94L1212.52 1558.65C1211.18 1566.73 1206.93 1572.76 1199.78 1576.75L1042.48 1664.52C1035.33 1668.51 1027.97 1668.95 1020.39 1665.85L853.741 1597.6C846.165 1594.5 841.229 1589.02 838.932 1581.16L788.413 1408.29C786.117 1400.43 787.325 1393.15 792.038 1386.45L895.711 1239.12C900.422 1232.43 906.862 1228.84 915.032 1228.34L1094.81 1217.5Z" fill="white"/>
</g>
<path d="M648.001 240.156L676.745 257.736L649.952 277.787L700.289 275.177C702.281 275.074 703.959 276.621 704.065 278.659L705.178 300.123L714.076 299.662L711.238 244.914C711.012 240.567 707.369 237.078 702.986 237.305L648.001 240.156Z" fill="url(#paint1_linear)"/>
<path d="M536.078 633.619L915.742 613.933L881.026 433.342C880.674 431.752 879.267 430.619 877.653 430.703L555.416 447.411C553.533 447.509 551.988 448.929 551.816 450.814L536.078 633.619Z" fill="#DAE2F2"/>
<path d="M615.806 427.158L812.978 416.934L794.465 308.89L622.911 317.786L615.806 427.158Z" fill="#E3EBFC"/>
<path d="M899.98 788.173L560.913 805.754C557.422 805.935 554.102 804.238 552.332 801.259L474.642 663.618C472.751 660.912 474.579 657.212 477.936 657.038L975.726 631.227C979.486 631.032 981.989 635.175 980 638.349L907.929 783.088C906.336 786.108 903.337 787.999 899.98 788.173Z" fill="#16439E"/>
<path d="M904.745 786.591C906.046 785.722 907.2 784.594 907.93 783.088L929.027 740.735L529.802 761.435L552.198 801.266C553.087 802.822 554.357 803.958 555.876 804.68L718.628 796.241L904.745 786.591Z" fill="url(#paint2_linear)"/>
<path fill-rule="evenodd" clip-rule="evenodd" d="M790.446 545.815C790.222 545.825 789.999 545.835 789.989 545.62C789.979 545.405 789.532 545.425 789.084 545.445C788.179 545.27 787.284 545.31 786.389 545.35C785.941 545.37 785.494 545.391 785.037 545.195L784.813 545.205C782.341 545.101 779.637 544.791 777.146 544.255C776.465 544.07 775.764 543.454 775.512 542.818L773.702 542.468C774.316 536.182 773.578 529.742 771.954 523.557C770.107 517.382 767.15 511.473 763.328 506.25L764.612 504.897L764.603 504.682C764.574 504.036 764.759 503.164 765.187 502.713C767.123 500.9 769.079 499.517 771.259 498.124L772.573 497.418C773.011 497.183 773.392 496.95 773.774 496.717L773.775 496.717L773.775 496.716C774.157 496.483 774.539 496.25 774.976 496.015C775.083 495.902 775.193 495.844 775.302 495.785C775.412 495.726 775.521 495.667 775.628 495.554C775.761 495.415 775.726 495.365 775.677 495.297C775.648 495.255 775.613 495.206 775.609 495.123C777.555 493.525 777.887 490.921 776.233 489.053C775.523 488.222 774.151 487.636 773.032 487.687C771.913 487.737 770.814 488.218 769.947 488.904L769.733 489.13C769.519 489.355 769.305 489.581 769.081 489.591C768.439 490.267 767.797 490.943 767.378 491.609C767.236 491.917 766.98 492.124 766.765 492.298L766.765 492.298C766.672 492.374 766.587 492.443 766.522 492.511C765.033 494.304 763.096 496.118 761.14 497.501C760.702 497.736 760.265 497.972 759.817 497.992C759.593 498.002 759.146 498.022 758.912 497.817L758.688 497.827L756.946 498.984C756.013 498.163 755.023 497.344 754.033 496.525C753.043 495.707 752.053 494.888 751.119 494.067C742.558 488.194 732.09 484.78 721.524 484.177L721.222 482.464L721.232 482.679C720.541 482.279 720.288 481.643 720.036 481.007C719.929 478.638 719.822 476.269 720.154 473.664L720.144 473.449C720.134 473.234 720.181 473.016 720.227 472.798L720.227 472.798C720.273 472.58 720.319 472.362 720.31 472.147C720.402 471.711 720.439 471.278 720.475 470.845L720.475 470.844C720.512 470.411 720.549 469.978 720.641 469.542L720.583 468.25C720.71 466.087 718.823 464.013 716.575 463.899C715.223 463.744 713.909 464.45 712.839 465.577C711.982 466.479 711.583 467.576 711.632 468.653L711.68 469.73C711.719 470.591 711.981 471.442 712.244 472.294C712.487 472.714 712.506 473.145 712.526 473.576L712.535 473.791C713.09 476.14 713.196 478.509 713.312 481.093C713.118 481.749 712.923 482.406 712.271 482.866L712.29 483.297L712.144 485.03C710.046 485.309 707.955 485.746 705.725 486.212C705.349 486.29 704.968 486.37 704.584 486.449C694.163 489.076 684.782 494.892 677.736 502.762L676.354 501.961L676.131 501.971C676.038 501.975 675.947 502.016 675.84 502.065C675.689 502.133 675.507 502.215 675.245 502.227C674.798 502.247 674.34 502.052 673.883 501.856C671.801 500.44 669.71 498.807 668.066 497.155C667.896 496.862 667.623 496.678 667.393 496.524C667.294 496.457 667.203 496.396 667.132 496.334C666.782 496.026 666.487 495.715 666.193 495.405L666.193 495.405C665.899 495.094 665.605 494.784 665.254 494.476C665.138 494.373 665.023 494.325 664.909 494.276C664.795 494.227 664.68 494.178 664.564 494.075L664.33 493.87C663.406 493.264 662.268 492.884 661.149 492.934C659.806 492.995 658.706 493.476 658.084 494.583C656.828 496.581 657.392 499.145 659.25 500.572C659.474 500.562 659.483 500.778 659.483 500.778C659.483 500.778 659.95 501.188 660.174 501.178C660.865 501.579 661.779 501.969 662.694 502.36L664.066 502.945C666.362 504.137 668.658 505.328 670.525 506.971C670.952 507.346 671.394 508.079 671.32 508.703L671.274 508.663L671.284 508.879C671.301 508.822 671.313 508.763 671.32 508.703L672.675 509.895C672.573 510.116 672.468 510.282 672.364 510.449C672.259 510.615 672.154 510.782 672.052 511.002C665.589 521.867 663.242 534.488 665.808 546.673L664.037 547.185C664.047 547.4 663.823 547.41 663.823 547.41C663.628 548.066 662.976 548.527 662.324 548.988C659.892 549.745 657.449 550.286 654.774 550.622C654.326 550.642 653.879 550.662 653.441 550.898C652.993 550.918 652.548 550.992 652.103 551.066L652.103 551.066C651.657 551.14 651.212 551.214 650.765 551.234C650.672 551.238 650.581 551.279 650.475 551.328C650.324 551.396 650.142 551.478 649.879 551.49C649.656 551.5 649.656 551.5 649.442 551.725C646.999 552.267 645.53 554.491 646.084 556.84C646.618 558.758 648.691 559.959 650.695 559.653C651.143 559.633 651.366 559.623 651.804 559.388C651.918 559.382 651.974 559.38 652 559.351C652.026 559.322 652.023 559.268 652.018 559.162C652.012 559.012 652.341 559.057 652.616 559.094C652.736 559.11 652.846 559.125 652.914 559.122C653.469 558.961 654.021 558.716 654.518 558.495L654.519 558.495L654.519 558.495L654.519 558.495L654.519 558.495C654.814 558.364 655.09 558.241 655.336 558.15C655.774 557.914 656.212 557.679 656.66 557.659L656.884 557.649C659.306 556.676 661.515 555.93 664.181 555.378L664.405 555.368C665.076 555.338 665.758 555.523 666.224 555.934C666.448 555.924 666.458 556.139 666.458 556.139L668.462 555.833C672.265 565.589 678.928 574.136 687.946 580.205C690.028 581.622 691.876 582.833 694.163 583.809L693.111 585.367C693.121 585.583 693.345 585.573 693.345 585.573C693.822 586.198 693.86 587.06 693.666 587.716C692.867 589.91 691.621 592.124 690.366 594.122L690.376 594.338C690.171 594.779 689.957 595.004 689.529 595.455C689.288 595.708 689.054 596.097 688.783 596.547C688.571 596.899 688.337 597.288 688.059 597.679C687.952 597.792 687.901 597.902 687.85 598.012C687.799 598.122 687.748 598.232 687.641 598.345C687.641 598.345 687.65 598.56 687.427 598.571C686.405 600.774 687.416 603.319 689.478 604.305C689.936 604.5 690.617 604.685 691.064 604.665C692.855 604.584 694.373 603.437 695.2 601.889C695.2 601.889 695.19 601.674 695.414 601.664C695.404 601.449 695.618 601.223 695.833 600.998C695.925 600.562 696.076 600.178 696.227 599.793C696.378 599.409 696.529 599.024 696.621 598.589L697.011 597.276C697.575 594.877 698.598 592.673 699.62 590.469C700.038 589.803 700.69 589.342 701.352 589.097C701.576 589.087 701.576 589.087 701.566 588.871L702.384 587.108C708.756 589.195 715.294 589.98 722.008 589.678C726.036 589.497 730.045 588.885 734.025 587.627C735.845 587.224 737.655 586.581 739.374 585.97L739.376 585.969C739.962 585.761 740.537 585.557 741.099 585.367L742.061 586.834C742.285 586.824 742.285 586.824 742.295 587.04C742.976 587.225 743.667 587.625 744.143 588.251L744.143 588.251C745.359 590.354 746.575 592.458 747.353 594.796L747.363 595.012L747.868 596.284C748.131 597.135 748.393 597.987 748.87 598.612C748.987 598.715 749.047 598.82 749.108 598.925C749.169 599.031 749.23 599.136 749.347 599.238C749.347 599.238 749.356 599.454 749.58 599.444C750.543 600.911 752.158 601.917 753.948 601.837C754.479 601.813 754.864 601.66 755.33 601.476C755.453 601.428 755.581 601.377 755.719 601.326C756.595 600.855 757.451 599.953 757.627 598.866C757.802 597.779 757.754 596.702 757.258 595.646C757.248 595.43 757.024 595.44 757.024 595.44C757.014 595.225 756.781 595.02 756.547 594.814C756.061 593.973 755.584 593.347 754.884 592.731C754.641 592.311 754.407 592.105 753.94 591.695L753.921 591.264C752.267 589.396 751.052 587.293 750.06 585.18C749.807 584.544 749.768 583.682 750.187 583.016C750.177 582.801 750.401 582.791 750.401 582.791L749.652 581.098C760.765 573.909 769.027 563.179 772.503 550.722L774.303 550.857C774.527 550.847 774.518 550.632 774.518 550.632C774.946 550.181 775.607 549.935 776.279 549.905L776.503 549.895C778.984 550.215 781.474 550.75 783.751 551.511L783.975 551.501C784.432 551.696 784.889 551.892 785.337 551.871C785.573 551.972 785.794 552.074 786.008 552.172C786.622 552.454 787.176 552.708 787.847 552.838C787.94 552.833 788.034 552.866 788.144 552.905C788.301 552.959 788.489 553.024 788.752 553.013C788.848 553.008 788.902 553.006 788.952 553.021C789.018 553.04 789.076 553.091 789.209 553.208C789.666 553.403 789.89 553.393 790.338 553.373C792.352 553.282 794.084 551.91 794.678 550.157C794.347 547.798 792.48 546.155 790.446 545.815ZM725.473 542.048L719.556 545.119L713.388 542.591L711.541 536.417L715.56 531.057L722.274 530.755L726.758 535.732L725.473 542.048ZM762.826 539.936C763.07 535.394 762.643 530.881 761.32 526.409C759.998 521.937 758.014 517.71 755.378 513.944L739.253 529.344C738.825 529.795 738.62 530.235 738.425 530.891C738.065 532.85 739.271 534.738 741.305 535.078L762.826 539.936ZM748.305 506.278L730.517 519.594C728.989 520.526 726.741 520.412 725.555 518.954C725.088 518.544 724.844 518.123 724.815 517.477L722.494 495.786C732.389 496.42 741.301 500.119 748.305 506.278ZM711.743 496.054L707.306 497.117C699.551 499.192 692.564 503.39 686.988 509.036L706.134 520.907C706.275 520.945 706.408 520.984 706.534 521.022L706.535 521.022L706.535 521.022C707.015 521.164 707.412 521.281 707.943 521.257C709.957 521.166 711.68 519.578 711.593 517.64L711.743 496.054ZM680.857 517.296L698.056 530.765C699.681 531.987 700.002 534.13 698.727 535.698C698.308 536.364 697.87 536.6 696.985 536.855L675.549 543.862C674.471 534.847 676.292 525.486 680.857 517.296ZM700.679 549.205L678.689 553.862C682.21 562.336 688.815 569.591 696.87 574.192L704.483 553.997C704.901 553.331 704.863 552.469 704.61 551.833C704.308 550.121 702.47 549.124 700.679 549.205ZM730.689 578.282C727.586 579.069 724.472 579.641 721.115 579.792C716.416 580.003 711.454 579.363 706.92 578.273L717.023 558.612C718.084 557.27 719.855 556.759 721.46 557.55C722.151 557.95 722.618 558.361 723.318 558.977L734.903 577.23C733.57 577.506 732.237 577.781 730.689 578.282ZM744.302 571.844C749.528 568.372 754.024 563.638 757.148 558.319C758.832 555.869 760.049 553.009 761.032 549.944L738.489 547.289C737.818 547.319 737.156 547.565 736.494 547.811C734.957 548.527 734.139 550.29 734.664 551.993L744.302 571.844Z" fill="#376FE0"/>
<mask id="path-15-outside-1" maskUnits="userSpaceOnUse" x="353" y="957.569" width="723" height="124" fill="black">
<rect fill="white" x="353" y="957.569" width="723" height="124"/>
<path d="M367.861 1028.8L404.876 994.978H422.393L385.15 1029.56L427.496 1078.36H410.131L375.325 1035.95L367.861 1042.49V1078.36H354V960.925L367.861 959.405V1028.8Z"/>
<path d="M510.817 1051.3C510.817 1070.61 500.052 1080.26 478.524 1080.26C456.996 1080.26 446.232 1070.61 446.232 1051.3V994.978H460.093V1052.52C460.093 1058.45 461.566 1062.78 464.51 1065.52C467.455 1068.25 472.127 1069.62 478.524 1069.62C484.922 1069.62 489.593 1068.25 492.538 1065.52C495.483 1062.78 496.955 1058.45 496.955 1052.52V994.978H510.817V1051.3Z"/>
<path d="M552.782 1046.59C553.696 1053.69 555.828 1059.28 559.179 1063.39C562.581 1067.49 567.76 1069.55 574.716 1069.55C584.109 1069.55 590.456 1064.68 593.757 1054.95C595.432 1049.83 596.27 1044.51 596.27 1038.99C596.27 1033.42 596.092 1029.13 595.737 1026.14C594.975 1019.05 592.97 1013.45 589.72 1009.34C586.521 1005.19 581.52 1003.11 574.716 1003.11C563.343 1003.11 556.387 1008.58 553.848 1019.53C552.782 1024.09 552.249 1028.98 552.249 1034.2C552.249 1039.37 552.426 1043.5 552.782 1046.59ZM552.249 1006.46C557.885 997.132 566.313 992.47 577.534 992.47C588.806 992.47 597.057 996.524 602.287 1004.63C607.567 1012.74 610.208 1022.93 610.208 1035.19C610.208 1051.25 606.399 1063.34 598.783 1071.45C593.3 1077.32 585.836 1080.26 576.392 1080.26C570.147 1080.26 565.374 1079.12 562.073 1076.84C558.824 1074.51 555.549 1071.22 552.249 1066.96L552.096 1078.36H538.387V960.925L552.249 959.405V1006.46Z"/>
<path d="M650.192 1074.49C644.353 1070.59 640.012 1065.37 637.169 1058.83C634.376 1052.24 632.98 1044.82 632.98 1036.56C632.98 1028.3 634.275 1020.9 636.864 1014.36C639.504 1007.77 643.414 1002.48 648.593 998.475C653.823 994.421 659.56 992.394 665.805 992.394C677.585 992.394 686.217 996.423 691.7 1004.48C697.184 1012.54 699.926 1022.44 699.926 1034.2V1038.84H646.994C647.298 1047.4 649.431 1054.67 653.391 1060.65C657.402 1066.63 663.394 1069.62 671.365 1069.62C676.697 1069.12 684.135 1066.23 693.681 1060.96L698.25 1070.38C691.65 1076.97 682.637 1080.26 671.213 1080.26C663.038 1080.26 656.031 1078.34 650.192 1074.49ZM686.674 1028.73C685.658 1011.65 679.667 1003.11 668.7 1003.11C656.311 1003.11 649.228 1011.65 647.451 1028.73H686.674Z"/>
<path d="M791.853 1078.36H780.809C771.01 1078.36 764.003 1077.35 759.789 1075.32C757.352 1074.16 755.422 1072.81 754.001 1071.29C750.243 1067.39 748.288 1058.78 748.136 1045.45V970.046H723.155V959.405H761.997V1044.77C761.997 1054.85 762.911 1061.03 764.739 1063.31C766.618 1065.59 768.954 1066.91 771.746 1067.27C774.539 1067.57 777.382 1067.72 780.276 1067.72H792.538L791.853 1078.36Z"/>
<path d="M847.375 973.011V965.486C847.375 963.661 848.39 962.065 850.421 960.697C852.503 959.278 854.559 958.569 856.59 958.569C858.621 958.569 860.652 959.278 862.683 960.697C864.765 962.065 865.806 963.661 865.806 965.486V973.011C865.806 974.835 864.765 976.457 862.683 977.876C860.652 979.244 858.621 979.928 856.59 979.928C854.559 979.928 852.503 979.244 850.421 977.876C848.39 976.457 847.375 974.835 847.375 973.011ZM825.821 1005.62V994.978H863.521V1067.72H887.436V1078.36H823.155V1067.72H849.659V1005.62H825.821Z"/>
<path d="M957.047 1031.01C964.257 1032.78 969.512 1035.59 972.813 1039.45C976.164 1043.3 977.839 1048.87 977.839 1056.17C977.839 1063.41 975.047 1069.24 969.462 1073.65C963.927 1078.06 956.971 1080.26 948.593 1080.26C942.602 1080.26 936.788 1079.53 931.152 1078.06C925.516 1076.54 921.353 1074.77 918.662 1072.74L922.089 1062.78C924.222 1064.1 927.598 1065.44 932.219 1066.81C936.839 1068.13 941.84 1068.79 947.222 1068.79C952.655 1068.79 956.971 1067.67 960.17 1065.44C963.419 1063.16 965.044 1060.15 965.044 1056.4C965.044 1052.65 964.232 1049.71 962.607 1047.58C961.033 1045.4 957.961 1043.75 953.392 1042.64L939.225 1039.22C931.051 1037.19 925.618 1034.25 922.927 1030.4C920.236 1026.5 918.89 1021.66 918.89 1015.88C918.89 1010.1 921.226 1004.78 925.897 999.919C930.619 995.054 937.474 992.571 946.461 992.47H947.451C957.555 992.47 966.161 994.37 973.27 998.171L970.223 1007.9C962.81 1004.76 955.296 1003.19 947.679 1003.19C942.957 1003.24 939.073 1004.43 936.027 1006.76C933.031 1009.04 931.533 1011.93 931.533 1015.43C931.533 1018.92 932.295 1021.56 933.818 1023.33C935.341 1025.05 938.235 1026.42 942.5 1027.44L957.047 1031.01Z"/>
<path d="M1038.16 1005.62V1044.77C1038.16 1049.63 1038.41 1053.48 1038.92 1056.32C1039.48 1059.16 1040.55 1061.46 1042.12 1063.24C1043.74 1065.01 1045.83 1066.2 1048.36 1066.81C1050.9 1067.42 1054.36 1067.72 1058.72 1067.72H1074.03L1073.27 1078.36H1059.26C1044.89 1078.36 1035.32 1075.73 1030.54 1070.46C1027.45 1067.01 1025.54 1061.46 1024.83 1053.81C1024.48 1050.42 1024.3 1046.24 1024.3 1041.27V1005.62H1000.69L1002.21 994.978H1024.3V966.246L1038.16 962.141V994.978H1073.35V1005.62H1038.16Z"/>
</mask>
<path d="M367.861 1028.8L404.876 994.978H422.393L385.15 1029.56L427.496 1078.36H410.131L375.325 1035.95L367.861 1042.49V1078.36H354V960.925L367.861 959.405V1028.8Z" fill="white"/>
<path d="M510.817 1051.3C510.817 1070.61 500.052 1080.26 478.524 1080.26C456.996 1080.26 446.232 1070.61 446.232 1051.3V994.978H460.093V1052.52C460.093 1058.45 461.566 1062.78 464.51 1065.52C467.455 1068.25 472.127 1069.62 478.524 1069.62C484.922 1069.62 489.593 1068.25 492.538 1065.52C495.483 1062.78 496.955 1058.45 496.955 1052.52V994.978H510.817V1051.3Z" fill="white"/>
<path d="M552.782 1046.59C553.696 1053.69 555.828 1059.28 559.179 1063.39C562.581 1067.49 567.76 1069.55 574.716 1069.55C584.109 1069.55 590.456 1064.68 593.757 1054.95C595.432 1049.83 596.27 1044.51 596.27 1038.99C596.27 1033.42 596.092 1029.13 595.737 1026.14C594.975 1019.05 592.97 1013.45 589.72 1009.34C586.521 1005.19 581.52 1003.11 574.716 1003.11C563.343 1003.11 556.387 1008.58 553.848 1019.53C552.782 1024.09 552.249 1028.98 552.249 1034.2C552.249 1039.37 552.426 1043.5 552.782 1046.59ZM552.249 1006.46C557.885 997.132 566.313 992.47 577.534 992.47C588.806 992.47 597.057 996.524 602.287 1004.63C607.567 1012.74 610.208 1022.93 610.208 1035.19C610.208 1051.25 606.399 1063.34 598.783 1071.45C593.3 1077.32 585.836 1080.26 576.392 1080.26C570.147 1080.26 565.374 1079.12 562.073 1076.84C558.824 1074.51 555.549 1071.22 552.249 1066.96L552.096 1078.36H538.387V960.925L552.249 959.405V1006.46Z" fill="white"/>
<path d="M650.192 1074.49C644.353 1070.59 640.012 1065.37 637.169 1058.83C634.376 1052.24 632.98 1044.82 632.98 1036.56C632.98 1028.3 634.275 1020.9 636.864 1014.36C639.504 1007.77 643.414 1002.48 648.593 998.475C653.823 994.421 659.56 992.394 665.805 992.394C677.585 992.394 686.217 996.423 691.7 1004.48C697.184 1012.54 699.926 1022.44 699.926 1034.2V1038.84H646.994C647.298 1047.4 649.431 1054.67 653.391 1060.65C657.402 1066.63 663.394 1069.62 671.365 1069.62C676.697 1069.12 684.135 1066.23 693.681 1060.96L698.25 1070.38C691.65 1076.97 682.637 1080.26 671.213 1080.26C663.038 1080.26 656.031 1078.34 650.192 1074.49ZM686.674 1028.73C685.658 1011.65 679.667 1003.11 668.7 1003.11C656.311 1003.11 649.228 1011.65 647.451 1028.73H686.674Z" fill="white"/>
<path d="M791.853 1078.36H780.809C771.01 1078.36 764.003 1077.35 759.789 1075.32C757.352 1074.16 755.422 1072.81 754.001 1071.29C750.243 1067.39 748.288 1058.78 748.136 1045.45V970.046H723.155V959.405H761.997V1044.77C761.997 1054.85 762.911 1061.03 764.739 1063.31C766.618 1065.59 768.954 1066.91 771.746 1067.27C774.539 1067.57 777.382 1067.72 780.276 1067.72H792.538L791.853 1078.36Z" fill="white"/>
<path d="M847.375 973.011V965.486C847.375 963.661 848.39 962.065 850.421 960.697C852.503 959.278 854.559 958.569 856.59 958.569C858.621 958.569 860.652 959.278 862.683 960.697C864.765 962.065 865.806 963.661 865.806 965.486V973.011C865.806 974.835 864.765 976.457 862.683 977.876C860.652 979.244 858.621 979.928 856.59 979.928C854.559 979.928 852.503 979.244 850.421 977.876C848.39 976.457 847.375 974.835 847.375 973.011ZM825.821 1005.62V994.978H863.521V1067.72H887.436V1078.36H823.155V1067.72H849.659V1005.62H825.821Z" fill="white"/>
<path d="M957.047 1031.01C964.257 1032.78 969.512 1035.59 972.813 1039.45C976.164 1043.3 977.839 1048.87 977.839 1056.17C977.839 1063.41 975.047 1069.24 969.462 1073.65C963.927 1078.06 956.971 1080.26 948.593 1080.26C942.602 1080.26 936.788 1079.53 931.152 1078.06C925.516 1076.54 921.353 1074.77 918.662 1072.74L922.089 1062.78C924.222 1064.1 927.598 1065.44 932.219 1066.81C936.839 1068.13 941.84 1068.79 947.222 1068.79C952.655 1068.79 956.971 1067.67 960.17 1065.44C963.419 1063.16 965.044 1060.15 965.044 1056.4C965.044 1052.65 964.232 1049.71 962.607 1047.58C961.033 1045.4 957.961 1043.75 953.392 1042.64L939.225 1039.22C931.051 1037.19 925.618 1034.25 922.927 1030.4C920.236 1026.5 918.89 1021.66 918.89 1015.88C918.89 1010.1 921.226 1004.78 925.897 999.919C930.619 995.054 937.474 992.571 946.461 992.47H947.451C957.555 992.47 966.161 994.37 973.27 998.171L970.223 1007.9C962.81 1004.76 955.296 1003.19 947.679 1003.19C942.957 1003.24 939.073 1004.43 936.027 1006.76C933.031 1009.04 931.533 1011.93 931.533 1015.43C931.533 1018.92 932.295 1021.56 933.818 1023.33C935.341 1025.05 938.235 1026.42 942.5 1027.44L957.047 1031.01Z" fill="white"/>
<path d="M1038.16 1005.62V1044.77C1038.16 1049.63 1038.41 1053.48 1038.92 1056.32C1039.48 1059.16 1040.55 1061.46 1042.12 1063.24C1043.74 1065.01 1045.83 1066.2 1048.36 1066.81C1050.9 1067.42 1054.36 1067.72 1058.72 1067.72H1074.03L1073.27 1078.36H1059.26C1044.89 1078.36 1035.32 1075.73 1030.54 1070.46C1027.45 1067.01 1025.54 1061.46 1024.83 1053.81C1024.48 1050.42 1024.3 1046.24 1024.3 1041.27V1005.62H1000.69L1002.21 994.978H1024.3V966.246L1038.16 962.141V994.978H1073.35V1005.62H1038.16Z" fill="white"/>
<path d="M367.861 1028.8L404.876 994.978H422.393L385.15 1029.56L427.496 1078.36H410.131L375.325 1035.95L367.861 1042.49V1078.36H354V960.925L367.861 959.405V1028.8Z" stroke="white" stroke-width="2" mask="url(#path-15-outside-1)"/>
<path d="M510.817 1051.3C510.817 1070.61 500.052 1080.26 478.524 1080.26C456.996 1080.26 446.232 1070.61 446.232 1051.3V994.978H460.093V1052.52C460.093 1058.45 461.566 1062.78 464.51 1065.52C467.455 1068.25 472.127 1069.62 478.524 1069.62C484.922 1069.62 489.593 1068.25 492.538 1065.52C495.483 1062.78 496.955 1058.45 496.955 1052.52V994.978H510.817V1051.3Z" stroke="white" stroke-width="2" mask="url(#path-15-outside-1)"/>
<path d="M552.782 1046.59C553.696 1053.69 555.828 1059.28 559.179 1063.39C562.581 1067.49 567.76 1069.55 574.716 1069.55C584.109 1069.55 590.456 1064.68 593.757 1054.95C595.432 1049.83 596.27 1044.51 596.27 1038.99C596.27 1033.42 596.092 1029.13 595.737 1026.14C594.975 1019.05 592.97 1013.45 589.72 1009.34C586.521 1005.19 581.52 1003.11 574.716 1003.11C563.343 1003.11 556.387 1008.58 553.848 1019.53C552.782 1024.09 552.249 1028.98 552.249 1034.2C552.249 1039.37 552.426 1043.5 552.782 1046.59ZM552.249 1006.46C557.885 997.132 566.313 992.47 577.534 992.47C588.806 992.47 597.057 996.524 602.287 1004.63C607.567 1012.74 610.208 1022.93 610.208 1035.19C610.208 1051.25 606.399 1063.34 598.783 1071.45C593.3 1077.32 585.836 1080.26 576.392 1080.26C570.147 1080.26 565.374 1079.12 562.073 1076.84C558.824 1074.51 555.549 1071.22 552.249 1066.96L552.096 1078.36H538.387V960.925L552.249 959.405V1006.46Z" stroke="white" stroke-width="2" mask="url(#path-15-outside-1)"/>
<path d="M650.192 1074.49C644.353 1070.59 640.012 1065.37 637.169 1058.83C634.376 1052.24 632.98 1044.82 632.98 1036.56C632.98 1028.3 634.275 1020.9 636.864 1014.36C639.504 1007.77 643.414 1002.48 648.593 998.475C653.823 994.421 659.56 992.394 665.805 992.394C677.585 992.394 686.217 996.423 691.7 1004.48C697.184 1012.54 699.926 1022.44 699.926 1034.2V1038.84H646.994C647.298 1047.4 649.431 1054.67 653.391 1060.65C657.402 1066.63 663.394 1069.62 671.365 1069.62C676.697 1069.12 684.135 1066.23 693.681 1060.96L698.25 1070.38C691.65 1076.97 682.637 1080.26 671.213 1080.26C663.038 1080.26 656.031 1078.34 650.192 1074.49ZM686.674 1028.73C685.658 1011.65 679.667 1003.11 668.7 1003.11C656.311 1003.11 649.228 1011.65 647.451 1028.73H686.674Z" stroke="white" stroke-width="2" mask="url(#path-15-outside-1)"/>
<path d="M791.853 1078.36H780.809C771.01 1078.36 764.003 1077.35 759.789 1075.32C757.352 1074.16 755.422 1072.81 754.001 1071.29C750.243 1067.39 748.288 1058.78 748.136 1045.45V970.046H723.155V959.405H761.997V1044.77C761.997 1054.85 762.911 1061.03 764.739 1063.31C766.618 1065.59 768.954 1066.91 771.746 1067.27C774.539 1067.57 777.382 1067.72 780.276 1067.72H792.538L791.853 1078.36Z" stroke="white" stroke-width="2" mask="url(#path-15-outside-1)"/>
<path d="M847.375 973.011V965.486C847.375 963.661 848.39 962.065 850.421 960.697C852.503 959.278 854.559 958.569 856.59 958.569C858.621 958.569 860.652 959.278 862.683 960.697C864.765 962.065 865.806 963.661 865.806 965.486V973.011C865.806 974.835 864.765 976.457 862.683 977.876C860.652 979.244 858.621 979.928 856.59 979.928C854.559 979.928 852.503 979.244 850.421 977.876C848.39 976.457 847.375 974.835 847.375 973.011ZM825.821 1005.62V994.978H863.521V1067.72H887.436V1078.36H823.155V1067.72H849.659V1005.62H825.821Z" stroke="white" stroke-width="2" mask="url(#path-15-outside-1)"/>
<path d="M957.047 1031.01C964.257 1032.78 969.512 1035.59 972.813 1039.45C976.164 1043.3 977.839 1048.87 977.839 1056.17C977.839 1063.41 975.047 1069.24 969.462 1073.65C963.927 1078.06 956.971 1080.26 948.593 1080.26C942.602 1080.26 936.788 1079.53 931.152 1078.06C925.516 1076.54 921.353 1074.77 918.662 1072.74L922.089 1062.78C924.222 1064.1 927.598 1065.44 932.219 1066.81C936.839 1068.13 941.84 1068.79 947.222 1068.79C952.655 1068.79 956.971 1067.67 960.17 1065.44C963.419 1063.16 965.044 1060.15 965.044 1056.4C965.044 1052.65 964.232 1049.71 962.607 1047.58C961.033 1045.4 957.961 1043.75 953.392 1042.64L939.225 1039.22C931.051 1037.19 925.618 1034.25 922.927 1030.4C920.236 1026.5 918.89 1021.66 918.89 1015.88C918.89 1010.1 921.226 1004.78 925.897 999.919C930.619 995.054 937.474 992.571 946.461 992.47H947.451C957.555 992.47 966.161 994.37 973.27 998.171L970.223 1007.9C962.81 1004.76 955.296 1003.19 947.679 1003.19C942.957 1003.24 939.073 1004.43 936.027 1006.76C933.031 1009.04 931.533 1011.93 931.533 1015.43C931.533 1018.92 932.295 1021.56 933.818 1023.33C935.341 1025.05 938.235 1026.42 942.5 1027.44L957.047 1031.01Z" stroke="white" stroke-width="2" mask="url(#path-15-outside-1)"/>
<path d="M1038.16 1005.62V1044.77C1038.16 1049.63 1038.41 1053.48 1038.92 1056.32C1039.48 1059.16 1040.55 1061.46 1042.12 1063.24C1043.74 1065.01 1045.83 1066.2 1048.36 1066.81C1050.9 1067.42 1054.36 1067.72 1058.72 1067.72H1074.03L1073.27 1078.36H1059.26C1044.89 1078.36 1035.32 1075.73 1030.54 1070.46C1027.45 1067.01 1025.54 1061.46 1024.83 1053.81C1024.48 1050.42 1024.3 1046.24 1024.3 1041.27V1005.62H1000.69L1002.21 994.978H1024.3V966.246L1038.16 962.141V994.978H1073.35V1005.62H1038.16Z" stroke="white" stroke-width="2" mask="url(#path-15-outside-1)"/>
<path d="M406.462 908.28V892.836H420.323H420.573V892.586V888.319V888.069H420.323H406.462V875.155V874.82L406.141 874.915L400.582 876.561L400.403 876.614V876.801V888.069H391.795H391.579L391.548 888.284L390.937 892.55L390.896 892.836H391.185H400.403V906.878C400.403 908.873 400.474 910.558 400.618 911.931C400.905 915.019 401.677 917.307 402.972 918.747L402.972 918.747C404.964 920.946 408.902 921.999 414.672 921.999H420.292H420.525L420.541 921.767L420.847 917.5L420.866 917.233H420.598H414.458C412.716 917.233 411.353 917.111 410.363 916.874C409.39 916.641 408.601 916.188 407.986 915.517C407.391 914.847 406.98 913.967 406.763 912.865C406.563 911.749 406.462 910.222 406.462 908.28ZM457.86 921.999H458.11V921.749V901.575C458.11 896.799 457.25 893.172 455.49 890.733C453.719 888.279 451.063 887.064 447.567 887.064C443.36 887.064 439.944 888.599 437.341 891.667V874.058V873.779L437.064 873.809L431.505 874.419L431.282 874.443V874.667V921.749V921.999H431.532H437.091H437.341V921.749V899.016C437.341 897.294 438.133 895.67 439.766 894.14L439.766 894.139C441.411 892.598 443.335 891.83 445.551 891.83C447.752 891.83 449.36 892.549 450.422 893.955L450.423 893.957C450.95 894.645 451.36 895.675 451.636 897.068C451.912 898.459 452.051 900.194 452.051 902.276V921.749V921.999H452.301H457.86ZM475.894 920.403L475.896 920.403C478.285 921.979 481.144 922.761 484.463 922.761C489.095 922.761 492.778 921.424 495.483 918.726L495.609 918.6L495.531 918.44L493.698 914.661L493.583 914.424L493.353 914.552C489.537 916.657 486.596 917.793 484.512 917.994C481.395 917.991 479.079 916.826 477.524 914.51C476.006 912.218 475.165 909.436 475.011 906.153H495.978H496.228V905.903V904.044C496.228 899.291 495.119 895.268 492.886 891.988C490.63 888.675 487.082 887.033 482.295 887.033C479.731 887.033 477.377 887.867 475.239 889.523C473.124 891.158 471.53 893.318 470.456 895.997L470.456 895.998C469.404 898.653 468.881 901.651 468.881 904.988C468.881 908.328 469.445 911.339 470.58 914.015L470.581 914.017C471.74 916.681 473.512 918.811 475.894 920.403ZM483.455 891.83C485.578 891.83 487.2 892.65 488.351 894.291C489.484 895.904 490.175 898.33 490.397 901.6H475.212C475.584 898.34 476.453 895.92 477.791 894.307C479.158 892.66 481.036 891.83 483.455 891.83Z" fill="#6FA9F0" stroke="#6FA9F0" stroke-width="0.5"/>
<mask id="path-17-outside-2" maskUnits="userSpaceOnUse" x="753.017" y="1124.34" width="262" height="65" fill="black">
<rect fill="white" x="753.017" y="1124.34" width="262" height="65"/>
<path d="M759.679 1157.11C759.679 1166.33 762.909 1170.95 769.368 1170.95C775.176 1170.95 778.081 1166.33 778.081 1157.11C778.081 1151.99 777.294 1148.44 775.722 1146.44C774.17 1144.43 772.02 1143.42 769.273 1143.42C763.905 1143.42 760.801 1146.53 759.963 1152.73C759.774 1154.04 759.679 1155.49 759.679 1157.11ZM769.588 1175.35C767.365 1175.35 765.394 1174.84 763.674 1173.81C761.955 1172.78 760.644 1171.46 759.742 1169.85V1187.81L754.017 1188.44V1140.06H759.742V1144.81C760.749 1143.09 762.091 1141.69 763.769 1140.62C765.446 1139.55 767.344 1139.02 769.462 1139.02C775.145 1139.02 779.182 1141.37 781.572 1146.07C783.082 1149.04 783.837 1152.59 783.837 1156.7C783.837 1163.26 782.254 1168.25 779.087 1171.67C776.823 1174.13 773.656 1175.35 769.588 1175.35Z"/>
<path d="M806.957 1170.95C810.962 1170.95 813.688 1168.96 815.135 1164.97C815.911 1162.83 816.299 1160.64 816.299 1158.4C816.299 1156.13 816.215 1154.37 816.047 1153.11C815.67 1150.26 814.758 1147.93 813.311 1146.13C811.885 1144.33 809.767 1143.42 806.957 1143.42C803.056 1143.42 800.393 1145.46 798.967 1149.53C798.212 1151.71 797.835 1153.99 797.835 1156.38C797.835 1160.62 798.495 1164.11 799.816 1166.86C801.138 1169.59 803.518 1170.95 806.957 1170.95ZM818.281 1144.05C820.776 1147.41 822.024 1151.79 822.024 1157.2C822.024 1162.61 820.671 1167 817.966 1170.35C815.261 1173.68 811.591 1175.35 806.957 1175.35C804.482 1175.35 802.28 1174.88 800.351 1173.94C798.422 1172.99 796.86 1171.69 795.664 1170.04C793.253 1166.7 792.047 1162.36 792.047 1157.01C792.047 1151.67 793.379 1147.33 796.042 1144.02C798.705 1140.69 802.448 1139.02 807.271 1139.02C812.115 1139.02 815.785 1140.7 818.281 1144.05Z"/>
<path d="M854.014 1157.11C854.014 1151.74 853.217 1148.12 851.623 1146.25C850.03 1144.37 847.765 1143.42 844.829 1143.42C840.761 1143.42 838.129 1145.44 836.934 1149.46C836.284 1151.67 835.959 1154.32 835.959 1157.42C835.959 1166.44 838.915 1170.95 844.829 1170.95C850.952 1170.95 854.014 1166.33 854.014 1157.11ZM854.014 1144.81V1125.97L859.739 1125.34V1174.57H854.014V1169.22C851.686 1173.31 848.394 1175.35 844.137 1175.35C839.272 1175.35 835.728 1173.61 833.505 1170.13C831.303 1166.65 830.202 1162.28 830.202 1157.01C830.202 1150.68 831.817 1145.86 835.046 1142.54C837.311 1140.19 840.352 1139.02 844.169 1139.02C846.769 1139.02 848.876 1139.55 850.491 1140.62C852.127 1141.69 853.301 1143.09 854.014 1144.81Z"/>
<path d="M896.605 1172.3C894.403 1174.33 891.268 1175.35 887.199 1175.35C884.599 1175.35 882.229 1174.86 880.091 1173.87C877.952 1172.87 876.201 1171.52 874.837 1169.85C871.965 1166.32 870.528 1162.08 870.528 1157.11C870.528 1153.9 871.178 1150.93 872.478 1148.21C873.799 1145.48 875.739 1143.27 878.298 1141.57C880.856 1139.87 884.012 1139.02 887.766 1139.02C891.519 1139.02 894.434 1140.02 896.51 1142.01L895.063 1145.85C892.652 1144.23 889.926 1143.42 886.885 1143.42C883.844 1143.42 881.317 1144.72 879.304 1147.32C877.312 1149.92 876.316 1153.24 876.316 1157.26C876.316 1161.27 877.312 1164.55 879.304 1167.11C881.317 1169.67 883.876 1170.95 886.979 1170.95C890.104 1170.95 892.851 1170.11 895.221 1168.43L896.605 1172.3Z"/>
<path d="M930.482 1166.86V1158.05L925.795 1158.71C922.524 1159.17 920.259 1159.63 919.001 1160.1C916.191 1161.17 914.786 1162.96 914.786 1165.47C914.786 1167.22 915.289 1168.6 916.296 1169.63C917.302 1170.65 918.686 1171.17 920.448 1171.17C924.327 1171.17 927.672 1169.73 930.482 1166.86ZM930.482 1150.78C930.482 1145.86 928.395 1143.39 924.222 1143.39C922.251 1143.39 920.07 1143.62 917.68 1144.08C915.31 1144.55 913.643 1144.99 912.678 1145.41L911.326 1141.19C915.667 1139.74 919.745 1139.02 923.562 1139.02C927.378 1139.02 930.44 1139.89 932.747 1141.63C935.054 1143.37 936.207 1146.06 936.207 1149.68V1174.57H931.457L930.702 1170.57C929.36 1171.93 927.63 1173.08 925.512 1174C923.415 1174.9 921.36 1175.35 919.347 1175.35C916.432 1175.35 914.01 1174.48 912.081 1172.74C910.151 1170.98 909.187 1168.51 909.187 1165.32C909.187 1162.11 910.445 1159.76 912.961 1158.27C914.66 1157.22 916.463 1156.51 918.372 1156.13C920.301 1155.73 922.807 1155.35 925.89 1154.97L930.482 1154.43V1150.78Z"/>
<path d="M965.995 1154.97C968.973 1155.7 971.143 1156.87 972.506 1158.46C973.89 1160.05 974.582 1162.36 974.582 1165.38C974.582 1168.38 973.429 1170.79 971.122 1172.62C968.837 1174.44 965.964 1175.35 962.504 1175.35C960.029 1175.35 957.628 1175.05 955.3 1174.44C952.973 1173.81 951.253 1173.08 950.142 1172.24L951.557 1168.12C952.438 1168.66 953.832 1169.22 955.741 1169.78C957.649 1170.33 959.715 1170.6 961.937 1170.6C964.181 1170.6 965.964 1170.14 967.285 1169.22C968.627 1168.27 969.298 1167.03 969.298 1165.47C969.298 1163.92 968.962 1162.71 968.291 1161.83C967.641 1160.92 966.373 1160.24 964.485 1159.78L958.635 1158.37C955.258 1157.53 953.015 1156.31 951.903 1154.72C950.792 1153.1 950.236 1151.1 950.236 1148.71C950.236 1146.32 951.201 1144.12 953.13 1142.1C955.08 1140.09 957.911 1139.06 961.623 1139.02H962.032C966.205 1139.02 969.759 1139.81 972.695 1141.38L971.437 1145.41C968.375 1144.11 965.272 1143.46 962.126 1143.46C960.176 1143.48 958.572 1143.97 957.313 1144.93C956.076 1145.88 955.458 1147.07 955.458 1148.52C955.458 1149.97 955.772 1151.06 956.401 1151.79C957.03 1152.5 958.226 1153.07 959.987 1153.49L965.995 1154.97Z"/>
<path d="M999.495 1144.46V1160.66C999.495 1162.68 999.6 1164.27 999.81 1165.44C1000.04 1166.62 1000.48 1167.57 1001.13 1168.31C1001.8 1169.04 1002.66 1169.53 1003.71 1169.78C1004.76 1170.04 1006.18 1170.16 1007.99 1170.16H1014.31L1014 1174.57H1008.21C1002.27 1174.57 998.321 1173.48 996.35 1171.29C995.07 1169.87 994.284 1167.57 993.99 1164.41C993.844 1163 993.77 1161.27 993.77 1159.21V1144.46H984.019L984.648 1140.06H993.77V1128.17L999.495 1126.47V1140.06H1014.03V1144.46H999.495Z"/>
</mask>
<path d="M759.679 1157.11C759.679 1166.33 762.909 1170.95 769.368 1170.95C775.176 1170.95 778.081 1166.33 778.081 1157.11C778.081 1151.99 777.294 1148.44 775.722 1146.44C774.17 1144.43 772.02 1143.42 769.273 1143.42C763.905 1143.42 760.801 1146.53 759.963 1152.73C759.774 1154.04 759.679 1155.49 759.679 1157.11ZM769.588 1175.35C767.365 1175.35 765.394 1174.84 763.674 1173.81C761.955 1172.78 760.644 1171.46 759.742 1169.85V1187.81L754.017 1188.44V1140.06H759.742V1144.81C760.749 1143.09 762.091 1141.69 763.769 1140.62C765.446 1139.55 767.344 1139.02 769.462 1139.02C775.145 1139.02 779.182 1141.37 781.572 1146.07C783.082 1149.04 783.837 1152.59 783.837 1156.7C783.837 1163.26 782.254 1168.25 779.087 1171.67C776.823 1174.13 773.656 1175.35 769.588 1175.35Z" fill="#6FA9F0"/>
<path d="M806.957 1170.95C810.962 1170.95 813.688 1168.96 815.135 1164.97C815.911 1162.83 816.299 1160.64 816.299 1158.4C816.299 1156.13 816.215 1154.37 816.047 1153.11C815.67 1150.26 814.758 1147.93 813.311 1146.13C811.885 1144.33 809.767 1143.42 806.957 1143.42C803.056 1143.42 800.393 1145.46 798.967 1149.53C798.212 1151.71 797.835 1153.99 797.835 1156.38C797.835 1160.62 798.495 1164.11 799.816 1166.86C801.138 1169.59 803.518 1170.95 806.957 1170.95ZM818.281 1144.05C820.776 1147.41 822.024 1151.79 822.024 1157.2C822.024 1162.61 820.671 1167 817.966 1170.35C815.261 1173.68 811.591 1175.35 806.957 1175.35C804.482 1175.35 802.28 1174.88 800.351 1173.94C798.422 1172.99 796.86 1171.69 795.664 1170.04C793.253 1166.7 792.047 1162.36 792.047 1157.01C792.047 1151.67 793.379 1147.33 796.042 1144.02C798.705 1140.69 802.448 1139.02 807.271 1139.02C812.115 1139.02 815.785 1140.7 818.281 1144.05Z" fill="#6FA9F0"/>
<path d="M854.014 1157.11C854.014 1151.74 853.217 1148.12 851.623 1146.25C850.03 1144.37 847.765 1143.42 844.829 1143.42C840.761 1143.42 838.129 1145.44 836.934 1149.46C836.284 1151.67 835.959 1154.32 835.959 1157.42C835.959 1166.44 838.915 1170.95 844.829 1170.95C850.952 1170.95 854.014 1166.33 854.014 1157.11ZM854.014 1144.81V1125.97L859.739 1125.34V1174.57H854.014V1169.22C851.686 1173.31 848.394 1175.35 844.137 1175.35C839.272 1175.35 835.728 1173.61 833.505 1170.13C831.303 1166.65 830.202 1162.28 830.202 1157.01C830.202 1150.68 831.817 1145.86 835.046 1142.54C837.311 1140.19 840.352 1139.02 844.169 1139.02C846.769 1139.02 848.876 1139.55 850.491 1140.62C852.127 1141.69 853.301 1143.09 854.014 1144.81Z" fill="#6FA9F0"/>
<path d="M896.605 1172.3C894.403 1174.33 891.268 1175.35 887.199 1175.35C884.599 1175.35 882.229 1174.86 880.091 1173.87C877.952 1172.87 876.201 1171.52 874.837 1169.85C871.965 1166.32 870.528 1162.08 870.528 1157.11C870.528 1153.9 871.178 1150.93 872.478 1148.21C873.799 1145.48 875.739 1143.27 878.298 1141.57C880.856 1139.87 884.012 1139.02 887.766 1139.02C891.519 1139.02 894.434 1140.02 896.51 1142.01L895.063 1145.85C892.652 1144.23 889.926 1143.42 886.885 1143.42C883.844 1143.42 881.317 1144.72 879.304 1147.32C877.312 1149.92 876.316 1153.24 876.316 1157.26C876.316 1161.27 877.312 1164.55 879.304 1167.11C881.317 1169.67 883.876 1170.95 886.979 1170.95C890.104 1170.95 892.851 1170.11 895.221 1168.43L896.605 1172.3Z" fill="#6FA9F0"/>
<path d="M930.482 1166.86V1158.05L925.795 1158.71C922.524 1159.17 920.259 1159.63 919.001 1160.1C916.191 1161.17 914.786 1162.96 914.786 1165.47C914.786 1167.22 915.289 1168.6 916.296 1169.63C917.302 1170.65 918.686 1171.17 920.448 1171.17C924.327 1171.17 927.672 1169.73 930.482 1166.86ZM930.482 1150.78C930.482 1145.86 928.395 1143.39 924.222 1143.39C922.251 1143.39 920.07 1143.62 917.68 1144.08C915.31 1144.55 913.643 1144.99 912.678 1145.41L911.326 1141.19C915.667 1139.74 919.745 1139.02 923.562 1139.02C927.378 1139.02 930.44 1139.89 932.747 1141.63C935.054 1143.37 936.207 1146.06 936.207 1149.68V1174.57H931.457L930.702 1170.57C929.36 1171.93 927.63 1173.08 925.512 1174C923.415 1174.9 921.36 1175.35 919.347 1175.35C916.432 1175.35 914.01 1174.48 912.081 1172.74C910.151 1170.98 909.187 1168.51 909.187 1165.32C909.187 1162.11 910.445 1159.76 912.961 1158.27C914.66 1157.22 916.463 1156.51 918.372 1156.13C920.301 1155.73 922.807 1155.35 925.89 1154.97L930.482 1154.43V1150.78Z" fill="#6FA9F0"/>
<path d="M965.995 1154.97C968.973 1155.7 971.143 1156.87 972.506 1158.46C973.89 1160.05 974.582 1162.36 974.582 1165.38C974.582 1168.38 973.429 1170.79 971.122 1172.62C968.837 1174.44 965.964 1175.35 962.504 1175.35C960.029 1175.35 957.628 1175.05 955.3 1174.44C952.973 1173.81 951.253 1173.08 950.142 1172.24L951.557 1168.12C952.438 1168.66 953.832 1169.22 955.741 1169.78C957.649 1170.33 959.715 1170.6 961.937 1170.6C964.181 1170.6 965.964 1170.14 967.285 1169.22C968.627 1168.27 969.298 1167.03 969.298 1165.47C969.298 1163.92 968.962 1162.71 968.291 1161.83C967.641 1160.92 966.373 1160.24 964.485 1159.78L958.635 1158.37C955.258 1157.53 953.015 1156.31 951.903 1154.72C950.792 1153.1 950.236 1151.1 950.236 1148.71C950.236 1146.32 951.201 1144.12 953.13 1142.1C955.08 1140.09 957.911 1139.06 961.623 1139.02H962.032C966.205 1139.02 969.759 1139.81 972.695 1141.38L971.437 1145.41C968.375 1144.11 965.272 1143.46 962.126 1143.46C960.176 1143.48 958.572 1143.97 957.313 1144.93C956.076 1145.88 955.458 1147.07 955.458 1148.52C955.458 1149.97 955.772 1151.06 956.401 1151.79C957.03 1152.5 958.226 1153.07 959.987 1153.49L965.995 1154.97Z" fill="#6FA9F0"/>
<path d="M999.495 1144.46V1160.66C999.495 1162.68 999.6 1164.27 999.81 1165.44C1000.04 1166.62 1000.48 1167.57 1001.13 1168.31C1001.8 1169.04 1002.66 1169.53 1003.71 1169.78C1004.76 1170.04 1006.18 1170.16 1007.99 1170.16H1014.31L1014 1174.57H1008.21C1002.27 1174.57 998.321 1173.48 996.35 1171.29C995.07 1169.87 994.284 1167.57 993.99 1164.41C993.844 1163 993.77 1161.27 993.77 1159.21V1144.46H984.019L984.648 1140.06H993.77V1128.17L999.495 1126.47V1140.06H1014.03V1144.46H999.495Z" fill="#6FA9F0"/>
<path d="M759.679 1157.11C759.679 1166.33 762.909 1170.95 769.368 1170.95C775.176 1170.95 778.081 1166.33 778.081 1157.11C778.081 1151.99 777.294 1148.44 775.722 1146.44C774.17 1144.43 772.02 1143.42 769.273 1143.42C763.905 1143.42 760.801 1146.53 759.963 1152.73C759.774 1154.04 759.679 1155.49 759.679 1157.11ZM769.588 1175.35C767.365 1175.35 765.394 1174.84 763.674 1173.81C761.955 1172.78 760.644 1171.46 759.742 1169.85V1187.81L754.017 1188.44V1140.06H759.742V1144.81C760.749 1143.09 762.091 1141.69 763.769 1140.62C765.446 1139.55 767.344 1139.02 769.462 1139.02C775.145 1139.02 779.182 1141.37 781.572 1146.07C783.082 1149.04 783.837 1152.59 783.837 1156.7C783.837 1163.26 782.254 1168.25 779.087 1171.67C776.823 1174.13 773.656 1175.35 769.588 1175.35Z" stroke="#6FA9F0" mask="url(#path-17-outside-2)"/>
<path d="M806.957 1170.95C810.962 1170.95 813.688 1168.96 815.135 1164.97C815.911 1162.83 816.299 1160.64 816.299 1158.4C816.299 1156.13 816.215 1154.37 816.047 1153.11C815.67 1150.26 814.758 1147.93 813.311 1146.13C811.885 1144.33 809.767 1143.42 806.957 1143.42C803.056 1143.42 800.393 1145.46 798.967 1149.53C798.212 1151.71 797.835 1153.99 797.835 1156.38C797.835 1160.62 798.495 1164.11 799.816 1166.86C801.138 1169.59 803.518 1170.95 806.957 1170.95ZM818.281 1144.05C820.776 1147.41 822.024 1151.79 822.024 1157.2C822.024 1162.61 820.671 1167 817.966 1170.35C815.261 1173.68 811.591 1175.35 806.957 1175.35C804.482 1175.35 802.28 1174.88 800.351 1173.94C798.422 1172.99 796.86 1171.69 795.664 1170.04C793.253 1166.7 792.047 1162.36 792.047 1157.01C792.047 1151.67 793.379 1147.33 796.042 1144.02C798.705 1140.69 802.448 1139.02 807.271 1139.02C812.115 1139.02 815.785 1140.7 818.281 1144.05Z" stroke="#6FA9F0" mask="url(#path-17-outside-2)"/>
<path d="M854.014 1157.11C854.014 1151.74 853.217 1148.12 851.623 1146.25C850.03 1144.37 847.765 1143.42 844.829 1143.42C840.761 1143.42 838.129 1145.44 836.934 1149.46C836.284 1151.67 835.959 1154.32 835.959 1157.42C835.959 1166.44 838.915 1170.95 844.829 1170.95C850.952 1170.95 854.014 1166.33 854.014 1157.11ZM854.014 1144.81V1125.97L859.739 1125.34V1174.57H854.014V1169.22C851.686 1173.31 848.394 1175.35 844.137 1175.35C839.272 1175.35 835.728 1173.61 833.505 1170.13C831.303 1166.65 830.202 1162.28 830.202 1157.01C830.202 1150.68 831.817 1145.86 835.046 1142.54C837.311 1140.19 840.352 1139.02 844.169 1139.02C846.769 1139.02 848.876 1139.55 850.491 1140.62C852.127 1141.69 853.301 1143.09 854.014 1144.81Z" stroke="#6FA9F0" mask="url(#path-17-outside-2)"/>
<path d="M896.605 1172.3C894.403 1174.33 891.268 1175.35 887.199 1175.35C884.599 1175.35 882.229 1174.86 880.091 1173.87C877.952 1172.87 876.201 1171.52 874.837 1169.85C871.965 1166.32 870.528 1162.08 870.528 1157.11C870.528 1153.9 871.178 1150.93 872.478 1148.21C873.799 1145.48 875.739 1143.27 878.298 1141.57C880.856 1139.87 884.012 1139.02 887.766 1139.02C891.519 1139.02 894.434 1140.02 896.51 1142.01L895.063 1145.85C892.652 1144.23 889.926 1143.42 886.885 1143.42C883.844 1143.42 881.317 1144.72 879.304 1147.32C877.312 1149.92 876.316 1153.24 876.316 1157.26C876.316 1161.27 877.312 1164.55 879.304 1167.11C881.317 1169.67 883.876 1170.95 886.979 1170.95C890.104 1170.95 892.851 1170.11 895.221 1168.43L896.605 1172.3Z" stroke="#6FA9F0" mask="url(#path-17-outside-2)"/>
<path d="M930.482 1166.86V1158.05L925.795 1158.71C922.524 1159.17 920.259 1159.63 919.001 1160.1C916.191 1161.17 914.786 1162.96 914.786 1165.47C914.786 1167.22 915.289 1168.6 916.296 1169.63C917.302 1170.65 918.686 1171.17 920.448 1171.17C924.327 1171.17 927.672 1169.73 930.482 1166.86ZM930.482 1150.78C930.482 1145.86 928.395 1143.39 924.222 1143.39C922.251 1143.39 920.07 1143.62 917.68 1144.08C915.31 1144.55 913.643 1144.99 912.678 1145.41L911.326 1141.19C915.667 1139.74 919.745 1139.02 923.562 1139.02C927.378 1139.02 930.44 1139.89 932.747 1141.63C935.054 1143.37 936.207 1146.06 936.207 1149.68V1174.57H931.457L930.702 1170.57C929.36 1171.93 927.63 1173.08 925.512 1174C923.415 1174.9 921.36 1175.35 919.347 1175.35C916.432 1175.35 914.01 1174.48 912.081 1172.74C910.151 1170.98 909.187 1168.51 909.187 1165.32C909.187 1162.11 910.445 1159.76 912.961 1158.27C914.66 1157.22 916.463 1156.51 918.372 1156.13C920.301 1155.73 922.807 1155.35 925.89 1154.97L930.482 1154.43V1150.78Z" stroke="#6FA9F0" mask="url(#path-17-outside-2)"/>
<path d="M965.995 1154.97C968.973 1155.7 971.143 1156.87 972.506 1158.46C973.89 1160.05 974.582 1162.36 974.582 1165.38C974.582 1168.38 973.429 1170.79 971.122 1172.62C968.837 1174.44 965.964 1175.35 962.504 1175.35C960.029 1175.35 957.628 1175.05 955.3 1174.44C952.973 1173.81 951.253 1173.08 950.142 1172.24L951.557 1168.12C952.438 1168.66 953.832 1169.22 955.741 1169.78C957.649 1170.33 959.715 1170.6 961.937 1170.6C964.181 1170.6 965.964 1170.14 967.285 1169.22C968.627 1168.27 969.298 1167.03 969.298 1165.47C969.298 1163.92 968.962 1162.71 968.291 1161.83C967.641 1160.92 966.373 1160.24 964.485 1159.78L958.635 1158.37C955.258 1157.53 953.015 1156.31 951.903 1154.72C950.792 1153.1 950.236 1151.1 950.236 1148.71C950.236 1146.32 951.201 1144.12 953.13 1142.1C955.08 1140.09 957.911 1139.06 961.623 1139.02H962.032C966.205 1139.02 969.759 1139.81 972.695 1141.38L971.437 1145.41C968.375 1144.11 965.272 1143.46 962.126 1143.46C960.176 1143.48 958.572 1143.97 957.313 1144.93C956.076 1145.88 955.458 1147.07 955.458 1148.52C955.458 1149.97 955.772 1151.06 956.401 1151.79C957.03 1152.5 958.226 1153.07 959.987 1153.49L965.995 1154.97Z" stroke="#6FA9F0" mask="url(#path-17-outside-2)"/>
<path d="M999.495 1144.46V1160.66C999.495 1162.68 999.6 1164.27 999.81 1165.44C1000.04 1166.62 1000.48 1167.57 1001.13 1168.31C1001.8 1169.04 1002.66 1169.53 1003.71 1169.78C1004.76 1170.04 1006.18 1170.16 1007.99 1170.16H1014.31L1014 1174.57H1008.21C1002.27 1174.57 998.321 1173.48 996.35 1171.29C995.07 1169.87 994.284 1167.57 993.99 1164.41C993.844 1163 993.77 1161.27 993.77 1159.21V1144.46H984.019L984.648 1140.06H993.77V1128.17L999.495 1126.47V1140.06H1014.03V1144.46H999.495Z" stroke="#6FA9F0" mask="url(#path-17-outside-2)"/>
<path d="M1167.39 844.313L1103.47 844.642C1089.75 844.712 1078.68 855.897 1078.75 869.624L1078.9 899.483C1078.96 911.203 1087.12 920.986 1098.05 923.553C1101.44 924.348 1103.88 927.291 1103.9 930.768L1103.91 932.894L1104.34 933.357L1106.68 930.108C1108.88 927.047 1112.41 925.225 1116.18 925.206L1119.75 925.187C1123.89 925.166 1128.05 924.955 1132.12 924.188C1132.56 924.105 1133.01 924.061 1133.47 924.058L1167.8 923.882C1175.1 923.844 1180.98 917.902 1180.94 910.609L1180.67 857.45C1180.63 850.158 1174.69 844.276 1167.39 844.313Z" fill="white"/>
<path d="M1103.94 932.845L1104.12 952.682C1104.14 954.879 1106.94 955.785 1108.21 954.004L1127.31 927.184C1128.71 925.227 1130.95 924.065 1133.35 924.058L1116.13 924.108C1112.37 924.119 1108.86 925.936 1106.68 928.999L1103.94 932.845Z" fill="white"/>
<path d="M1173.09 844.226L1165.35 844.249C1172.58 844.228 1178.49 850.128 1178.56 857.428L1179.03 910.636C1179.1 917.936 1173.29 923.871 1166.06 923.892L1173.8 923.869C1187.4 923.83 1198.33 912.66 1198.2 898.92L1197.94 869.033C1197.82 855.294 1186.69 844.187 1173.09 844.226V844.226Z" fill="white"/>
<path d="M1176.57 872.36L1104.92 872.557C1102.94 872.562 1101.3 870.918 1101.26 868.884C1101.22 866.851 1102.8 865.198 1104.78 865.192L1176.43 864.996C1178.41 864.991 1180.04 866.635 1180.08 868.668C1180.12 870.702 1178.55 872.355 1176.57 872.36V872.36Z" fill="#6FA9F0"/>
<path d="M1176.71 899.516L1105.06 899.712C1103.08 899.718 1101.44 898.073 1101.4 896.04C1101.37 894.006 1102.94 892.353 1104.92 892.348L1176.57 892.151C1178.55 892.146 1180.19 893.79 1180.22 895.824C1180.26 897.857 1178.69 899.51 1176.71 899.516V899.516Z" fill="#6FA9F0"/>
</g>
<defs>
<linearGradient id="paint0_linear" x1="576" y1="41.5" x2="720" y2="1469" gradientUnits="userSpaceOnUse">
<stop offset="0.0509919" stop-color="#5A9DEE"/>
<stop offset="0.910337" stop-color="#1146AF"/>
</linearGradient>
<linearGradient id="paint1_linear" x1="663.963" y1="286.727" x2="709.072" y2="242.015" gradientUnits="userSpaceOnUse">
<stop stop-color="#3250C3"/>
<stop offset="1" stop-color="#1E4BAC"/>
</linearGradient>
<linearGradient id="paint2_linear" x1="530.981" y1="783.625" x2="930.232" y2="762.924" gradientUnits="userSpaceOnUse">
<stop stop-color="#3250C3"/>
<stop offset="1" stop-color="#1E4BAC"/>
</linearGradient>
<clipPath id="clip0">
<rect width="1440" height="1440" fill="white"/>
</clipPath>
</defs>
</svg>
